<?xml version="1.0"?>
<Project_Data Version="8.00">
<Project_Settings>
<ProfileName>MP4 only (up to 1080p)</ProfileName>
<ProjectWidth>1280</ProjectWidth>
<ProjectHeight>720</ProjectHeight>
<IsCustomProject>1</IsCustomProject>
<SavedProjectSettings>1</SavedProjectSettings>
<LastFlashTemplate>-1</LastFlashTemplate>
</Project_Settings>


<AutoSaveFile>C:\Users\Vaibhav\AppData\Local\TechSmith\Camtasia Studio\8.0\Auto-Saves\Master3a4b0dc.autosave.camproj</AutoSaveFile>

<ProjectID>E31E7F14-B1C2-4518-8AA8-7B697926CCD6</ProjectID>

<PowerPointProject>0</PowerPointProject>

<PowerPointFilename></PowerPointFilename>


<Project_Notes>
</Project_Notes>

<Project_MetaData>
<Project_MetaData_Object>
<FieldArrayKey>8</FieldArrayKey>
<Value>Master</Value>
</Project_MetaData_Object>
<Project_MetaData_Object>
<FieldArrayKey>13</FieldArrayKey>
<Value>2014-10-31 05:14:34 PM</Value>
</Project_MetaData_Object>
<Project_MetaData_Object>
<FieldArrayKey>16</FieldArrayKey>
<Value>ENU</Value>
</Project_MetaData_Object>
</Project_MetaData>

<CSMLData>
 <GoProject id="1" version="3.0" >
  <Project id="2" editRate="30/1" version="3.0" >
   <Author></Author>
   <Comment></Comment>
   <System></System>
   <SourceBin id="3"  >
     <Source id="4" src="capture-6.trec" lastMod="20141030T201652" rect="(0,0,1920,1080)" >
       <SourceTrack range="(0,1917)" type="0" editRate="30/1" trackRect="(0,0,1920,1080)" sampleRate="0/1" bitDepth="0" numChannels="0" filename="capture-6.trec!Strack0.tsc2" metaData="capture-6.trec;" />
       <SourceTrack range="(0,2824192)" type="2" editRate="44100/1" trackRect="(0,0,0,0)" sampleRate="44100/1" bitDepth="16" numChannels="2" filename="capture-6.trec!Maudio1.mp4" metaData="" />
       <SourceTrack range="(0,2824192)" type="2" editRate="44100/1" trackRect="(0,0,0,0)" sampleRate="44100/1" bitDepth="16" numChannels="2" filename="capture-6.trec!$audio2.mp4" metaData="" />
     </Source>
     <Source id="5" src="capture-8.trec" lastMod="20141031T022335" rect="(0,0,1920,1080)" >
       <SourceTrack range="(0,3188)" type="0" editRate="30/1" trackRect="(0,0,1920,1080)" sampleRate="0/1" bitDepth="0" numChannels="0" filename="capture-8.trec!Strack0.tsc2" metaData="capture-8.trec;" />
       <SourceTrack range="(0,4676608)" type="2" editRate="44100/1" trackRect="(0,0,0,0)" sampleRate="44100/1" bitDepth="16" numChannels="2" filename="capture-8.trec!Maudio1.mp4" metaData="" />
       <SourceTrack range="(0,4631552)" type="2" editRate="44100/1" trackRect="(0,0,0,0)" sampleRate="44100/1" bitDepth="16" numChannels="2" filename="capture-8.trec!$audio2.mp4" metaData="" />
     </Source>
     <Source id="6" src="capture-DashBoard.trec" lastMod="20141031T023317" rect="(0,0,1920,1080)" >
       <SourceTrack range="(0,1911)" type="0" editRate="30/1" trackRect="(0,0,1920,1080)" sampleRate="0/1" bitDepth="0" numChannels="0" filename="capture-DashBoard.trec!Strack0.tsc2" metaData="capture-DashBoard.trec;" />
       <SourceTrack range="(0,2801664)" type="2" editRate="44100/1" trackRect="(0,0,0,0)" sampleRate="44100/1" bitDepth="16" numChannels="2" filename="capture-DashBoard.trec!Maudio1.mp4" metaData="" />
       <SourceTrack range="(0,2780160)" type="2" editRate="44100/1" trackRect="(0,0,0,0)" sampleRate="44100/1" bitDepth="16" numChannels="2" filename="capture-DashBoard.trec!$audio2.mp4" metaData="" />
     </Source>
     <Source id="7" src="captureProect-1.trec" lastMod="20141031T031435" rect="(0,0,1920,1080)" >
       <SourceTrack range="(0,1121)" type="0" editRate="30/1" trackRect="(0,0,1920,1080)" sampleRate="0/1" bitDepth="0" numChannels="0" filename="captureProect-1.trec!Strack0.tsc2" metaData="captureProect-1.trec;" />
       <SourceTrack range="(0,1633280)" type="2" editRate="44100/1" trackRect="(0,0,0,0)" sampleRate="44100/1" bitDepth="16" numChannels="2" filename="captureProect-1.trec!Maudio1.mp4" metaData="" />
       <SourceTrack range="(0,1633280)" type="2" editRate="44100/1" trackRect="(0,0,0,0)" sampleRate="44100/1" bitDepth="16" numChannels="2" filename="captureProect-1.trec!$audio2.mp4" metaData="" />
     </Source>
     <Source id="8" src="capture-summary.trec" lastMod="20141031T032649" rect="(0,0,1920,1080)" >
       <SourceTrack range="(0,1151)" type="0" editRate="30/1" trackRect="(0,0,1920,1080)" sampleRate="0/1" bitDepth="0" numChannels="0" filename="capture-summary.trec!Strack0.tsc2" metaData="capture-summary.trec;" />
       <SourceTrack range="(0,1677312)" type="2" editRate="44100/1" trackRect="(0,0,0,0)" sampleRate="44100/1" bitDepth="16" numChannels="2" filename="capture-summary.trec!Maudio1.mp4" metaData="" />
       <SourceTrack range="(0,1677312)" type="2" editRate="44100/1" trackRect="(0,0,0,0)" sampleRate="44100/1" bitDepth="16" numChannels="2" filename="capture-summary.trec!$audio2.mp4" metaData="" />
     </Source>
     <Source id="9" src="capture-issue.trec" lastMod="20141031T034025" rect="(0,0,1920,1080)" >
       <SourceTrack range="(0,1373)" type="0" editRate="30/1" trackRect="(0,0,1920,1080)" sampleRate="0/1" bitDepth="0" numChannels="0" filename="capture-issue.trec!Strack0.tsc2" metaData="capture-issue.trec;" />
       <SourceTrack range="(0,2008064)" type="2" editRate="44100/1" trackRect="(0,0,0,0)" sampleRate="44100/1" bitDepth="16" numChannels="2" filename="capture-issue.trec!Maudio1.mp4" metaData="" />
       <SourceTrack range="(0,1985536)" type="2" editRate="44100/1" trackRect="(0,0,0,0)" sampleRate="44100/1" bitDepth="16" numChannels="2" filename="capture-issue.trec!$audio2.mp4" metaData="" />
     </Source>
     <Source id="10" src="capture-Quick search.trec" lastMod="20141031T035028" rect="(0,0,1920,1080)" >
       <SourceTrack range="(0,665)" type="0" editRate="30/1" trackRect="(0,0,1920,1080)" sampleRate="0/1" bitDepth="0" numChannels="0" filename="capture-Quick search.trec!Strack0.tsc2" metaData="capture-Quick search.trec;" />
       <SourceTrack range="(0,971776)" type="2" editRate="44100/1" trackRect="(0,0,0,0)" sampleRate="44100/1" bitDepth="16" numChannels="2" filename="capture-Quick search.trec!Maudio1.mp4" metaData="" />
       <SourceTrack range="(0,927744)" type="2" editRate="44100/1" trackRect="(0,0,0,0)" sampleRate="44100/1" bitDepth="16" numChannels="2" filename="capture-Quick search.trec!$audio2.mp4" metaData="" />
     </Source>
     <Source id="11" src="capture-create issue.trec" lastMod="20141031T043709" rect="(0,0,1920,1080)" >
       <SourceTrack range="(0,3545)" type="0" editRate="30/1" trackRect="(0,0,1920,1080)" sampleRate="0/1" bitDepth="0" numChannels="0" filename="capture-create issue.trec!Strack0.tsc2" metaData="capture-create issue.trec;" />
       <SourceTrack range="(0,5204992)" type="2" editRate="44100/1" trackRect="(0,0,0,0)" sampleRate="44100/1" bitDepth="16" numChannels="2" filename="capture-create issue.trec!Maudio1.mp4" metaData="" />
       <SourceTrack range="(0,5160960)" type="2" editRate="44100/1" trackRect="(0,0,0,0)" sampleRate="44100/1" bitDepth="16" numChannels="2" filename="capture-create issue.trec!$audio2.mp4" metaData="" />
     </Source>
     <Source id="12" src="capture-share issue.trec" lastMod="20141031T051729" rect="(0,0,1920,1080)" >
       <SourceTrack range="(0,1761)" type="0" editRate="30/1" trackRect="(0,0,1920,1080)" sampleRate="0/1" bitDepth="0" numChannels="0" filename="capture-share issue.trec!Strack0.tsc2" metaData="capture-share issue.trec;" />
       <SourceTrack range="(0,2581504)" type="2" editRate="44100/1" trackRect="(0,0,0,0)" sampleRate="44100/1" bitDepth="16" numChannels="2" filename="capture-share issue.trec!Maudio1.mp4" metaData="" />
       <SourceTrack range="(0,2558976)" type="2" editRate="44100/1" trackRect="(0,0,0,0)" sampleRate="44100/1" bitDepth="16" numChannels="2" filename="capture-share issue.trec!$audio2.mp4" metaData="" />
     </Source>
     <Source id="13" src="capture-watcher.trec" lastMod="20141031T170906" rect="(0,0,1920,1080)" >
       <SourceTrack range="(0,3250)" type="0" editRate="30/1" trackRect="(0,0,1920,1080)" sampleRate="0/1" bitDepth="0" numChannels="0" filename="capture-watcher.trec!Strack0.tsc2" metaData="capture-watcher.trec;" />
       <SourceTrack range="(0,4764672)" type="2" editRate="44100/1" trackRect="(0,0,0,0)" sampleRate="44100/1" bitDepth="16" numChannels="2" filename="capture-watcher.trec!Maudio1.mp4" metaData="" />
       <SourceTrack range="(0,4764672)" type="2" editRate="44100/1" trackRect="(0,0,0,0)" sampleRate="44100/1" bitDepth="16" numChannels="2" filename="capture-watcher.trec!$audio2.mp4" metaData="" />
     </Source>
     <Source id="14" src="capture-Demo.trec" lastMod="20141031T173755" rect="(0,0,1920,1080)" >
       <SourceTrack range="(0,47171)" type="0" editRate="30/1" trackRect="(0,0,1920,1080)" sampleRate="0/1" bitDepth="0" numChannels="0" filename="capture-Demo.trec!Strack0.tsc2" metaData="capture-Demo.trec;" />
       <SourceTrack range="(0,69326848)" type="2" editRate="44100/1" trackRect="(0,0,0,0)" sampleRate="44100/1" bitDepth="16" numChannels="2" filename="capture-Demo.trec!Maudio1.mp4" metaData="" />
       <SourceTrack range="(0,69326848)" type="2" editRate="44100/1" trackRect="(0,0,0,0)" sampleRate="44100/1" bitDepth="16" numChannels="2" filename="capture-Demo.trec!$audio2.mp4" metaData="" />
     </Source>
     <Source id="15" src="capture-kanban.trec" lastMod="20141031T194842" rect="(0,0,1920,1080)" >
       <SourceTrack range="(0,12086)" type="0" editRate="30/1" trackRect="(0,0,1920,1080)" sampleRate="0/1" bitDepth="0" numChannels="0" filename="capture-kanban.trec!Strack0.tsc2" metaData="capture-kanban.trec;" />
       <SourceTrack range="(0,17752064)" type="2" editRate="44100/1" trackRect="(0,0,0,0)" sampleRate="44100/1" bitDepth="16" numChannels="2" filename="capture-kanban.trec!Maudio1.mp4" metaData="" />
       <SourceTrack range="(0,17729536)" type="2" editRate="44100/1" trackRect="(0,0,0,0)" sampleRate="44100/1" bitDepth="16" numChannels="2" filename="capture-kanban.trec!$audio2.mp4" metaData="" />
     </Source>
   </SourceBin>
   <Timeline id="16"  >
    <Attributes>
     <Attribute id="17" value="1280" name="width"/>
     <Attribute id="18" value="720" name="height"/>
     <Attribute id="19" value="(0,0,0,255)" name="backgroundColor"/>
    </Attributes>
     <GenericMixer id="20"  name="Unified Mixer">
      <MetaData>
       <entry key="MixerType" val="TimelineMixer"/>
      </MetaData>
      <Tracks>
       <GenericTrack id="21"  >
        <Attributes>
         <Attribute id="22" value="" name="ident"/>
         <Attribute id="23" value="0" name="audioMuted"/>
         <Attribute id="24" value="0" name="videoHidden"/>
        </Attributes>
        <MetaData>
         <entry key="IsLocked" val="False"/>
         <entry key="WinTrackHeight" val="62"/>
        </MetaData>
        <Medias>
         <Group id="25" start="0" duration="1758" scalar="1" mediaStart="0" mediaDuration="1758" baseWidthAttr="0" baseHeightAttr="0"  >
          <Parameters>
           <VectorParam id="26"  name="sourceCrop">
            <InterpolatingParam id="27" interp="linr"  time="0/1" value="0" leadInLength="0/1"  />
            <InterpolatingParam id="28" interp="linr"  time="0/1" value="0" leadInLength="0/1"  />
            <InterpolatingParam id="29" interp="linr"  time="0/1" value="0" leadInLength="0/1"  />
            <InterpolatingParam id="30" interp="linr"  time="0/1" value="0" leadInLength="0/1"  />
           </VectorParam>
           <VectorParam id="31"  name="geometryCrop">
            <InterpolatingParam id="32" interp="linr"  time="-9999999/1" value="0" leadInLength="0/1"  />
            <InterpolatingParam id="33" interp="linr"  time="-9999999/1" value="0" leadInLength="0/1"  />
            <InterpolatingParam id="34" interp="linr"  time="-9999999/1" value="0" leadInLength="0/1"  />
            <InterpolatingParam id="35" interp="linr"  time="-9999999/1" value="0" leadInLength="0/1"  />
           </VectorParam>
           <InterpolatingParam id="36" interp="linr"  time="-9999999/1" value="1" leadInLength="0/1"  name="opacity"/>
           <Parameter id="37"  name="captions"/>
           <InterpolatingParam id="38" interp="linr"  time="0/1" value="1" leadInLength="0/1"  name="volume"/>
          </Parameters>
          <Transformer>
           <VectorParam id="39"  name="translation">
            <InterpolatingParam id="40" interp="linr"  time="-9999999/1" value="0" leadInLength="0/1"  />
            <InterpolatingParam id="41" interp="linr"  time="-9999999/1" value="0" leadInLength="0/1"  />
            <InterpolatingParam id="42" interp="linr"  time="-9999999/1" value="0" leadInLength="0/1"  />
           </VectorParam>
           <VectorParam id="43"  name="rotation">
            <InterpolatingParam id="44" interp="linr"  time="-9999999/1" value="0" leadInLength="0/1"  />
            <InterpolatingParam id="45" interp="linr"  time="-9999999/1" value="0" leadInLength="0/1"  />
            <InterpolatingParam id="46" interp="linr"  time="-9999999/1" value="0" leadInLength="0/1"  />
           </VectorParam>
           <VectorParam id="47"  name="shear">
            <InterpolatingParam id="48" interp="linr"  time="-9999999/1" value="0" leadInLength="0/1"  />
            <InterpolatingParam id="49" interp="linr"  time="-9999999/1" value="0" leadInLength="0/1"  />
            <InterpolatingParam id="50" interp="linr"  time="-9999999/1" value="0" leadInLength="0/1"  />
           </VectorParam>
           <VectorParam id="51"  name="scale">
            <InterpolatingParam id="52" interp="linr"  time="-9999999/1" value="1" leadInLength="0/1"  />
            <InterpolatingParam id="53" interp="linr"  time="-9999999/1" value="1" leadInLength="0/1"  />
            <InterpolatingParam id="54" interp="linr"  time="-9999999/1" value="1" leadInLength="0/1"  />
           </VectorParam>
           <VectorParam id="55"  name="anchor">
            <InterpolatingParam id="56" interp="linr"  time="0/1" value="0" leadInLength="0/1"  />
            <InterpolatingParam id="57" interp="linr"  time="0/1" value="0" leadInLength="0/1"  />
            <InterpolatingParam id="58" interp="linr"  time="0/1" value="0" leadInLength="0/1"  />
           </VectorParam>
          </Transformer>
          <GenericMixer id="59"  >
           <MetaData>
           </MetaData>
           <Tracks>
            <GenericTrack id="60"  >
             <Attributes>
              <Attribute id="61" value="" name="ident"/>
              <Attribute id="62" value="0" name="audioMuted"/>
              <Attribute id="63" value="0" name="videoHidden"/>
             </Attributes>
             <MetaData>
              <entry key="IsLocked" val="False"/>
              <entry key="WinTrackHeight" val="0"/>
             </MetaData>
             <Medias>
              <AMFile id="64" start="0" duration="1758" scalar="1/1" mediaStart="0/1" mediaDuration="1758/1" trackNumber="2" src="4" channelNumber="0,1" >
               <Parameters>
                <InterpolatingParam id="65" interp="linr"  time="0/1" value="1" leadInLength="0/1"  name="volume"/>
                <Parameter id="66"  name="captions"/>
               </Parameters>
               <Attributes>
                <Attribute id="67" value="" name="ident"/>
                <Attribute id="68" value="44100" name="sampleRate"/>
                <Attribute id="69" value="16" name="bitDepth"/>
                <Attribute id="70" value="1" name="gain"/>
                <Attribute id="71" value="0" name="mixToMono"/>
               </Attributes>
               <MetaData>
                <entry key="WinSubProjectDisplayName" val=""/>
               </MetaData>
              </AMFile>
             </Medias>
            </GenericTrack>
            <GenericTrack id="72"  >
             <Attributes>
              <Attribute id="73" value="" name="ident"/>
              <Attribute id="74" value="0" name="audioMuted"/>
              <Attribute id="75" value="0" name="videoHidden"/>
             </Attributes>
             <MetaData>
              <entry key="IsLocked" val="False"/>
              <entry key="WinTrackHeight" val="0"/>
             </MetaData>
             <Medias>
              <UnifiedMedia id="76"  >
               <AMFile id="77" start="0" duration="1758" scalar="1/1" mediaStart="0/1" mediaDuration="1758/1" trackNumber="1" src="4" channelNumber="0,1" >
                <Parameters>
                 <InterpolatingParam id="78" interp="linr"  time="0/1" value="1" leadInLength="0/1"  name="volume"/>
                 <Parameter id="79"  name="captions"/>
                </Parameters>
                <Attributes>
                 <Attribute id="80" value="" name="ident"/>
                 <Attribute id="81" value="44100" name="sampleRate"/>
                 <Attribute id="82" value="16" name="bitDepth"/>
                 <Attribute id="83" value="1" name="gain"/>
                 <Attribute id="84" value="0" name="mixToMono"/>
                </Attributes>
               </AMFile>
               <ScreenVMFile id="85" start="0" duration="1758" scalar="1/1" mediaStart="0/1" mediaDuration="1758/1" trackNumber="0" src="4" >
                <Transformer>
                 <VectorParam id="86"  name="translation">
                  <InterpolatingParam id="87" interp="linr"  time="-9999999/1" value="0" leadInLength="0/1"  interpolater="leadin-linr"  />
                  <InterpolatingParam id="88" interp="linr"  time="-9999999/1" value="0" leadInLength="0/1"  interpolater="leadin-linr"  />
                  <InterpolatingParam id="89" interp="linr"  time="-9999999/1" value="0" leadInLength="0/1"  interpolater="leadin-linr"  />
                 </VectorParam>
                 <VectorParam id="90"  name="rotation">
                  <InterpolatingParam id="91" interp="linr"  time="-9999999/1" value="0" leadInLength="0/1"  interpolater="leadin-linr"  />
                  <InterpolatingParam id="92" interp="linr"  time="-9999999/1" value="0" leadInLength="0/1"  interpolater="leadin-linr"  />
                  <InterpolatingParam id="93" interp="linr"  time="-9999999/1" value="0" leadInLength="0/1"  interpolater="leadin-linr"  />
                 </VectorParam>
                 <VectorParam id="94"  name="shear">
                  <InterpolatingParam id="95" interp="linr"  time="-9999999/1" value="0" leadInLength="0/1"  interpolater="leadin-linr"  />
                  <InterpolatingParam id="96" interp="linr"  time="-9999999/1" value="0" leadInLength="0/1"  interpolater="leadin-linr"  />
                  <InterpolatingParam id="97" interp="linr"  time="-9999999/1" value="0" leadInLength="0/1"  interpolater="leadin-linr"  />
                 </VectorParam>
                 <VectorParam id="98"  name="scale">
                  <InterpolatingParam id="99" interp="linr"  time="-9999999/1" value="0.66666666666666663" leadInLength="0/1"  interpolater="leadin-linr"  />
                  <InterpolatingParam id="100" interp="linr"  time="-9999999/1" value="0.66666666666666663" leadInLength="0/1"  interpolater="leadin-linr"  />
                  <InterpolatingParam id="101" interp="linr"  time="-9999999/1" value="1" leadInLength="0/1"  interpolater="leadin-linr"  />
                 </VectorParam>
                 <VectorParam id="102"  name="anchor">
                  <InterpolatingParam id="103" interp="linr"  time="0/1" value="0" leadInLength="0/1"  />
                  <InterpolatingParam id="104" interp="linr"  time="0/1" value="0" leadInLength="0/1"  />
                  <InterpolatingParam id="105" interp="linr"  time="0/1" value="0" leadInLength="0/1"  />
                 </VectorParam>
                </Transformer>
                <Parameters>
                 <VectorParam id="106"  name="sourceCrop">
                  <InterpolatingParam id="107" interp="linr"  time="0/1" value="0" leadInLength="0/1"  />
                  <InterpolatingParam id="108" interp="linr"  time="0/1" value="0" leadInLength="0/1"  />
                  <InterpolatingParam id="109" interp="linr"  time="0/1" value="0" leadInLength="0/1"  />
                  <InterpolatingParam id="110" interp="linr"  time="0/1" value="0" leadInLength="0/1"  />
                 </VectorParam>
                 <VectorParam id="111"  name="geometryCrop">
                  <InterpolatingParam id="112" interp="linr"  time="-9999999/1" value="0" leadInLength="0/1"  interpolater="leadin-linr"  />
                  <InterpolatingParam id="113" interp="linr"  time="-9999999/1" value="0" leadInLength="0/1"  interpolater="leadin-linr"  />
                  <InterpolatingParam id="114" interp="linr"  time="-9999999/1" value="0" leadInLength="0/1"  interpolater="leadin-linr"  />
                  <InterpolatingParam id="115" interp="linr"  time="-9999999/1" value="0" leadInLength="0/1"  interpolater="leadin-linr"  />
                 </VectorParam>
                 <InterpolatingParam id="116" interp="linr"  time="-9999999/1" value="1" leadInLength="0/1"  interpolater="leadin-linr"  name="opacity"/>
                 <InterpolatingParam id="117" interp="linr"  time="0/1" value="1" leadInLength="0/1"  name="cursorOpacity"/>
                 <InterpolatingParam id="118" interp="linr"  time="0/1" value="1" leadInLength="0/1"  name="cursorScale"/>
                </Parameters>
                <Effects>
                 <GenericEffect id="119" name = "CursorBaseEffectName" >
                  <Parameters>
                  <InterpolatingParam id="120" interp="linr"  time="-9999999/1" value="1" leadInLength="0/1"   name="cursorSize"/>
                  <InterpolatingParam id="121" interp="linr"  time="-9999999/1" value="0" leadInLength="0/1"   name="highlightBlurRadius"/>
                  <InterpolatingParam id="122" interp="linr"  time="-9999999/1" value="0" leadInLength="0/1"   name="highlightColorBlue"/>
                  <InterpolatingParam id="123" interp="linr"  time="-9999999/1" value="255" leadInLength="0/1"   name="highlightColorGreen"/>
                  <InterpolatingParam id="124" interp="linr"  time="-9999999/1" value="255" leadInLength="0/1"   name="highlightColorRed"/>
                  <InterpolatingParam id="125" interp="linr"  time="-9999999/1" value="5" leadInLength="0/1"   name="highlightFeatherSize"/>
                  <InterpolatingParam id="126" interp="linr"  time="-9999999/1" value="2" leadInLength="0/1"   name="highlightMagnification"/>
                  <InterpolatingParam id="127" interp="linr"  time="-9999999/1" value="1" leadInLength="0/1"   name="highlightOpacity"/>
                  <InterpolatingParam id="128" interp="linr"  time="-9999999/1" value="45" leadInLength="0/1"   name="highlightSize"/>
                  <Parameter id="129"   name="highlightType">
                   <Keyframes>
                   <Keyframe id="130"  time="-9999999/1" value="0" leadInLength="0/1"  />
                   </Keyframes>
                  </Parameter>
                  <InterpolatingParam id="131" interp="linr"  time="-9999999/1" value="0" leadInLength="0/1"   name="leftClickColorBlue"/>
                  <InterpolatingParam id="132" interp="linr"  time="-9999999/1" value="0" leadInLength="0/1"   name="leftClickColorGreen"/>
                  <InterpolatingParam id="133" interp="linr"  time="-9999999/1" value="255" leadInLength="0/1"   name="leftClickColorRed"/>
                  <InterpolatingParam id="134" interp="linr"  time="-9999999/1" value="0.80000000000000004" leadInLength="0/1"   name="leftClickDuration"/>
                  <InterpolatingParam id="135" interp="linr"  time="-9999999/1" value="20" leadInLength="0/1"   name="leftClickSize"/>
                  <Parameter id="136"   name="leftClickSoundFilename">
                   <Keyframes>
                   <Keyframe id="137"  time="-9999999/1" value="" leadInLength="0/1"  />
                   </Keyframes>
                  </Parameter>
                  <InterpolatingParam id="138" interp="linr"  time="-9999999/1" value="1" leadInLength="0/1"   name="leftClickSoundVolume"/>
                  <Parameter id="139"   name="leftClickType">
                   <Keyframes>
                   <Keyframe id="140"  time="-9999999/1" value="0" leadInLength="0/1"  />
                   </Keyframes>
                  </Parameter>
                  <InterpolatingParam id="141" interp="linr"  time="-9999999/1" value="1" leadInLength="0/1"   name="opacity"/>
                  <InterpolatingParam id="142" interp="linr"  time="-9999999/1" value="255" leadInLength="0/1"   name="rightClickColorBlue"/>
                  <InterpolatingParam id="143" interp="linr"  time="-9999999/1" value="0" leadInLength="0/1"   name="rightClickColorGreen"/>
                  <InterpolatingParam id="144" interp="linr"  time="-9999999/1" value="0" leadInLength="0/1"   name="rightClickColorRed"/>
                  <InterpolatingParam id="145" interp="linr"  time="-9999999/1" value="0.80000000000000004" leadInLength="0/1"   name="rightClickDuration"/>
                  <InterpolatingParam id="146" interp="linr"  time="-9999999/1" value="20" leadInLength="0/1"   name="rightClickSize"/>
                  <Parameter id="147"   name="rightClickSoundFilename">
                   <Keyframes>
                   <Keyframe id="148"  time="-9999999/1" value="" leadInLength="0/1"  />
                   </Keyframes>
                  </Parameter>
                  <InterpolatingParam id="149" interp="linr"  time="-9999999/1" value="1" leadInLength="0/1"   name="rightClickSoundVolume"/>
                  <Parameter id="150"   name="rightClickType">
                   <Keyframes>
                   <Keyframe id="151"  time="-9999999/1" value="0" leadInLength="0/1"  />
                   </Keyframes>
                  </Parameter>
                  </Parameters>
                  <MetaData>
                   <entry key="effectIndex" val="0"/>
                  </MetaData>
                 </GenericEffect>
                </Effects>
                <Attributes>
                 <Attribute id="152" value="" name="ident"/>
                </Attributes>
                <ExtraData>
                 <Entry key="ZoomPanBin">
                  <ZoomPanBin id="153"  >
                   <ZoomPanKeyframes>
                    <ZoomPanKeyframe id="154" timeRangeEnd="-9999999/1" timeRangeDuration="0/1" interpolaterName="leadin-linr"  />
                   </ZoomPanKeyframes>
                  </ZoomPanBin>
                 </Entry>
                 <Entry key="CursorEffectBin">
                  <CursorEffectBin id="155"  >
                   <CursorEffectKeyframes>
                    <CursorEffectKeyframe id="156" timeRangeEnd="-9999999/1" timeRangeDuration="0/1" interpolaterName=""  />
                   </CursorEffectKeyframes>
                  </CursorEffectBin>
                 </Entry>
                </ExtraData>
               </ScreenVMFile>
               <MetaData>
                <entry key="AutoAppliedSmartFocus" val="False"/>
                <entry key="WinSubProjectDisplayName" val=""/>
               </MetaData>
              </UnifiedMedia>
             </Medias>
            </GenericTrack>
           </Tracks>
          </GenericMixer>
          <MetaData>
           <entry key="IsGroupExpanded" val="False"/>
           <entry key="WinGroupOrigin" val="Asset"/>
           <entry key="WinSubProjectDisplayName" val="1"/>
          </MetaData>
          <ExtraData>
           <Entry key="ZoomPanBin">
            <ZoomPanBin id="157"  >
             <ZoomPanKeyframes>
              <ZoomPanKeyframe id="158" timeRangeEnd="-9999999/1" timeRangeDuration="0/1" interpolaterName="linr"  />
             </ZoomPanKeyframes>
            </ZoomPanBin>
           </Entry>
          </ExtraData>
         </Group>
         <Group id="159" start="1758" duration="2930" scalar="1" mediaStart="0" mediaDuration="2930" baseWidthAttr="0" baseHeightAttr="0"  >
          <Parameters>
           <VectorParam id="160"  name="sourceCrop">
            <InterpolatingParam id="161" interp="linr"  time="0/1" value="0" leadInLength="0/1"  />
            <InterpolatingParam id="162" interp="linr"  time="0/1" value="0" leadInLength="0/1"  />
            <InterpolatingParam id="163" interp="linr"  time="0/1" value="0" leadInLength="0/1"  />
            <InterpolatingParam id="164" interp="linr"  time="0/1" value="0" leadInLength="0/1"  />
           </VectorParam>
           <VectorParam id="165"  name="geometryCrop">
            <InterpolatingParam id="166" interp="linr"  time="-9999999/1" value="0" leadInLength="0/1"  />
            <InterpolatingParam id="167" interp="linr"  time="-9999999/1" value="0" leadInLength="0/1"  />
            <InterpolatingParam id="168" interp="linr"  time="-9999999/1" value="0" leadInLength="0/1"  />
            <InterpolatingParam id="169" interp="linr"  time="-9999999/1" value="0" leadInLength="0/1"  />
           </VectorParam>
           <InterpolatingParam id="170" interp="linr"  time="-9999999/1" value="1" leadInLength="0/1"  name="opacity"/>
           <Parameter id="171"  name="captions"/>
           <InterpolatingParam id="172" interp="linr"  time="0/1" value="1" leadInLength="0/1"  name="volume"/>
          </Parameters>
          <Transformer>
           <VectorParam id="173"  name="translation">
            <InterpolatingParam id="174" interp="linr"  time="-9999999/1" value="0" leadInLength="0/1"  />
            <InterpolatingParam id="175" interp="linr"  time="-9999999/1" value="0" leadInLength="0/1"  />
            <InterpolatingParam id="176" interp="linr"  time="-9999999/1" value="0" leadInLength="0/1"  />
           </VectorParam>
           <VectorParam id="177"  name="rotation">
            <InterpolatingParam id="178" interp="linr"  time="-9999999/1" value="0" leadInLength="0/1"  />
            <InterpolatingParam id="179" interp="linr"  time="-9999999/1" value="0" leadInLength="0/1"  />
            <InterpolatingParam id="180" interp="linr"  time="-9999999/1" value="0" leadInLength="0/1"  />
           </VectorParam>
           <VectorParam id="181"  name="shear">
            <InterpolatingParam id="182" interp="linr"  time="-9999999/1" value="0" leadInLength="0/1"  />
            <InterpolatingParam id="183" interp="linr"  time="-9999999/1" value="0" leadInLength="0/1"  />
            <InterpolatingParam id="184" interp="linr"  time="-9999999/1" value="0" leadInLength="0/1"  />
           </VectorParam>
           <VectorParam id="185"  name="scale">
            <InterpolatingParam id="186" interp="linr"  time="-9999999/1" value="1" leadInLength="0/1"  />
            <InterpolatingParam id="187" interp="linr"  time="-9999999/1" value="1" leadInLength="0/1"  />
            <InterpolatingParam id="188" interp="linr"  time="-9999999/1" value="1" leadInLength="0/1"  />
           </VectorParam>
           <VectorParam id="189"  name="anchor">
            <InterpolatingParam id="190" interp="linr"  time="0/1" value="0" leadInLength="0/1"  />
            <InterpolatingParam id="191" interp="linr"  time="0/1" value="0" leadInLength="0/1"  />
            <InterpolatingParam id="192" interp="linr"  time="0/1" value="0" leadInLength="0/1"  />
           </VectorParam>
          </Transformer>
          <GenericMixer id="193"  >
           <MetaData>
           </MetaData>
           <Tracks>
            <GenericTrack id="194"  >
             <Attributes>
              <Attribute id="195" value="" name="ident"/>
              <Attribute id="196" value="0" name="audioMuted"/>
              <Attribute id="197" value="0" name="videoHidden"/>
             </Attributes>
             <MetaData>
              <entry key="IsLocked" val="False"/>
              <entry key="WinTrackHeight" val="0"/>
             </MetaData>
             <Medias>
              <AMFile id="198" start="0" duration="2930" scalar="1/1" mediaStart="0/1" mediaDuration="2930/1" trackNumber="2" src="5" channelNumber="0,1" >
               <Parameters>
                <InterpolatingParam id="199" interp="linr"  time="0/1" value="1" leadInLength="0/1"  name="volume"/>
                <Parameter id="200"  name="captions"/>
               </Parameters>
               <Attributes>
                <Attribute id="201" value="" name="ident"/>
                <Attribute id="202" value="44100" name="sampleRate"/>
                <Attribute id="203" value="16" name="bitDepth"/>
                <Attribute id="204" value="1" name="gain"/>
                <Attribute id="205" value="0" name="mixToMono"/>
               </Attributes>
               <MetaData>
                <entry key="WinSubProjectDisplayName" val=""/>
               </MetaData>
              </AMFile>
             </Medias>
            </GenericTrack>
            <GenericTrack id="206"  >
             <Attributes>
              <Attribute id="207" value="" name="ident"/>
              <Attribute id="208" value="0" name="audioMuted"/>
              <Attribute id="209" value="0" name="videoHidden"/>
             </Attributes>
             <MetaData>
              <entry key="IsLocked" val="False"/>
              <entry key="WinTrackHeight" val="0"/>
             </MetaData>
             <Medias>
              <UnifiedMedia id="210"  >
               <AMFile id="211" start="0" duration="2930" scalar="1/1" mediaStart="0/1" mediaDuration="2930/1" trackNumber="1" src="5" channelNumber="0,1" >
                <Parameters>
                 <InterpolatingParam id="212" interp="linr"  time="0/1" value="1" leadInLength="0/1"  name="volume"/>
                 <Parameter id="213"  name="captions"/>
                </Parameters>
                <Attributes>
                 <Attribute id="214" value="" name="ident"/>
                 <Attribute id="215" value="44100" name="sampleRate"/>
                 <Attribute id="216" value="16" name="bitDepth"/>
                 <Attribute id="217" value="1" name="gain"/>
                 <Attribute id="218" value="0" name="mixToMono"/>
                </Attributes>
               </AMFile>
               <ScreenVMFile id="219" start="0" duration="2930" scalar="1/1" mediaStart="0/1" mediaDuration="2930/1" trackNumber="0" src="5" >
                <Transformer>
                 <VectorParam id="220"  name="translation">
                  <InterpolatingParam id="221" interp="linr"  time="-9999999/1" value="0" leadInLength="0/1"  interpolater="leadin-linr"  />
                  <InterpolatingParam id="222" interp="linr"  time="-9999999/1" value="0" leadInLength="0/1"  interpolater="leadin-linr"  />
                  <InterpolatingParam id="223" interp="linr"  time="-9999999/1" value="0" leadInLength="0/1"  interpolater="leadin-linr"  />
                 </VectorParam>
                 <VectorParam id="224"  name="rotation">
                  <InterpolatingParam id="225" interp="linr"  time="-9999999/1" value="0" leadInLength="0/1"  interpolater="leadin-linr"  />
                  <InterpolatingParam id="226" interp="linr"  time="-9999999/1" value="0" leadInLength="0/1"  interpolater="leadin-linr"  />
                  <InterpolatingParam id="227" interp="linr"  time="-9999999/1" value="0" leadInLength="0/1"  interpolater="leadin-linr"  />
                 </VectorParam>
                 <VectorParam id="228"  name="shear">
                  <InterpolatingParam id="229" interp="linr"  time="-9999999/1" value="0" leadInLength="0/1"  interpolater="leadin-linr"  />
                  <InterpolatingParam id="230" interp="linr"  time="-9999999/1" value="0" leadInLength="0/1"  interpolater="leadin-linr"  />
                  <InterpolatingParam id="231" interp="linr"  time="-9999999/1" value="0" leadInLength="0/1"  interpolater="leadin-linr"  />
                 </VectorParam>
                 <VectorParam id="232"  name="scale">
                  <InterpolatingParam id="233" interp="linr"  time="-9999999/1" value="0.66666666666666663" leadInLength="0/1"  interpolater="leadin-linr"  />
                  <InterpolatingParam id="234" interp="linr"  time="-9999999/1" value="0.66666666666666663" leadInLength="0/1"  interpolater="leadin-linr"  />
                  <InterpolatingParam id="235" interp="linr"  time="-9999999/1" value="1" leadInLength="0/1"  interpolater="leadin-linr"  />
                 </VectorParam>
                 <VectorParam id="236"  name="anchor">
                  <InterpolatingParam id="237" interp="linr"  time="0/1" value="0" leadInLength="0/1"  />
                  <InterpolatingParam id="238" interp="linr"  time="0/1" value="0" leadInLength="0/1"  />
                  <InterpolatingParam id="239" interp="linr"  time="0/1" value="0" leadInLength="0/1"  />
                 </VectorParam>
                </Transformer>
                <Parameters>
                 <VectorParam id="240"  name="sourceCrop">
                  <InterpolatingParam id="241" interp="linr"  time="0/1" value="0" leadInLength="0/1"  />
                  <InterpolatingParam id="242" interp="linr"  time="0/1" value="0" leadInLength="0/1"  />
                  <InterpolatingParam id="243" interp="linr"  time="0/1" value="0" leadInLength="0/1"  />
                  <InterpolatingParam id="244" interp="linr"  time="0/1" value="0" leadInLength="0/1"  />
                 </VectorParam>
                 <VectorParam id="245"  name="geometryCrop">
                  <InterpolatingParam id="246" interp="linr"  time="-9999999/1" value="0" leadInLength="0/1"  interpolater="leadin-linr"  />
                  <InterpolatingParam id="247" interp="linr"  time="-9999999/1" value="0" leadInLength="0/1"  interpolater="leadin-linr"  />
                  <InterpolatingParam id="248" interp="linr"  time="-9999999/1" value="0" leadInLength="0/1"  interpolater="leadin-linr"  />
                  <InterpolatingParam id="249" interp="linr"  time="-9999999/1" value="0" leadInLength="0/1"  interpolater="leadin-linr"  />
                 </VectorParam>
                 <InterpolatingParam id="250" interp="linr"  time="-9999999/1" value="1" leadInLength="0/1"  interpolater="leadin-linr"  name="opacity"/>
                 <InterpolatingParam id="251" interp="linr"  time="0/1" value="1" leadInLength="0/1"  name="cursorOpacity"/>
                 <InterpolatingParam id="252" interp="linr"  time="0/1" value="1" leadInLength="0/1"  name="cursorScale"/>
                </Parameters>
                <Effects>
                 <GenericEffect id="253" name = "CursorBaseEffectName" >
                  <Parameters>
                  <InterpolatingParam id="254" interp="linr"  time="-9999999/1" value="1" leadInLength="0/1"   name="cursorSize"/>
                  <InterpolatingParam id="255" interp="linr"  time="-9999999/1" value="0" leadInLength="0/1"   name="highlightBlurRadius"/>
                  <InterpolatingParam id="256" interp="linr"  time="-9999999/1" value="0" leadInLength="0/1"   name="highlightColorBlue"/>
                  <InterpolatingParam id="257" interp="linr"  time="-9999999/1" value="255" leadInLength="0/1"   name="highlightColorGreen"/>
                  <InterpolatingParam id="258" interp="linr"  time="-9999999/1" value="255" leadInLength="0/1"   name="highlightColorRed"/>
                  <InterpolatingParam id="259" interp="linr"  time="-9999999/1" value="5" leadInLength="0/1"   name="highlightFeatherSize"/>
                  <InterpolatingParam id="260" interp="linr"  time="-9999999/1" value="2" leadInLength="0/1"   name="highlightMagnification"/>
                  <InterpolatingParam id="261" interp="linr"  time="-9999999/1" value="1" leadInLength="0/1"   name="highlightOpacity"/>
                  <InterpolatingParam id="262" interp="linr"  time="-9999999/1" value="45" leadInLength="0/1"   name="highlightSize"/>
                  <Parameter id="263"   name="highlightType">
                   <Keyframes>
                   <Keyframe id="264"  time="-9999999/1" value="0" leadInLength="0/1"  />
                   </Keyframes>
                  </Parameter>
                  <InterpolatingParam id="265" interp="linr"  time="-9999999/1" value="0" leadInLength="0/1"   name="leftClickColorBlue"/>
                  <InterpolatingParam id="266" interp="linr"  time="-9999999/1" value="0" leadInLength="0/1"   name="leftClickColorGreen"/>
                  <InterpolatingParam id="267" interp="linr"  time="-9999999/1" value="255" leadInLength="0/1"   name="leftClickColorRed"/>
                  <InterpolatingParam id="268" interp="linr"  time="-9999999/1" value="0.80000000000000004" leadInLength="0/1"   name="leftClickDuration"/>
                  <InterpolatingParam id="269" interp="linr"  time="-9999999/1" value="20" leadInLength="0/1"   name="leftClickSize"/>
                  <Parameter id="270"   name="leftClickSoundFilename">
                   <Keyframes>
                   <Keyframe id="271"  time="-9999999/1" value="" leadInLength="0/1"  />
                   </Keyframes>
                  </Parameter>
                  <InterpolatingParam id="272" interp="linr"  time="-9999999/1" value="1" leadInLength="0/1"   name="leftClickSoundVolume"/>
                  <Parameter id="273"   name="leftClickType">
                   <Keyframes>
                   <Keyframe id="274"  time="-9999999/1" value="0" leadInLength="0/1"  />
                   </Keyframes>
                  </Parameter>
                  <InterpolatingParam id="275" interp="linr"  time="-9999999/1" value="1" leadInLength="0/1"   name="opacity"/>
                  <InterpolatingParam id="276" interp="linr"  time="-9999999/1" value="255" leadInLength="0/1"   name="rightClickColorBlue"/>
                  <InterpolatingParam id="277" interp="linr"  time="-9999999/1" value="0" leadInLength="0/1"   name="rightClickColorGreen"/>
                  <InterpolatingParam id="278" interp="linr"  time="-9999999/1" value="0" leadInLength="0/1"   name="rightClickColorRed"/>
                  <InterpolatingParam id="279" interp="linr"  time="-9999999/1" value="0.80000000000000004" leadInLength="0/1"   name="rightClickDuration"/>
                  <InterpolatingParam id="280" interp="linr"  time="-9999999/1" value="20" leadInLength="0/1"   name="rightClickSize"/>
                  <Parameter id="281"   name="rightClickSoundFilename">
                   <Keyframes>
                   <Keyframe id="282"  time="-9999999/1" value="" leadInLength="0/1"  />
                   </Keyframes>
                  </Parameter>
                  <InterpolatingParam id="283" interp="linr"  time="-9999999/1" value="1" leadInLength="0/1"   name="rightClickSoundVolume"/>
                  <Parameter id="284"   name="rightClickType">
                   <Keyframes>
                   <Keyframe id="285"  time="-9999999/1" value="0" leadInLength="0/1"  />
                   </Keyframes>
                  </Parameter>
                  </Parameters>
                  <MetaData>
                   <entry key="effectIndex" val="0"/>
                  </MetaData>
                 </GenericEffect>
                </Effects>
                <Attributes>
                 <Attribute id="286" value="" name="ident"/>
                </Attributes>
                <ExtraData>
                 <Entry key="ZoomPanBin">
                  <ZoomPanBin id="287"  >
                   <ZoomPanKeyframes>
                    <ZoomPanKeyframe id="288" timeRangeEnd="-9999999/1" timeRangeDuration="0/1" interpolaterName="leadin-linr"  />
                   </ZoomPanKeyframes>
                  </ZoomPanBin>
                 </Entry>
                 <Entry key="CursorEffectBin">
                  <CursorEffectBin id="289"  >
                   <CursorEffectKeyframes>
                    <CursorEffectKeyframe id="290" timeRangeEnd="-9999999/1" timeRangeDuration="0/1" interpolaterName=""  />
                   </CursorEffectKeyframes>
                  </CursorEffectBin>
                 </Entry>
                </ExtraData>
               </ScreenVMFile>
               <MetaData>
                <entry key="AutoAppliedSmartFocus" val="False"/>
                <entry key="WinSubProjectDisplayName" val=""/>
               </MetaData>
              </UnifiedMedia>
             </Medias>
            </GenericTrack>
           </Tracks>
          </GenericMixer>
          <MetaData>
           <entry key="IsGroupExpanded" val="False"/>
           <entry key="WinGroupOrigin" val="Asset"/>
           <entry key="WinSubProjectDisplayName" val="2"/>
          </MetaData>
          <ExtraData>
           <Entry key="ZoomPanBin">
            <ZoomPanBin id="291"  >
             <ZoomPanKeyframes>
              <ZoomPanKeyframe id="292" timeRangeEnd="-9999999/1" timeRangeDuration="0/1" interpolaterName="linr"  />
             </ZoomPanKeyframes>
            </ZoomPanBin>
           </Entry>
          </ExtraData>
         </Group>
         <Group id="293" start="4688" duration="1500" scalar="1" mediaStart="0" mediaDuration="1500" baseWidthAttr="0" baseHeightAttr="0"  >
          <Parameters>
           <VectorParam id="294"  name="sourceCrop">
            <InterpolatingParam id="295" interp="linr"  time="0/1" value="0" leadInLength="0/1"  />
            <InterpolatingParam id="296" interp="linr"  time="0/1" value="0" leadInLength="0/1"  />
            <InterpolatingParam id="297" interp="linr"  time="0/1" value="0" leadInLength="0/1"  />
            <InterpolatingParam id="298" interp="linr"  time="0/1" value="0" leadInLength="0/1"  />
           </VectorParam>
           <VectorParam id="299"  name="geometryCrop">
            <InterpolatingParam id="300" interp="linr"  time="-9999999/1" value="0" leadInLength="0/1"  />
            <InterpolatingParam id="301" interp="linr"  time="-9999999/1" value="0" leadInLength="0/1"  />
            <InterpolatingParam id="302" interp="linr"  time="-9999999/1" value="0" leadInLength="0/1"  />
            <InterpolatingParam id="303" interp="linr"  time="-9999999/1" value="0" leadInLength="0/1"  />
           </VectorParam>
           <InterpolatingParam id="304" interp="linr"  time="-9999999/1" value="1" leadInLength="0/1"  name="opacity"/>
           <Parameter id="305"  name="captions"/>
           <InterpolatingParam id="306" interp="linr"  time="0/1" value="1" leadInLength="0/1"  name="volume"/>
          </Parameters>
          <Transformer>
           <VectorParam id="307"  name="translation">
            <InterpolatingParam id="308" interp="linr"  time="-9999999/1" value="0" leadInLength="0/1"  />
            <InterpolatingParam id="309" interp="linr"  time="-9999999/1" value="0" leadInLength="0/1"  />
            <InterpolatingParam id="310" interp="linr"  time="-9999999/1" value="0" leadInLength="0/1"  />
           </VectorParam>
           <VectorParam id="311"  name="rotation">
            <InterpolatingParam id="312" interp="linr"  time="-9999999/1" value="0" leadInLength="0/1"  />
            <InterpolatingParam id="313" interp="linr"  time="-9999999/1" value="0" leadInLength="0/1"  />
            <InterpolatingParam id="314" interp="linr"  time="-9999999/1" value="0" leadInLength="0/1"  />
           </VectorParam>
           <VectorParam id="315"  name="shear">
            <InterpolatingParam id="316" interp="linr"  time="-9999999/1" value="0" leadInLength="0/1"  />
            <InterpolatingParam id="317" interp="linr"  time="-9999999/1" value="0" leadInLength="0/1"  />
            <InterpolatingParam id="318" interp="linr"  time="-9999999/1" value="0" leadInLength="0/1"  />
           </VectorParam>
           <VectorParam id="319"  name="scale">
            <InterpolatingParam id="320" interp="linr"  time="-9999999/1" value="1" leadInLength="0/1"  />
            <InterpolatingParam id="321" interp="linr"  time="-9999999/1" value="1" leadInLength="0/1"  />
            <InterpolatingParam id="322" interp="linr"  time="-9999999/1" value="1" leadInLength="0/1"  />
           </VectorParam>
           <VectorParam id="323"  name="anchor">
            <InterpolatingParam id="324" interp="linr"  time="0/1" value="0" leadInLength="0/1"  />
            <InterpolatingParam id="325" interp="linr"  time="0/1" value="0" leadInLength="0/1"  />
            <InterpolatingParam id="326" interp="linr"  time="0/1" value="0" leadInLength="0/1"  />
           </VectorParam>
          </Transformer>
          <GenericMixer id="327"  >
           <MetaData>
           </MetaData>
           <Tracks>
            <GenericTrack id="328"  >
             <Attributes>
              <Attribute id="329" value="" name="ident"/>
              <Attribute id="330" value="0" name="audioMuted"/>
              <Attribute id="331" value="0" name="videoHidden"/>
             </Attributes>
             <MetaData>
              <entry key="IsLocked" val="False"/>
              <entry key="WinTrackHeight" val="0"/>
             </MetaData>
             <Medias>
              <AMFile id="332" start="0" duration="1500" scalar="1/1" mediaStart="0/1" mediaDuration="1500/1" trackNumber="2" src="6" channelNumber="0,1" >
               <Parameters>
                <InterpolatingParam id="333" interp="linr"  time="0/1" value="1" leadInLength="0/1"  name="volume"/>
                <Parameter id="334"  name="captions"/>
               </Parameters>
               <Attributes>
                <Attribute id="335" value="" name="ident"/>
                <Attribute id="336" value="44100" name="sampleRate"/>
                <Attribute id="337" value="16" name="bitDepth"/>
                <Attribute id="338" value="1" name="gain"/>
                <Attribute id="339" value="0" name="mixToMono"/>
               </Attributes>
               <MetaData>
                <entry key="WinSubProjectDisplayName" val=""/>
               </MetaData>
              </AMFile>
             </Medias>
            </GenericTrack>
            <GenericTrack id="340"  >
             <Attributes>
              <Attribute id="341" value="" name="ident"/>
              <Attribute id="342" value="0" name="audioMuted"/>
              <Attribute id="343" value="0" name="videoHidden"/>
             </Attributes>
             <MetaData>
              <entry key="IsLocked" val="False"/>
              <entry key="WinTrackHeight" val="0"/>
             </MetaData>
             <Medias>
              <UnifiedMedia id="344"  >
               <AMFile id="345" start="0" duration="1500" scalar="1/1" mediaStart="0/1" mediaDuration="1500/1" trackNumber="1" src="6" channelNumber="0,1" >
                <Parameters>
                 <InterpolatingParam id="346" interp="linr"  time="0/1" value="1" leadInLength="0/1"  name="volume"/>
                 <Parameter id="347"  name="captions"/>
                </Parameters>
                <Attributes>
                 <Attribute id="348" value="" name="ident"/>
                 <Attribute id="349" value="44100" name="sampleRate"/>
                 <Attribute id="350" value="16" name="bitDepth"/>
                 <Attribute id="351" value="1" name="gain"/>
                 <Attribute id="352" value="0" name="mixToMono"/>
                </Attributes>
               </AMFile>
               <ScreenVMFile id="353" start="0" duration="1500" scalar="1/1" mediaStart="0/1" mediaDuration="1500/1" trackNumber="0" src="6" >
                <Transformer>
                 <VectorParam id="354"  name="translation">
                  <InterpolatingParam id="355" interp="linr"  time="-9999999/1" value="0" leadInLength="0/1"  interpolater="leadin-linr"  />
                  <InterpolatingParam id="356" interp="linr"  time="-9999999/1" value="0" leadInLength="0/1"  interpolater="leadin-linr"  />
                  <InterpolatingParam id="357" interp="linr"  time="-9999999/1" value="0" leadInLength="0/1"  interpolater="leadin-linr"  />
                 </VectorParam>
                 <VectorParam id="358"  name="rotation">
                  <InterpolatingParam id="359" interp="linr"  time="-9999999/1" value="0" leadInLength="0/1"  interpolater="leadin-linr"  />
                  <InterpolatingParam id="360" interp="linr"  time="-9999999/1" value="0" leadInLength="0/1"  interpolater="leadin-linr"  />
                  <InterpolatingParam id="361" interp="linr"  time="-9999999/1" value="0" leadInLength="0/1"  interpolater="leadin-linr"  />
                 </VectorParam>
                 <VectorParam id="362"  name="shear">
                  <InterpolatingParam id="363" interp="linr"  time="-9999999/1" value="0" leadInLength="0/1"  interpolater="leadin-linr"  />
                  <InterpolatingParam id="364" interp="linr"  time="-9999999/1" value="0" leadInLength="0/1"  interpolater="leadin-linr"  />
                  <InterpolatingParam id="365" interp="linr"  time="-9999999/1" value="0" leadInLength="0/1"  interpolater="leadin-linr"  />
                 </VectorParam>
                 <VectorParam id="366"  name="scale">
                  <InterpolatingParam id="367" interp="linr"  time="-9999999/1" value="0.66666666666666663" leadInLength="0/1"  interpolater="leadin-linr"  />
                  <InterpolatingParam id="368" interp="linr"  time="-9999999/1" value="0.66666666666666663" leadInLength="0/1"  interpolater="leadin-linr"  />
                  <InterpolatingParam id="369" interp="linr"  time="-9999999/1" value="1" leadInLength="0/1"  interpolater="leadin-linr"  />
                 </VectorParam>
                 <VectorParam id="370"  name="anchor">
                  <InterpolatingParam id="371" interp="linr"  time="0/1" value="0" leadInLength="0/1"  />
                  <InterpolatingParam id="372" interp="linr"  time="0/1" value="0" leadInLength="0/1"  />
                  <InterpolatingParam id="373" interp="linr"  time="0/1" value="0" leadInLength="0/1"  />
                 </VectorParam>
                </Transformer>
                <Parameters>
                 <VectorParam id="374"  name="sourceCrop">
                  <InterpolatingParam id="375" interp="linr"  time="0/1" value="0" leadInLength="0/1"  />
                  <InterpolatingParam id="376" interp="linr"  time="0/1" value="0" leadInLength="0/1"  />
                  <InterpolatingParam id="377" interp="linr"  time="0/1" value="0" leadInLength="0/1"  />
                  <InterpolatingParam id="378" interp="linr"  time="0/1" value="0" leadInLength="0/1"  />
                 </VectorParam>
                 <VectorParam id="379"  name="geometryCrop">
                  <InterpolatingParam id="380" interp="linr"  time="-9999999/1" value="0" leadInLength="0/1"  interpolater="leadin-linr"  />
                  <InterpolatingParam id="381" interp="linr"  time="-9999999/1" value="0" leadInLength="0/1"  interpolater="leadin-linr"  />
                  <InterpolatingParam id="382" interp="linr"  time="-9999999/1" value="0" leadInLength="0/1"  interpolater="leadin-linr"  />
                  <InterpolatingParam id="383" interp="linr"  time="-9999999/1" value="0" leadInLength="0/1"  interpolater="leadin-linr"  />
                 </VectorParam>
                 <InterpolatingParam id="384" interp="linr"  time="-9999999/1" value="1" leadInLength="0/1"  interpolater="leadin-linr"  name="opacity"/>
                 <InterpolatingParam id="385" interp="linr"  time="0/1" value="1" leadInLength="0/1"  name="cursorOpacity"/>
                 <InterpolatingParam id="386" interp="linr"  time="0/1" value="1" leadInLength="0/1"  name="cursorScale"/>
                </Parameters>
                <Effects>
                 <GenericEffect id="387" name = "CursorBaseEffectName" >
                  <Parameters>
                  <InterpolatingParam id="388" interp="linr"  time="-9999999/1" value="1" leadInLength="0/1"   name="cursorSize"/>
                  <InterpolatingParam id="389" interp="linr"  time="-9999999/1" value="0" leadInLength="0/1"   name="highlightBlurRadius"/>
                  <InterpolatingParam id="390" interp="linr"  time="-9999999/1" value="0" leadInLength="0/1"   name="highlightColorBlue"/>
                  <InterpolatingParam id="391" interp="linr"  time="-9999999/1" value="255" leadInLength="0/1"   name="highlightColorGreen"/>
                  <InterpolatingParam id="392" interp="linr"  time="-9999999/1" value="255" leadInLength="0/1"   name="highlightColorRed"/>
                  <InterpolatingParam id="393" interp="linr"  time="-9999999/1" value="5" leadInLength="0/1"   name="highlightFeatherSize"/>
                  <InterpolatingParam id="394" interp="linr"  time="-9999999/1" value="2" leadInLength="0/1"   name="highlightMagnification"/>
                  <InterpolatingParam id="395" interp="linr"  time="-9999999/1" value="1" leadInLength="0/1"   name="highlightOpacity"/>
                  <InterpolatingParam id="396" interp="linr"  time="-9999999/1" value="45" leadInLength="0/1"   name="highlightSize"/>
                  <Parameter id="397"   name="highlightType">
                   <Keyframes>
                   <Keyframe id="398"  time="-9999999/1" value="0" leadInLength="0/1"  />
                   </Keyframes>
                  </Parameter>
                  <InterpolatingParam id="399" interp="linr"  time="-9999999/1" value="0" leadInLength="0/1"   name="leftClickColorBlue"/>
                  <InterpolatingParam id="400" interp="linr"  time="-9999999/1" value="0" leadInLength="0/1"   name="leftClickColorGreen"/>
                  <InterpolatingParam id="401" interp="linr"  time="-9999999/1" value="255" leadInLength="0/1"   name="leftClickColorRed"/>
                  <InterpolatingParam id="402" interp="linr"  time="-9999999/1" value="0.80000000000000004" leadInLength="0/1"   name="leftClickDuration"/>
                  <InterpolatingParam id="403" interp="linr"  time="-9999999/1" value="20" leadInLength="0/1"   name="leftClickSize"/>
                  <Parameter id="404"   name="leftClickSoundFilename">
                   <Keyframes>
                   <Keyframe id="405"  time="-9999999/1" value="" leadInLength="0/1"  />
                   </Keyframes>
                  </Parameter>
                  <InterpolatingParam id="406" interp="linr"  time="-9999999/1" value="1" leadInLength="0/1"   name="leftClickSoundVolume"/>
                  <Parameter id="407"   name="leftClickType">
                   <Keyframes>
                   <Keyframe id="408"  time="-9999999/1" value="0" leadInLength="0/1"  />
                   </Keyframes>
                  </Parameter>
                  <InterpolatingParam id="409" interp="linr"  time="-9999999/1" value="1" leadInLength="0/1"   name="opacity"/>
                  <InterpolatingParam id="410" interp="linr"  time="-9999999/1" value="255" leadInLength="0/1"   name="rightClickColorBlue"/>
                  <InterpolatingParam id="411" interp="linr"  time="-9999999/1" value="0" leadInLength="0/1"   name="rightClickColorGreen"/>
                  <InterpolatingParam id="412" interp="linr"  time="-9999999/1" value="0" leadInLength="0/1"   name="rightClickColorRed"/>
                  <InterpolatingParam id="413" interp="linr"  time="-9999999/1" value="0.80000000000000004" leadInLength="0/1"   name="rightClickDuration"/>
                  <InterpolatingParam id="414" interp="linr"  time="-9999999/1" value="20" leadInLength="0/1"   name="rightClickSize"/>
                  <Parameter id="415"   name="rightClickSoundFilename">
                   <Keyframes>
                   <Keyframe id="416"  time="-9999999/1" value="" leadInLength="0/1"  />
                   </Keyframes>
                  </Parameter>
                  <InterpolatingParam id="417" interp="linr"  time="-9999999/1" value="1" leadInLength="0/1"   name="rightClickSoundVolume"/>
                  <Parameter id="418"   name="rightClickType">
                   <Keyframes>
                   <Keyframe id="419"  time="-9999999/1" value="0" leadInLength="0/1"  />
                   </Keyframes>
                  </Parameter>
                  </Parameters>
                  <MetaData>
                   <entry key="effectIndex" val="0"/>
                  </MetaData>
                 </GenericEffect>
                </Effects>
                <Attributes>
                 <Attribute id="420" value="" name="ident"/>
                </Attributes>
                <ExtraData>
                 <Entry key="ZoomPanBin">
                  <ZoomPanBin id="421"  >
                   <ZoomPanKeyframes>
                    <ZoomPanKeyframe id="422" timeRangeEnd="-9999999/1" timeRangeDuration="0/1" interpolaterName="leadin-linr"  />
                   </ZoomPanKeyframes>
                  </ZoomPanBin>
                 </Entry>
                 <Entry key="CursorEffectBin">
                  <CursorEffectBin id="423"  >
                   <CursorEffectKeyframes>
                    <CursorEffectKeyframe id="424" timeRangeEnd="-9999999/1" timeRangeDuration="0/1" interpolaterName=""  />
                   </CursorEffectKeyframes>
                  </CursorEffectBin>
                 </Entry>
                </ExtraData>
               </ScreenVMFile>
               <MetaData>
                <entry key="AutoAppliedSmartFocus" val="False"/>
                <entry key="WinSubProjectDisplayName" val=""/>
               </MetaData>
              </UnifiedMedia>
             </Medias>
            </GenericTrack>
           </Tracks>
          </GenericMixer>
          <MetaData>
           <entry key="IsGroupExpanded" val="False"/>
           <entry key="WinGroupOrigin" val="Asset"/>
           <entry key="WinSubProjectDisplayName" val="3"/>
          </MetaData>
          <ExtraData>
           <Entry key="ZoomPanBin">
            <ZoomPanBin id="425"  >
             <ZoomPanKeyframes>
              <ZoomPanKeyframe id="426" timeRangeEnd="-9999999/1" timeRangeDuration="0/1" interpolaterName="linr"  />
             </ZoomPanKeyframes>
            </ZoomPanBin>
           </Entry>
          </ExtraData>
         </Group>
         <Group id="427" start="6188" duration="870" scalar="1" mediaStart="0" mediaDuration="870" baseWidthAttr="0" baseHeightAttr="0"  >
          <Parameters>
           <VectorParam id="428"  name="sourceCrop">
            <InterpolatingParam id="429" interp="linr"  time="0/1" value="0" leadInLength="0/1"  />
            <InterpolatingParam id="430" interp="linr"  time="0/1" value="0" leadInLength="0/1"  />
            <InterpolatingParam id="431" interp="linr"  time="0/1" value="0" leadInLength="0/1"  />
            <InterpolatingParam id="432" interp="linr"  time="0/1" value="0" leadInLength="0/1"  />
           </VectorParam>
           <VectorParam id="433"  name="geometryCrop">
            <InterpolatingParam id="434" interp="linr"  time="-9999999/1" value="0" leadInLength="0/1"  />
            <InterpolatingParam id="435" interp="linr"  time="-9999999/1" value="0" leadInLength="0/1"  />
            <InterpolatingParam id="436" interp="linr"  time="-9999999/1" value="0" leadInLength="0/1"  />
            <InterpolatingParam id="437" interp="linr"  time="-9999999/1" value="0" leadInLength="0/1"  />
           </VectorParam>
           <InterpolatingParam id="438" interp="linr"  time="-9999999/1" value="1" leadInLength="0/1"  name="opacity"/>
           <Parameter id="439"  name="captions"/>
           <InterpolatingParam id="440" interp="linr"  time="0/1" value="1" leadInLength="0/1"  name="volume"/>
          </Parameters>
          <Transformer>
           <VectorParam id="441"  name="translation">
            <InterpolatingParam id="442" interp="linr"  time="-9999999/1" value="0" leadInLength="0/1"  />
            <InterpolatingParam id="443" interp="linr"  time="-9999999/1" value="0" leadInLength="0/1"  />
            <InterpolatingParam id="444" interp="linr"  time="-9999999/1" value="0" leadInLength="0/1"  />
           </VectorParam>
           <VectorParam id="445"  name="rotation">
            <InterpolatingParam id="446" interp="linr"  time="-9999999/1" value="0" leadInLength="0/1"  />
            <InterpolatingParam id="447" interp="linr"  time="-9999999/1" value="0" leadInLength="0/1"  />
            <InterpolatingParam id="448" interp="linr"  time="-9999999/1" value="0" leadInLength="0/1"  />
           </VectorParam>
           <VectorParam id="449"  name="shear">
            <InterpolatingParam id="450" interp="linr"  time="-9999999/1" value="0" leadInLength="0/1"  />
            <InterpolatingParam id="451" interp="linr"  time="-9999999/1" value="0" leadInLength="0/1"  />
            <InterpolatingParam id="452" interp="linr"  time="-9999999/1" value="0" leadInLength="0/1"  />
           </VectorParam>
           <VectorParam id="453"  name="scale">
            <InterpolatingParam id="454" interp="linr"  time="-9999999/1" value="1" leadInLength="0/1"  />
            <InterpolatingParam id="455" interp="linr"  time="-9999999/1" value="1" leadInLength="0/1"  />
            <InterpolatingParam id="456" interp="linr"  time="-9999999/1" value="1" leadInLength="0/1"  />
           </VectorParam>
           <VectorParam id="457"  name="anchor">
            <InterpolatingParam id="458" interp="linr"  time="0/1" value="0" leadInLength="0/1"  />
            <InterpolatingParam id="459" interp="linr"  time="0/1" value="0" leadInLength="0/1"  />
            <InterpolatingParam id="460" interp="linr"  time="0/1" value="0" leadInLength="0/1"  />
           </VectorParam>
          </Transformer>
          <GenericMixer id="461"  >
           <MetaData>
           </MetaData>
           <Tracks>
            <GenericTrack id="462"  >
             <Attributes>
              <Attribute id="463" value="" name="ident"/>
              <Attribute id="464" value="0" name="audioMuted"/>
              <Attribute id="465" value="0" name="videoHidden"/>
             </Attributes>
             <MetaData>
              <entry key="IsLocked" val="False"/>
              <entry key="WinTrackHeight" val="0"/>
             </MetaData>
             <Medias>
              <AMFile id="466" start="0" duration="870" scalar="1/1" mediaStart="0/1" mediaDuration="870/1" trackNumber="2" src="7" channelNumber="0,1" >
               <Parameters>
                <InterpolatingParam id="467" interp="linr"  time="0/1" value="1" leadInLength="0/1"  name="volume"/>
                <Parameter id="468"  name="captions"/>
               </Parameters>
               <Attributes>
                <Attribute id="469" value="" name="ident"/>
                <Attribute id="470" value="44100" name="sampleRate"/>
                <Attribute id="471" value="16" name="bitDepth"/>
                <Attribute id="472" value="1" name="gain"/>
                <Attribute id="473" value="0" name="mixToMono"/>
               </Attributes>
               <MetaData>
                <entry key="WinSubProjectDisplayName" val=""/>
               </MetaData>
              </AMFile>
             </Medias>
            </GenericTrack>
            <GenericTrack id="474"  >
             <Attributes>
              <Attribute id="475" value="" name="ident"/>
              <Attribute id="476" value="0" name="audioMuted"/>
              <Attribute id="477" value="0" name="videoHidden"/>
             </Attributes>
             <MetaData>
              <entry key="IsLocked" val="False"/>
              <entry key="WinTrackHeight" val="0"/>
             </MetaData>
             <Medias>
              <UnifiedMedia id="478"  >
               <AMFile id="479" start="0" duration="870" scalar="1/1" mediaStart="0/1" mediaDuration="870/1" trackNumber="1" src="7" channelNumber="0,1" >
                <Parameters>
                 <InterpolatingParam id="480" interp="linr"  time="0/1" value="1" leadInLength="0/1"  name="volume"/>
                 <Parameter id="481"  name="captions"/>
                </Parameters>
                <Attributes>
                 <Attribute id="482" value="" name="ident"/>
                 <Attribute id="483" value="44100" name="sampleRate"/>
                 <Attribute id="484" value="16" name="bitDepth"/>
                 <Attribute id="485" value="1" name="gain"/>
                 <Attribute id="486" value="0" name="mixToMono"/>
                </Attributes>
               </AMFile>
               <ScreenVMFile id="487" start="0" duration="870" scalar="1/1" mediaStart="0/1" mediaDuration="870/1" trackNumber="0" src="7" >
                <Transformer>
                 <VectorParam id="488"  name="translation">
                  <InterpolatingParam id="489" interp="linr"  time="-9999999/1" value="0" leadInLength="0/1"  interpolater="leadin-linr"  />
                  <InterpolatingParam id="490" interp="linr"  time="-9999999/1" value="0" leadInLength="0/1"  interpolater="leadin-linr"  />
                  <InterpolatingParam id="491" interp="linr"  time="-9999999/1" value="0" leadInLength="0/1"  interpolater="leadin-linr"  />
                 </VectorParam>
                 <VectorParam id="492"  name="rotation">
                  <InterpolatingParam id="493" interp="linr"  time="-9999999/1" value="0" leadInLength="0/1"  interpolater="leadin-linr"  />
                  <InterpolatingParam id="494" interp="linr"  time="-9999999/1" value="0" leadInLength="0/1"  interpolater="leadin-linr"  />
                  <InterpolatingParam id="495" interp="linr"  time="-9999999/1" value="0" leadInLength="0/1"  interpolater="leadin-linr"  />
                 </VectorParam>
                 <VectorParam id="496"  name="shear">
                  <InterpolatingParam id="497" interp="linr"  time="-9999999/1" value="0" leadInLength="0/1"  interpolater="leadin-linr"  />
                  <InterpolatingParam id="498" interp="linr"  time="-9999999/1" value="0" leadInLength="0/1"  interpolater="leadin-linr"  />
                  <InterpolatingParam id="499" interp="linr"  time="-9999999/1" value="0" leadInLength="0/1"  interpolater="leadin-linr"  />
                 </VectorParam>
                 <VectorParam id="500"  name="scale">
                  <InterpolatingParam id="501" interp="linr"  time="-9999999/1" value="0.66666666666666663" leadInLength="0/1"  interpolater="leadin-linr"  />
                  <InterpolatingParam id="502" interp="linr"  time="-9999999/1" value="0.66666666666666663" leadInLength="0/1"  interpolater="leadin-linr"  />
                  <InterpolatingParam id="503" interp="linr"  time="-9999999/1" value="1" leadInLength="0/1"  interpolater="leadin-linr"  />
                 </VectorParam>
                 <VectorParam id="504"  name="anchor">
                  <InterpolatingParam id="505" interp="linr"  time="0/1" value="0" leadInLength="0/1"  />
                  <InterpolatingParam id="506" interp="linr"  time="0/1" value="0" leadInLength="0/1"  />
                  <InterpolatingParam id="507" interp="linr"  time="0/1" value="0" leadInLength="0/1"  />
                 </VectorParam>
                </Transformer>
                <Parameters>
                 <VectorParam id="508"  name="sourceCrop">
                  <InterpolatingParam id="509" interp="linr"  time="0/1" value="0" leadInLength="0/1"  />
                  <InterpolatingParam id="510" interp="linr"  time="0/1" value="0" leadInLength="0/1"  />
                  <InterpolatingParam id="511" interp="linr"  time="0/1" value="0" leadInLength="0/1"  />
                  <InterpolatingParam id="512" interp="linr"  time="0/1" value="0" leadInLength="0/1"  />
                 </VectorParam>
                 <VectorParam id="513"  name="geometryCrop">
                  <InterpolatingParam id="514" interp="linr"  time="-9999999/1" value="0" leadInLength="0/1"  interpolater="leadin-linr"  />
                  <InterpolatingParam id="515" interp="linr"  time="-9999999/1" value="0" leadInLength="0/1"  interpolater="leadin-linr"  />
                  <InterpolatingParam id="516" interp="linr"  time="-9999999/1" value="0" leadInLength="0/1"  interpolater="leadin-linr"  />
                  <InterpolatingParam id="517" interp="linr"  time="-9999999/1" value="0" leadInLength="0/1"  interpolater="leadin-linr"  />
                 </VectorParam>
                 <InterpolatingParam id="518" interp="linr"  time="-9999999/1" value="1" leadInLength="0/1"  interpolater="leadin-linr"  name="opacity"/>
                 <InterpolatingParam id="519" interp="linr"  time="0/1" value="1" leadInLength="0/1"  name="cursorOpacity"/>
                 <InterpolatingParam id="520" interp="linr"  time="0/1" value="1" leadInLength="0/1"  name="cursorScale"/>
                </Parameters>
                <Effects>
                 <GenericEffect id="521" name = "CursorBaseEffectName" >
                  <Parameters>
                  <InterpolatingParam id="522" interp="linr"  time="-9999999/1" value="1" leadInLength="0/1"   name="cursorSize"/>
                  <InterpolatingParam id="523" interp="linr"  time="-9999999/1" value="0" leadInLength="0/1"   name="highlightBlurRadius"/>
                  <InterpolatingParam id="524" interp="linr"  time="-9999999/1" value="0" leadInLength="0/1"   name="highlightColorBlue"/>
                  <InterpolatingParam id="525" interp="linr"  time="-9999999/1" value="255" leadInLength="0/1"   name="highlightColorGreen"/>
                  <InterpolatingParam id="526" interp="linr"  time="-9999999/1" value="255" leadInLength="0/1"   name="highlightColorRed"/>
                  <InterpolatingParam id="527" interp="linr"  time="-9999999/1" value="5" leadInLength="0/1"   name="highlightFeatherSize"/>
                  <InterpolatingParam id="528" interp="linr"  time="-9999999/1" value="2" leadInLength="0/1"   name="highlightMagnification"/>
                  <InterpolatingParam id="529" interp="linr"  time="-9999999/1" value="1" leadInLength="0/1"   name="highlightOpacity"/>
                  <InterpolatingParam id="530" interp="linr"  time="-9999999/1" value="45" leadInLength="0/1"   name="highlightSize"/>
                  <Parameter id="531"   name="highlightType">
                   <Keyframes>
                   <Keyframe id="532"  time="-9999999/1" value="0" leadInLength="0/1"  />
                   </Keyframes>
                  </Parameter>
                  <InterpolatingParam id="533" interp="linr"  time="-9999999/1" value="0" leadInLength="0/1"   name="leftClickColorBlue"/>
                  <InterpolatingParam id="534" interp="linr"  time="-9999999/1" value="0" leadInLength="0/1"   name="leftClickColorGreen"/>
                  <InterpolatingParam id="535" interp="linr"  time="-9999999/1" value="255" leadInLength="0/1"   name="leftClickColorRed"/>
                  <InterpolatingParam id="536" interp="linr"  time="-9999999/1" value="0.80000000000000004" leadInLength="0/1"   name="leftClickDuration"/>
                  <InterpolatingParam id="537" interp="linr"  time="-9999999/1" value="20" leadInLength="0/1"   name="leftClickSize"/>
                  <Parameter id="538"   name="leftClickSoundFilename">
                   <Keyframes>
                   <Keyframe id="539"  time="-9999999/1" value="" leadInLength="0/1"  />
                   </Keyframes>
                  </Parameter>
                  <InterpolatingParam id="540" interp="linr"  time="-9999999/1" value="1" leadInLength="0/1"   name="leftClickSoundVolume"/>
                  <Parameter id="541"   name="leftClickType">
                   <Keyframes>
                   <Keyframe id="542"  time="-9999999/1" value="0" leadInLength="0/1"  />
                   </Keyframes>
                  </Parameter>
                  <InterpolatingParam id="543" interp="linr"  time="-9999999/1" value="1" leadInLength="0/1"   name="opacity"/>
                  <InterpolatingParam id="544" interp="linr"  time="-9999999/1" value="255" leadInLength="0/1"   name="rightClickColorBlue"/>
                  <InterpolatingParam id="545" interp="linr"  time="-9999999/1" value="0" leadInLength="0/1"   name="rightClickColorGreen"/>
                  <InterpolatingParam id="546" interp="linr"  time="-9999999/1" value="0" leadInLength="0/1"   name="rightClickColorRed"/>
                  <InterpolatingParam id="547" interp="linr"  time="-9999999/1" value="0.80000000000000004" leadInLength="0/1"   name="rightClickDuration"/>
                  <InterpolatingParam id="548" interp="linr"  time="-9999999/1" value="20" leadInLength="0/1"   name="rightClickSize"/>
                  <Parameter id="549"   name="rightClickSoundFilename">
                   <Keyframes>
                   <Keyframe id="550"  time="-9999999/1" value="" leadInLength="0/1"  />
                   </Keyframes>
                  </Parameter>
                  <InterpolatingParam id="551" interp="linr"  time="-9999999/1" value="1" leadInLength="0/1"   name="rightClickSoundVolume"/>
                  <Parameter id="552"   name="rightClickType">
                   <Keyframes>
                   <Keyframe id="553"  time="-9999999/1" value="0" leadInLength="0/1"  />
                   </Keyframes>
                  </Parameter>
                  </Parameters>
                  <MetaData>
                   <entry key="effectIndex" val="0"/>
                  </MetaData>
                 </GenericEffect>
                </Effects>
                <Attributes>
                 <Attribute id="554" value="" name="ident"/>
                </Attributes>
                <ExtraData>
                 <Entry key="ZoomPanBin">
                  <ZoomPanBin id="555"  >
                   <ZoomPanKeyframes>
                    <ZoomPanKeyframe id="556" timeRangeEnd="-9999999/1" timeRangeDuration="0/1" interpolaterName="leadin-linr"  />
                   </ZoomPanKeyframes>
                  </ZoomPanBin>
                 </Entry>
                 <Entry key="CursorEffectBin">
                  <CursorEffectBin id="557"  >
                   <CursorEffectKeyframes>
                    <CursorEffectKeyframe id="558" timeRangeEnd="-9999999/1" timeRangeDuration="0/1" interpolaterName=""  />
                   </CursorEffectKeyframes>
                  </CursorEffectBin>
                 </Entry>
                </ExtraData>
               </ScreenVMFile>
               <MetaData>
                <entry key="AutoAppliedSmartFocus" val="False"/>
                <entry key="WinSubProjectDisplayName" val=""/>
               </MetaData>
              </UnifiedMedia>
             </Medias>
            </GenericTrack>
           </Tracks>
          </GenericMixer>
          <MetaData>
           <entry key="IsGroupExpanded" val="False"/>
           <entry key="WinGroupOrigin" val="Asset"/>
           <entry key="WinSubProjectDisplayName" val="4"/>
          </MetaData>
          <ExtraData>
           <Entry key="ZoomPanBin">
            <ZoomPanBin id="559"  >
             <ZoomPanKeyframes>
              <ZoomPanKeyframe id="560" timeRangeEnd="-9999999/1" timeRangeDuration="0/1" interpolaterName="linr"  />
             </ZoomPanKeyframes>
            </ZoomPanBin>
           </Entry>
          </ExtraData>
         </Group>
         <Group id="561" start="7058" duration="930" scalar="1" mediaStart="0" mediaDuration="930" baseWidthAttr="0" baseHeightAttr="0"  >
          <Parameters>
           <VectorParam id="562"  name="sourceCrop">
            <InterpolatingParam id="563" interp="linr"  time="0/1" value="0" leadInLength="0/1"  />
            <InterpolatingParam id="564" interp="linr"  time="0/1" value="0" leadInLength="0/1"  />
            <InterpolatingParam id="565" interp="linr"  time="0/1" value="0" leadInLength="0/1"  />
            <InterpolatingParam id="566" interp="linr"  time="0/1" value="0" leadInLength="0/1"  />
           </VectorParam>
           <VectorParam id="567"  name="geometryCrop">
            <InterpolatingParam id="568" interp="linr"  time="-9999999/1" value="0" leadInLength="0/1"  />
            <InterpolatingParam id="569" interp="linr"  time="-9999999/1" value="0" leadInLength="0/1"  />
            <InterpolatingParam id="570" interp="linr"  time="-9999999/1" value="0" leadInLength="0/1"  />
            <InterpolatingParam id="571" interp="linr"  time="-9999999/1" value="0" leadInLength="0/1"  />
           </VectorParam>
           <InterpolatingParam id="572" interp="linr"  time="-9999999/1" value="1" leadInLength="0/1"  name="opacity"/>
           <Parameter id="573"  name="captions"/>
           <InterpolatingParam id="574" interp="linr"  time="0/1" value="1" leadInLength="0/1"  name="volume"/>
          </Parameters>
          <Transformer>
           <VectorParam id="575"  name="translation">
            <InterpolatingParam id="576" interp="linr"  time="-9999999/1" value="0" leadInLength="0/1"  />
            <InterpolatingParam id="577" interp="linr"  time="-9999999/1" value="0" leadInLength="0/1"  />
            <InterpolatingParam id="578" interp="linr"  time="-9999999/1" value="0" leadInLength="0/1"  />
           </VectorParam>
           <VectorParam id="579"  name="rotation">
            <InterpolatingParam id="580" interp="linr"  time="-9999999/1" value="0" leadInLength="0/1"  />
            <InterpolatingParam id="581" interp="linr"  time="-9999999/1" value="0" leadInLength="0/1"  />
            <InterpolatingParam id="582" interp="linr"  time="-9999999/1" value="0" leadInLength="0/1"  />
           </VectorParam>
           <VectorParam id="583"  name="shear">
            <InterpolatingParam id="584" interp="linr"  time="-9999999/1" value="0" leadInLength="0/1"  />
            <InterpolatingParam id="585" interp="linr"  time="-9999999/1" value="0" leadInLength="0/1"  />
            <InterpolatingParam id="586" interp="linr"  time="-9999999/1" value="0" leadInLength="0/1"  />
           </VectorParam>
           <VectorParam id="587"  name="scale">
            <InterpolatingParam id="588" interp="linr"  time="-9999999/1" value="1" leadInLength="0/1"  />
            <InterpolatingParam id="589" interp="linr"  time="-9999999/1" value="1" leadInLength="0/1"  />
            <InterpolatingParam id="590" interp="linr"  time="-9999999/1" value="1" leadInLength="0/1"  />
           </VectorParam>
           <VectorParam id="591"  name="anchor">
            <InterpolatingParam id="592" interp="linr"  time="0/1" value="0" leadInLength="0/1"  />
            <InterpolatingParam id="593" interp="linr"  time="0/1" value="0" leadInLength="0/1"  />
            <InterpolatingParam id="594" interp="linr"  time="0/1" value="0" leadInLength="0/1"  />
           </VectorParam>
          </Transformer>
          <GenericMixer id="595"  >
           <MetaData>
           </MetaData>
           <Tracks>
            <GenericTrack id="596"  >
             <Attributes>
              <Attribute id="597" value="" name="ident"/>
              <Attribute id="598" value="0" name="audioMuted"/>
              <Attribute id="599" value="0" name="videoHidden"/>
             </Attributes>
             <MetaData>
              <entry key="IsLocked" val="False"/>
              <entry key="WinTrackHeight" val="0"/>
             </MetaData>
             <Medias>
              <AMFile id="600" start="0" duration="930" scalar="1/1" mediaStart="0/1" mediaDuration="930/1" trackNumber="2" src="8" channelNumber="0,1" >
               <Parameters>
                <InterpolatingParam id="601" interp="linr"  time="0/1" value="1" leadInLength="0/1"  name="volume"/>
                <Parameter id="602"  name="captions"/>
               </Parameters>
               <Attributes>
                <Attribute id="603" value="" name="ident"/>
                <Attribute id="604" value="44100" name="sampleRate"/>
                <Attribute id="605" value="16" name="bitDepth"/>
                <Attribute id="606" value="1" name="gain"/>
                <Attribute id="607" value="0" name="mixToMono"/>
               </Attributes>
               <MetaData>
                <entry key="WinSubProjectDisplayName" val=""/>
               </MetaData>
              </AMFile>
             </Medias>
            </GenericTrack>
            <GenericTrack id="608"  >
             <Attributes>
              <Attribute id="609" value="" name="ident"/>
              <Attribute id="610" value="0" name="audioMuted"/>
              <Attribute id="611" value="0" name="videoHidden"/>
             </Attributes>
             <MetaData>
              <entry key="IsLocked" val="False"/>
              <entry key="WinTrackHeight" val="0"/>
             </MetaData>
             <Medias>
              <UnifiedMedia id="612"  >
               <AMFile id="613" start="0" duration="930" scalar="1/1" mediaStart="0/1" mediaDuration="930/1" trackNumber="1" src="8" channelNumber="0,1" >
                <Parameters>
                 <InterpolatingParam id="614" interp="linr"  time="0/1" value="1" leadInLength="0/1"  name="volume"/>
                 <Parameter id="615"  name="captions"/>
                </Parameters>
                <Attributes>
                 <Attribute id="616" value="" name="ident"/>
                 <Attribute id="617" value="44100" name="sampleRate"/>
                 <Attribute id="618" value="16" name="bitDepth"/>
                 <Attribute id="619" value="1" name="gain"/>
                 <Attribute id="620" value="0" name="mixToMono"/>
                </Attributes>
               </AMFile>
               <ScreenVMFile id="621" start="0" duration="930" scalar="1/1" mediaStart="0/1" mediaDuration="930/1" trackNumber="0" src="8" >
                <Transformer>
                 <VectorParam id="622"  name="translation">
                  <InterpolatingParam id="623" interp="linr"  time="-9999999/1" value="0" leadInLength="0/1"  interpolater="leadin-linr"  />
                  <InterpolatingParam id="624" interp="linr"  time="-9999999/1" value="0" leadInLength="0/1"  interpolater="leadin-linr"  />
                  <InterpolatingParam id="625" interp="linr"  time="-9999999/1" value="0" leadInLength="0/1"  interpolater="leadin-linr"  />
                 </VectorParam>
                 <VectorParam id="626"  name="rotation">
                  <InterpolatingParam id="627" interp="linr"  time="-9999999/1" value="0" leadInLength="0/1"  interpolater="leadin-linr"  />
                  <InterpolatingParam id="628" interp="linr"  time="-9999999/1" value="0" leadInLength="0/1"  interpolater="leadin-linr"  />
                  <InterpolatingParam id="629" interp="linr"  time="-9999999/1" value="0" leadInLength="0/1"  interpolater="leadin-linr"  />
                 </VectorParam>
                 <VectorParam id="630"  name="shear">
                  <InterpolatingParam id="631" interp="linr"  time="-9999999/1" value="0" leadInLength="0/1"  interpolater="leadin-linr"  />
                  <InterpolatingParam id="632" interp="linr"  time="-9999999/1" value="0" leadInLength="0/1"  interpolater="leadin-linr"  />
                  <InterpolatingParam id="633" interp="linr"  time="-9999999/1" value="0" leadInLength="0/1"  interpolater="leadin-linr"  />
                 </VectorParam>
                 <VectorParam id="634"  name="scale">
                  <InterpolatingParam id="635" interp="linr"  time="-9999999/1" value="0.66666666666666663" leadInLength="0/1"  interpolater="leadin-linr"  />
                  <InterpolatingParam id="636" interp="linr"  time="-9999999/1" value="0.66666666666666663" leadInLength="0/1"  interpolater="leadin-linr"  />
                  <InterpolatingParam id="637" interp="linr"  time="-9999999/1" value="1" leadInLength="0/1"  interpolater="leadin-linr"  />
                 </VectorParam>
                 <VectorParam id="638"  name="anchor">
                  <InterpolatingParam id="639" interp="linr"  time="0/1" value="0" leadInLength="0/1"  />
                  <InterpolatingParam id="640" interp="linr"  time="0/1" value="0" leadInLength="0/1"  />
                  <InterpolatingParam id="641" interp="linr"  time="0/1" value="0" leadInLength="0/1"  />
                 </VectorParam>
                </Transformer>
                <Parameters>
                 <VectorParam id="642"  name="sourceCrop">
                  <InterpolatingParam id="643" interp="linr"  time="0/1" value="0" leadInLength="0/1"  />
                  <InterpolatingParam id="644" interp="linr"  time="0/1" value="0" leadInLength="0/1"  />
                  <InterpolatingParam id="645" interp="linr"  time="0/1" value="0" leadInLength="0/1"  />
                  <InterpolatingParam id="646" interp="linr"  time="0/1" value="0" leadInLength="0/1"  />
                 </VectorParam>
                 <VectorParam id="647"  name="geometryCrop">
                  <InterpolatingParam id="648" interp="linr"  time="-9999999/1" value="0" leadInLength="0/1"  interpolater="leadin-linr"  />
                  <InterpolatingParam id="649" interp="linr"  time="-9999999/1" value="0" leadInLength="0/1"  interpolater="leadin-linr"  />
                  <InterpolatingParam id="650" interp="linr"  time="-9999999/1" value="0" leadInLength="0/1"  interpolater="leadin-linr"  />
                  <InterpolatingParam id="651" interp="linr"  time="-9999999/1" value="0" leadInLength="0/1"  interpolater="leadin-linr"  />
                 </VectorParam>
                 <InterpolatingParam id="652" interp="linr"  time="-9999999/1" value="1" leadInLength="0/1"  interpolater="leadin-linr"  name="opacity"/>
                 <InterpolatingParam id="653" interp="linr"  time="0/1" value="1" leadInLength="0/1"  name="cursorOpacity"/>
                 <InterpolatingParam id="654" interp="linr"  time="0/1" value="1" leadInLength="0/1"  name="cursorScale"/>
                </Parameters>
                <Effects>
                 <GenericEffect id="655" name = "CursorBaseEffectName" >
                  <Parameters>
                  <InterpolatingParam id="656" interp="linr"  time="-9999999/1" value="1" leadInLength="0/1"   name="cursorSize"/>
                  <InterpolatingParam id="657" interp="linr"  time="-9999999/1" value="0" leadInLength="0/1"   name="highlightBlurRadius"/>
                  <InterpolatingParam id="658" interp="linr"  time="-9999999/1" value="0" leadInLength="0/1"   name="highlightColorBlue"/>
                  <InterpolatingParam id="659" interp="linr"  time="-9999999/1" value="255" leadInLength="0/1"   name="highlightColorGreen"/>
                  <InterpolatingParam id="660" interp="linr"  time="-9999999/1" value="255" leadInLength="0/1"   name="highlightColorRed"/>
                  <InterpolatingParam id="661" interp="linr"  time="-9999999/1" value="5" leadInLength="0/1"   name="highlightFeatherSize"/>
                  <InterpolatingParam id="662" interp="linr"  time="-9999999/1" value="2" leadInLength="0/1"   name="highlightMagnification"/>
                  <InterpolatingParam id="663" interp="linr"  time="-9999999/1" value="1" leadInLength="0/1"   name="highlightOpacity"/>
                  <InterpolatingParam id="664" interp="linr"  time="-9999999/1" value="45" leadInLength="0/1"   name="highlightSize"/>
                  <Parameter id="665"   name="highlightType">
                   <Keyframes>
                   <Keyframe id="666"  time="-9999999/1" value="0" leadInLength="0/1"  />
                   </Keyframes>
                  </Parameter>
                  <InterpolatingParam id="667" interp="linr"  time="-9999999/1" value="0" leadInLength="0/1"   name="leftClickColorBlue"/>
                  <InterpolatingParam id="668" interp="linr"  time="-9999999/1" value="0" leadInLength="0/1"   name="leftClickColorGreen"/>
                  <InterpolatingParam id="669" interp="linr"  time="-9999999/1" value="255" leadInLength="0/1"   name="leftClickColorRed"/>
                  <InterpolatingParam id="670" interp="linr"  time="-9999999/1" value="0.80000000000000004" leadInLength="0/1"   name="leftClickDuration"/>
                  <InterpolatingParam id="671" interp="linr"  time="-9999999/1" value="20" leadInLength="0/1"   name="leftClickSize"/>
                  <Parameter id="672"   name="leftClickSoundFilename">
                   <Keyframes>
                   <Keyframe id="673"  time="-9999999/1" value="" leadInLength="0/1"  />
                   </Keyframes>
                  </Parameter>
                  <InterpolatingParam id="674" interp="linr"  time="-9999999/1" value="1" leadInLength="0/1"   name="leftClickSoundVolume"/>
                  <Parameter id="675"   name="leftClickType">
                   <Keyframes>
                   <Keyframe id="676"  time="-9999999/1" value="0" leadInLength="0/1"  />
                   </Keyframes>
                  </Parameter>
                  <InterpolatingParam id="677" interp="linr"  time="-9999999/1" value="1" leadInLength="0/1"   name="opacity"/>
                  <InterpolatingParam id="678" interp="linr"  time="-9999999/1" value="255" leadInLength="0/1"   name="rightClickColorBlue"/>
                  <InterpolatingParam id="679" interp="linr"  time="-9999999/1" value="0" leadInLength="0/1"   name="rightClickColorGreen"/>
                  <InterpolatingParam id="680" interp="linr"  time="-9999999/1" value="0" leadInLength="0/1"   name="rightClickColorRed"/>
                  <InterpolatingParam id="681" interp="linr"  time="-9999999/1" value="0.80000000000000004" leadInLength="0/1"   name="rightClickDuration"/>
                  <InterpolatingParam id="682" interp="linr"  time="-9999999/1" value="20" leadInLength="0/1"   name="rightClickSize"/>
                  <Parameter id="683"   name="rightClickSoundFilename">
                   <Keyframes>
                   <Keyframe id="684"  time="-9999999/1" value="" leadInLength="0/1"  />
                   </Keyframes>
                  </Parameter>
                  <InterpolatingParam id="685" interp="linr"  time="-9999999/1" value="1" leadInLength="0/1"   name="rightClickSoundVolume"/>
                  <Parameter id="686"   name="rightClickType">
                   <Keyframes>
                   <Keyframe id="687"  time="-9999999/1" value="0" leadInLength="0/1"  />
                   </Keyframes>
                  </Parameter>
                  </Parameters>
                  <MetaData>
                   <entry key="effectIndex" val="0"/>
                  </MetaData>
                 </GenericEffect>
                </Effects>
                <Attributes>
                 <Attribute id="688" value="" name="ident"/>
                </Attributes>
                <ExtraData>
                 <Entry key="ZoomPanBin">
                  <ZoomPanBin id="689"  >
                   <ZoomPanKeyframes>
                    <ZoomPanKeyframe id="690" timeRangeEnd="-9999999/1" timeRangeDuration="0/1" interpolaterName="leadin-linr"  />
                   </ZoomPanKeyframes>
                  </ZoomPanBin>
                 </Entry>
                 <Entry key="CursorEffectBin">
                  <CursorEffectBin id="691"  >
                   <CursorEffectKeyframes>
                    <CursorEffectKeyframe id="692" timeRangeEnd="-9999999/1" timeRangeDuration="0/1" interpolaterName=""  />
                   </CursorEffectKeyframes>
                  </CursorEffectBin>
                 </Entry>
                </ExtraData>
               </ScreenVMFile>
               <MetaData>
                <entry key="AutoAppliedSmartFocus" val="False"/>
                <entry key="WinSubProjectDisplayName" val=""/>
               </MetaData>
              </UnifiedMedia>
             </Medias>
            </GenericTrack>
           </Tracks>
          </GenericMixer>
          <MetaData>
           <entry key="IsGroupExpanded" val="False"/>
           <entry key="WinGroupOrigin" val="Asset"/>
           <entry key="WinSubProjectDisplayName" val="5"/>
          </MetaData>
          <ExtraData>
           <Entry key="ZoomPanBin">
            <ZoomPanBin id="693"  >
             <ZoomPanKeyframes>
              <ZoomPanKeyframe id="694" timeRangeEnd="-9999999/1" timeRangeDuration="0/1" interpolaterName="linr"  />
             </ZoomPanKeyframes>
            </ZoomPanBin>
           </Entry>
          </ExtraData>
         </Group>
         <Group id="695" start="7988" duration="1202" scalar="1" mediaStart="0" mediaDuration="1202" baseWidthAttr="0" baseHeightAttr="0"  >
          <Parameters>
           <VectorParam id="696"  name="sourceCrop">
            <InterpolatingParam id="697" interp="linr"  time="0/1" value="0" leadInLength="0/1"  />
            <InterpolatingParam id="698" interp="linr"  time="0/1" value="0" leadInLength="0/1"  />
            <InterpolatingParam id="699" interp="linr"  time="0/1" value="0" leadInLength="0/1"  />
            <InterpolatingParam id="700" interp="linr"  time="0/1" value="0" leadInLength="0/1"  />
           </VectorParam>
           <VectorParam id="701"  name="geometryCrop">
            <InterpolatingParam id="702" interp="linr"  time="-9999999/1" value="0" leadInLength="0/1"  />
            <InterpolatingParam id="703" interp="linr"  time="-9999999/1" value="0" leadInLength="0/1"  />
            <InterpolatingParam id="704" interp="linr"  time="-9999999/1" value="0" leadInLength="0/1"  />
            <InterpolatingParam id="705" interp="linr"  time="-9999999/1" value="0" leadInLength="0/1"  />
           </VectorParam>
           <InterpolatingParam id="706" interp="linr"  time="-9999999/1" value="1" leadInLength="0/1"  name="opacity"/>
           <Parameter id="707"  name="captions"/>
           <InterpolatingParam id="708" interp="linr"  time="0/1" value="1" leadInLength="0/1"  name="volume"/>
          </Parameters>
          <Transformer>
           <VectorParam id="709"  name="translation">
            <InterpolatingParam id="710" interp="linr"  time="-9999999/1" value="0" leadInLength="0/1"  />
            <InterpolatingParam id="711" interp="linr"  time="-9999999/1" value="0" leadInLength="0/1"  />
            <InterpolatingParam id="712" interp="linr"  time="-9999999/1" value="0" leadInLength="0/1"  />
           </VectorParam>
           <VectorParam id="713"  name="rotation">
            <InterpolatingParam id="714" interp="linr"  time="-9999999/1" value="0" leadInLength="0/1"  />
            <InterpolatingParam id="715" interp="linr"  time="-9999999/1" value="0" leadInLength="0/1"  />
            <InterpolatingParam id="716" interp="linr"  time="-9999999/1" value="0" leadInLength="0/1"  />
           </VectorParam>
           <VectorParam id="717"  name="shear">
            <InterpolatingParam id="718" interp="linr"  time="-9999999/1" value="0" leadInLength="0/1"  />
            <InterpolatingParam id="719" interp="linr"  time="-9999999/1" value="0" leadInLength="0/1"  />
            <InterpolatingParam id="720" interp="linr"  time="-9999999/1" value="0" leadInLength="0/1"  />
           </VectorParam>
           <VectorParam id="721"  name="scale">
            <InterpolatingParam id="722" interp="linr"  time="-9999999/1" value="1" leadInLength="0/1"  />
            <InterpolatingParam id="723" interp="linr"  time="-9999999/1" value="1" leadInLength="0/1"  />
            <InterpolatingParam id="724" interp="linr"  time="-9999999/1" value="1" leadInLength="0/1"  />
           </VectorParam>
           <VectorParam id="725"  name="anchor">
            <InterpolatingParam id="726" interp="linr"  time="0/1" value="0" leadInLength="0/1"  />
            <InterpolatingParam id="727" interp="linr"  time="0/1" value="0" leadInLength="0/1"  />
            <InterpolatingParam id="728" interp="linr"  time="0/1" value="0" leadInLength="0/1"  />
           </VectorParam>
          </Transformer>
          <GenericMixer id="729"  >
           <MetaData>
           </MetaData>
           <Tracks>
            <GenericTrack id="730"  >
             <Attributes>
              <Attribute id="731" value="" name="ident"/>
              <Attribute id="732" value="0" name="audioMuted"/>
              <Attribute id="733" value="0" name="videoHidden"/>
             </Attributes>
             <MetaData>
              <entry key="IsLocked" val="False"/>
              <entry key="WinTrackHeight" val="0"/>
             </MetaData>
             <Medias>
              <StitchedMedia id="734" start="0" duration="1202" scalar="1/1" mediaStart="0/1" mediaDuration="1202/1" minMediaStart="0/1" >
               <Transformer>
                <VectorParam id="735"  name="translation">
                 <InterpolatingParam id="736" interp="linr"  time="0/1" value="0" leadInLength="0/1"  />
                 <InterpolatingParam id="737" interp="linr"  time="0/1" value="0" leadInLength="0/1"  />
                 <InterpolatingParam id="738" interp="linr"  time="0/1" value="0" leadInLength="0/1"  />
                </VectorParam>
                <VectorParam id="739"  name="rotation">
                 <InterpolatingParam id="740" interp="linr"  time="0/1" value="0" leadInLength="0/1"  />
                 <InterpolatingParam id="741" interp="linr"  time="0/1" value="0" leadInLength="0/1"  />
                 <InterpolatingParam id="742" interp="linr"  time="0/1" value="0" leadInLength="0/1"  />
                </VectorParam>
                <VectorParam id="743"  name="shear">
                 <InterpolatingParam id="744" interp="linr"  time="0/1" value="0" leadInLength="0/1"  />
                 <InterpolatingParam id="745" interp="linr"  time="0/1" value="0" leadInLength="0/1"  />
                 <InterpolatingParam id="746" interp="linr"  time="0/1" value="0" leadInLength="0/1"  />
                </VectorParam>
                <VectorParam id="747"  name="scale">
                 <InterpolatingParam id="748" interp="linr"  time="0/1" value="1" leadInLength="0/1"  />
                 <InterpolatingParam id="749" interp="linr"  time="0/1" value="1" leadInLength="0/1"  />
                 <InterpolatingParam id="750" interp="linr"  time="0/1" value="1" leadInLength="0/1"  />
                </VectorParam>
                <VectorParam id="751"  name="anchor">
                 <InterpolatingParam id="752" interp="linr"  time="0/1" value="0" leadInLength="0/1"  />
                 <InterpolatingParam id="753" interp="linr"  time="0/1" value="0" leadInLength="0/1"  />
                 <InterpolatingParam id="754" interp="linr"  time="0/1" value="0" leadInLength="0/1"  />
                </VectorParam>
               </Transformer>
               <Parameters>
                <InterpolatingParam id="755" interp="linr"  time="0/1" value="1" leadInLength="0/1"  name="cursorOpacity"/>
                <InterpolatingParam id="756" interp="linr"  time="0/1" value="1" leadInLength="0/1"  name="cursorScale"/>
                <InterpolatingParam id="757" interp="linr"  time="0/1" value="1" leadInLength="0/1"  name="volume"/>
                <Parameter id="758"  name="captions"/>
               </Parameters>
               <Attributes>
                <Attribute id="759" value="" name="ident"/>
                <Attribute id="760" value="0" name="mixToMono"/>
               </Attributes>
               <MetaData>
                <entry key="WinSubProjectDisplayName" val=""/>
               </MetaData>
               <ExtraData>
                <Entry key="ZoomPanBin">
                 <ZoomPanBin id="761"  >
                  <ZoomPanKeyframes>
                  </ZoomPanKeyframes>
                 </ZoomPanBin>
                </Entry>
                <Entry key="CursorEffectBin">
                 <CursorEffectBin id="762"  >
                  <CursorEffectKeyframes>
                  </CursorEffectKeyframes>
                 </CursorEffectBin>
                </Entry>
               </ExtraData>
               <GenericTrack id="763"  >
                <Attributes>
                 <Attribute id="764" value="" name="ident"/>
                 <Attribute id="765" value="0" name="audioMuted"/>
                 <Attribute id="766" value="0" name="videoHidden"/>
                </Attributes>
                <MetaData>
                 <entry key="IsLocked" val="False"/>
                 <entry key="WinTrackHeight" val="0"/>
                </MetaData>
                <Medias>
                 <AMFile id="767" start="0" duration="590" scalar="1/1" mediaStart="0/1" mediaDuration="590/1" trackNumber="2" src="9" channelNumber="0,1" >
                  <Parameters>
                   <InterpolatingParam id="768" interp="linr"  time="0/1" value="1" leadInLength="0/1"  name="volume"/>
                   <Parameter id="769"  name="captions"/>
                  </Parameters>
                  <Attributes>
                   <Attribute id="770" value="" name="ident"/>
                   <Attribute id="771" value="44100" name="sampleRate"/>
                   <Attribute id="772" value="16" name="bitDepth"/>
                   <Attribute id="773" value="1" name="gain"/>
                   <Attribute id="774" value="0" name="mixToMono"/>
                  </Attributes>
                  <MetaData>
                   <entry key="WinSubProjectDisplayName" val=""/>
                  </MetaData>
                 </AMFile>
                 <AMFile id="775" start="590" duration="441" scalar="1/1" mediaStart="611/1" mediaDuration="441/1" trackNumber="2" src="9" channelNumber="0,1" >
                  <Parameters>
                   <InterpolatingParam id="776" interp="linr"  time="0/1" value="1" leadInLength="0/1"  name="volume"/>
                   <Parameter id="777"  name="captions"/>
                  </Parameters>
                  <Attributes>
                   <Attribute id="778" value="" name="ident"/>
                   <Attribute id="779" value="44100" name="sampleRate"/>
                   <Attribute id="780" value="16" name="bitDepth"/>
                   <Attribute id="781" value="1" name="gain"/>
                   <Attribute id="782" value="0" name="mixToMono"/>
                  </Attributes>
                  <MetaData>
                   <entry key="WinSubProjectDisplayName" val=""/>
                  </MetaData>
                 </AMFile>
                 <AMFile id="783" start="1031" duration="126" scalar="1/1" mediaStart="1060/1" mediaDuration="126/1" trackNumber="2" src="9" channelNumber="0,1" >
                  <Parameters>
                   <InterpolatingParam id="784" interp="linr"  time="0/1" value="1" leadInLength="0/1"  name="volume"/>
                   <Parameter id="785"  name="captions"/>
                  </Parameters>
                  <Attributes>
                   <Attribute id="786" value="" name="ident"/>
                   <Attribute id="787" value="44100" name="sampleRate"/>
                   <Attribute id="788" value="16" name="bitDepth"/>
                   <Attribute id="789" value="1" name="gain"/>
                   <Attribute id="790" value="0" name="mixToMono"/>
                  </Attributes>
                  <MetaData>
                   <entry key="WinSubProjectDisplayName" val=""/>
                  </MetaData>
                 </AMFile>
                 <AMFile id="791" start="1157" duration="155" scalar="1/1" mediaStart="1195/1" mediaDuration="155/1" trackNumber="2" src="9" channelNumber="0,1" >
                  <Parameters>
                   <InterpolatingParam id="792" interp="linr"  time="0/1" value="1" leadInLength="0/1"  name="volume"/>
                   <Parameter id="793"  name="captions"/>
                  </Parameters>
                  <Attributes>
                   <Attribute id="794" value="" name="ident"/>
                   <Attribute id="795" value="44100" name="sampleRate"/>
                   <Attribute id="796" value="16" name="bitDepth"/>
                   <Attribute id="797" value="1" name="gain"/>
                   <Attribute id="798" value="0" name="mixToMono"/>
                  </Attributes>
                  <MetaData>
                   <entry key="WinSubProjectDisplayName" val=""/>
                  </MetaData>
                 </AMFile>
                </Medias>
               </GenericTrack>
              </StitchedMedia>
             </Medias>
            </GenericTrack>
            <GenericTrack id="799"  >
             <Attributes>
              <Attribute id="800" value="" name="ident"/>
              <Attribute id="801" value="0" name="audioMuted"/>
              <Attribute id="802" value="0" name="videoHidden"/>
             </Attributes>
             <MetaData>
              <entry key="IsLocked" val="False"/>
              <entry key="WinTrackHeight" val="0"/>
             </MetaData>
             <Medias>
              <StitchedMedia id="803" start="0" duration="1202" scalar="1/1" mediaStart="0/1" mediaDuration="1202/1" minMediaStart="0/1" >
               <Transformer>
                <VectorParam id="804"  name="translation">
                 <InterpolatingParam id="805" interp="linr"  time="-9999999/1" value="0" leadInLength="0/1"  interpolater="leadin-linr"  />
                 <InterpolatingParam id="806" interp="linr"  time="-9999999/1" value="0" leadInLength="0/1"  interpolater="leadin-linr"  />
                 <InterpolatingParam id="807" interp="linr"  time="-9999999/1" value="0" leadInLength="0/1"  interpolater="leadin-linr"  />
                </VectorParam>
                <VectorParam id="808"  name="rotation">
                 <InterpolatingParam id="809" interp="linr"  time="-9999999/1" value="0" leadInLength="0/1"  interpolater="leadin-linr"  />
                 <InterpolatingParam id="810" interp="linr"  time="-9999999/1" value="0" leadInLength="0/1"  interpolater="leadin-linr"  />
                 <InterpolatingParam id="811" interp="linr"  time="-9999999/1" value="0" leadInLength="0/1"  interpolater="leadin-linr"  />
                </VectorParam>
                <VectorParam id="812"  name="shear">
                 <InterpolatingParam id="813" interp="linr"  time="-9999999/1" value="0" leadInLength="0/1"  interpolater="leadin-linr"  />
                 <InterpolatingParam id="814" interp="linr"  time="-9999999/1" value="0" leadInLength="0/1"  interpolater="leadin-linr"  />
                 <InterpolatingParam id="815" interp="linr"  time="-9999999/1" value="0" leadInLength="0/1"  interpolater="leadin-linr"  />
                </VectorParam>
                <VectorParam id="816"  name="scale">
                 <InterpolatingParam id="817" interp="linr"  time="-9999999/1" value="0.66666666666666663" leadInLength="0/1"  interpolater="leadin-linr"  />
                 <InterpolatingParam id="818" interp="linr"  time="-9999999/1" value="0.66666666666666663" leadInLength="0/1"  interpolater="leadin-linr"  />
                 <InterpolatingParam id="819" interp="linr"  time="-9999999/1" value="1" leadInLength="0/1"  interpolater="leadin-linr"  />
                </VectorParam>
                <VectorParam id="820"  name="anchor">
                 <InterpolatingParam id="821" interp="linr"  time="0/1" value="0" leadInLength="0/1"  />
                 <InterpolatingParam id="822" interp="linr"  time="0/1" value="0" leadInLength="0/1"  />
                 <InterpolatingParam id="823" interp="linr"  time="0/1" value="0" leadInLength="0/1"  />
                </VectorParam>
               </Transformer>
               <Parameters>
                <VectorParam id="824"  name="sourceCrop">
                 <InterpolatingParam id="825" interp="linr"  time="0/1" value="0" leadInLength="0/1"  />
                 <InterpolatingParam id="826" interp="linr"  time="0/1" value="0" leadInLength="0/1"  />
                 <InterpolatingParam id="827" interp="linr"  time="0/1" value="0" leadInLength="0/1"  />
                 <InterpolatingParam id="828" interp="linr"  time="0/1" value="0" leadInLength="0/1"  />
                </VectorParam>
                <VectorParam id="829"  name="geometryCrop">
                 <InterpolatingParam id="830" interp="linr"  time="-9999999/1" value="0" leadInLength="0/1"  interpolater="leadin-linr"  />
                 <InterpolatingParam id="831" interp="linr"  time="-9999999/1" value="0" leadInLength="0/1"  interpolater="leadin-linr"  />
                 <InterpolatingParam id="832" interp="linr"  time="-9999999/1" value="0" leadInLength="0/1"  interpolater="leadin-linr"  />
                 <InterpolatingParam id="833" interp="linr"  time="-9999999/1" value="0" leadInLength="0/1"  interpolater="leadin-linr"  />
                </VectorParam>
                <InterpolatingParam id="834" interp="linr"  time="-9999999/1" value="1" leadInLength="0/1"  interpolater="leadin-linr"  name="opacity"/>
                <InterpolatingParam id="835" interp="linr"  time="0/1" value="1" leadInLength="0/1"  name="cursorOpacity"/>
                <InterpolatingParam id="836" interp="linr"  time="0/1" value="1" leadInLength="0/1"  name="cursorScale"/>
                <InterpolatingParam id="837" interp="linr"  time="0/1" value="1" leadInLength="0/1"  name="volume"/>
                <Parameter id="838"  name="captions"/>
               </Parameters>
               <Effects>
                <GenericEffect id="839" name = "CursorBaseEffectName" >
                 <Parameters>
                 <InterpolatingParam id="840" interp="linr"  time="-9999999/1" value="1" leadInLength="0/1"   name="cursorSize"/>
                 <InterpolatingParam id="841" interp="linr"  time="-9999999/1" value="0" leadInLength="0/1"   name="highlightBlurRadius"/>
                 <InterpolatingParam id="842" interp="linr"  time="-9999999/1" value="0" leadInLength="0/1"   name="highlightColorBlue"/>
                 <InterpolatingParam id="843" interp="linr"  time="-9999999/1" value="255" leadInLength="0/1"   name="highlightColorGreen"/>
                 <InterpolatingParam id="844" interp="linr"  time="-9999999/1" value="255" leadInLength="0/1"   name="highlightColorRed"/>
                 <InterpolatingParam id="845" interp="linr"  time="-9999999/1" value="5" leadInLength="0/1"   name="highlightFeatherSize"/>
                 <InterpolatingParam id="846" interp="linr"  time="-9999999/1" value="2" leadInLength="0/1"   name="highlightMagnification"/>
                 <InterpolatingParam id="847" interp="linr"  time="-9999999/1" value="1" leadInLength="0/1"   name="highlightOpacity"/>
                 <InterpolatingParam id="848" interp="linr"  time="-9999999/1" value="45" leadInLength="0/1"   name="highlightSize"/>
                 <Parameter id="849"   name="highlightType">
                  <Keyframes>
                  <Keyframe id="850"  time="-9999999/1" value="0" leadInLength="0/1"  />
                  </Keyframes>
                 </Parameter>
                 <InterpolatingParam id="851" interp="linr"  time="-9999999/1" value="0" leadInLength="0/1"   name="leftClickColorBlue"/>
                 <InterpolatingParam id="852" interp="linr"  time="-9999999/1" value="0" leadInLength="0/1"   name="leftClickColorGreen"/>
                 <InterpolatingParam id="853" interp="linr"  time="-9999999/1" value="255" leadInLength="0/1"   name="leftClickColorRed"/>
                 <InterpolatingParam id="854" interp="linr"  time="-9999999/1" value="0.80000000000000004" leadInLength="0/1"   name="leftClickDuration"/>
                 <InterpolatingParam id="855" interp="linr"  time="-9999999/1" value="20" leadInLength="0/1"   name="leftClickSize"/>
                 <Parameter id="856"   name="leftClickSoundFilename">
                  <Keyframes>
                  <Keyframe id="857"  time="-9999999/1" value="" leadInLength="0/1"  />
                  </Keyframes>
                 </Parameter>
                 <InterpolatingParam id="858" interp="linr"  time="-9999999/1" value="1" leadInLength="0/1"   name="leftClickSoundVolume"/>
                 <Parameter id="859"   name="leftClickType">
                  <Keyframes>
                  <Keyframe id="860"  time="-9999999/1" value="0" leadInLength="0/1"  />
                  </Keyframes>
                 </Parameter>
                 <InterpolatingParam id="861" interp="linr"  time="-9999999/1" value="1" leadInLength="0/1"   name="opacity"/>
                 <InterpolatingParam id="862" interp="linr"  time="-9999999/1" value="255" leadInLength="0/1"   name="rightClickColorBlue"/>
                 <InterpolatingParam id="863" interp="linr"  time="-9999999/1" value="0" leadInLength="0/1"   name="rightClickColorGreen"/>
                 <InterpolatingParam id="864" interp="linr"  time="-9999999/1" value="0" leadInLength="0/1"   name="rightClickColorRed"/>
                 <InterpolatingParam id="865" interp="linr"  time="-9999999/1" value="0.80000000000000004" leadInLength="0/1"   name="rightClickDuration"/>
                 <InterpolatingParam id="866" interp="linr"  time="-9999999/1" value="20" leadInLength="0/1"   name="rightClickSize"/>
                 <Parameter id="867"   name="rightClickSoundFilename">
                  <Keyframes>
                  <Keyframe id="868"  time="-9999999/1" value="" leadInLength="0/1"  />
                  </Keyframes>
                 </Parameter>
                 <InterpolatingParam id="869" interp="linr"  time="-9999999/1" value="1" leadInLength="0/1"   name="rightClickSoundVolume"/>
                 <Parameter id="870"   name="rightClickType">
                  <Keyframes>
                  <Keyframe id="871"  time="-9999999/1" value="0" leadInLength="0/1"  />
                  </Keyframes>
                 </Parameter>
                 </Parameters>
                 <MetaData>
                  <entry key="effectIndex" val="0"/>
                 </MetaData>
                </GenericEffect>
               </Effects>
               <Attributes>
                <Attribute id="872" value="" name="ident"/>
                <Attribute id="873" value="0" name="mixToMono"/>
               </Attributes>
               <MetaData>
                <entry key="AutoAppliedSmartFocus" val="False"/>
                <entry key="WinSubProjectDisplayName" val=""/>
               </MetaData>
               <ExtraData>
                <Entry key="ZoomPanBin">
                 <ZoomPanBin id="874"  >
                  <ZoomPanKeyframes>
                   <ZoomPanKeyframe id="875" timeRangeEnd="-9999999/1" timeRangeDuration="0/1" interpolaterName="linr"  />
                  </ZoomPanKeyframes>
                 </ZoomPanBin>
                </Entry>
                <Entry key="CursorEffectBin">
                 <CursorEffectBin id="876"  >
                  <CursorEffectKeyframes>
                   <CursorEffectKeyframe id="877" timeRangeEnd="-9999999/1" timeRangeDuration="0/1" interpolaterName=""  />
                  </CursorEffectKeyframes>
                 </CursorEffectBin>
                </Entry>
               </ExtraData>
               <GenericTrack id="878"  >
                <Attributes>
                 <Attribute id="879" value="" name="ident"/>
                 <Attribute id="880" value="0" name="audioMuted"/>
                 <Attribute id="881" value="0" name="videoHidden"/>
                </Attributes>
                <MetaData>
                 <entry key="IsLocked" val="False"/>
                 <entry key="WinTrackHeight" val="0"/>
                </MetaData>
                <Medias>
                 <UnifiedMedia id="882"  >
                  <AMFile id="883" start="0" duration="590" scalar="1/1" mediaStart="0/1" mediaDuration="590/1" trackNumber="1" src="9" channelNumber="0,1" >
                   <Parameters>
                    <InterpolatingParam id="884" interp="linr"  time="0/1" value="1" leadInLength="0/1"  name="volume"/>
                    <Parameter id="885"  name="captions"/>
                   </Parameters>
                   <Attributes>
                    <Attribute id="886" value="" name="ident"/>
                    <Attribute id="887" value="44100" name="sampleRate"/>
                    <Attribute id="888" value="16" name="bitDepth"/>
                    <Attribute id="889" value="1" name="gain"/>
                    <Attribute id="890" value="0" name="mixToMono"/>
                   </Attributes>
                  </AMFile>
                  <ScreenVMFile id="891" start="0" duration="590" scalar="1/1" mediaStart="0/1" mediaDuration="590/1" trackNumber="0" src="9" >
                   <Transformer>
                    <VectorParam id="892"  name="translation">
                     <InterpolatingParam id="893" interp="linr"  time="-9999999/1" value="0" leadInLength="0/1"  />
                     <InterpolatingParam id="894" interp="linr"  time="-9999999/1" value="0" leadInLength="0/1"  />
                     <InterpolatingParam id="895" interp="linr"  time="-9999999/1" value="0" leadInLength="0/1"  />
                    </VectorParam>
                    <VectorParam id="896"  name="rotation">
                     <InterpolatingParam id="897" interp="linr"  time="-9999999/1" value="0" leadInLength="0/1"  />
                     <InterpolatingParam id="898" interp="linr"  time="-9999999/1" value="0" leadInLength="0/1"  />
                     <InterpolatingParam id="899" interp="linr"  time="-9999999/1" value="0" leadInLength="0/1"  />
                    </VectorParam>
                    <VectorParam id="900"  name="shear">
                     <InterpolatingParam id="901" interp="linr"  time="-9999999/1" value="0" leadInLength="0/1"  />
                     <InterpolatingParam id="902" interp="linr"  time="-9999999/1" value="0" leadInLength="0/1"  />
                     <InterpolatingParam id="903" interp="linr"  time="-9999999/1" value="0" leadInLength="0/1"  />
                    </VectorParam>
                    <VectorParam id="904"  name="scale">
                     <InterpolatingParam id="905" interp="linr"  time="-9999999/1" value="1" leadInLength="0/1"  />
                     <InterpolatingParam id="906" interp="linr"  time="-9999999/1" value="1" leadInLength="0/1"  />
                     <InterpolatingParam id="907" interp="linr"  time="-9999999/1" value="1" leadInLength="0/1"  />
                    </VectorParam>
                    <VectorParam id="908"  name="anchor">
                     <InterpolatingParam id="909" interp="linr"  time="0/1" value="0" leadInLength="0/1"  />
                     <InterpolatingParam id="910" interp="linr"  time="0/1" value="0" leadInLength="0/1"  />
                     <InterpolatingParam id="911" interp="linr"  time="0/1" value="0" leadInLength="0/1"  />
                    </VectorParam>
                   </Transformer>
                   <Parameters>
                    <VectorParam id="912"  name="sourceCrop">
                     <InterpolatingParam id="913" interp="linr"  time="0/1" value="0" leadInLength="0/1"  />
                     <InterpolatingParam id="914" interp="linr"  time="0/1" value="0" leadInLength="0/1"  />
                     <InterpolatingParam id="915" interp="linr"  time="0/1" value="0" leadInLength="0/1"  />
                     <InterpolatingParam id="916" interp="linr"  time="0/1" value="0" leadInLength="0/1"  />
                    </VectorParam>
                    <VectorParam id="917"  name="geometryCrop">
                     <InterpolatingParam id="918" interp="linr"  time="-9999999/1" value="0" leadInLength="0/1"  />
                     <InterpolatingParam id="919" interp="linr"  time="-9999999/1" value="0" leadInLength="0/1"  />
                     <InterpolatingParam id="920" interp="linr"  time="-9999999/1" value="0" leadInLength="0/1"  />
                     <InterpolatingParam id="921" interp="linr"  time="-9999999/1" value="0" leadInLength="0/1"  />
                    </VectorParam>
                    <InterpolatingParam id="922" interp="linr"  time="-9999999/1" value="1" leadInLength="0/1"  name="opacity"/>
                    <InterpolatingParam id="923" interp="linr"  time="0/1" value="0" leadInLength="0/1"  name="cursorOpacity"/>
                    <InterpolatingParam id="924" interp="linr"  time="0/1" value="0" leadInLength="0/1"  name="cursorScale"/>
                   </Parameters>
                   <Attributes>
                    <Attribute id="925" value="" name="ident"/>
                   </Attributes>
                   <ExtraData>
                    <Entry key="ZoomPanBin">
                     <ZoomPanBin id="926"  >
                      <ZoomPanKeyframes>
                       <ZoomPanKeyframe id="927" timeRangeEnd="-9999999/1" timeRangeDuration="0/1" interpolaterName="linr"  />
                      </ZoomPanKeyframes>
                     </ZoomPanBin>
                    </Entry>
                    <Entry key="CursorEffectBin">
                     <CursorEffectBin id="928"  >
                      <CursorEffectKeyframes>
                      </CursorEffectKeyframes>
                     </CursorEffectBin>
                    </Entry>
                   </ExtraData>
                  </ScreenVMFile>
                  <MetaData>
                   <entry key="AutoAppliedSmartFocus" val="False"/>
                   <entry key="WinSubProjectDisplayName" val=""/>
                  </MetaData>
                 </UnifiedMedia>
                 <UnifiedMedia id="929"  >
                  <AMFile id="930" start="590" duration="441" scalar="1/1" mediaStart="611/1" mediaDuration="441/1" trackNumber="1" src="9" channelNumber="0,1" >
                   <Parameters>
                    <InterpolatingParam id="931" interp="linr"  time="0/1" value="1" leadInLength="0/1"  name="volume"/>
                    <Parameter id="932"  name="captions"/>
                   </Parameters>
                   <Attributes>
                    <Attribute id="933" value="" name="ident"/>
                    <Attribute id="934" value="44100" name="sampleRate"/>
                    <Attribute id="935" value="16" name="bitDepth"/>
                    <Attribute id="936" value="1" name="gain"/>
                    <Attribute id="937" value="0" name="mixToMono"/>
                   </Attributes>
                  </AMFile>
                  <ScreenVMFile id="938" start="590" duration="441" scalar="1/1" mediaStart="611/1" mediaDuration="441/1" trackNumber="0" src="9" >
                   <Transformer>
                    <VectorParam id="939"  name="translation">
                     <InterpolatingParam id="940" interp="linr"  time="-9999999/1" value="0" leadInLength="0/1"  />
                     <InterpolatingParam id="941" interp="linr"  time="-9999999/1" value="0" leadInLength="0/1"  />
                     <InterpolatingParam id="942" interp="linr"  time="-9999999/1" value="0" leadInLength="0/1"  />
                    </VectorParam>
                    <VectorParam id="943"  name="rotation">
                     <InterpolatingParam id="944" interp="linr"  time="-9999999/1" value="0" leadInLength="0/1"  />
                     <InterpolatingParam id="945" interp="linr"  time="-9999999/1" value="0" leadInLength="0/1"  />
                     <InterpolatingParam id="946" interp="linr"  time="-9999999/1" value="0" leadInLength="0/1"  />
                    </VectorParam>
                    <VectorParam id="947"  name="shear">
                     <InterpolatingParam id="948" interp="linr"  time="-9999999/1" value="0" leadInLength="0/1"  />
                     <InterpolatingParam id="949" interp="linr"  time="-9999999/1" value="0" leadInLength="0/1"  />
                     <InterpolatingParam id="950" interp="linr"  time="-9999999/1" value="0" leadInLength="0/1"  />
                    </VectorParam>
                    <VectorParam id="951"  name="scale">
                     <InterpolatingParam id="952" interp="linr"  time="-9999999/1" value="1" leadInLength="0/1"  />
                     <InterpolatingParam id="953" interp="linr"  time="-9999999/1" value="1" leadInLength="0/1"  />
                     <InterpolatingParam id="954" interp="linr"  time="-9999999/1" value="1" leadInLength="0/1"  />
                    </VectorParam>
                    <VectorParam id="955"  name="anchor">
                     <InterpolatingParam id="956" interp="linr"  time="0/1" value="0" leadInLength="0/1"  />
                     <InterpolatingParam id="957" interp="linr"  time="0/1" value="0" leadInLength="0/1"  />
                     <InterpolatingParam id="958" interp="linr"  time="0/1" value="0" leadInLength="0/1"  />
                    </VectorParam>
                   </Transformer>
                   <Parameters>
                    <VectorParam id="959"  name="sourceCrop">
                     <InterpolatingParam id="960" interp="linr"  time="0/1" value="0" leadInLength="0/1"  />
                     <InterpolatingParam id="961" interp="linr"  time="0/1" value="0" leadInLength="0/1"  />
                     <InterpolatingParam id="962" interp="linr"  time="0/1" value="0" leadInLength="0/1"  />
                     <InterpolatingParam id="963" interp="linr"  time="0/1" value="0" leadInLength="0/1"  />
                    </VectorParam>
                    <VectorParam id="964"  name="geometryCrop">
                     <InterpolatingParam id="965" interp="linr"  time="-9999999/1" value="0" leadInLength="0/1"  />
                     <InterpolatingParam id="966" interp="linr"  time="-9999999/1" value="0" leadInLength="0/1"  />
                     <InterpolatingParam id="967" interp="linr"  time="-9999999/1" value="0" leadInLength="0/1"  />
                     <InterpolatingParam id="968" interp="linr"  time="-9999999/1" value="0" leadInLength="0/1"  />
                    </VectorParam>
                    <InterpolatingParam id="969" interp="linr"  time="-9999999/1" value="1" leadInLength="0/1"  name="opacity"/>
                    <InterpolatingParam id="970" interp="linr"  time="0/1" value="0" leadInLength="0/1"  name="cursorOpacity"/>
                    <InterpolatingParam id="971" interp="linr"  time="0/1" value="0" leadInLength="0/1"  name="cursorScale"/>
                   </Parameters>
                   <Attributes>
                    <Attribute id="972" value="" name="ident"/>
                   </Attributes>
                   <ExtraData>
                    <Entry key="ZoomPanBin">
                     <ZoomPanBin id="973"  >
                      <ZoomPanKeyframes>
                       <ZoomPanKeyframe id="974" timeRangeEnd="-9999999/1" timeRangeDuration="0/1" interpolaterName="linr"  />
                      </ZoomPanKeyframes>
                     </ZoomPanBin>
                    </Entry>
                    <Entry key="CursorEffectBin">
                     <CursorEffectBin id="975"  >
                      <CursorEffectKeyframes>
                      </CursorEffectKeyframes>
                     </CursorEffectBin>
                    </Entry>
                   </ExtraData>
                  </ScreenVMFile>
                  <MetaData>
                   <entry key="AutoAppliedSmartFocus" val="False"/>
                   <entry key="WinSubProjectDisplayName" val=""/>
                  </MetaData>
                 </UnifiedMedia>
                 <UnifiedMedia id="976"  >
                  <AMFile id="977" start="1031" duration="126" scalar="1/1" mediaStart="1060/1" mediaDuration="126/1" trackNumber="1" src="9" channelNumber="0,1" >
                   <Parameters>
                    <InterpolatingParam id="978" interp="linr"  time="0/1" value="1" leadInLength="0/1"  name="volume"/>
                    <Parameter id="979"  name="captions"/>
                   </Parameters>
                   <Attributes>
                    <Attribute id="980" value="" name="ident"/>
                    <Attribute id="981" value="44100" name="sampleRate"/>
                    <Attribute id="982" value="16" name="bitDepth"/>
                    <Attribute id="983" value="1" name="gain"/>
                    <Attribute id="984" value="0" name="mixToMono"/>
                   </Attributes>
                  </AMFile>
                  <ScreenVMFile id="985" start="1031" duration="126" scalar="1/1" mediaStart="1060/1" mediaDuration="126/1" trackNumber="0" src="9" >
                   <Transformer>
                    <VectorParam id="986"  name="translation">
                     <InterpolatingParam id="987" interp="linr"  time="-9999999/1" value="0" leadInLength="0/1"  />
                     <InterpolatingParam id="988" interp="linr"  time="-9999999/1" value="0" leadInLength="0/1"  />
                     <InterpolatingParam id="989" interp="linr"  time="-9999999/1" value="0" leadInLength="0/1"  />
                    </VectorParam>
                    <VectorParam id="990"  name="rotation">
                     <InterpolatingParam id="991" interp="linr"  time="-9999999/1" value="0" leadInLength="0/1"  />
                     <InterpolatingParam id="992" interp="linr"  time="-9999999/1" value="0" leadInLength="0/1"  />
                     <InterpolatingParam id="993" interp="linr"  time="-9999999/1" value="0" leadInLength="0/1"  />
                    </VectorParam>
                    <VectorParam id="994"  name="shear">
                     <InterpolatingParam id="995" interp="linr"  time="-9999999/1" value="0" leadInLength="0/1"  />
                     <InterpolatingParam id="996" interp="linr"  time="-9999999/1" value="0" leadInLength="0/1"  />
                     <InterpolatingParam id="997" interp="linr"  time="-9999999/1" value="0" leadInLength="0/1"  />
                    </VectorParam>
                    <VectorParam id="998"  name="scale">
                     <InterpolatingParam id="999" interp="linr"  time="-9999999/1" value="1" leadInLength="0/1"  />
                     <InterpolatingParam id="1000" interp="linr"  time="-9999999/1" value="1" leadInLength="0/1"  />
                     <InterpolatingParam id="1001" interp="linr"  time="-9999999/1" value="1" leadInLength="0/1"  />
                    </VectorParam>
                    <VectorParam id="1002"  name="anchor">
                     <InterpolatingParam id="1003" interp="linr"  time="0/1" value="0" leadInLength="0/1"  />
                     <InterpolatingParam id="1004" interp="linr"  time="0/1" value="0" leadInLength="0/1"  />
                     <InterpolatingParam id="1005" interp="linr"  time="0/1" value="0" leadInLength="0/1"  />
                    </VectorParam>
                   </Transformer>
                   <Parameters>
                    <VectorParam id="1006"  name="sourceCrop">
                     <InterpolatingParam id="1007" interp="linr"  time="0/1" value="0" leadInLength="0/1"  />
                     <InterpolatingParam id="1008" interp="linr"  time="0/1" value="0" leadInLength="0/1"  />
                     <InterpolatingParam id="1009" interp="linr"  time="0/1" value="0" leadInLength="0/1"  />
                     <InterpolatingParam id="1010" interp="linr"  time="0/1" value="0" leadInLength="0/1"  />
                    </VectorParam>
                    <VectorParam id="1011"  name="geometryCrop">
                     <InterpolatingParam id="1012" interp="linr"  time="-9999999/1" value="0" leadInLength="0/1"  />
                     <InterpolatingParam id="1013" interp="linr"  time="-9999999/1" value="0" leadInLength="0/1"  />
                     <InterpolatingParam id="1014" interp="linr"  time="-9999999/1" value="0" leadInLength="0/1"  />
                     <InterpolatingParam id="1015" interp="linr"  time="-9999999/1" value="0" leadInLength="0/1"  />
                    </VectorParam>
                    <InterpolatingParam id="1016" interp="linr"  time="-9999999/1" value="1" leadInLength="0/1"  name="opacity"/>
                    <InterpolatingParam id="1017" interp="linr"  time="0/1" value="0" leadInLength="0/1"  name="cursorOpacity"/>
                    <InterpolatingParam id="1018" interp="linr"  time="0/1" value="0" leadInLength="0/1"  name="cursorScale"/>
                   </Parameters>
                   <Attributes>
                    <Attribute id="1019" value="" name="ident"/>
                   </Attributes>
                   <ExtraData>
                    <Entry key="ZoomPanBin">
                     <ZoomPanBin id="1020"  >
                      <ZoomPanKeyframes>
                       <ZoomPanKeyframe id="1021" timeRangeEnd="-9999999/1" timeRangeDuration="0/1" interpolaterName="linr"  />
                      </ZoomPanKeyframes>
                     </ZoomPanBin>
                    </Entry>
                    <Entry key="CursorEffectBin">
                     <CursorEffectBin id="1022"  >
                      <CursorEffectKeyframes>
                      </CursorEffectKeyframes>
                     </CursorEffectBin>
                    </Entry>
                   </ExtraData>
                  </ScreenVMFile>
                  <MetaData>
                   <entry key="AutoAppliedSmartFocus" val="False"/>
                   <entry key="WinSubProjectDisplayName" val=""/>
                  </MetaData>
                 </UnifiedMedia>
                 <UnifiedMedia id="1023"  >
                  <AMFile id="1024" start="1157" duration="171" scalar="1/1" mediaStart="1195/1" mediaDuration="171/1" trackNumber="1" src="9" channelNumber="0,1" >
                   <Parameters>
                    <InterpolatingParam id="1025" interp="linr"  time="0/1" value="1" leadInLength="0/1"  name="volume"/>
                    <Parameter id="1026"  name="captions"/>
                   </Parameters>
                   <Attributes>
                    <Attribute id="1027" value="" name="ident"/>
                    <Attribute id="1028" value="44100" name="sampleRate"/>
                    <Attribute id="1029" value="16" name="bitDepth"/>
                    <Attribute id="1030" value="1" name="gain"/>
                    <Attribute id="1031" value="0" name="mixToMono"/>
                   </Attributes>
                  </AMFile>
                  <ScreenVMFile id="1032" start="1157" duration="171" scalar="1/1" mediaStart="1195/1" mediaDuration="171/1" trackNumber="0" src="9" >
                   <Transformer>
                    <VectorParam id="1033"  name="translation">
                     <InterpolatingParam id="1034" interp="linr"  time="-9999999/1" value="0" leadInLength="0/1"  />
                     <InterpolatingParam id="1035" interp="linr"  time="-9999999/1" value="0" leadInLength="0/1"  />
                     <InterpolatingParam id="1036" interp="linr"  time="-9999999/1" value="0" leadInLength="0/1"  />
                    </VectorParam>
                    <VectorParam id="1037"  name="rotation">
                     <InterpolatingParam id="1038" interp="linr"  time="-9999999/1" value="0" leadInLength="0/1"  />
                     <InterpolatingParam id="1039" interp="linr"  time="-9999999/1" value="0" leadInLength="0/1"  />
                     <InterpolatingParam id="1040" interp="linr"  time="-9999999/1" value="0" leadInLength="0/1"  />
                    </VectorParam>
                    <VectorParam id="1041"  name="shear">
                     <InterpolatingParam id="1042" interp="linr"  time="-9999999/1" value="0" leadInLength="0/1"  />
                     <InterpolatingParam id="1043" interp="linr"  time="-9999999/1" value="0" leadInLength="0/1"  />
                     <InterpolatingParam id="1044" interp="linr"  time="-9999999/1" value="0" leadInLength="0/1"  />
                    </VectorParam>
                    <VectorParam id="1045"  name="scale">
                     <InterpolatingParam id="1046" interp="linr"  time="-9999999/1" value="1" leadInLength="0/1"  />
                     <InterpolatingParam id="1047" interp="linr"  time="-9999999/1" value="1" leadInLength="0/1"  />
                     <InterpolatingParam id="1048" interp="linr"  time="-9999999/1" value="1" leadInLength="0/1"  />
                    </VectorParam>
                    <VectorParam id="1049"  name="anchor">
                     <InterpolatingParam id="1050" interp="linr"  time="0/1" value="0" leadInLength="0/1"  />
                     <InterpolatingParam id="1051" interp="linr"  time="0/1" value="0" leadInLength="0/1"  />
                     <InterpolatingParam id="1052" interp="linr"  time="0/1" value="0" leadInLength="0/1"  />
                    </VectorParam>
                   </Transformer>
                   <Parameters>
                    <VectorParam id="1053"  name="sourceCrop">
                     <InterpolatingParam id="1054" interp="linr"  time="0/1" value="0" leadInLength="0/1"  />
                     <InterpolatingParam id="1055" interp="linr"  time="0/1" value="0" leadInLength="0/1"  />
                     <InterpolatingParam id="1056" interp="linr"  time="0/1" value="0" leadInLength="0/1"  />
                     <InterpolatingParam id="1057" interp="linr"  time="0/1" value="0" leadInLength="0/1"  />
                    </VectorParam>
                    <VectorParam id="1058"  name="geometryCrop">
                     <InterpolatingParam id="1059" interp="linr"  time="-9999999/1" value="0" leadInLength="0/1"  />
                     <InterpolatingParam id="1060" interp="linr"  time="-9999999/1" value="0" leadInLength="0/1"  />
                     <InterpolatingParam id="1061" interp="linr"  time="-9999999/1" value="0" leadInLength="0/1"  />
                     <InterpolatingParam id="1062" interp="linr"  time="-9999999/1" value="0" leadInLength="0/1"  />
                    </VectorParam>
                    <InterpolatingParam id="1063" interp="linr"  time="-9999999/1" value="1" leadInLength="0/1"  name="opacity"/>
                    <InterpolatingParam id="1064" interp="linr"  time="0/1" value="0" leadInLength="0/1"  name="cursorOpacity"/>
                    <InterpolatingParam id="1065" interp="linr"  time="0/1" value="0" leadInLength="0/1"  name="cursorScale"/>
                   </Parameters>
                   <Attributes>
                    <Attribute id="1066" value="" name="ident"/>
                   </Attributes>
                   <ExtraData>
                    <Entry key="ZoomPanBin">
                     <ZoomPanBin id="1067"  >
                      <ZoomPanKeyframes>
                       <ZoomPanKeyframe id="1068" timeRangeEnd="-9999999/1" timeRangeDuration="0/1" interpolaterName="linr"  />
                      </ZoomPanKeyframes>
                     </ZoomPanBin>
                    </Entry>
                    <Entry key="CursorEffectBin">
                     <CursorEffectBin id="1069"  >
                      <CursorEffectKeyframes>
                      </CursorEffectKeyframes>
                     </CursorEffectBin>
                    </Entry>
                   </ExtraData>
                  </ScreenVMFile>
                  <MetaData>
                   <entry key="AutoAppliedSmartFocus" val="False"/>
                   <entry key="WinSubProjectDisplayName" val=""/>
                  </MetaData>
                 </UnifiedMedia>
                </Medias>
               </GenericTrack>
              </StitchedMedia>
             </Medias>
            </GenericTrack>
           </Tracks>
          </GenericMixer>
          <MetaData>
           <entry key="IsGroupExpanded" val="False"/>
           <entry key="WinGroupOrigin" val="Asset"/>
           <entry key="WinSubProjectDisplayName" val="6"/>
          </MetaData>
          <ExtraData>
           <Entry key="ZoomPanBin">
            <ZoomPanBin id="1070"  >
             <ZoomPanKeyframes>
              <ZoomPanKeyframe id="1071" timeRangeEnd="-9999999/1" timeRangeDuration="0/1" interpolaterName="linr"  />
             </ZoomPanKeyframes>
            </ZoomPanBin>
           </Entry>
          </ExtraData>
         </Group>
         <Group id="1072" start="9190" duration="416" scalar="1" mediaStart="0" mediaDuration="416" baseWidthAttr="0" baseHeightAttr="0"  >
          <Parameters>
           <VectorParam id="1073"  name="sourceCrop">
            <InterpolatingParam id="1074" interp="linr"  time="0/1" value="0" leadInLength="0/1"  />
            <InterpolatingParam id="1075" interp="linr"  time="0/1" value="0" leadInLength="0/1"  />
            <InterpolatingParam id="1076" interp="linr"  time="0/1" value="0" leadInLength="0/1"  />
            <InterpolatingParam id="1077" interp="linr"  time="0/1" value="0" leadInLength="0/1"  />
           </VectorParam>
           <VectorParam id="1078"  name="geometryCrop">
            <InterpolatingParam id="1079" interp="linr"  time="-9999999/1" value="0" leadInLength="0/1"  />
            <InterpolatingParam id="1080" interp="linr"  time="-9999999/1" value="0" leadInLength="0/1"  />
            <InterpolatingParam id="1081" interp="linr"  time="-9999999/1" value="0" leadInLength="0/1"  />
            <InterpolatingParam id="1082" interp="linr"  time="-9999999/1" value="0" leadInLength="0/1"  />
           </VectorParam>
           <InterpolatingParam id="1083" interp="linr"  time="-9999999/1" value="1" leadInLength="0/1"  name="opacity"/>
           <Parameter id="1084"  name="captions"/>
           <InterpolatingParam id="1085" interp="linr"  time="0/1" value="1" leadInLength="0/1"  name="volume"/>
          </Parameters>
          <Transformer>
           <VectorParam id="1086"  name="translation">
            <InterpolatingParam id="1087" interp="linr"  time="-9999999/1" value="0" leadInLength="0/1"  />
            <InterpolatingParam id="1088" interp="linr"  time="-9999999/1" value="0" leadInLength="0/1"  />
            <InterpolatingParam id="1089" interp="linr"  time="-9999999/1" value="0" leadInLength="0/1"  />
           </VectorParam>
           <VectorParam id="1090"  name="rotation">
            <InterpolatingParam id="1091" interp="linr"  time="-9999999/1" value="0" leadInLength="0/1"  />
            <InterpolatingParam id="1092" interp="linr"  time="-9999999/1" value="0" leadInLength="0/1"  />
            <InterpolatingParam id="1093" interp="linr"  time="-9999999/1" value="0" leadInLength="0/1"  />
           </VectorParam>
           <VectorParam id="1094"  name="shear">
            <InterpolatingParam id="1095" interp="linr"  time="-9999999/1" value="0" leadInLength="0/1"  />
            <InterpolatingParam id="1096" interp="linr"  time="-9999999/1" value="0" leadInLength="0/1"  />
            <InterpolatingParam id="1097" interp="linr"  time="-9999999/1" value="0" leadInLength="0/1"  />
           </VectorParam>
           <VectorParam id="1098"  name="scale">
            <InterpolatingParam id="1099" interp="linr"  time="-9999999/1" value="1" leadInLength="0/1"  />
            <InterpolatingParam id="1100" interp="linr"  time="-9999999/1" value="1" leadInLength="0/1"  />
            <InterpolatingParam id="1101" interp="linr"  time="-9999999/1" value="1" leadInLength="0/1"  />
           </VectorParam>
           <VectorParam id="1102"  name="anchor">
            <InterpolatingParam id="1103" interp="linr"  time="0/1" value="0" leadInLength="0/1"  />
            <InterpolatingParam id="1104" interp="linr"  time="0/1" value="0" leadInLength="0/1"  />
            <InterpolatingParam id="1105" interp="linr"  time="0/1" value="0" leadInLength="0/1"  />
           </VectorParam>
          </Transformer>
          <GenericMixer id="1106"  >
           <MetaData>
           </MetaData>
           <Tracks>
            <GenericTrack id="1107"  >
             <Attributes>
              <Attribute id="1108" value="" name="ident"/>
              <Attribute id="1109" value="0" name="audioMuted"/>
              <Attribute id="1110" value="0" name="videoHidden"/>
             </Attributes>
             <MetaData>
              <entry key="IsLocked" val="False"/>
              <entry key="WinTrackHeight" val="0"/>
             </MetaData>
             <Medias>
              <StitchedMedia id="1111" start="0" duration="416" scalar="1/1" mediaStart="0/1" mediaDuration="416/1" minMediaStart="0/1" >
               <Transformer>
                <VectorParam id="1112"  name="translation">
                 <InterpolatingParam id="1113" interp="linr"  time="0/1" value="0" leadInLength="0/1"  />
                 <InterpolatingParam id="1114" interp="linr"  time="0/1" value="0" leadInLength="0/1"  />
                 <InterpolatingParam id="1115" interp="linr"  time="0/1" value="0" leadInLength="0/1"  />
                </VectorParam>
                <VectorParam id="1116"  name="rotation">
                 <InterpolatingParam id="1117" interp="linr"  time="0/1" value="0" leadInLength="0/1"  />
                 <InterpolatingParam id="1118" interp="linr"  time="0/1" value="0" leadInLength="0/1"  />
                 <InterpolatingParam id="1119" interp="linr"  time="0/1" value="0" leadInLength="0/1"  />
                </VectorParam>
                <VectorParam id="1120"  name="shear">
                 <InterpolatingParam id="1121" interp="linr"  time="0/1" value="0" leadInLength="0/1"  />
                 <InterpolatingParam id="1122" interp="linr"  time="0/1" value="0" leadInLength="0/1"  />
                 <InterpolatingParam id="1123" interp="linr"  time="0/1" value="0" leadInLength="0/1"  />
                </VectorParam>
                <VectorParam id="1124"  name="scale">
                 <InterpolatingParam id="1125" interp="linr"  time="0/1" value="1" leadInLength="0/1"  />
                 <InterpolatingParam id="1126" interp="linr"  time="0/1" value="1" leadInLength="0/1"  />
                 <InterpolatingParam id="1127" interp="linr"  time="0/1" value="1" leadInLength="0/1"  />
                </VectorParam>
                <VectorParam id="1128"  name="anchor">
                 <InterpolatingParam id="1129" interp="linr"  time="0/1" value="0" leadInLength="0/1"  />
                 <InterpolatingParam id="1130" interp="linr"  time="0/1" value="0" leadInLength="0/1"  />
                 <InterpolatingParam id="1131" interp="linr"  time="0/1" value="0" leadInLength="0/1"  />
                </VectorParam>
               </Transformer>
               <Parameters>
                <InterpolatingParam id="1132" interp="linr"  time="0/1" value="1" leadInLength="0/1"  name="cursorOpacity"/>
                <InterpolatingParam id="1133" interp="linr"  time="0/1" value="1" leadInLength="0/1"  name="cursorScale"/>
                <InterpolatingParam id="1134" interp="linr"  time="0/1" value="1" leadInLength="0/1"  name="volume"/>
                <Parameter id="1135"  name="captions"/>
               </Parameters>
               <Attributes>
                <Attribute id="1136" value="" name="ident"/>
                <Attribute id="1137" value="0" name="mixToMono"/>
               </Attributes>
               <MetaData>
                <entry key="WinSubProjectDisplayName" val=""/>
               </MetaData>
               <ExtraData>
                <Entry key="ZoomPanBin">
                 <ZoomPanBin id="1138"  >
                  <ZoomPanKeyframes>
                  </ZoomPanKeyframes>
                 </ZoomPanBin>
                </Entry>
                <Entry key="CursorEffectBin">
                 <CursorEffectBin id="1139"  >
                  <CursorEffectKeyframes>
                  </CursorEffectKeyframes>
                 </CursorEffectBin>
                </Entry>
               </ExtraData>
               <GenericTrack id="1140"  >
                <Attributes>
                 <Attribute id="1141" value="" name="ident"/>
                 <Attribute id="1142" value="0" name="audioMuted"/>
                 <Attribute id="1143" value="0" name="videoHidden"/>
                </Attributes>
                <MetaData>
                 <entry key="IsLocked" val="False"/>
                 <entry key="WinTrackHeight" val="0"/>
                </MetaData>
                <Medias>
                 <AMFile id="1144" start="0" duration="40" scalar="1/1" mediaStart="0/1" mediaDuration="40/1" trackNumber="2" src="10" channelNumber="0,1" >
                  <Parameters>
                   <InterpolatingParam id="1145" interp="linr"  time="0/1" value="1" leadInLength="0/1"  name="volume"/>
                   <Parameter id="1146"  name="captions"/>
                  </Parameters>
                  <Attributes>
                   <Attribute id="1147" value="" name="ident"/>
                   <Attribute id="1148" value="44100" name="sampleRate"/>
                   <Attribute id="1149" value="16" name="bitDepth"/>
                   <Attribute id="1150" value="1" name="gain"/>
                   <Attribute id="1151" value="0" name="mixToMono"/>
                  </Attributes>
                  <MetaData>
                   <entry key="WinSubProjectDisplayName" val=""/>
                  </MetaData>
                 </AMFile>
                 <AMFile id="1152" start="40" duration="220" scalar="1/1" mediaStart="48/1" mediaDuration="220/1" trackNumber="2" src="10" channelNumber="0,1" >
                  <Parameters>
                   <InterpolatingParam id="1153" interp="linr"  time="0/1" value="1" leadInLength="0/1"  name="volume"/>
                   <Parameter id="1154"  name="captions"/>
                  </Parameters>
                  <Attributes>
                   <Attribute id="1155" value="" name="ident"/>
                   <Attribute id="1156" value="44100" name="sampleRate"/>
                   <Attribute id="1157" value="16" name="bitDepth"/>
                   <Attribute id="1158" value="1" name="gain"/>
                   <Attribute id="1159" value="0" name="mixToMono"/>
                  </Attributes>
                  <MetaData>
                   <entry key="WinSubProjectDisplayName" val=""/>
                  </MetaData>
                 </AMFile>
                 <AMFile id="1160" start="260" duration="350" scalar="1/1" mediaStart="281/1" mediaDuration="350/1" trackNumber="2" src="10" channelNumber="0,1" >
                  <Parameters>
                   <InterpolatingParam id="1161" interp="linr"  time="0/1" value="1" leadInLength="0/1"  name="volume"/>
                   <Parameter id="1162"  name="captions"/>
                  </Parameters>
                  <Attributes>
                   <Attribute id="1163" value="" name="ident"/>
                   <Attribute id="1164" value="44100" name="sampleRate"/>
                   <Attribute id="1165" value="16" name="bitDepth"/>
                   <Attribute id="1166" value="1" name="gain"/>
                   <Attribute id="1167" value="0" name="mixToMono"/>
                  </Attributes>
                  <MetaData>
                   <entry key="WinSubProjectDisplayName" val=""/>
                  </MetaData>
                 </AMFile>
                </Medias>
               </GenericTrack>
              </StitchedMedia>
             </Medias>
            </GenericTrack>
            <GenericTrack id="1168"  >
             <Attributes>
              <Attribute id="1169" value="" name="ident"/>
              <Attribute id="1170" value="0" name="audioMuted"/>
              <Attribute id="1171" value="0" name="videoHidden"/>
             </Attributes>
             <MetaData>
              <entry key="IsLocked" val="False"/>
              <entry key="WinTrackHeight" val="0"/>
             </MetaData>
             <Medias>
              <StitchedMedia id="1172" start="0" duration="416" scalar="1/1" mediaStart="0/1" mediaDuration="416/1" minMediaStart="0/1" >
               <Transformer>
                <VectorParam id="1173"  name="translation">
                 <InterpolatingParam id="1174" interp="linr"  time="-9999999/1" value="0" leadInLength="0/1"  interpolater="leadin-linr"  />
                 <InterpolatingParam id="1175" interp="linr"  time="-9999999/1" value="0" leadInLength="0/1"  interpolater="leadin-linr"  />
                 <InterpolatingParam id="1176" interp="linr"  time="-9999999/1" value="0" leadInLength="0/1"  interpolater="leadin-linr"  />
                </VectorParam>
                <VectorParam id="1177"  name="rotation">
                 <InterpolatingParam id="1178" interp="linr"  time="-9999999/1" value="0" leadInLength="0/1"  interpolater="leadin-linr"  />
                 <InterpolatingParam id="1179" interp="linr"  time="-9999999/1" value="0" leadInLength="0/1"  interpolater="leadin-linr"  />
                 <InterpolatingParam id="1180" interp="linr"  time="-9999999/1" value="0" leadInLength="0/1"  interpolater="leadin-linr"  />
                </VectorParam>
                <VectorParam id="1181"  name="shear">
                 <InterpolatingParam id="1182" interp="linr"  time="-9999999/1" value="0" leadInLength="0/1"  interpolater="leadin-linr"  />
                 <InterpolatingParam id="1183" interp="linr"  time="-9999999/1" value="0" leadInLength="0/1"  interpolater="leadin-linr"  />
                 <InterpolatingParam id="1184" interp="linr"  time="-9999999/1" value="0" leadInLength="0/1"  interpolater="leadin-linr"  />
                </VectorParam>
                <VectorParam id="1185"  name="scale">
                 <InterpolatingParam id="1186" interp="linr"  time="-9999999/1" value="0.66666666666666663" leadInLength="0/1"  interpolater="leadin-linr"  />
                 <InterpolatingParam id="1187" interp="linr"  time="-9999999/1" value="0.66666666666666663" leadInLength="0/1"  interpolater="leadin-linr"  />
                 <InterpolatingParam id="1188" interp="linr"  time="-9999999/1" value="1" leadInLength="0/1"  interpolater="leadin-linr"  />
                </VectorParam>
                <VectorParam id="1189"  name="anchor">
                 <InterpolatingParam id="1190" interp="linr"  time="0/1" value="0" leadInLength="0/1"  />
                 <InterpolatingParam id="1191" interp="linr"  time="0/1" value="0" leadInLength="0/1"  />
                 <InterpolatingParam id="1192" interp="linr"  time="0/1" value="0" leadInLength="0/1"  />
                </VectorParam>
               </Transformer>
               <Parameters>
                <VectorParam id="1193"  name="sourceCrop">
                 <InterpolatingParam id="1194" interp="linr"  time="0/1" value="0" leadInLength="0/1"  />
                 <InterpolatingParam id="1195" interp="linr"  time="0/1" value="0" leadInLength="0/1"  />
                 <InterpolatingParam id="1196" interp="linr"  time="0/1" value="0" leadInLength="0/1"  />
                 <InterpolatingParam id="1197" interp="linr"  time="0/1" value="0" leadInLength="0/1"  />
                </VectorParam>
                <VectorParam id="1198"  name="geometryCrop">
                 <InterpolatingParam id="1199" interp="linr"  time="-9999999/1" value="0" leadInLength="0/1"  interpolater="leadin-linr"  />
                 <InterpolatingParam id="1200" interp="linr"  time="-9999999/1" value="0" leadInLength="0/1"  interpolater="leadin-linr"  />
                 <InterpolatingParam id="1201" interp="linr"  time="-9999999/1" value="0" leadInLength="0/1"  interpolater="leadin-linr"  />
                 <InterpolatingParam id="1202" interp="linr"  time="-9999999/1" value="0" leadInLength="0/1"  interpolater="leadin-linr"  />
                </VectorParam>
                <InterpolatingParam id="1203" interp="linr"  time="-9999999/1" value="1" leadInLength="0/1"  interpolater="leadin-linr"  name="opacity"/>
                <InterpolatingParam id="1204" interp="linr"  time="0/1" value="1" leadInLength="0/1"  name="cursorOpacity"/>
                <InterpolatingParam id="1205" interp="linr"  time="0/1" value="1" leadInLength="0/1"  name="cursorScale"/>
                <InterpolatingParam id="1206" interp="linr"  time="0/1" value="1" leadInLength="0/1"  name="volume"/>
                <Parameter id="1207"  name="captions"/>
               </Parameters>
               <Effects>
                <GenericEffect id="1208" name = "CursorBaseEffectName" >
                 <Parameters>
                 <InterpolatingParam id="1209" interp="linr"  time="-9999999/1" value="1" leadInLength="0/1"   name="cursorSize"/>
                 <InterpolatingParam id="1210" interp="linr"  time="-9999999/1" value="0" leadInLength="0/1"   name="highlightBlurRadius"/>
                 <InterpolatingParam id="1211" interp="linr"  time="-9999999/1" value="0" leadInLength="0/1"   name="highlightColorBlue"/>
                 <InterpolatingParam id="1212" interp="linr"  time="-9999999/1" value="255" leadInLength="0/1"   name="highlightColorGreen"/>
                 <InterpolatingParam id="1213" interp="linr"  time="-9999999/1" value="255" leadInLength="0/1"   name="highlightColorRed"/>
                 <InterpolatingParam id="1214" interp="linr"  time="-9999999/1" value="5" leadInLength="0/1"   name="highlightFeatherSize"/>
                 <InterpolatingParam id="1215" interp="linr"  time="-9999999/1" value="2" leadInLength="0/1"   name="highlightMagnification"/>
                 <InterpolatingParam id="1216" interp="linr"  time="-9999999/1" value="1" leadInLength="0/1"   name="highlightOpacity"/>
                 <InterpolatingParam id="1217" interp="linr"  time="-9999999/1" value="45" leadInLength="0/1"   name="highlightSize"/>
                 <Parameter id="1218"   name="highlightType">
                  <Keyframes>
                  <Keyframe id="1219"  time="-9999999/1" value="0" leadInLength="0/1"  />
                  </Keyframes>
                 </Parameter>
                 <InterpolatingParam id="1220" interp="linr"  time="-9999999/1" value="0" leadInLength="0/1"   name="leftClickColorBlue"/>
                 <InterpolatingParam id="1221" interp="linr"  time="-9999999/1" value="0" leadInLength="0/1"   name="leftClickColorGreen"/>
                 <InterpolatingParam id="1222" interp="linr"  time="-9999999/1" value="255" leadInLength="0/1"   name="leftClickColorRed"/>
                 <InterpolatingParam id="1223" interp="linr"  time="-9999999/1" value="0.80000000000000004" leadInLength="0/1"   name="leftClickDuration"/>
                 <InterpolatingParam id="1224" interp="linr"  time="-9999999/1" value="20" leadInLength="0/1"   name="leftClickSize"/>
                 <Parameter id="1225"   name="leftClickSoundFilename">
                  <Keyframes>
                  <Keyframe id="1226"  time="-9999999/1" value="" leadInLength="0/1"  />
                  </Keyframes>
                 </Parameter>
                 <InterpolatingParam id="1227" interp="linr"  time="-9999999/1" value="1" leadInLength="0/1"   name="leftClickSoundVolume"/>
                 <Parameter id="1228"   name="leftClickType">
                  <Keyframes>
                  <Keyframe id="1229"  time="-9999999/1" value="0" leadInLength="0/1"  />
                  </Keyframes>
                 </Parameter>
                 <InterpolatingParam id="1230" interp="linr"  time="-9999999/1" value="1" leadInLength="0/1"   name="opacity"/>
                 <InterpolatingParam id="1231" interp="linr"  time="-9999999/1" value="255" leadInLength="0/1"   name="rightClickColorBlue"/>
                 <InterpolatingParam id="1232" interp="linr"  time="-9999999/1" value="0" leadInLength="0/1"   name="rightClickColorGreen"/>
                 <InterpolatingParam id="1233" interp="linr"  time="-9999999/1" value="0" leadInLength="0/1"   name="rightClickColorRed"/>
                 <InterpolatingParam id="1234" interp="linr"  time="-9999999/1" value="0.80000000000000004" leadInLength="0/1"   name="rightClickDuration"/>
                 <InterpolatingParam id="1235" interp="linr"  time="-9999999/1" value="20" leadInLength="0/1"   name="rightClickSize"/>
                 <Parameter id="1236"   name="rightClickSoundFilename">
                  <Keyframes>
                  <Keyframe id="1237"  time="-9999999/1" value="" leadInLength="0/1"  />
                  </Keyframes>
                 </Parameter>
                 <InterpolatingParam id="1238" interp="linr"  time="-9999999/1" value="1" leadInLength="0/1"   name="rightClickSoundVolume"/>
                 <Parameter id="1239"   name="rightClickType">
                  <Keyframes>
                  <Keyframe id="1240"  time="-9999999/1" value="0" leadInLength="0/1"  />
                  </Keyframes>
                 </Parameter>
                 </Parameters>
                 <MetaData>
                  <entry key="effectIndex" val="0"/>
                 </MetaData>
                </GenericEffect>
               </Effects>
               <Attributes>
                <Attribute id="1241" value="" name="ident"/>
                <Attribute id="1242" value="0" name="mixToMono"/>
               </Attributes>
               <MetaData>
                <entry key="AutoAppliedSmartFocus" val="False"/>
                <entry key="WinSubProjectDisplayName" val=""/>
               </MetaData>
               <ExtraData>
                <Entry key="ZoomPanBin">
                 <ZoomPanBin id="1243"  >
                  <ZoomPanKeyframes>
                   <ZoomPanKeyframe id="1244" timeRangeEnd="-9999999/1" timeRangeDuration="0/1" interpolaterName="linr"  />
                  </ZoomPanKeyframes>
                 </ZoomPanBin>
                </Entry>
                <Entry key="CursorEffectBin">
                 <CursorEffectBin id="1245"  >
                  <CursorEffectKeyframes>
                   <CursorEffectKeyframe id="1246" timeRangeEnd="-9999999/1" timeRangeDuration="0/1" interpolaterName=""  />
                  </CursorEffectKeyframes>
                 </CursorEffectBin>
                </Entry>
               </ExtraData>
               <GenericTrack id="1247"  >
                <Attributes>
                 <Attribute id="1248" value="" name="ident"/>
                 <Attribute id="1249" value="0" name="audioMuted"/>
                 <Attribute id="1250" value="0" name="videoHidden"/>
                </Attributes>
                <MetaData>
                 <entry key="IsLocked" val="False"/>
                 <entry key="WinTrackHeight" val="0"/>
                </MetaData>
                <Medias>
                 <UnifiedMedia id="1251"  >
                  <AMFile id="1252" start="0" duration="40" scalar="1/1" mediaStart="0/1" mediaDuration="40/1" trackNumber="1" src="10" channelNumber="0,1" >
                   <Parameters>
                    <InterpolatingParam id="1253" interp="linr"  time="0/1" value="1" leadInLength="0/1"  name="volume"/>
                    <Parameter id="1254"  name="captions"/>
                   </Parameters>
                   <Attributes>
                    <Attribute id="1255" value="" name="ident"/>
                    <Attribute id="1256" value="44100" name="sampleRate"/>
                    <Attribute id="1257" value="16" name="bitDepth"/>
                    <Attribute id="1258" value="1" name="gain"/>
                    <Attribute id="1259" value="0" name="mixToMono"/>
                   </Attributes>
                  </AMFile>
                  <ScreenVMFile id="1260" start="0" duration="40" scalar="1/1" mediaStart="0/1" mediaDuration="40/1" trackNumber="0" src="10" >
                   <Transformer>
                    <VectorParam id="1261"  name="translation">
                     <InterpolatingParam id="1262" interp="linr"  time="-9999999/1" value="0" leadInLength="0/1"  />
                     <InterpolatingParam id="1263" interp="linr"  time="-9999999/1" value="0" leadInLength="0/1"  />
                     <InterpolatingParam id="1264" interp="linr"  time="-9999999/1" value="0" leadInLength="0/1"  />
                    </VectorParam>
                    <VectorParam id="1265"  name="rotation">
                     <InterpolatingParam id="1266" interp="linr"  time="-9999999/1" value="0" leadInLength="0/1"  />
                     <InterpolatingParam id="1267" interp="linr"  time="-9999999/1" value="0" leadInLength="0/1"  />
                     <InterpolatingParam id="1268" interp="linr"  time="-9999999/1" value="0" leadInLength="0/1"  />
                    </VectorParam>
                    <VectorParam id="1269"  name="shear">
                     <InterpolatingParam id="1270" interp="linr"  time="-9999999/1" value="0" leadInLength="0/1"  />
                     <InterpolatingParam id="1271" interp="linr"  time="-9999999/1" value="0" leadInLength="0/1"  />
                     <InterpolatingParam id="1272" interp="linr"  time="-9999999/1" value="0" leadInLength="0/1"  />
                    </VectorParam>
                    <VectorParam id="1273"  name="scale">
                     <InterpolatingParam id="1274" interp="linr"  time="-9999999/1" value="1" leadInLength="0/1"  />
                     <InterpolatingParam id="1275" interp="linr"  time="-9999999/1" value="1" leadInLength="0/1"  />
                     <InterpolatingParam id="1276" interp="linr"  time="-9999999/1" value="1" leadInLength="0/1"  />
                    </VectorParam>
                    <VectorParam id="1277"  name="anchor">
                     <InterpolatingParam id="1278" interp="linr"  time="0/1" value="0" leadInLength="0/1"  />
                     <InterpolatingParam id="1279" interp="linr"  time="0/1" value="0" leadInLength="0/1"  />
                     <InterpolatingParam id="1280" interp="linr"  time="0/1" value="0" leadInLength="0/1"  />
                    </VectorParam>
                   </Transformer>
                   <Parameters>
                    <VectorParam id="1281"  name="sourceCrop">
                     <InterpolatingParam id="1282" interp="linr"  time="0/1" value="0" leadInLength="0/1"  />
                     <InterpolatingParam id="1283" interp="linr"  time="0/1" value="0" leadInLength="0/1"  />
                     <InterpolatingParam id="1284" interp="linr"  time="0/1" value="0" leadInLength="0/1"  />
                     <InterpolatingParam id="1285" interp="linr"  time="0/1" value="0" leadInLength="0/1"  />
                    </VectorParam>
                    <VectorParam id="1286"  name="geometryCrop">
                     <InterpolatingParam id="1287" interp="linr"  time="-9999999/1" value="0" leadInLength="0/1"  />
                     <InterpolatingParam id="1288" interp="linr"  time="-9999999/1" value="0" leadInLength="0/1"  />
                     <InterpolatingParam id="1289" interp="linr"  time="-9999999/1" value="0" leadInLength="0/1"  />
                     <InterpolatingParam id="1290" interp="linr"  time="-9999999/1" value="0" leadInLength="0/1"  />
                    </VectorParam>
                    <InterpolatingParam id="1291" interp="linr"  time="-9999999/1" value="1" leadInLength="0/1"  name="opacity"/>
                    <InterpolatingParam id="1292" interp="linr"  time="0/1" value="0" leadInLength="0/1"  name="cursorOpacity"/>
                    <InterpolatingParam id="1293" interp="linr"  time="0/1" value="0" leadInLength="0/1"  name="cursorScale"/>
                   </Parameters>
                   <Attributes>
                    <Attribute id="1294" value="" name="ident"/>
                   </Attributes>
                   <ExtraData>
                    <Entry key="ZoomPanBin">
                     <ZoomPanBin id="1295"  >
                      <ZoomPanKeyframes>
                       <ZoomPanKeyframe id="1296" timeRangeEnd="-9999999/1" timeRangeDuration="0/1" interpolaterName="linr"  />
                      </ZoomPanKeyframes>
                     </ZoomPanBin>
                    </Entry>
                    <Entry key="CursorEffectBin">
                     <CursorEffectBin id="1297"  >
                      <CursorEffectKeyframes>
                      </CursorEffectKeyframes>
                     </CursorEffectBin>
                    </Entry>
                   </ExtraData>
                  </ScreenVMFile>
                  <MetaData>
                   <entry key="AutoAppliedSmartFocus" val="False"/>
                   <entry key="WinSubProjectDisplayName" val=""/>
                  </MetaData>
                 </UnifiedMedia>
                 <UnifiedMedia id="1298"  >
                  <AMFile id="1299" start="40" duration="220" scalar="1/1" mediaStart="48/1" mediaDuration="220/1" trackNumber="1" src="10" channelNumber="0,1" >
                   <Parameters>
                    <InterpolatingParam id="1300" interp="linr"  time="0/1" value="1" leadInLength="0/1"  name="volume"/>
                    <Parameter id="1301"  name="captions"/>
                   </Parameters>
                   <Attributes>
                    <Attribute id="1302" value="" name="ident"/>
                    <Attribute id="1303" value="44100" name="sampleRate"/>
                    <Attribute id="1304" value="16" name="bitDepth"/>
                    <Attribute id="1305" value="1" name="gain"/>
                    <Attribute id="1306" value="0" name="mixToMono"/>
                   </Attributes>
                  </AMFile>
                  <ScreenVMFile id="1307" start="40" duration="220" scalar="1/1" mediaStart="48/1" mediaDuration="220/1" trackNumber="0" src="10" >
                   <Transformer>
                    <VectorParam id="1308"  name="translation">
                     <InterpolatingParam id="1309" interp="linr"  time="-9999999/1" value="0" leadInLength="0/1"  />
                     <InterpolatingParam id="1310" interp="linr"  time="-9999999/1" value="0" leadInLength="0/1"  />
                     <InterpolatingParam id="1311" interp="linr"  time="-9999999/1" value="0" leadInLength="0/1"  />
                    </VectorParam>
                    <VectorParam id="1312"  name="rotation">
                     <InterpolatingParam id="1313" interp="linr"  time="-9999999/1" value="0" leadInLength="0/1"  />
                     <InterpolatingParam id="1314" interp="linr"  time="-9999999/1" value="0" leadInLength="0/1"  />
                     <InterpolatingParam id="1315" interp="linr"  time="-9999999/1" value="0" leadInLength="0/1"  />
                    </VectorParam>
                    <VectorParam id="1316"  name="shear">
                     <InterpolatingParam id="1317" interp="linr"  time="-9999999/1" value="0" leadInLength="0/1"  />
                     <InterpolatingParam id="1318" interp="linr"  time="-9999999/1" value="0" leadInLength="0/1"  />
                     <InterpolatingParam id="1319" interp="linr"  time="-9999999/1" value="0" leadInLength="0/1"  />
                    </VectorParam>
                    <VectorParam id="1320"  name="scale">
                     <InterpolatingParam id="1321" interp="linr"  time="-9999999/1" value="1" leadInLength="0/1"  />
                     <InterpolatingParam id="1322" interp="linr"  time="-9999999/1" value="1" leadInLength="0/1"  />
                     <InterpolatingParam id="1323" interp="linr"  time="-9999999/1" value="1" leadInLength="0/1"  />
                    </VectorParam>
                    <VectorParam id="1324"  name="anchor">
                     <InterpolatingParam id="1325" interp="linr"  time="0/1" value="0" leadInLength="0/1"  />
                     <InterpolatingParam id="1326" interp="linr"  time="0/1" value="0" leadInLength="0/1"  />
                     <InterpolatingParam id="1327" interp="linr"  time="0/1" value="0" leadInLength="0/1"  />
                    </VectorParam>
                   </Transformer>
                   <Parameters>
                    <VectorParam id="1328"  name="sourceCrop">
                     <InterpolatingParam id="1329" interp="linr"  time="0/1" value="0" leadInLength="0/1"  />
                     <InterpolatingParam id="1330" interp="linr"  time="0/1" value="0" leadInLength="0/1"  />
                     <InterpolatingParam id="1331" interp="linr"  time="0/1" value="0" leadInLength="0/1"  />
                     <InterpolatingParam id="1332" interp="linr"  time="0/1" value="0" leadInLength="0/1"  />
                    </VectorParam>
                    <VectorParam id="1333"  name="geometryCrop">
                     <InterpolatingParam id="1334" interp="linr"  time="-9999999/1" value="0" leadInLength="0/1"  />
                     <InterpolatingParam id="1335" interp="linr"  time="-9999999/1" value="0" leadInLength="0/1"  />
                     <InterpolatingParam id="1336" interp="linr"  time="-9999999/1" value="0" leadInLength="0/1"  />
                     <InterpolatingParam id="1337" interp="linr"  time="-9999999/1" value="0" leadInLength="0/1"  />
                    </VectorParam>
                    <InterpolatingParam id="1338" interp="linr"  time="-9999999/1" value="1" leadInLength="0/1"  name="opacity"/>
                    <InterpolatingParam id="1339" interp="linr"  time="0/1" value="0" leadInLength="0/1"  name="cursorOpacity"/>
                    <InterpolatingParam id="1340" interp="linr"  time="0/1" value="0" leadInLength="0/1"  name="cursorScale"/>
                   </Parameters>
                   <Attributes>
                    <Attribute id="1341" value="" name="ident"/>
                   </Attributes>
                   <ExtraData>
                    <Entry key="ZoomPanBin">
                     <ZoomPanBin id="1342"  >
                      <ZoomPanKeyframes>
                       <ZoomPanKeyframe id="1343" timeRangeEnd="-9999999/1" timeRangeDuration="0/1" interpolaterName="linr"  />
                      </ZoomPanKeyframes>
                     </ZoomPanBin>
                    </Entry>
                    <Entry key="CursorEffectBin">
                     <CursorEffectBin id="1344"  >
                      <CursorEffectKeyframes>
                      </CursorEffectKeyframes>
                     </CursorEffectBin>
                    </Entry>
                   </ExtraData>
                  </ScreenVMFile>
                  <MetaData>
                   <entry key="AutoAppliedSmartFocus" val="False"/>
                   <entry key="WinSubProjectDisplayName" val=""/>
                  </MetaData>
                 </UnifiedMedia>
                 <UnifiedMedia id="1345"  >
                  <AMFile id="1346" start="260" duration="380" scalar="1/1" mediaStart="281/1" mediaDuration="380/1" trackNumber="1" src="10" channelNumber="0,1" >
                   <Parameters>
                    <InterpolatingParam id="1347" interp="linr"  time="0/1" value="1" leadInLength="0/1"  name="volume"/>
                    <Parameter id="1348"  name="captions"/>
                   </Parameters>
                   <Attributes>
                    <Attribute id="1349" value="" name="ident"/>
                    <Attribute id="1350" value="44100" name="sampleRate"/>
                    <Attribute id="1351" value="16" name="bitDepth"/>
                    <Attribute id="1352" value="1" name="gain"/>
                    <Attribute id="1353" value="0" name="mixToMono"/>
                   </Attributes>
                  </AMFile>
                  <ScreenVMFile id="1354" start="260" duration="380" scalar="1/1" mediaStart="281/1" mediaDuration="380/1" trackNumber="0" src="10" >
                   <Transformer>
                    <VectorParam id="1355"  name="translation">
                     <InterpolatingParam id="1356" interp="linr"  time="-9999999/1" value="0" leadInLength="0/1"  />
                     <InterpolatingParam id="1357" interp="linr"  time="-9999999/1" value="0" leadInLength="0/1"  />
                     <InterpolatingParam id="1358" interp="linr"  time="-9999999/1" value="0" leadInLength="0/1"  />
                    </VectorParam>
                    <VectorParam id="1359"  name="rotation">
                     <InterpolatingParam id="1360" interp="linr"  time="-9999999/1" value="0" leadInLength="0/1"  />
                     <InterpolatingParam id="1361" interp="linr"  time="-9999999/1" value="0" leadInLength="0/1"  />
                     <InterpolatingParam id="1362" interp="linr"  time="-9999999/1" value="0" leadInLength="0/1"  />
                    </VectorParam>
                    <VectorParam id="1363"  name="shear">
                     <InterpolatingParam id="1364" interp="linr"  time="-9999999/1" value="0" leadInLength="0/1"  />
                     <InterpolatingParam id="1365" interp="linr"  time="-9999999/1" value="0" leadInLength="0/1"  />
                     <InterpolatingParam id="1366" interp="linr"  time="-9999999/1" value="0" leadInLength="0/1"  />
                    </VectorParam>
                    <VectorParam id="1367"  name="scale">
                     <InterpolatingParam id="1368" interp="linr"  time="-9999999/1" value="1" leadInLength="0/1"  />
                     <InterpolatingParam id="1369" interp="linr"  time="-9999999/1" value="1" leadInLength="0/1"  />
                     <InterpolatingParam id="1370" interp="linr"  time="-9999999/1" value="1" leadInLength="0/1"  />
                    </VectorParam>
                    <VectorParam id="1371"  name="anchor">
                     <InterpolatingParam id="1372" interp="linr"  time="0/1" value="0" leadInLength="0/1"  />
                     <InterpolatingParam id="1373" interp="linr"  time="0/1" value="0" leadInLength="0/1"  />
                     <InterpolatingParam id="1374" interp="linr"  time="0/1" value="0" leadInLength="0/1"  />
                    </VectorParam>
                   </Transformer>
                   <Parameters>
                    <VectorParam id="1375"  name="sourceCrop">
                     <InterpolatingParam id="1376" interp="linr"  time="0/1" value="0" leadInLength="0/1"  />
                     <InterpolatingParam id="1377" interp="linr"  time="0/1" value="0" leadInLength="0/1"  />
                     <InterpolatingParam id="1378" interp="linr"  time="0/1" value="0" leadInLength="0/1"  />
                     <InterpolatingParam id="1379" interp="linr"  time="0/1" value="0" leadInLength="0/1"  />
                    </VectorParam>
                    <VectorParam id="1380"  name="geometryCrop">
                     <InterpolatingParam id="1381" interp="linr"  time="-9999999/1" value="0" leadInLength="0/1"  />
                     <InterpolatingParam id="1382" interp="linr"  time="-9999999/1" value="0" leadInLength="0/1"  />
                     <InterpolatingParam id="1383" interp="linr"  time="-9999999/1" value="0" leadInLength="0/1"  />
                     <InterpolatingParam id="1384" interp="linr"  time="-9999999/1" value="0" leadInLength="0/1"  />
                    </VectorParam>
                    <InterpolatingParam id="1385" interp="linr"  time="-9999999/1" value="1" leadInLength="0/1"  name="opacity"/>
                    <InterpolatingParam id="1386" interp="linr"  time="0/1" value="0" leadInLength="0/1"  name="cursorOpacity"/>
                    <InterpolatingParam id="1387" interp="linr"  time="0/1" value="0" leadInLength="0/1"  name="cursorScale"/>
                   </Parameters>
                   <Attributes>
                    <Attribute id="1388" value="" name="ident"/>
                   </Attributes>
                   <ExtraData>
                    <Entry key="ZoomPanBin">
                     <ZoomPanBin id="1389"  >
                      <ZoomPanKeyframes>
                       <ZoomPanKeyframe id="1390" timeRangeEnd="-9999999/1" timeRangeDuration="0/1" interpolaterName="linr"  />
                      </ZoomPanKeyframes>
                     </ZoomPanBin>
                    </Entry>
                    <Entry key="CursorEffectBin">
                     <CursorEffectBin id="1391"  >
                      <CursorEffectKeyframes>
                      </CursorEffectKeyframes>
                     </CursorEffectBin>
                    </Entry>
                   </ExtraData>
                  </ScreenVMFile>
                  <MetaData>
                   <entry key="AutoAppliedSmartFocus" val="False"/>
                   <entry key="WinSubProjectDisplayName" val=""/>
                  </MetaData>
                 </UnifiedMedia>
                </Medias>
               </GenericTrack>
              </StitchedMedia>
             </Medias>
            </GenericTrack>
           </Tracks>
          </GenericMixer>
          <MetaData>
           <entry key="IsGroupExpanded" val="False"/>
           <entry key="WinGroupOrigin" val="Asset"/>
           <entry key="WinSubProjectDisplayName" val="7"/>
          </MetaData>
          <ExtraData>
           <Entry key="ZoomPanBin">
            <ZoomPanBin id="1392"  >
             <ZoomPanKeyframes>
              <ZoomPanKeyframe id="1393" timeRangeEnd="-9999999/1" timeRangeDuration="0/1" interpolaterName="linr"  />
             </ZoomPanKeyframes>
            </ZoomPanBin>
           </Entry>
          </ExtraData>
         </Group>
         <Group id="1394" start="9606" duration="2908" scalar="1" mediaStart="0" mediaDuration="2908" baseWidthAttr="0" baseHeightAttr="0"  >
          <Parameters>
           <VectorParam id="1395"  name="sourceCrop">
            <InterpolatingParam id="1396" interp="linr"  time="0/1" value="0" leadInLength="0/1"  />
            <InterpolatingParam id="1397" interp="linr"  time="0/1" value="0" leadInLength="0/1"  />
            <InterpolatingParam id="1398" interp="linr"  time="0/1" value="0" leadInLength="0/1"  />
            <InterpolatingParam id="1399" interp="linr"  time="0/1" value="0" leadInLength="0/1"  />
           </VectorParam>
           <VectorParam id="1400"  name="geometryCrop">
            <InterpolatingParam id="1401" interp="linr"  time="-9999999/1" value="0" leadInLength="0/1"  />
            <InterpolatingParam id="1402" interp="linr"  time="-9999999/1" value="0" leadInLength="0/1"  />
            <InterpolatingParam id="1403" interp="linr"  time="-9999999/1" value="0" leadInLength="0/1"  />
            <InterpolatingParam id="1404" interp="linr"  time="-9999999/1" value="0" leadInLength="0/1"  />
           </VectorParam>
           <InterpolatingParam id="1405" interp="linr"  time="-9999999/1" value="1" leadInLength="0/1"  name="opacity"/>
           <Parameter id="1406"  name="captions"/>
           <InterpolatingParam id="1407" interp="linr"  time="0/1" value="1" leadInLength="0/1"  name="volume"/>
          </Parameters>
          <Transformer>
           <VectorParam id="1408"  name="translation">
            <InterpolatingParam id="1409" interp="linr"  time="-9999999/1" value="0" leadInLength="0/1"  />
            <InterpolatingParam id="1410" interp="linr"  time="-9999999/1" value="0" leadInLength="0/1"  />
            <InterpolatingParam id="1411" interp="linr"  time="-9999999/1" value="0" leadInLength="0/1"  />
           </VectorParam>
           <VectorParam id="1412"  name="rotation">
            <InterpolatingParam id="1413" interp="linr"  time="-9999999/1" value="0" leadInLength="0/1"  />
            <InterpolatingParam id="1414" interp="linr"  time="-9999999/1" value="0" leadInLength="0/1"  />
            <InterpolatingParam id="1415" interp="linr"  time="-9999999/1" value="0" leadInLength="0/1"  />
           </VectorParam>
           <VectorParam id="1416"  name="shear">
            <InterpolatingParam id="1417" interp="linr"  time="-9999999/1" value="0" leadInLength="0/1"  />
            <InterpolatingParam id="1418" interp="linr"  time="-9999999/1" value="0" leadInLength="0/1"  />
            <InterpolatingParam id="1419" interp="linr"  time="-9999999/1" value="0" leadInLength="0/1"  />
           </VectorParam>
           <VectorParam id="1420"  name="scale">
            <InterpolatingParam id="1421" interp="linr"  time="-9999999/1" value="1" leadInLength="0/1"  />
            <InterpolatingParam id="1422" interp="linr"  time="-9999999/1" value="1" leadInLength="0/1"  />
            <InterpolatingParam id="1423" interp="linr"  time="-9999999/1" value="1" leadInLength="0/1"  />
           </VectorParam>
           <VectorParam id="1424"  name="anchor">
            <InterpolatingParam id="1425" interp="linr"  time="0/1" value="0" leadInLength="0/1"  />
            <InterpolatingParam id="1426" interp="linr"  time="0/1" value="0" leadInLength="0/1"  />
            <InterpolatingParam id="1427" interp="linr"  time="0/1" value="0" leadInLength="0/1"  />
           </VectorParam>
          </Transformer>
          <GenericMixer id="1428"  >
           <MetaData>
           </MetaData>
           <Tracks>
            <GenericTrack id="1429"  >
             <Attributes>
              <Attribute id="1430" value="" name="ident"/>
              <Attribute id="1431" value="0" name="audioMuted"/>
              <Attribute id="1432" value="0" name="videoHidden"/>
             </Attributes>
             <MetaData>
              <entry key="IsLocked" val="False"/>
              <entry key="WinTrackHeight" val="0"/>
             </MetaData>
             <Medias>
              <StitchedMedia id="1433" start="0" duration="2908" scalar="1/1" mediaStart="0/1" mediaDuration="2908/1" minMediaStart="0/1" >
               <Transformer>
                <VectorParam id="1434"  name="translation">
                 <InterpolatingParam id="1435" interp="linr"  time="0/1" value="0" leadInLength="0/1"  />
                 <InterpolatingParam id="1436" interp="linr"  time="0/1" value="0" leadInLength="0/1"  />
                 <InterpolatingParam id="1437" interp="linr"  time="0/1" value="0" leadInLength="0/1"  />
                </VectorParam>
                <VectorParam id="1438"  name="rotation">
                 <InterpolatingParam id="1439" interp="linr"  time="0/1" value="0" leadInLength="0/1"  />
                 <InterpolatingParam id="1440" interp="linr"  time="0/1" value="0" leadInLength="0/1"  />
                 <InterpolatingParam id="1441" interp="linr"  time="0/1" value="0" leadInLength="0/1"  />
                </VectorParam>
                <VectorParam id="1442"  name="shear">
                 <InterpolatingParam id="1443" interp="linr"  time="0/1" value="0" leadInLength="0/1"  />
                 <InterpolatingParam id="1444" interp="linr"  time="0/1" value="0" leadInLength="0/1"  />
                 <InterpolatingParam id="1445" interp="linr"  time="0/1" value="0" leadInLength="0/1"  />
                </VectorParam>
                <VectorParam id="1446"  name="scale">
                 <InterpolatingParam id="1447" interp="linr"  time="0/1" value="1" leadInLength="0/1"  />
                 <InterpolatingParam id="1448" interp="linr"  time="0/1" value="1" leadInLength="0/1"  />
                 <InterpolatingParam id="1449" interp="linr"  time="0/1" value="1" leadInLength="0/1"  />
                </VectorParam>
                <VectorParam id="1450"  name="anchor">
                 <InterpolatingParam id="1451" interp="linr"  time="0/1" value="0" leadInLength="0/1"  />
                 <InterpolatingParam id="1452" interp="linr"  time="0/1" value="0" leadInLength="0/1"  />
                 <InterpolatingParam id="1453" interp="linr"  time="0/1" value="0" leadInLength="0/1"  />
                </VectorParam>
               </Transformer>
               <Parameters>
                <InterpolatingParam id="1454" interp="linr"  time="0/1" value="1" leadInLength="0/1"  name="cursorOpacity"/>
                <InterpolatingParam id="1455" interp="linr"  time="0/1" value="1" leadInLength="0/1"  name="cursorScale"/>
                <InterpolatingParam id="1456" interp="linr"  time="0/1" value="1" leadInLength="0/1"  name="volume"/>
                <Parameter id="1457"  name="captions"/>
               </Parameters>
               <Attributes>
                <Attribute id="1458" value="" name="ident"/>
                <Attribute id="1459" value="0" name="mixToMono"/>
               </Attributes>
               <MetaData>
                <entry key="WinSubProjectDisplayName" val=""/>
               </MetaData>
               <ExtraData>
                <Entry key="ZoomPanBin">
                 <ZoomPanBin id="1460"  >
                  <ZoomPanKeyframes>
                  </ZoomPanKeyframes>
                 </ZoomPanBin>
                </Entry>
                <Entry key="CursorEffectBin">
                 <CursorEffectBin id="1461"  >
                  <CursorEffectKeyframes>
                  </CursorEffectKeyframes>
                 </CursorEffectBin>
                </Entry>
               </ExtraData>
               <GenericTrack id="1462"  >
                <Attributes>
                 <Attribute id="1463" value="" name="ident"/>
                 <Attribute id="1464" value="0" name="audioMuted"/>
                 <Attribute id="1465" value="0" name="videoHidden"/>
                </Attributes>
                <MetaData>
                 <entry key="IsLocked" val="False"/>
                 <entry key="WinTrackHeight" val="0"/>
                </MetaData>
                <Medias>
                 <AMFile id="1466" start="0" duration="1441" scalar="1/1" mediaStart="0/1" mediaDuration="1441/1" trackNumber="2" src="11" channelNumber="0,1" >
                  <Parameters>
                   <InterpolatingParam id="1467" interp="linr"  time="0/1" value="1" leadInLength="0/1"  name="volume"/>
                   <Parameter id="1468"  name="captions"/>
                  </Parameters>
                  <Attributes>
                   <Attribute id="1469" value="" name="ident"/>
                   <Attribute id="1470" value="44100" name="sampleRate"/>
                   <Attribute id="1471" value="16" name="bitDepth"/>
                   <Attribute id="1472" value="1" name="gain"/>
                   <Attribute id="1473" value="0" name="mixToMono"/>
                  </Attributes>
                  <MetaData>
                   <entry key="WinSubProjectDisplayName" val=""/>
                  </MetaData>
                 </AMFile>
                 <AMFile id="1474" start="1441" duration="949" scalar="1/1" mediaStart="1471/1" mediaDuration="949/1" trackNumber="2" src="11" channelNumber="0,1" >
                  <Parameters>
                   <InterpolatingParam id="1475" interp="linr"  time="0/1" value="1" leadInLength="0/1"  name="volume"/>
                   <Parameter id="1476"  name="captions"/>
                  </Parameters>
                  <Attributes>
                   <Attribute id="1477" value="" name="ident"/>
                   <Attribute id="1478" value="44100" name="sampleRate"/>
                   <Attribute id="1479" value="16" name="bitDepth"/>
                   <Attribute id="1480" value="1" name="gain"/>
                   <Attribute id="1481" value="0" name="mixToMono"/>
                  </Attributes>
                  <MetaData>
                   <entry key="WinSubProjectDisplayName" val=""/>
                  </MetaData>
                 </AMFile>
                 <AMFile id="1482" start="2390" duration="99" scalar="1/1" mediaStart="2781/1" mediaDuration="99/1" trackNumber="2" src="11" channelNumber="0,1" >
                  <Parameters>
                   <InterpolatingParam id="1483" interp="linr"  time="0/1" value="1" leadInLength="0/1"  name="volume"/>
                   <Parameter id="1484"  name="captions"/>
                  </Parameters>
                  <Attributes>
                   <Attribute id="1485" value="" name="ident"/>
                   <Attribute id="1486" value="44100" name="sampleRate"/>
                   <Attribute id="1487" value="16" name="bitDepth"/>
                   <Attribute id="1488" value="1" name="gain"/>
                   <Attribute id="1489" value="0" name="mixToMono"/>
                  </Attributes>
                  <MetaData>
                   <entry key="WinSubProjectDisplayName" val=""/>
                  </MetaData>
                 </AMFile>
                 <AMFile id="1490" start="2489" duration="607" scalar="1/1" mediaStart="2903/1" mediaDuration="607/1" trackNumber="2" src="11" channelNumber="0,1" >
                  <Parameters>
                   <InterpolatingParam id="1491" interp="linr"  time="0/1" value="1" leadInLength="0/1"  name="volume"/>
                   <Parameter id="1492"  name="captions"/>
                  </Parameters>
                  <Attributes>
                   <Attribute id="1493" value="" name="ident"/>
                   <Attribute id="1494" value="44100" name="sampleRate"/>
                   <Attribute id="1495" value="16" name="bitDepth"/>
                   <Attribute id="1496" value="1" name="gain"/>
                   <Attribute id="1497" value="0" name="mixToMono"/>
                  </Attributes>
                  <MetaData>
                   <entry key="WinSubProjectDisplayName" val=""/>
                  </MetaData>
                 </AMFile>
                </Medias>
               </GenericTrack>
              </StitchedMedia>
             </Medias>
            </GenericTrack>
            <GenericTrack id="1498"  >
             <Attributes>
              <Attribute id="1499" value="" name="ident"/>
              <Attribute id="1500" value="0" name="audioMuted"/>
              <Attribute id="1501" value="0" name="videoHidden"/>
             </Attributes>
             <MetaData>
              <entry key="IsLocked" val="False"/>
              <entry key="WinTrackHeight" val="0"/>
             </MetaData>
             <Medias>
              <StitchedMedia id="1502" start="0" duration="2908" scalar="1/1" mediaStart="0/1" mediaDuration="2908/1" minMediaStart="0/1" >
               <Transformer>
                <VectorParam id="1503"  name="translation">
                 <InterpolatingParam id="1504" interp="linr"  time="-9999999/1" value="0" leadInLength="0/1"  interpolater="leadin-linr"  />
                 <InterpolatingParam id="1505" interp="linr"  time="-9999999/1" value="0" leadInLength="0/1"  interpolater="leadin-linr"  />
                 <InterpolatingParam id="1506" interp="linr"  time="-9999999/1" value="0" leadInLength="0/1"  interpolater="leadin-linr"  />
                </VectorParam>
                <VectorParam id="1507"  name="rotation">
                 <InterpolatingParam id="1508" interp="linr"  time="-9999999/1" value="0" leadInLength="0/1"  interpolater="leadin-linr"  />
                 <InterpolatingParam id="1509" interp="linr"  time="-9999999/1" value="0" leadInLength="0/1"  interpolater="leadin-linr"  />
                 <InterpolatingParam id="1510" interp="linr"  time="-9999999/1" value="0" leadInLength="0/1"  interpolater="leadin-linr"  />
                </VectorParam>
                <VectorParam id="1511"  name="shear">
                 <InterpolatingParam id="1512" interp="linr"  time="-9999999/1" value="0" leadInLength="0/1"  interpolater="leadin-linr"  />
                 <InterpolatingParam id="1513" interp="linr"  time="-9999999/1" value="0" leadInLength="0/1"  interpolater="leadin-linr"  />
                 <InterpolatingParam id="1514" interp="linr"  time="-9999999/1" value="0" leadInLength="0/1"  interpolater="leadin-linr"  />
                </VectorParam>
                <VectorParam id="1515"  name="scale">
                 <InterpolatingParam id="1516" interp="linr"  time="-9999999/1" value="0.66666666666666663" leadInLength="0/1"  interpolater="leadin-linr"  />
                 <InterpolatingParam id="1517" interp="linr"  time="-9999999/1" value="0.66666666666666663" leadInLength="0/1"  interpolater="leadin-linr"  />
                 <InterpolatingParam id="1518" interp="linr"  time="-9999999/1" value="1" leadInLength="0/1"  interpolater="leadin-linr"  />
                </VectorParam>
                <VectorParam id="1519"  name="anchor">
                 <InterpolatingParam id="1520" interp="linr"  time="0/1" value="0" leadInLength="0/1"  />
                 <InterpolatingParam id="1521" interp="linr"  time="0/1" value="0" leadInLength="0/1"  />
                 <InterpolatingParam id="1522" interp="linr"  time="0/1" value="0" leadInLength="0/1"  />
                </VectorParam>
               </Transformer>
               <Parameters>
                <VectorParam id="1523"  name="sourceCrop">
                 <InterpolatingParam id="1524" interp="linr"  time="0/1" value="0" leadInLength="0/1"  />
                 <InterpolatingParam id="1525" interp="linr"  time="0/1" value="0" leadInLength="0/1"  />
                 <InterpolatingParam id="1526" interp="linr"  time="0/1" value="0" leadInLength="0/1"  />
                 <InterpolatingParam id="1527" interp="linr"  time="0/1" value="0" leadInLength="0/1"  />
                </VectorParam>
                <VectorParam id="1528"  name="geometryCrop">
                 <InterpolatingParam id="1529" interp="linr"  time="-9999999/1" value="0" leadInLength="0/1"  interpolater="leadin-linr"  />
                 <InterpolatingParam id="1530" interp="linr"  time="-9999999/1" value="0" leadInLength="0/1"  interpolater="leadin-linr"  />
                 <InterpolatingParam id="1531" interp="linr"  time="-9999999/1" value="0" leadInLength="0/1"  interpolater="leadin-linr"  />
                 <InterpolatingParam id="1532" interp="linr"  time="-9999999/1" value="0" leadInLength="0/1"  interpolater="leadin-linr"  />
                </VectorParam>
                <InterpolatingParam id="1533" interp="linr"  time="-9999999/1" value="1" leadInLength="0/1"  interpolater="leadin-linr"  name="opacity"/>
                <InterpolatingParam id="1534" interp="linr"  time="0/1" value="1" leadInLength="0/1"  name="cursorOpacity"/>
                <InterpolatingParam id="1535" interp="linr"  time="0/1" value="1" leadInLength="0/1"  name="cursorScale"/>
                <InterpolatingParam id="1536" interp="linr"  time="0/1" value="1" leadInLength="0/1"  name="volume"/>
                <Parameter id="1537"  name="captions"/>
               </Parameters>
               <Effects>
                <GenericEffect id="1538" name = "CursorBaseEffectName" >
                 <Parameters>
                 <InterpolatingParam id="1539" interp="linr"  time="-9999999/1" value="1" leadInLength="0/1"   name="cursorSize"/>
                 <InterpolatingParam id="1540" interp="linr"  time="-9999999/1" value="0" leadInLength="0/1"   name="highlightBlurRadius"/>
                 <InterpolatingParam id="1541" interp="linr"  time="-9999999/1" value="0" leadInLength="0/1"   name="highlightColorBlue"/>
                 <InterpolatingParam id="1542" interp="linr"  time="-9999999/1" value="255" leadInLength="0/1"   name="highlightColorGreen"/>
                 <InterpolatingParam id="1543" interp="linr"  time="-9999999/1" value="255" leadInLength="0/1"   name="highlightColorRed"/>
                 <InterpolatingParam id="1544" interp="linr"  time="-9999999/1" value="5" leadInLength="0/1"   name="highlightFeatherSize"/>
                 <InterpolatingParam id="1545" interp="linr"  time="-9999999/1" value="2" leadInLength="0/1"   name="highlightMagnification"/>
                 <InterpolatingParam id="1546" interp="linr"  time="-9999999/1" value="1" leadInLength="0/1"   name="highlightOpacity"/>
                 <InterpolatingParam id="1547" interp="linr"  time="-9999999/1" value="45" leadInLength="0/1"   name="highlightSize"/>
                 <Parameter id="1548"   name="highlightType">
                  <Keyframes>
                  <Keyframe id="1549"  time="-9999999/1" value="0" leadInLength="0/1"  />
                  </Keyframes>
                 </Parameter>
                 <InterpolatingParam id="1550" interp="linr"  time="-9999999/1" value="0" leadInLength="0/1"   name="leftClickColorBlue"/>
                 <InterpolatingParam id="1551" interp="linr"  time="-9999999/1" value="0" leadInLength="0/1"   name="leftClickColorGreen"/>
                 <InterpolatingParam id="1552" interp="linr"  time="-9999999/1" value="255" leadInLength="0/1"   name="leftClickColorRed"/>
                 <InterpolatingParam id="1553" interp="linr"  time="-9999999/1" value="0.80000000000000004" leadInLength="0/1"   name="leftClickDuration"/>
                 <InterpolatingParam id="1554" interp="linr"  time="-9999999/1" value="20" leadInLength="0/1"   name="leftClickSize"/>
                 <Parameter id="1555"   name="leftClickSoundFilename">
                  <Keyframes>
                  <Keyframe id="1556"  time="-9999999/1" value="" leadInLength="0/1"  />
                  </Keyframes>
                 </Parameter>
                 <InterpolatingParam id="1557" interp="linr"  time="-9999999/1" value="1" leadInLength="0/1"   name="leftClickSoundVolume"/>
                 <Parameter id="1558"   name="leftClickType">
                  <Keyframes>
                  <Keyframe id="1559"  time="-9999999/1" value="0" leadInLength="0/1"  />
                  </Keyframes>
                 </Parameter>
                 <InterpolatingParam id="1560" interp="linr"  time="-9999999/1" value="1" leadInLength="0/1"   name="opacity"/>
                 <InterpolatingParam id="1561" interp="linr"  time="-9999999/1" value="255" leadInLength="0/1"   name="rightClickColorBlue"/>
                 <InterpolatingParam id="1562" interp="linr"  time="-9999999/1" value="0" leadInLength="0/1"   name="rightClickColorGreen"/>
                 <InterpolatingParam id="1563" interp="linr"  time="-9999999/1" value="0" leadInLength="0/1"   name="rightClickColorRed"/>
                 <InterpolatingParam id="1564" interp="linr"  time="-9999999/1" value="0.80000000000000004" leadInLength="0/1"   name="rightClickDuration"/>
                 <InterpolatingParam id="1565" interp="linr"  time="-9999999/1" value="20" leadInLength="0/1"   name="rightClickSize"/>
                 <Parameter id="1566"   name="rightClickSoundFilename">
                  <Keyframes>
                  <Keyframe id="1567"  time="-9999999/1" value="" leadInLength="0/1"  />
                  </Keyframes>
                 </Parameter>
                 <InterpolatingParam id="1568" interp="linr"  time="-9999999/1" value="1" leadInLength="0/1"   name="rightClickSoundVolume"/>
                 <Parameter id="1569"   name="rightClickType">
                  <Keyframes>
                  <Keyframe id="1570"  time="-9999999/1" value="0" leadInLength="0/1"  />
                  </Keyframes>
                 </Parameter>
                 </Parameters>
                 <MetaData>
                  <entry key="effectIndex" val="0"/>
                 </MetaData>
                </GenericEffect>
               </Effects>
               <Attributes>
                <Attribute id="1571" value="" name="ident"/>
                <Attribute id="1572" value="0" name="mixToMono"/>
               </Attributes>
               <MetaData>
                <entry key="AutoAppliedSmartFocus" val="False"/>
                <entry key="WinSubProjectDisplayName" val=""/>
               </MetaData>
               <ExtraData>
                <Entry key="ZoomPanBin">
                 <ZoomPanBin id="1573"  >
                  <ZoomPanKeyframes>
                   <ZoomPanKeyframe id="1574" timeRangeEnd="-9999999/1" timeRangeDuration="0/1" interpolaterName="linr"  />
                  </ZoomPanKeyframes>
                 </ZoomPanBin>
                </Entry>
                <Entry key="CursorEffectBin">
                 <CursorEffectBin id="1575"  >
                  <CursorEffectKeyframes>
                   <CursorEffectKeyframe id="1576" timeRangeEnd="-9999999/1" timeRangeDuration="0/1" interpolaterName=""  />
                  </CursorEffectKeyframes>
                 </CursorEffectBin>
                </Entry>
               </ExtraData>
               <GenericTrack id="1577"  >
                <Attributes>
                 <Attribute id="1578" value="" name="ident"/>
                 <Attribute id="1579" value="0" name="audioMuted"/>
                 <Attribute id="1580" value="0" name="videoHidden"/>
                </Attributes>
                <MetaData>
                 <entry key="IsLocked" val="False"/>
                 <entry key="WinTrackHeight" val="0"/>
                </MetaData>
                <Medias>
                 <UnifiedMedia id="1581"  >
                  <AMFile id="1582" start="0" duration="1441" scalar="1/1" mediaStart="0/1" mediaDuration="1441/1" trackNumber="1" src="11" channelNumber="0,1" >
                   <Parameters>
                    <InterpolatingParam id="1583" interp="linr"  time="0/1" value="1" leadInLength="0/1"  name="volume"/>
                    <Parameter id="1584"  name="captions"/>
                   </Parameters>
                   <Attributes>
                    <Attribute id="1585" value="" name="ident"/>
                    <Attribute id="1586" value="44100" name="sampleRate"/>
                    <Attribute id="1587" value="16" name="bitDepth"/>
                    <Attribute id="1588" value="1" name="gain"/>
                    <Attribute id="1589" value="0" name="mixToMono"/>
                   </Attributes>
                  </AMFile>
                  <ScreenVMFile id="1590" start="0" duration="1441" scalar="1/1" mediaStart="0/1" mediaDuration="1441/1" trackNumber="0" src="11" >
                   <Transformer>
                    <VectorParam id="1591"  name="translation">
                     <InterpolatingParam id="1592" interp="linr"  time="-9999999/1" value="0" leadInLength="0/1"  />
                     <InterpolatingParam id="1593" interp="linr"  time="-9999999/1" value="0" leadInLength="0/1"  />
                     <InterpolatingParam id="1594" interp="linr"  time="-9999999/1" value="0" leadInLength="0/1"  />
                    </VectorParam>
                    <VectorParam id="1595"  name="rotation">
                     <InterpolatingParam id="1596" interp="linr"  time="-9999999/1" value="0" leadInLength="0/1"  />
                     <InterpolatingParam id="1597" interp="linr"  time="-9999999/1" value="0" leadInLength="0/1"  />
                     <InterpolatingParam id="1598" interp="linr"  time="-9999999/1" value="0" leadInLength="0/1"  />
                    </VectorParam>
                    <VectorParam id="1599"  name="shear">
                     <InterpolatingParam id="1600" interp="linr"  time="-9999999/1" value="0" leadInLength="0/1"  />
                     <InterpolatingParam id="1601" interp="linr"  time="-9999999/1" value="0" leadInLength="0/1"  />
                     <InterpolatingParam id="1602" interp="linr"  time="-9999999/1" value="0" leadInLength="0/1"  />
                    </VectorParam>
                    <VectorParam id="1603"  name="scale">
                     <InterpolatingParam id="1604" interp="linr"  time="-9999999/1" value="1" leadInLength="0/1"  />
                     <InterpolatingParam id="1605" interp="linr"  time="-9999999/1" value="1" leadInLength="0/1"  />
                     <InterpolatingParam id="1606" interp="linr"  time="-9999999/1" value="1" leadInLength="0/1"  />
                    </VectorParam>
                    <VectorParam id="1607"  name="anchor">
                     <InterpolatingParam id="1608" interp="linr"  time="0/1" value="0" leadInLength="0/1"  />
                     <InterpolatingParam id="1609" interp="linr"  time="0/1" value="0" leadInLength="0/1"  />
                     <InterpolatingParam id="1610" interp="linr"  time="0/1" value="0" leadInLength="0/1"  />
                    </VectorParam>
                   </Transformer>
                   <Parameters>
                    <VectorParam id="1611"  name="sourceCrop">
                     <InterpolatingParam id="1612" interp="linr"  time="0/1" value="0" leadInLength="0/1"  />
                     <InterpolatingParam id="1613" interp="linr"  time="0/1" value="0" leadInLength="0/1"  />
                     <InterpolatingParam id="1614" interp="linr"  time="0/1" value="0" leadInLength="0/1"  />
                     <InterpolatingParam id="1615" interp="linr"  time="0/1" value="0" leadInLength="0/1"  />
                    </VectorParam>
                    <VectorParam id="1616"  name="geometryCrop">
                     <InterpolatingParam id="1617" interp="linr"  time="-9999999/1" value="0" leadInLength="0/1"  />
                     <InterpolatingParam id="1618" interp="linr"  time="-9999999/1" value="0" leadInLength="0/1"  />
                     <InterpolatingParam id="1619" interp="linr"  time="-9999999/1" value="0" leadInLength="0/1"  />
                     <InterpolatingParam id="1620" interp="linr"  time="-9999999/1" value="0" leadInLength="0/1"  />
                    </VectorParam>
                    <InterpolatingParam id="1621" interp="linr"  time="-9999999/1" value="1" leadInLength="0/1"  name="opacity"/>
                    <InterpolatingParam id="1622" interp="linr"  time="0/1" value="0" leadInLength="0/1"  name="cursorOpacity"/>
                    <InterpolatingParam id="1623" interp="linr"  time="0/1" value="0" leadInLength="0/1"  name="cursorScale"/>
                   </Parameters>
                   <Attributes>
                    <Attribute id="1624" value="" name="ident"/>
                   </Attributes>
                   <ExtraData>
                    <Entry key="ZoomPanBin">
                     <ZoomPanBin id="1625"  >
                      <ZoomPanKeyframes>
                       <ZoomPanKeyframe id="1626" timeRangeEnd="-9999999/1" timeRangeDuration="0/1" interpolaterName="linr"  />
                      </ZoomPanKeyframes>
                     </ZoomPanBin>
                    </Entry>
                    <Entry key="CursorEffectBin">
                     <CursorEffectBin id="1627"  >
                      <CursorEffectKeyframes>
                      </CursorEffectKeyframes>
                     </CursorEffectBin>
                    </Entry>
                   </ExtraData>
                  </ScreenVMFile>
                  <MetaData>
                   <entry key="AutoAppliedSmartFocus" val="False"/>
                   <entry key="WinSubProjectDisplayName" val=""/>
                  </MetaData>
                 </UnifiedMedia>
                 <UnifiedMedia id="1628"  >
                  <AMFile id="1629" start="1441" duration="949" scalar="1/1" mediaStart="1471/1" mediaDuration="949/1" trackNumber="1" src="11" channelNumber="0,1" >
                   <Parameters>
                    <InterpolatingParam id="1630" interp="linr"  time="0/1" value="1" leadInLength="0/1"  name="volume"/>
                    <Parameter id="1631"  name="captions"/>
                   </Parameters>
                   <Attributes>
                    <Attribute id="1632" value="" name="ident"/>
                    <Attribute id="1633" value="44100" name="sampleRate"/>
                    <Attribute id="1634" value="16" name="bitDepth"/>
                    <Attribute id="1635" value="1" name="gain"/>
                    <Attribute id="1636" value="0" name="mixToMono"/>
                   </Attributes>
                  </AMFile>
                  <ScreenVMFile id="1637" start="1441" duration="949" scalar="1/1" mediaStart="1471/1" mediaDuration="949/1" trackNumber="0" src="11" >
                   <Transformer>
                    <VectorParam id="1638"  name="translation">
                     <InterpolatingParam id="1639" interp="linr"  time="-9999999/1" value="0" leadInLength="0/1"  />
                     <InterpolatingParam id="1640" interp="linr"  time="-9999999/1" value="0" leadInLength="0/1"  />
                     <InterpolatingParam id="1641" interp="linr"  time="-9999999/1" value="0" leadInLength="0/1"  />
                    </VectorParam>
                    <VectorParam id="1642"  name="rotation">
                     <InterpolatingParam id="1643" interp="linr"  time="-9999999/1" value="0" leadInLength="0/1"  />
                     <InterpolatingParam id="1644" interp="linr"  time="-9999999/1" value="0" leadInLength="0/1"  />
                     <InterpolatingParam id="1645" interp="linr"  time="-9999999/1" value="0" leadInLength="0/1"  />
                    </VectorParam>
                    <VectorParam id="1646"  name="shear">
                     <InterpolatingParam id="1647" interp="linr"  time="-9999999/1" value="0" leadInLength="0/1"  />
                     <InterpolatingParam id="1648" interp="linr"  time="-9999999/1" value="0" leadInLength="0/1"  />
                     <InterpolatingParam id="1649" interp="linr"  time="-9999999/1" value="0" leadInLength="0/1"  />
                    </VectorParam>
                    <VectorParam id="1650"  name="scale">
                     <InterpolatingParam id="1651" interp="linr"  time="-9999999/1" value="1" leadInLength="0/1"  />
                     <InterpolatingParam id="1652" interp="linr"  time="-9999999/1" value="1" leadInLength="0/1"  />
                     <InterpolatingParam id="1653" interp="linr"  time="-9999999/1" value="1" leadInLength="0/1"  />
                    </VectorParam>
                    <VectorParam id="1654"  name="anchor">
                     <InterpolatingParam id="1655" interp="linr"  time="0/1" value="0" leadInLength="0/1"  />
                     <InterpolatingParam id="1656" interp="linr"  time="0/1" value="0" leadInLength="0/1"  />
                     <InterpolatingParam id="1657" interp="linr"  time="0/1" value="0" leadInLength="0/1"  />
                    </VectorParam>
                   </Transformer>
                   <Parameters>
                    <VectorParam id="1658"  name="sourceCrop">
                     <InterpolatingParam id="1659" interp="linr"  time="0/1" value="0" leadInLength="0/1"  />
                     <InterpolatingParam id="1660" interp="linr"  time="0/1" value="0" leadInLength="0/1"  />
                     <InterpolatingParam id="1661" interp="linr"  time="0/1" value="0" leadInLength="0/1"  />
                     <InterpolatingParam id="1662" interp="linr"  time="0/1" value="0" leadInLength="0/1"  />
                    </VectorParam>
                    <VectorParam id="1663"  name="geometryCrop">
                     <InterpolatingParam id="1664" interp="linr"  time="-9999999/1" value="0" leadInLength="0/1"  />
                     <InterpolatingParam id="1665" interp="linr"  time="-9999999/1" value="0" leadInLength="0/1"  />
                     <InterpolatingParam id="1666" interp="linr"  time="-9999999/1" value="0" leadInLength="0/1"  />
                     <InterpolatingParam id="1667" interp="linr"  time="-9999999/1" value="0" leadInLength="0/1"  />
                    </VectorParam>
                    <InterpolatingParam id="1668" interp="linr"  time="-9999999/1" value="1" leadInLength="0/1"  name="opacity"/>
                    <InterpolatingParam id="1669" interp="linr"  time="0/1" value="0" leadInLength="0/1"  name="cursorOpacity"/>
                    <InterpolatingParam id="1670" interp="linr"  time="0/1" value="0" leadInLength="0/1"  name="cursorScale"/>
                   </Parameters>
                   <Attributes>
                    <Attribute id="1671" value="" name="ident"/>
                   </Attributes>
                   <ExtraData>
                    <Entry key="ZoomPanBin">
                     <ZoomPanBin id="1672"  >
                      <ZoomPanKeyframes>
                       <ZoomPanKeyframe id="1673" timeRangeEnd="-9999999/1" timeRangeDuration="0/1" interpolaterName="linr"  />
                      </ZoomPanKeyframes>
                     </ZoomPanBin>
                    </Entry>
                    <Entry key="CursorEffectBin">
                     <CursorEffectBin id="1674"  >
                      <CursorEffectKeyframes>
                      </CursorEffectKeyframes>
                     </CursorEffectBin>
                    </Entry>
                   </ExtraData>
                  </ScreenVMFile>
                  <MetaData>
                   <entry key="AutoAppliedSmartFocus" val="False"/>
                   <entry key="WinSubProjectDisplayName" val=""/>
                  </MetaData>
                 </UnifiedMedia>
                 <UnifiedMedia id="1675"  >
                  <AMFile id="1676" start="2390" duration="99" scalar="1/1" mediaStart="2781/1" mediaDuration="99/1" trackNumber="1" src="11" channelNumber="0,1" >
                   <Parameters>
                    <InterpolatingParam id="1677" interp="linr"  time="0/1" value="1" leadInLength="0/1"  name="volume"/>
                    <Parameter id="1678"  name="captions"/>
                   </Parameters>
                   <Attributes>
                    <Attribute id="1679" value="" name="ident"/>
                    <Attribute id="1680" value="44100" name="sampleRate"/>
                    <Attribute id="1681" value="16" name="bitDepth"/>
                    <Attribute id="1682" value="1" name="gain"/>
                    <Attribute id="1683" value="0" name="mixToMono"/>
                   </Attributes>
                  </AMFile>
                  <ScreenVMFile id="1684" start="2390" duration="99" scalar="1/1" mediaStart="2781/1" mediaDuration="99/1" trackNumber="0" src="11" >
                   <Transformer>
                    <VectorParam id="1685"  name="translation">
                     <InterpolatingParam id="1686" interp="linr"  time="-9999999/1" value="0" leadInLength="0/1"  />
                     <InterpolatingParam id="1687" interp="linr"  time="-9999999/1" value="0" leadInLength="0/1"  />
                     <InterpolatingParam id="1688" interp="linr"  time="-9999999/1" value="0" leadInLength="0/1"  />
                    </VectorParam>
                    <VectorParam id="1689"  name="rotation">
                     <InterpolatingParam id="1690" interp="linr"  time="-9999999/1" value="0" leadInLength="0/1"  />
                     <InterpolatingParam id="1691" interp="linr"  time="-9999999/1" value="0" leadInLength="0/1"  />
                     <InterpolatingParam id="1692" interp="linr"  time="-9999999/1" value="0" leadInLength="0/1"  />
                    </VectorParam>
                    <VectorParam id="1693"  name="shear">
                     <InterpolatingParam id="1694" interp="linr"  time="-9999999/1" value="0" leadInLength="0/1"  />
                     <InterpolatingParam id="1695" interp="linr"  time="-9999999/1" value="0" leadInLength="0/1"  />
                     <InterpolatingParam id="1696" interp="linr"  time="-9999999/1" value="0" leadInLength="0/1"  />
                    </VectorParam>
                    <VectorParam id="1697"  name="scale">
                     <InterpolatingParam id="1698" interp="linr"  time="-9999999/1" value="1" leadInLength="0/1"  />
                     <InterpolatingParam id="1699" interp="linr"  time="-9999999/1" value="1" leadInLength="0/1"  />
                     <InterpolatingParam id="1700" interp="linr"  time="-9999999/1" value="1" leadInLength="0/1"  />
                    </VectorParam>
                    <VectorParam id="1701"  name="anchor">
                     <InterpolatingParam id="1702" interp="linr"  time="0/1" value="0" leadInLength="0/1"  />
                     <InterpolatingParam id="1703" interp="linr"  time="0/1" value="0" leadInLength="0/1"  />
                     <InterpolatingParam id="1704" interp="linr"  time="0/1" value="0" leadInLength="0/1"  />
                    </VectorParam>
                   </Transformer>
                   <Parameters>
                    <VectorParam id="1705"  name="sourceCrop">
                     <InterpolatingParam id="1706" interp="linr"  time="0/1" value="0" leadInLength="0/1"  />
                     <InterpolatingParam id="1707" interp="linr"  time="0/1" value="0" leadInLength="0/1"  />
                     <InterpolatingParam id="1708" interp="linr"  time="0/1" value="0" leadInLength="0/1"  />
                     <InterpolatingParam id="1709" interp="linr"  time="0/1" value="0" leadInLength="0/1"  />
                    </VectorParam>
                    <VectorParam id="1710"  name="geometryCrop">
                     <InterpolatingParam id="1711" interp="linr"  time="-9999999/1" value="0" leadInLength="0/1"  />
                     <InterpolatingParam id="1712" interp="linr"  time="-9999999/1" value="0" leadInLength="0/1"  />
                     <InterpolatingParam id="1713" interp="linr"  time="-9999999/1" value="0" leadInLength="0/1"  />
                     <InterpolatingParam id="1714" interp="linr"  time="-9999999/1" value="0" leadInLength="0/1"  />
                    </VectorParam>
                    <InterpolatingParam id="1715" interp="linr"  time="-9999999/1" value="1" leadInLength="0/1"  name="opacity"/>
                    <InterpolatingParam id="1716" interp="linr"  time="0/1" value="0" leadInLength="0/1"  name="cursorOpacity"/>
                    <InterpolatingParam id="1717" interp="linr"  time="0/1" value="0" leadInLength="0/1"  name="cursorScale"/>
                   </Parameters>
                   <Attributes>
                    <Attribute id="1718" value="" name="ident"/>
                   </Attributes>
                   <ExtraData>
                    <Entry key="ZoomPanBin">
                     <ZoomPanBin id="1719"  >
                      <ZoomPanKeyframes>
                       <ZoomPanKeyframe id="1720" timeRangeEnd="-9999999/1" timeRangeDuration="0/1" interpolaterName="linr"  />
                      </ZoomPanKeyframes>
                     </ZoomPanBin>
                    </Entry>
                    <Entry key="CursorEffectBin">
                     <CursorEffectBin id="1721"  >
                      <CursorEffectKeyframes>
                      </CursorEffectKeyframes>
                     </CursorEffectBin>
                    </Entry>
                   </ExtraData>
                  </ScreenVMFile>
                  <MetaData>
                   <entry key="AutoAppliedSmartFocus" val="False"/>
                   <entry key="WinSubProjectDisplayName" val=""/>
                  </MetaData>
                 </UnifiedMedia>
                 <UnifiedMedia id="1722"  >
                  <AMFile id="1723" start="2489" duration="637" scalar="1/1" mediaStart="2903/1" mediaDuration="637/1" trackNumber="1" src="11" channelNumber="0,1" >
                   <Parameters>
                    <InterpolatingParam id="1724" interp="linr"  time="0/1" value="1" leadInLength="0/1"  name="volume"/>
                    <Parameter id="1725"  name="captions"/>
                   </Parameters>
                   <Attributes>
                    <Attribute id="1726" value="" name="ident"/>
                    <Attribute id="1727" value="44100" name="sampleRate"/>
                    <Attribute id="1728" value="16" name="bitDepth"/>
                    <Attribute id="1729" value="1" name="gain"/>
                    <Attribute id="1730" value="0" name="mixToMono"/>
                   </Attributes>
                  </AMFile>
                  <ScreenVMFile id="1731" start="2489" duration="637" scalar="1/1" mediaStart="2903/1" mediaDuration="637/1" trackNumber="0" src="11" >
                   <Transformer>
                    <VectorParam id="1732"  name="translation">
                     <InterpolatingParam id="1733" interp="linr"  time="-9999999/1" value="0" leadInLength="0/1"  />
                     <InterpolatingParam id="1734" interp="linr"  time="-9999999/1" value="0" leadInLength="0/1"  />
                     <InterpolatingParam id="1735" interp="linr"  time="-9999999/1" value="0" leadInLength="0/1"  />
                    </VectorParam>
                    <VectorParam id="1736"  name="rotation">
                     <InterpolatingParam id="1737" interp="linr"  time="-9999999/1" value="0" leadInLength="0/1"  />
                     <InterpolatingParam id="1738" interp="linr"  time="-9999999/1" value="0" leadInLength="0/1"  />
                     <InterpolatingParam id="1739" interp="linr"  time="-9999999/1" value="0" leadInLength="0/1"  />
                    </VectorParam>
                    <VectorParam id="1740"  name="shear">
                     <InterpolatingParam id="1741" interp="linr"  time="-9999999/1" value="0" leadInLength="0/1"  />
                     <InterpolatingParam id="1742" interp="linr"  time="-9999999/1" value="0" leadInLength="0/1"  />
                     <InterpolatingParam id="1743" interp="linr"  time="-9999999/1" value="0" leadInLength="0/1"  />
                    </VectorParam>
                    <VectorParam id="1744"  name="scale">
                     <InterpolatingParam id="1745" interp="linr"  time="-9999999/1" value="1" leadInLength="0/1"  />
                     <InterpolatingParam id="1746" interp="linr"  time="-9999999/1" value="1" leadInLength="0/1"  />
                     <InterpolatingParam id="1747" interp="linr"  time="-9999999/1" value="1" leadInLength="0/1"  />
                    </VectorParam>
                    <VectorParam id="1748"  name="anchor">
                     <InterpolatingParam id="1749" interp="linr"  time="0/1" value="0" leadInLength="0/1"  />
                     <InterpolatingParam id="1750" interp="linr"  time="0/1" value="0" leadInLength="0/1"  />
                     <InterpolatingParam id="1751" interp="linr"  time="0/1" value="0" leadInLength="0/1"  />
                    </VectorParam>
                   </Transformer>
                   <Parameters>
                    <VectorParam id="1752"  name="sourceCrop">
                     <InterpolatingParam id="1753" interp="linr"  time="0/1" value="0" leadInLength="0/1"  />
                     <InterpolatingParam id="1754" interp="linr"  time="0/1" value="0" leadInLength="0/1"  />
                     <InterpolatingParam id="1755" interp="linr"  time="0/1" value="0" leadInLength="0/1"  />
                     <InterpolatingParam id="1756" interp="linr"  time="0/1" value="0" leadInLength="0/1"  />
                    </VectorParam>
                    <VectorParam id="1757"  name="geometryCrop">
                     <InterpolatingParam id="1758" interp="linr"  time="-9999999/1" value="0" leadInLength="0/1"  />
                     <InterpolatingParam id="1759" interp="linr"  time="-9999999/1" value="0" leadInLength="0/1"  />
                     <InterpolatingParam id="1760" interp="linr"  time="-9999999/1" value="0" leadInLength="0/1"  />
                     <InterpolatingParam id="1761" interp="linr"  time="-9999999/1" value="0" leadInLength="0/1"  />
                    </VectorParam>
                    <InterpolatingParam id="1762" interp="linr"  time="-9999999/1" value="1" leadInLength="0/1"  name="opacity"/>
                    <InterpolatingParam id="1763" interp="linr"  time="0/1" value="0" leadInLength="0/1"  name="cursorOpacity"/>
                    <InterpolatingParam id="1764" interp="linr"  time="0/1" value="0" leadInLength="0/1"  name="cursorScale"/>
                   </Parameters>
                   <Attributes>
                    <Attribute id="1765" value="" name="ident"/>
                   </Attributes>
                   <ExtraData>
                    <Entry key="ZoomPanBin">
                     <ZoomPanBin id="1766"  >
                      <ZoomPanKeyframes>
                       <ZoomPanKeyframe id="1767" timeRangeEnd="-9999999/1" timeRangeDuration="0/1" interpolaterName="linr"  />
                      </ZoomPanKeyframes>
                     </ZoomPanBin>
                    </Entry>
                    <Entry key="CursorEffectBin">
                     <CursorEffectBin id="1768"  >
                      <CursorEffectKeyframes>
                      </CursorEffectKeyframes>
                     </CursorEffectBin>
                    </Entry>
                   </ExtraData>
                  </ScreenVMFile>
                  <MetaData>
                   <entry key="AutoAppliedSmartFocus" val="False"/>
                   <entry key="WinSubProjectDisplayName" val=""/>
                  </MetaData>
                 </UnifiedMedia>
                </Medias>
               </GenericTrack>
              </StitchedMedia>
             </Medias>
            </GenericTrack>
           </Tracks>
          </GenericMixer>
          <MetaData>
           <entry key="IsGroupExpanded" val="False"/>
           <entry key="WinGroupOrigin" val="Asset"/>
           <entry key="WinSubProjectDisplayName" val="8"/>
          </MetaData>
          <ExtraData>
           <Entry key="ZoomPanBin">
            <ZoomPanBin id="1769"  >
             <ZoomPanKeyframes>
              <ZoomPanKeyframe id="1770" timeRangeEnd="-9999999/1" timeRangeDuration="0/1" interpolaterName="linr"  />
             </ZoomPanKeyframes>
            </ZoomPanBin>
           </Entry>
          </ExtraData>
         </Group>
         <Group id="1771" start="12514" duration="1160" scalar="1" mediaStart="0" mediaDuration="1160" baseWidthAttr="0" baseHeightAttr="0"  >
          <Parameters>
           <VectorParam id="1772"  name="sourceCrop">
            <InterpolatingParam id="1773" interp="linr"  time="0/1" value="0" leadInLength="0/1"  />
            <InterpolatingParam id="1774" interp="linr"  time="0/1" value="0" leadInLength="0/1"  />
            <InterpolatingParam id="1775" interp="linr"  time="0/1" value="0" leadInLength="0/1"  />
            <InterpolatingParam id="1776" interp="linr"  time="0/1" value="0" leadInLength="0/1"  />
           </VectorParam>
           <VectorParam id="1777"  name="geometryCrop">
            <InterpolatingParam id="1778" interp="linr"  time="-9999999/1" value="0" leadInLength="0/1"  />
            <InterpolatingParam id="1779" interp="linr"  time="-9999999/1" value="0" leadInLength="0/1"  />
            <InterpolatingParam id="1780" interp="linr"  time="-9999999/1" value="0" leadInLength="0/1"  />
            <InterpolatingParam id="1781" interp="linr"  time="-9999999/1" value="0" leadInLength="0/1"  />
           </VectorParam>
           <InterpolatingParam id="1782" interp="linr"  time="-9999999/1" value="1" leadInLength="0/1"  name="opacity"/>
           <Parameter id="1783"  name="captions"/>
           <InterpolatingParam id="1784" interp="linr"  time="0/1" value="1" leadInLength="0/1"  name="volume"/>
          </Parameters>
          <Transformer>
           <VectorParam id="1785"  name="translation">
            <InterpolatingParam id="1786" interp="linr"  time="-9999999/1" value="0" leadInLength="0/1"  />
            <InterpolatingParam id="1787" interp="linr"  time="-9999999/1" value="0" leadInLength="0/1"  />
            <InterpolatingParam id="1788" interp="linr"  time="-9999999/1" value="0" leadInLength="0/1"  />
           </VectorParam>
           <VectorParam id="1789"  name="rotation">
            <InterpolatingParam id="1790" interp="linr"  time="-9999999/1" value="0" leadInLength="0/1"  />
            <InterpolatingParam id="1791" interp="linr"  time="-9999999/1" value="0" leadInLength="0/1"  />
            <InterpolatingParam id="1792" interp="linr"  time="-9999999/1" value="0" leadInLength="0/1"  />
           </VectorParam>
           <VectorParam id="1793"  name="shear">
            <InterpolatingParam id="1794" interp="linr"  time="-9999999/1" value="0" leadInLength="0/1"  />
            <InterpolatingParam id="1795" interp="linr"  time="-9999999/1" value="0" leadInLength="0/1"  />
            <InterpolatingParam id="1796" interp="linr"  time="-9999999/1" value="0" leadInLength="0/1"  />
           </VectorParam>
           <VectorParam id="1797"  name="scale">
            <InterpolatingParam id="1798" interp="linr"  time="-9999999/1" value="1" leadInLength="0/1"  />
            <InterpolatingParam id="1799" interp="linr"  time="-9999999/1" value="1" leadInLength="0/1"  />
            <InterpolatingParam id="1800" interp="linr"  time="-9999999/1" value="1" leadInLength="0/1"  />
           </VectorParam>
           <VectorParam id="1801"  name="anchor">
            <InterpolatingParam id="1802" interp="linr"  time="0/1" value="0" leadInLength="0/1"  />
            <InterpolatingParam id="1803" interp="linr"  time="0/1" value="0" leadInLength="0/1"  />
            <InterpolatingParam id="1804" interp="linr"  time="0/1" value="0" leadInLength="0/1"  />
           </VectorParam>
          </Transformer>
          <GenericMixer id="1805"  >
           <MetaData>
           </MetaData>
           <Tracks>
            <GenericTrack id="1806"  >
             <Attributes>
              <Attribute id="1807" value="" name="ident"/>
              <Attribute id="1808" value="0" name="audioMuted"/>
              <Attribute id="1809" value="0" name="videoHidden"/>
             </Attributes>
             <MetaData>
              <entry key="IsLocked" val="False"/>
              <entry key="WinTrackHeight" val="0"/>
             </MetaData>
             <Medias>
              <StitchedMedia id="1810" start="0" duration="1160" scalar="1/1" mediaStart="0/1" mediaDuration="1160/1" minMediaStart="0/1" >
               <Transformer>
                <VectorParam id="1811"  name="translation">
                 <InterpolatingParam id="1812" interp="linr"  time="0/1" value="0" leadInLength="0/1"  />
                 <InterpolatingParam id="1813" interp="linr"  time="0/1" value="0" leadInLength="0/1"  />
                 <InterpolatingParam id="1814" interp="linr"  time="0/1" value="0" leadInLength="0/1"  />
                </VectorParam>
                <VectorParam id="1815"  name="rotation">
                 <InterpolatingParam id="1816" interp="linr"  time="0/1" value="0" leadInLength="0/1"  />
                 <InterpolatingParam id="1817" interp="linr"  time="0/1" value="0" leadInLength="0/1"  />
                 <InterpolatingParam id="1818" interp="linr"  time="0/1" value="0" leadInLength="0/1"  />
                </VectorParam>
                <VectorParam id="1819"  name="shear">
                 <InterpolatingParam id="1820" interp="linr"  time="0/1" value="0" leadInLength="0/1"  />
                 <InterpolatingParam id="1821" interp="linr"  time="0/1" value="0" leadInLength="0/1"  />
                 <InterpolatingParam id="1822" interp="linr"  time="0/1" value="0" leadInLength="0/1"  />
                </VectorParam>
                <VectorParam id="1823"  name="scale">
                 <InterpolatingParam id="1824" interp="linr"  time="0/1" value="1" leadInLength="0/1"  />
                 <InterpolatingParam id="1825" interp="linr"  time="0/1" value="1" leadInLength="0/1"  />
                 <InterpolatingParam id="1826" interp="linr"  time="0/1" value="1" leadInLength="0/1"  />
                </VectorParam>
                <VectorParam id="1827"  name="anchor">
                 <InterpolatingParam id="1828" interp="linr"  time="0/1" value="0" leadInLength="0/1"  />
                 <InterpolatingParam id="1829" interp="linr"  time="0/1" value="0" leadInLength="0/1"  />
                 <InterpolatingParam id="1830" interp="linr"  time="0/1" value="0" leadInLength="0/1"  />
                </VectorParam>
               </Transformer>
               <Parameters>
                <InterpolatingParam id="1831" interp="linr"  time="0/1" value="1" leadInLength="0/1"  name="cursorOpacity"/>
                <InterpolatingParam id="1832" interp="linr"  time="0/1" value="1" leadInLength="0/1"  name="cursorScale"/>
                <InterpolatingParam id="1833" interp="linr"  time="0/1" value="1" leadInLength="0/1"  name="volume"/>
                <Parameter id="1834"  name="captions"/>
               </Parameters>
               <Attributes>
                <Attribute id="1835" value="" name="ident"/>
                <Attribute id="1836" value="0" name="mixToMono"/>
               </Attributes>
               <MetaData>
                <entry key="WinSubProjectDisplayName" val=""/>
               </MetaData>
               <ExtraData>
                <Entry key="ZoomPanBin">
                 <ZoomPanBin id="1837"  >
                  <ZoomPanKeyframes>
                  </ZoomPanKeyframes>
                 </ZoomPanBin>
                </Entry>
                <Entry key="CursorEffectBin">
                 <CursorEffectBin id="1838"  >
                  <CursorEffectKeyframes>
                  </CursorEffectKeyframes>
                 </CursorEffectBin>
                </Entry>
               </ExtraData>
               <GenericTrack id="1839"  >
                <Attributes>
                 <Attribute id="1840" value="" name="ident"/>
                 <Attribute id="1841" value="0" name="audioMuted"/>
                 <Attribute id="1842" value="0" name="videoHidden"/>
                </Attributes>
                <MetaData>
                 <entry key="IsLocked" val="False"/>
                 <entry key="WinTrackHeight" val="0"/>
                </MetaData>
                <Medias>
                 <AMFile id="1843" start="0" duration="519" scalar="1/1" mediaStart="0/1" mediaDuration="519/1" trackNumber="2" src="12" channelNumber="0,1" >
                  <Parameters>
                   <InterpolatingParam id="1844" interp="linr"  time="0/1" value="1" leadInLength="0/1"  name="volume"/>
                   <Parameter id="1845"  name="captions"/>
                  </Parameters>
                  <Attributes>
                   <Attribute id="1846" value="" name="ident"/>
                   <Attribute id="1847" value="44100" name="sampleRate"/>
                   <Attribute id="1848" value="16" name="bitDepth"/>
                   <Attribute id="1849" value="1" name="gain"/>
                   <Attribute id="1850" value="0" name="mixToMono"/>
                  </Attributes>
                  <MetaData>
                   <entry key="WinSubProjectDisplayName" val=""/>
                  </MetaData>
                 </AMFile>
                 <AMFile id="1851" start="519" duration="341" scalar="1/1" mediaStart="728/1" mediaDuration="341/1" trackNumber="2" src="12" channelNumber="0,1" >
                  <Parameters>
                   <InterpolatingParam id="1852" interp="linr"  time="0/1" value="1" leadInLength="0/1"  name="volume"/>
                   <Parameter id="1853"  name="captions"/>
                  </Parameters>
                  <Attributes>
                   <Attribute id="1854" value="" name="ident"/>
                   <Attribute id="1855" value="44100" name="sampleRate"/>
                   <Attribute id="1856" value="16" name="bitDepth"/>
                   <Attribute id="1857" value="1" name="gain"/>
                   <Attribute id="1858" value="0" name="mixToMono"/>
                  </Attributes>
                  <MetaData>
                   <entry key="WinSubProjectDisplayName" val=""/>
                  </MetaData>
                 </AMFile>
                 <AMFile id="1859" start="860" duration="450" scalar="1/1" mediaStart="1290/1" mediaDuration="450/1" trackNumber="2" src="12" channelNumber="0,1" >
                  <Parameters>
                   <InterpolatingParam id="1860" interp="linr"  time="0/1" value="1" leadInLength="0/1"  name="volume"/>
                   <Parameter id="1861"  name="captions"/>
                  </Parameters>
                  <Attributes>
                   <Attribute id="1862" value="" name="ident"/>
                   <Attribute id="1863" value="44100" name="sampleRate"/>
                   <Attribute id="1864" value="16" name="bitDepth"/>
                   <Attribute id="1865" value="1" name="gain"/>
                   <Attribute id="1866" value="0" name="mixToMono"/>
                  </Attributes>
                  <MetaData>
                   <entry key="WinSubProjectDisplayName" val=""/>
                  </MetaData>
                 </AMFile>
                </Medias>
               </GenericTrack>
              </StitchedMedia>
             </Medias>
            </GenericTrack>
            <GenericTrack id="1867"  >
             <Attributes>
              <Attribute id="1868" value="" name="ident"/>
              <Attribute id="1869" value="0" name="audioMuted"/>
              <Attribute id="1870" value="0" name="videoHidden"/>
             </Attributes>
             <MetaData>
              <entry key="IsLocked" val="False"/>
              <entry key="WinTrackHeight" val="0"/>
             </MetaData>
             <Medias>
              <StitchedMedia id="1871" start="0" duration="1160" scalar="1/1" mediaStart="0/1" mediaDuration="1160/1" minMediaStart="0/1" >
               <Transformer>
                <VectorParam id="1872"  name="translation">
                 <InterpolatingParam id="1873" interp="linr"  time="-9999999/1" value="0" leadInLength="0/1"  interpolater="leadin-linr"  />
                 <InterpolatingParam id="1874" interp="linr"  time="-9999999/1" value="0" leadInLength="0/1"  interpolater="leadin-linr"  />
                 <InterpolatingParam id="1875" interp="linr"  time="-9999999/1" value="0" leadInLength="0/1"  interpolater="leadin-linr"  />
                </VectorParam>
                <VectorParam id="1876"  name="rotation">
                 <InterpolatingParam id="1877" interp="linr"  time="-9999999/1" value="0" leadInLength="0/1"  interpolater="leadin-linr"  />
                 <InterpolatingParam id="1878" interp="linr"  time="-9999999/1" value="0" leadInLength="0/1"  interpolater="leadin-linr"  />
                 <InterpolatingParam id="1879" interp="linr"  time="-9999999/1" value="0" leadInLength="0/1"  interpolater="leadin-linr"  />
                </VectorParam>
                <VectorParam id="1880"  name="shear">
                 <InterpolatingParam id="1881" interp="linr"  time="-9999999/1" value="0" leadInLength="0/1"  interpolater="leadin-linr"  />
                 <InterpolatingParam id="1882" interp="linr"  time="-9999999/1" value="0" leadInLength="0/1"  interpolater="leadin-linr"  />
                 <InterpolatingParam id="1883" interp="linr"  time="-9999999/1" value="0" leadInLength="0/1"  interpolater="leadin-linr"  />
                </VectorParam>
                <VectorParam id="1884"  name="scale">
                 <InterpolatingParam id="1885" interp="linr"  time="-9999999/1" value="0.66666666666666663" leadInLength="0/1"  interpolater="leadin-linr"  />
                 <InterpolatingParam id="1886" interp="linr"  time="-9999999/1" value="0.66666666666666663" leadInLength="0/1"  interpolater="leadin-linr"  />
                 <InterpolatingParam id="1887" interp="linr"  time="-9999999/1" value="1" leadInLength="0/1"  interpolater="leadin-linr"  />
                </VectorParam>
                <VectorParam id="1888"  name="anchor">
                 <InterpolatingParam id="1889" interp="linr"  time="0/1" value="0" leadInLength="0/1"  />
                 <InterpolatingParam id="1890" interp="linr"  time="0/1" value="0" leadInLength="0/1"  />
                 <InterpolatingParam id="1891" interp="linr"  time="0/1" value="0" leadInLength="0/1"  />
                </VectorParam>
               </Transformer>
               <Parameters>
                <VectorParam id="1892"  name="sourceCrop">
                 <InterpolatingParam id="1893" interp="linr"  time="0/1" value="0" leadInLength="0/1"  />
                 <InterpolatingParam id="1894" interp="linr"  time="0/1" value="0" leadInLength="0/1"  />
                 <InterpolatingParam id="1895" interp="linr"  time="0/1" value="0" leadInLength="0/1"  />
                 <InterpolatingParam id="1896" interp="linr"  time="0/1" value="0" leadInLength="0/1"  />
                </VectorParam>
                <VectorParam id="1897"  name="geometryCrop">
                 <InterpolatingParam id="1898" interp="linr"  time="-9999999/1" value="0" leadInLength="0/1"  interpolater="leadin-linr"  />
                 <InterpolatingParam id="1899" interp="linr"  time="-9999999/1" value="0" leadInLength="0/1"  interpolater="leadin-linr"  />
                 <InterpolatingParam id="1900" interp="linr"  time="-9999999/1" value="0" leadInLength="0/1"  interpolater="leadin-linr"  />
                 <InterpolatingParam id="1901" interp="linr"  time="-9999999/1" value="0" leadInLength="0/1"  interpolater="leadin-linr"  />
                </VectorParam>
                <InterpolatingParam id="1902" interp="linr"  time="-9999999/1" value="1" leadInLength="0/1"  interpolater="leadin-linr"  name="opacity"/>
                <InterpolatingParam id="1903" interp="linr"  time="0/1" value="1" leadInLength="0/1"  name="cursorOpacity"/>
                <InterpolatingParam id="1904" interp="linr"  time="0/1" value="1" leadInLength="0/1"  name="cursorScale"/>
                <InterpolatingParam id="1905" interp="linr"  time="0/1" value="1" leadInLength="0/1"  name="volume"/>
                <Parameter id="1906"  name="captions"/>
               </Parameters>
               <Effects>
                <GenericEffect id="1907" name = "CursorBaseEffectName" >
                 <Parameters>
                 <InterpolatingParam id="1908" interp="linr"  time="-9999999/1" value="1" leadInLength="0/1"   name="cursorSize"/>
                 <InterpolatingParam id="1909" interp="linr"  time="-9999999/1" value="0" leadInLength="0/1"   name="highlightBlurRadius"/>
                 <InterpolatingParam id="1910" interp="linr"  time="-9999999/1" value="0" leadInLength="0/1"   name="highlightColorBlue"/>
                 <InterpolatingParam id="1911" interp="linr"  time="-9999999/1" value="255" leadInLength="0/1"   name="highlightColorGreen"/>
                 <InterpolatingParam id="1912" interp="linr"  time="-9999999/1" value="255" leadInLength="0/1"   name="highlightColorRed"/>
                 <InterpolatingParam id="1913" interp="linr"  time="-9999999/1" value="5" leadInLength="0/1"   name="highlightFeatherSize"/>
                 <InterpolatingParam id="1914" interp="linr"  time="-9999999/1" value="2" leadInLength="0/1"   name="highlightMagnification"/>
                 <InterpolatingParam id="1915" interp="linr"  time="-9999999/1" value="1" leadInLength="0/1"   name="highlightOpacity"/>
                 <InterpolatingParam id="1916" interp="linr"  time="-9999999/1" value="45" leadInLength="0/1"   name="highlightSize"/>
                 <Parameter id="1917"   name="highlightType">
                  <Keyframes>
                  <Keyframe id="1918"  time="-9999999/1" value="0" leadInLength="0/1"  />
                  </Keyframes>
                 </Parameter>
                 <InterpolatingParam id="1919" interp="linr"  time="-9999999/1" value="0" leadInLength="0/1"   name="leftClickColorBlue"/>
                 <InterpolatingParam id="1920" interp="linr"  time="-9999999/1" value="0" leadInLength="0/1"   name="leftClickColorGreen"/>
                 <InterpolatingParam id="1921" interp="linr"  time="-9999999/1" value="255" leadInLength="0/1"   name="leftClickColorRed"/>
                 <InterpolatingParam id="1922" interp="linr"  time="-9999999/1" value="0.80000000000000004" leadInLength="0/1"   name="leftClickDuration"/>
                 <InterpolatingParam id="1923" interp="linr"  time="-9999999/1" value="20" leadInLength="0/1"   name="leftClickSize"/>
                 <Parameter id="1924"   name="leftClickSoundFilename">
                  <Keyframes>
                  <Keyframe id="1925"  time="-9999999/1" value="" leadInLength="0/1"  />
                  </Keyframes>
                 </Parameter>
                 <InterpolatingParam id="1926" interp="linr"  time="-9999999/1" value="1" leadInLength="0/1"   name="leftClickSoundVolume"/>
                 <Parameter id="1927"   name="leftClickType">
                  <Keyframes>
                  <Keyframe id="1928"  time="-9999999/1" value="0" leadInLength="0/1"  />
                  </Keyframes>
                 </Parameter>
                 <InterpolatingParam id="1929" interp="linr"  time="-9999999/1" value="1" leadInLength="0/1"   name="opacity"/>
                 <InterpolatingParam id="1930" interp="linr"  time="-9999999/1" value="255" leadInLength="0/1"   name="rightClickColorBlue"/>
                 <InterpolatingParam id="1931" interp="linr"  time="-9999999/1" value="0" leadInLength="0/1"   name="rightClickColorGreen"/>
                 <InterpolatingParam id="1932" interp="linr"  time="-9999999/1" value="0" leadInLength="0/1"   name="rightClickColorRed"/>
                 <InterpolatingParam id="1933" interp="linr"  time="-9999999/1" value="0.80000000000000004" leadInLength="0/1"   name="rightClickDuration"/>
                 <InterpolatingParam id="1934" interp="linr"  time="-9999999/1" value="20" leadInLength="0/1"   name="rightClickSize"/>
                 <Parameter id="1935"   name="rightClickSoundFilename">
                  <Keyframes>
                  <Keyframe id="1936"  time="-9999999/1" value="" leadInLength="0/1"  />
                  </Keyframes>
                 </Parameter>
                 <InterpolatingParam id="1937" interp="linr"  time="-9999999/1" value="1" leadInLength="0/1"   name="rightClickSoundVolume"/>
                 <Parameter id="1938"   name="rightClickType">
                  <Keyframes>
                  <Keyframe id="1939"  time="-9999999/1" value="0" leadInLength="0/1"  />
                  </Keyframes>
                 </Parameter>
                 </Parameters>
                 <MetaData>
                  <entry key="effectIndex" val="0"/>
                 </MetaData>
                </GenericEffect>
               </Effects>
               <Attributes>
                <Attribute id="1940" value="" name="ident"/>
                <Attribute id="1941" value="0" name="mixToMono"/>
               </Attributes>
               <MetaData>
                <entry key="AutoAppliedSmartFocus" val="False"/>
                <entry key="WinSubProjectDisplayName" val=""/>
               </MetaData>
               <ExtraData>
                <Entry key="ZoomPanBin">
                 <ZoomPanBin id="1942"  >
                  <ZoomPanKeyframes>
                   <ZoomPanKeyframe id="1943" timeRangeEnd="-9999999/1" timeRangeDuration="0/1" interpolaterName="linr"  />
                  </ZoomPanKeyframes>
                 </ZoomPanBin>
                </Entry>
                <Entry key="CursorEffectBin">
                 <CursorEffectBin id="1944"  >
                  <CursorEffectKeyframes>
                   <CursorEffectKeyframe id="1945" timeRangeEnd="-9999999/1" timeRangeDuration="0/1" interpolaterName=""  />
                  </CursorEffectKeyframes>
                 </CursorEffectBin>
                </Entry>
               </ExtraData>
               <GenericTrack id="1946"  >
                <Attributes>
                 <Attribute id="1947" value="" name="ident"/>
                 <Attribute id="1948" value="0" name="audioMuted"/>
                 <Attribute id="1949" value="0" name="videoHidden"/>
                </Attributes>
                <MetaData>
                 <entry key="IsLocked" val="False"/>
                 <entry key="WinTrackHeight" val="0"/>
                </MetaData>
                <Medias>
                 <UnifiedMedia id="1950"  >
                  <AMFile id="1951" start="0" duration="519" scalar="1/1" mediaStart="0/1" mediaDuration="519/1" trackNumber="1" src="12" channelNumber="0,1" >
                   <Parameters>
                    <InterpolatingParam id="1952" interp="linr"  time="0/1" value="1" leadInLength="0/1"  name="volume"/>
                    <Parameter id="1953"  name="captions"/>
                   </Parameters>
                   <Attributes>
                    <Attribute id="1954" value="" name="ident"/>
                    <Attribute id="1955" value="44100" name="sampleRate"/>
                    <Attribute id="1956" value="16" name="bitDepth"/>
                    <Attribute id="1957" value="1" name="gain"/>
                    <Attribute id="1958" value="0" name="mixToMono"/>
                   </Attributes>
                  </AMFile>
                  <ScreenVMFile id="1959" start="0" duration="519" scalar="1/1" mediaStart="0/1" mediaDuration="519/1" trackNumber="0" src="12" >
                   <Transformer>
                    <VectorParam id="1960"  name="translation">
                     <InterpolatingParam id="1961" interp="linr"  time="-9999999/1" value="0" leadInLength="0/1"  />
                     <InterpolatingParam id="1962" interp="linr"  time="-9999999/1" value="0" leadInLength="0/1"  />
                     <InterpolatingParam id="1963" interp="linr"  time="-9999999/1" value="0" leadInLength="0/1"  />
                    </VectorParam>
                    <VectorParam id="1964"  name="rotation">
                     <InterpolatingParam id="1965" interp="linr"  time="-9999999/1" value="0" leadInLength="0/1"  />
                     <InterpolatingParam id="1966" interp="linr"  time="-9999999/1" value="0" leadInLength="0/1"  />
                     <InterpolatingParam id="1967" interp="linr"  time="-9999999/1" value="0" leadInLength="0/1"  />
                    </VectorParam>
                    <VectorParam id="1968"  name="shear">
                     <InterpolatingParam id="1969" interp="linr"  time="-9999999/1" value="0" leadInLength="0/1"  />
                     <InterpolatingParam id="1970" interp="linr"  time="-9999999/1" value="0" leadInLength="0/1"  />
                     <InterpolatingParam id="1971" interp="linr"  time="-9999999/1" value="0" leadInLength="0/1"  />
                    </VectorParam>
                    <VectorParam id="1972"  name="scale">
                     <InterpolatingParam id="1973" interp="linr"  time="-9999999/1" value="1" leadInLength="0/1"  />
                     <InterpolatingParam id="1974" interp="linr"  time="-9999999/1" value="1" leadInLength="0/1"  />
                     <InterpolatingParam id="1975" interp="linr"  time="-9999999/1" value="1" leadInLength="0/1"  />
                    </VectorParam>
                    <VectorParam id="1976"  name="anchor">
                     <InterpolatingParam id="1977" interp="linr"  time="0/1" value="0" leadInLength="0/1"  />
                     <InterpolatingParam id="1978" interp="linr"  time="0/1" value="0" leadInLength="0/1"  />
                     <InterpolatingParam id="1979" interp="linr"  time="0/1" value="0" leadInLength="0/1"  />
                    </VectorParam>
                   </Transformer>
                   <Parameters>
                    <VectorParam id="1980"  name="sourceCrop">
                     <InterpolatingParam id="1981" interp="linr"  time="0/1" value="0" leadInLength="0/1"  />
                     <InterpolatingParam id="1982" interp="linr"  time="0/1" value="0" leadInLength="0/1"  />
                     <InterpolatingParam id="1983" interp="linr"  time="0/1" value="0" leadInLength="0/1"  />
                     <InterpolatingParam id="1984" interp="linr"  time="0/1" value="0" leadInLength="0/1"  />
                    </VectorParam>
                    <VectorParam id="1985"  name="geometryCrop">
                     <InterpolatingParam id="1986" interp="linr"  time="-9999999/1" value="0" leadInLength="0/1"  />
                     <InterpolatingParam id="1987" interp="linr"  time="-9999999/1" value="0" leadInLength="0/1"  />
                     <InterpolatingParam id="1988" interp="linr"  time="-9999999/1" value="0" leadInLength="0/1"  />
                     <InterpolatingParam id="1989" interp="linr"  time="-9999999/1" value="0" leadInLength="0/1"  />
                    </VectorParam>
                    <InterpolatingParam id="1990" interp="linr"  time="-9999999/1" value="1" leadInLength="0/1"  name="opacity"/>
                    <InterpolatingParam id="1991" interp="linr"  time="0/1" value="0" leadInLength="0/1"  name="cursorOpacity"/>
                    <InterpolatingParam id="1992" interp="linr"  time="0/1" value="0" leadInLength="0/1"  name="cursorScale"/>
                   </Parameters>
                   <Attributes>
                    <Attribute id="1993" value="" name="ident"/>
                   </Attributes>
                   <ExtraData>
                    <Entry key="ZoomPanBin">
                     <ZoomPanBin id="1994"  >
                      <ZoomPanKeyframes>
                       <ZoomPanKeyframe id="1995" timeRangeEnd="-9999999/1" timeRangeDuration="0/1" interpolaterName="linr"  />
                      </ZoomPanKeyframes>
                     </ZoomPanBin>
                    </Entry>
                    <Entry key="CursorEffectBin">
                     <CursorEffectBin id="1996"  >
                      <CursorEffectKeyframes>
                      </CursorEffectKeyframes>
                     </CursorEffectBin>
                    </Entry>
                   </ExtraData>
                  </ScreenVMFile>
                  <MetaData>
                   <entry key="AutoAppliedSmartFocus" val="False"/>
                   <entry key="WinSubProjectDisplayName" val=""/>
                  </MetaData>
                 </UnifiedMedia>
                 <UnifiedMedia id="1997"  >
                  <AMFile id="1998" start="519" duration="341" scalar="1/1" mediaStart="728/1" mediaDuration="341/1" trackNumber="1" src="12" channelNumber="0,1" >
                   <Parameters>
                    <InterpolatingParam id="1999" interp="linr"  time="0/1" value="1" leadInLength="0/1"  name="volume"/>
                    <Parameter id="2000"  name="captions"/>
                   </Parameters>
                   <Attributes>
                    <Attribute id="2001" value="" name="ident"/>
                    <Attribute id="2002" value="44100" name="sampleRate"/>
                    <Attribute id="2003" value="16" name="bitDepth"/>
                    <Attribute id="2004" value="1" name="gain"/>
                    <Attribute id="2005" value="0" name="mixToMono"/>
                   </Attributes>
                  </AMFile>
                  <ScreenVMFile id="2006" start="519" duration="341" scalar="1/1" mediaStart="728/1" mediaDuration="341/1" trackNumber="0" src="12" >
                   <Transformer>
                    <VectorParam id="2007"  name="translation">
                     <InterpolatingParam id="2008" interp="linr"  time="-9999999/1" value="0" leadInLength="0/1"  />
                     <InterpolatingParam id="2009" interp="linr"  time="-9999999/1" value="0" leadInLength="0/1"  />
                     <InterpolatingParam id="2010" interp="linr"  time="-9999999/1" value="0" leadInLength="0/1"  />
                    </VectorParam>
                    <VectorParam id="2011"  name="rotation">
                     <InterpolatingParam id="2012" interp="linr"  time="-9999999/1" value="0" leadInLength="0/1"  />
                     <InterpolatingParam id="2013" interp="linr"  time="-9999999/1" value="0" leadInLength="0/1"  />
                     <InterpolatingParam id="2014" interp="linr"  time="-9999999/1" value="0" leadInLength="0/1"  />
                    </VectorParam>
                    <VectorParam id="2015"  name="shear">
                     <InterpolatingParam id="2016" interp="linr"  time="-9999999/1" value="0" leadInLength="0/1"  />
                     <InterpolatingParam id="2017" interp="linr"  time="-9999999/1" value="0" leadInLength="0/1"  />
                     <InterpolatingParam id="2018" interp="linr"  time="-9999999/1" value="0" leadInLength="0/1"  />
                    </VectorParam>
                    <VectorParam id="2019"  name="scale">
                     <InterpolatingParam id="2020" interp="linr"  time="-9999999/1" value="1" leadInLength="0/1"  />
                     <InterpolatingParam id="2021" interp="linr"  time="-9999999/1" value="1" leadInLength="0/1"  />
                     <InterpolatingParam id="2022" interp="linr"  time="-9999999/1" value="1" leadInLength="0/1"  />
                    </VectorParam>
                    <VectorParam id="2023"  name="anchor">
                     <InterpolatingParam id="2024" interp="linr"  time="0/1" value="0" leadInLength="0/1"  />
                     <InterpolatingParam id="2025" interp="linr"  time="0/1" value="0" leadInLength="0/1"  />
                     <InterpolatingParam id="2026" interp="linr"  time="0/1" value="0" leadInLength="0/1"  />
                    </VectorParam>
                   </Transformer>
                   <Parameters>
                    <VectorParam id="2027"  name="sourceCrop">
                     <InterpolatingParam id="2028" interp="linr"  time="0/1" value="0" leadInLength="0/1"  />
                     <InterpolatingParam id="2029" interp="linr"  time="0/1" value="0" leadInLength="0/1"  />
                     <InterpolatingParam id="2030" interp="linr"  time="0/1" value="0" leadInLength="0/1"  />
                     <InterpolatingParam id="2031" interp="linr"  time="0/1" value="0" leadInLength="0/1"  />
                    </VectorParam>
                    <VectorParam id="2032"  name="geometryCrop">
                     <InterpolatingParam id="2033" interp="linr"  time="-9999999/1" value="0" leadInLength="0/1"  />
                     <InterpolatingParam id="2034" interp="linr"  time="-9999999/1" value="0" leadInLength="0/1"  />
                     <InterpolatingParam id="2035" interp="linr"  time="-9999999/1" value="0" leadInLength="0/1"  />
                     <InterpolatingParam id="2036" interp="linr"  time="-9999999/1" value="0" leadInLength="0/1"  />
                    </VectorParam>
                    <InterpolatingParam id="2037" interp="linr"  time="-9999999/1" value="1" leadInLength="0/1"  name="opacity"/>
                    <InterpolatingParam id="2038" interp="linr"  time="0/1" value="0" leadInLength="0/1"  name="cursorOpacity"/>
                    <InterpolatingParam id="2039" interp="linr"  time="0/1" value="0" leadInLength="0/1"  name="cursorScale"/>
                   </Parameters>
                   <Attributes>
                    <Attribute id="2040" value="" name="ident"/>
                   </Attributes>
                   <ExtraData>
                    <Entry key="ZoomPanBin">
                     <ZoomPanBin id="2041"  >
                      <ZoomPanKeyframes>
                       <ZoomPanKeyframe id="2042" timeRangeEnd="-9999999/1" timeRangeDuration="0/1" interpolaterName="linr"  />
                      </ZoomPanKeyframes>
                     </ZoomPanBin>
                    </Entry>
                    <Entry key="CursorEffectBin">
                     <CursorEffectBin id="2043"  >
                      <CursorEffectKeyframes>
                      </CursorEffectKeyframes>
                     </CursorEffectBin>
                    </Entry>
                   </ExtraData>
                  </ScreenVMFile>
                  <MetaData>
                   <entry key="AutoAppliedSmartFocus" val="False"/>
                   <entry key="WinSubProjectDisplayName" val=""/>
                  </MetaData>
                 </UnifiedMedia>
                 <UnifiedMedia id="2044"  >
                  <AMFile id="2045" start="860" duration="466" scalar="1/1" mediaStart="1290/1" mediaDuration="466/1" trackNumber="1" src="12" channelNumber="0,1" >
                   <Parameters>
                    <InterpolatingParam id="2046" interp="linr"  time="0/1" value="1" leadInLength="0/1"  name="volume"/>
                    <Parameter id="2047"  name="captions"/>
                   </Parameters>
                   <Attributes>
                    <Attribute id="2048" value="" name="ident"/>
                    <Attribute id="2049" value="44100" name="sampleRate"/>
                    <Attribute id="2050" value="16" name="bitDepth"/>
                    <Attribute id="2051" value="1" name="gain"/>
                    <Attribute id="2052" value="0" name="mixToMono"/>
                   </Attributes>
                  </AMFile>
                  <ScreenVMFile id="2053" start="860" duration="466" scalar="1/1" mediaStart="1290/1" mediaDuration="466/1" trackNumber="0" src="12" >
                   <Transformer>
                    <VectorParam id="2054"  name="translation">
                     <InterpolatingParam id="2055" interp="linr"  time="-9999999/1" value="0" leadInLength="0/1"  />
                     <InterpolatingParam id="2056" interp="linr"  time="-9999999/1" value="0" leadInLength="0/1"  />
                     <InterpolatingParam id="2057" interp="linr"  time="-9999999/1" value="0" leadInLength="0/1"  />
                    </VectorParam>
                    <VectorParam id="2058"  name="rotation">
                     <InterpolatingParam id="2059" interp="linr"  time="-9999999/1" value="0" leadInLength="0/1"  />
                     <InterpolatingParam id="2060" interp="linr"  time="-9999999/1" value="0" leadInLength="0/1"  />
                     <InterpolatingParam id="2061" interp="linr"  time="-9999999/1" value="0" leadInLength="0/1"  />
                    </VectorParam>
                    <VectorParam id="2062"  name="shear">
                     <InterpolatingParam id="2063" interp="linr"  time="-9999999/1" value="0" leadInLength="0/1"  />
                     <InterpolatingParam id="2064" interp="linr"  time="-9999999/1" value="0" leadInLength="0/1"  />
                     <InterpolatingParam id="2065" interp="linr"  time="-9999999/1" value="0" leadInLength="0/1"  />
                    </VectorParam>
                    <VectorParam id="2066"  name="scale">
                     <InterpolatingParam id="2067" interp="linr"  time="-9999999/1" value="1" leadInLength="0/1"  />
                     <InterpolatingParam id="2068" interp="linr"  time="-9999999/1" value="1" leadInLength="0/1"  />
                     <InterpolatingParam id="2069" interp="linr"  time="-9999999/1" value="1" leadInLength="0/1"  />
                    </VectorParam>
                    <VectorParam id="2070"  name="anchor">
                     <InterpolatingParam id="2071" interp="linr"  time="0/1" value="0" leadInLength="0/1"  />
                     <InterpolatingParam id="2072" interp="linr"  time="0/1" value="0" leadInLength="0/1"  />
                     <InterpolatingParam id="2073" interp="linr"  time="0/1" value="0" leadInLength="0/1"  />
                    </VectorParam>
                   </Transformer>
                   <Parameters>
                    <VectorParam id="2074"  name="sourceCrop">
                     <InterpolatingParam id="2075" interp="linr"  time="0/1" value="0" leadInLength="0/1"  />
                     <InterpolatingParam id="2076" interp="linr"  time="0/1" value="0" leadInLength="0/1"  />
                     <InterpolatingParam id="2077" interp="linr"  time="0/1" value="0" leadInLength="0/1"  />
                     <InterpolatingParam id="2078" interp="linr"  time="0/1" value="0" leadInLength="0/1"  />
                    </VectorParam>
                    <VectorParam id="2079"  name="geometryCrop">
                     <InterpolatingParam id="2080" interp="linr"  time="-9999999/1" value="0" leadInLength="0/1"  />
                     <InterpolatingParam id="2081" interp="linr"  time="-9999999/1" value="0" leadInLength="0/1"  />
                     <InterpolatingParam id="2082" interp="linr"  time="-9999999/1" value="0" leadInLength="0/1"  />
                     <InterpolatingParam id="2083" interp="linr"  time="-9999999/1" value="0" leadInLength="0/1"  />
                    </VectorParam>
                    <InterpolatingParam id="2084" interp="linr"  time="-9999999/1" value="1" leadInLength="0/1"  name="opacity"/>
                    <InterpolatingParam id="2085" interp="linr"  time="0/1" value="0" leadInLength="0/1"  name="cursorOpacity"/>
                    <InterpolatingParam id="2086" interp="linr"  time="0/1" value="0" leadInLength="0/1"  name="cursorScale"/>
                   </Parameters>
                   <Attributes>
                    <Attribute id="2087" value="" name="ident"/>
                   </Attributes>
                   <ExtraData>
                    <Entry key="ZoomPanBin">
                     <ZoomPanBin id="2088"  >
                      <ZoomPanKeyframes>
                       <ZoomPanKeyframe id="2089" timeRangeEnd="-9999999/1" timeRangeDuration="0/1" interpolaterName="linr"  />
                      </ZoomPanKeyframes>
                     </ZoomPanBin>
                    </Entry>
                    <Entry key="CursorEffectBin">
                     <CursorEffectBin id="2090"  >
                      <CursorEffectKeyframes>
                      </CursorEffectKeyframes>
                     </CursorEffectBin>
                    </Entry>
                   </ExtraData>
                  </ScreenVMFile>
                  <MetaData>
                   <entry key="AutoAppliedSmartFocus" val="False"/>
                   <entry key="WinSubProjectDisplayName" val=""/>
                  </MetaData>
                 </UnifiedMedia>
                </Medias>
               </GenericTrack>
              </StitchedMedia>
             </Medias>
            </GenericTrack>
           </Tracks>
          </GenericMixer>
          <MetaData>
           <entry key="IsGroupExpanded" val="False"/>
           <entry key="WinGroupOrigin" val="Asset"/>
           <entry key="WinSubProjectDisplayName" val="9"/>
          </MetaData>
          <ExtraData>
           <Entry key="ZoomPanBin">
            <ZoomPanBin id="2091"  >
             <ZoomPanKeyframes>
              <ZoomPanKeyframe id="2092" timeRangeEnd="-9999999/1" timeRangeDuration="0/1" interpolaterName="linr"  />
             </ZoomPanKeyframes>
            </ZoomPanBin>
           </Entry>
          </ExtraData>
         </Group>
         <Group id="2093" start="13674" duration="2143" scalar="1" mediaStart="0" mediaDuration="2143" baseWidthAttr="0" baseHeightAttr="0"  >
          <Parameters>
           <VectorParam id="2094"  name="sourceCrop">
            <InterpolatingParam id="2095" interp="linr"  time="0/1" value="0" leadInLength="0/1"  />
            <InterpolatingParam id="2096" interp="linr"  time="0/1" value="0" leadInLength="0/1"  />
            <InterpolatingParam id="2097" interp="linr"  time="0/1" value="0" leadInLength="0/1"  />
            <InterpolatingParam id="2098" interp="linr"  time="0/1" value="0" leadInLength="0/1"  />
           </VectorParam>
           <VectorParam id="2099"  name="geometryCrop">
            <InterpolatingParam id="2100" interp="linr"  time="-9999999/1" value="0" leadInLength="0/1"  />
            <InterpolatingParam id="2101" interp="linr"  time="-9999999/1" value="0" leadInLength="0/1"  />
            <InterpolatingParam id="2102" interp="linr"  time="-9999999/1" value="0" leadInLength="0/1"  />
            <InterpolatingParam id="2103" interp="linr"  time="-9999999/1" value="0" leadInLength="0/1"  />
           </VectorParam>
           <InterpolatingParam id="2104" interp="linr"  time="-9999999/1" value="1" leadInLength="0/1"  name="opacity"/>
           <Parameter id="2105"  name="captions"/>
           <InterpolatingParam id="2106" interp="linr"  time="0/1" value="1" leadInLength="0/1"  name="volume"/>
          </Parameters>
          <Transformer>
           <VectorParam id="2107"  name="translation">
            <InterpolatingParam id="2108" interp="linr"  time="-9999999/1" value="0" leadInLength="0/1"  />
            <InterpolatingParam id="2109" interp="linr"  time="-9999999/1" value="0" leadInLength="0/1"  />
            <InterpolatingParam id="2110" interp="linr"  time="-9999999/1" value="0" leadInLength="0/1"  />
           </VectorParam>
           <VectorParam id="2111"  name="rotation">
            <InterpolatingParam id="2112" interp="linr"  time="-9999999/1" value="0" leadInLength="0/1"  />
            <InterpolatingParam id="2113" interp="linr"  time="-9999999/1" value="0" leadInLength="0/1"  />
            <InterpolatingParam id="2114" interp="linr"  time="-9999999/1" value="0" leadInLength="0/1"  />
           </VectorParam>
           <VectorParam id="2115"  name="shear">
            <InterpolatingParam id="2116" interp="linr"  time="-9999999/1" value="0" leadInLength="0/1"  />
            <InterpolatingParam id="2117" interp="linr"  time="-9999999/1" value="0" leadInLength="0/1"  />
            <InterpolatingParam id="2118" interp="linr"  time="-9999999/1" value="0" leadInLength="0/1"  />
           </VectorParam>
           <VectorParam id="2119"  name="scale">
            <InterpolatingParam id="2120" interp="linr"  time="-9999999/1" value="1" leadInLength="0/1"  />
            <InterpolatingParam id="2121" interp="linr"  time="-9999999/1" value="1" leadInLength="0/1"  />
            <InterpolatingParam id="2122" interp="linr"  time="-9999999/1" value="1" leadInLength="0/1"  />
           </VectorParam>
           <VectorParam id="2123"  name="anchor">
            <InterpolatingParam id="2124" interp="linr"  time="0/1" value="0" leadInLength="0/1"  />
            <InterpolatingParam id="2125" interp="linr"  time="0/1" value="0" leadInLength="0/1"  />
            <InterpolatingParam id="2126" interp="linr"  time="0/1" value="0" leadInLength="0/1"  />
           </VectorParam>
          </Transformer>
          <GenericMixer id="2127"  >
           <MetaData>
           </MetaData>
           <Tracks>
            <GenericTrack id="2128"  >
             <Attributes>
              <Attribute id="2129" value="" name="ident"/>
              <Attribute id="2130" value="0" name="audioMuted"/>
              <Attribute id="2131" value="0" name="videoHidden"/>
             </Attributes>
             <MetaData>
              <entry key="IsLocked" val="False"/>
              <entry key="WinTrackHeight" val="0"/>
             </MetaData>
             <Medias>
              <StitchedMedia id="2132" start="0" duration="2143" scalar="1/1" mediaStart="0/1" mediaDuration="2143/1" minMediaStart="0/1" >
               <Transformer>
                <VectorParam id="2133"  name="translation">
                 <InterpolatingParam id="2134" interp="linr"  time="0/1" value="0" leadInLength="0/1"  />
                 <InterpolatingParam id="2135" interp="linr"  time="0/1" value="0" leadInLength="0/1"  />
                 <InterpolatingParam id="2136" interp="linr"  time="0/1" value="0" leadInLength="0/1"  />
                </VectorParam>
                <VectorParam id="2137"  name="rotation">
                 <InterpolatingParam id="2138" interp="linr"  time="0/1" value="0" leadInLength="0/1"  />
                 <InterpolatingParam id="2139" interp="linr"  time="0/1" value="0" leadInLength="0/1"  />
                 <InterpolatingParam id="2140" interp="linr"  time="0/1" value="0" leadInLength="0/1"  />
                </VectorParam>
                <VectorParam id="2141"  name="shear">
                 <InterpolatingParam id="2142" interp="linr"  time="0/1" value="0" leadInLength="0/1"  />
                 <InterpolatingParam id="2143" interp="linr"  time="0/1" value="0" leadInLength="0/1"  />
                 <InterpolatingParam id="2144" interp="linr"  time="0/1" value="0" leadInLength="0/1"  />
                </VectorParam>
                <VectorParam id="2145"  name="scale">
                 <InterpolatingParam id="2146" interp="linr"  time="0/1" value="1" leadInLength="0/1"  />
                 <InterpolatingParam id="2147" interp="linr"  time="0/1" value="1" leadInLength="0/1"  />
                 <InterpolatingParam id="2148" interp="linr"  time="0/1" value="1" leadInLength="0/1"  />
                </VectorParam>
                <VectorParam id="2149"  name="anchor">
                 <InterpolatingParam id="2150" interp="linr"  time="0/1" value="0" leadInLength="0/1"  />
                 <InterpolatingParam id="2151" interp="linr"  time="0/1" value="0" leadInLength="0/1"  />
                 <InterpolatingParam id="2152" interp="linr"  time="0/1" value="0" leadInLength="0/1"  />
                </VectorParam>
               </Transformer>
               <Parameters>
                <InterpolatingParam id="2153" interp="linr"  time="0/1" value="1" leadInLength="0/1"  name="cursorOpacity"/>
                <InterpolatingParam id="2154" interp="linr"  time="0/1" value="1" leadInLength="0/1"  name="cursorScale"/>
                <InterpolatingParam id="2155" interp="linr"  time="0/1" value="1" leadInLength="0/1"  name="volume"/>
                <Parameter id="2156"  name="captions"/>
               </Parameters>
               <Attributes>
                <Attribute id="2157" value="" name="ident"/>
                <Attribute id="2158" value="0" name="mixToMono"/>
               </Attributes>
               <MetaData>
                <entry key="WinSubProjectDisplayName" val=""/>
               </MetaData>
               <ExtraData>
                <Entry key="ZoomPanBin">
                 <ZoomPanBin id="2159"  >
                  <ZoomPanKeyframes>
                  </ZoomPanKeyframes>
                 </ZoomPanBin>
                </Entry>
                <Entry key="CursorEffectBin">
                 <CursorEffectBin id="2160"  >
                  <CursorEffectKeyframes>
                  </CursorEffectKeyframes>
                 </CursorEffectBin>
                </Entry>
               </ExtraData>
               <GenericTrack id="2161"  >
                <Attributes>
                 <Attribute id="2162" value="" name="ident"/>
                 <Attribute id="2163" value="0" name="audioMuted"/>
                 <Attribute id="2164" value="0" name="videoHidden"/>
                </Attributes>
                <MetaData>
                 <entry key="IsLocked" val="False"/>
                 <entry key="WinTrackHeight" val="0"/>
                </MetaData>
                <Medias>
                 <AMFile id="2165" start="0" duration="1044" scalar="1/1" mediaStart="0/1" mediaDuration="1044/1" trackNumber="2" src="13" channelNumber="0,1" >
                  <Parameters>
                   <InterpolatingParam id="2166" interp="linr"  time="0/1" value="1" leadInLength="0/1"  name="volume"/>
                   <Parameter id="2167"  name="captions"/>
                  </Parameters>
                  <Attributes>
                   <Attribute id="2168" value="" name="ident"/>
                   <Attribute id="2169" value="44100" name="sampleRate"/>
                   <Attribute id="2170" value="16" name="bitDepth"/>
                   <Attribute id="2171" value="1" name="gain"/>
                   <Attribute id="2172" value="0" name="mixToMono"/>
                  </Attributes>
                  <MetaData>
                   <entry key="WinSubProjectDisplayName" val=""/>
                  </MetaData>
                 </AMFile>
                 <AMFile id="2173" start="1044" duration="23" scalar="1/1" mediaStart="1059/1" mediaDuration="23/1" trackNumber="2" src="13" channelNumber="0,1" >
                  <Parameters>
                   <InterpolatingParam id="2174" interp="linr"  time="0/1" value="1" leadInLength="0/1"  name="volume"/>
                   <Parameter id="2175"  name="captions"/>
                  </Parameters>
                  <Attributes>
                   <Attribute id="2176" value="" name="ident"/>
                   <Attribute id="2177" value="44100" name="sampleRate"/>
                   <Attribute id="2178" value="16" name="bitDepth"/>
                   <Attribute id="2179" value="1" name="gain"/>
                   <Attribute id="2180" value="0" name="mixToMono"/>
                  </Attributes>
                  <MetaData>
                   <entry key="WinSubProjectDisplayName" val=""/>
                  </MetaData>
                 </AMFile>
                 <AMFile id="2181" start="1067" duration="160" scalar="1/1" mediaStart="1562/1" mediaDuration="160/1" trackNumber="2" src="13" channelNumber="0,1" >
                  <Parameters>
                   <InterpolatingParam id="2182" interp="linr"  time="0/1" value="1" leadInLength="0/1"  name="volume"/>
                   <Parameter id="2183"  name="captions"/>
                  </Parameters>
                  <Attributes>
                   <Attribute id="2184" value="" name="ident"/>
                   <Attribute id="2185" value="44100" name="sampleRate"/>
                   <Attribute id="2186" value="16" name="bitDepth"/>
                   <Attribute id="2187" value="1" name="gain"/>
                   <Attribute id="2188" value="0" name="mixToMono"/>
                  </Attributes>
                  <MetaData>
                   <entry key="WinSubProjectDisplayName" val=""/>
                  </MetaData>
                 </AMFile>
                 <AMFile id="2189" start="1227" duration="258" scalar="1/1" mediaStart="1847/1" mediaDuration="258/1" trackNumber="2" src="13" channelNumber="0,1" >
                  <Parameters>
                   <InterpolatingParam id="2190" interp="linr"  time="0/1" value="1" leadInLength="0/1"  name="volume"/>
                   <Parameter id="2191"  name="captions"/>
                  </Parameters>
                  <Attributes>
                   <Attribute id="2192" value="" name="ident"/>
                   <Attribute id="2193" value="44100" name="sampleRate"/>
                   <Attribute id="2194" value="16" name="bitDepth"/>
                   <Attribute id="2195" value="1" name="gain"/>
                   <Attribute id="2196" value="0" name="mixToMono"/>
                  </Attributes>
                  <MetaData>
                   <entry key="WinSubProjectDisplayName" val=""/>
                  </MetaData>
                 </AMFile>
                 <AMFile id="2197" start="1485" duration="616" scalar="1/1" mediaStart="2172/1" mediaDuration="616/1" trackNumber="2" src="13" channelNumber="0,1" >
                  <Parameters>
                   <InterpolatingParam id="2198" interp="linr"  time="0/1" value="1" leadInLength="0/1"  name="volume"/>
                   <Parameter id="2199"  name="captions"/>
                  </Parameters>
                  <Attributes>
                   <Attribute id="2200" value="" name="ident"/>
                   <Attribute id="2201" value="44100" name="sampleRate"/>
                   <Attribute id="2202" value="16" name="bitDepth"/>
                   <Attribute id="2203" value="1" name="gain"/>
                   <Attribute id="2204" value="0" name="mixToMono"/>
                  </Attributes>
                  <MetaData>
                   <entry key="WinSubProjectDisplayName" val=""/>
                  </MetaData>
                 </AMFile>
                 <AMFile id="2205" start="2101" duration="389" scalar="1/1" mediaStart="2852/1" mediaDuration="389/1" trackNumber="2" src="13" channelNumber="0,1" >
                  <Parameters>
                   <InterpolatingParam id="2206" interp="linr"  time="0/1" value="1" leadInLength="0/1"  name="volume"/>
                   <Parameter id="2207"  name="captions"/>
                  </Parameters>
                  <Attributes>
                   <Attribute id="2208" value="" name="ident"/>
                   <Attribute id="2209" value="44100" name="sampleRate"/>
                   <Attribute id="2210" value="16" name="bitDepth"/>
                   <Attribute id="2211" value="1" name="gain"/>
                   <Attribute id="2212" value="0" name="mixToMono"/>
                  </Attributes>
                  <MetaData>
                   <entry key="WinSubProjectDisplayName" val=""/>
                  </MetaData>
                 </AMFile>
                </Medias>
               </GenericTrack>
              </StitchedMedia>
             </Medias>
            </GenericTrack>
            <GenericTrack id="2213"  >
             <Attributes>
              <Attribute id="2214" value="" name="ident"/>
              <Attribute id="2215" value="0" name="audioMuted"/>
              <Attribute id="2216" value="0" name="videoHidden"/>
             </Attributes>
             <MetaData>
              <entry key="IsLocked" val="False"/>
              <entry key="WinTrackHeight" val="0"/>
             </MetaData>
             <Medias>
              <StitchedMedia id="2217" start="0" duration="2143" scalar="1/1" mediaStart="0/1" mediaDuration="2143/1" minMediaStart="0/1" >
               <Transformer>
                <VectorParam id="2218"  name="translation">
                 <InterpolatingParam id="2219" interp="linr"  time="-9999999/1" value="0" leadInLength="0/1"  interpolater="leadin-linr"  />
                 <InterpolatingParam id="2220" interp="linr"  time="-9999999/1" value="0" leadInLength="0/1"  interpolater="leadin-linr"  />
                 <InterpolatingParam id="2221" interp="linr"  time="-9999999/1" value="0" leadInLength="0/1"  interpolater="leadin-linr"  />
                </VectorParam>
                <VectorParam id="2222"  name="rotation">
                 <InterpolatingParam id="2223" interp="linr"  time="-9999999/1" value="0" leadInLength="0/1"  interpolater="leadin-linr"  />
                 <InterpolatingParam id="2224" interp="linr"  time="-9999999/1" value="0" leadInLength="0/1"  interpolater="leadin-linr"  />
                 <InterpolatingParam id="2225" interp="linr"  time="-9999999/1" value="0" leadInLength="0/1"  interpolater="leadin-linr"  />
                </VectorParam>
                <VectorParam id="2226"  name="shear">
                 <InterpolatingParam id="2227" interp="linr"  time="-9999999/1" value="0" leadInLength="0/1"  interpolater="leadin-linr"  />
                 <InterpolatingParam id="2228" interp="linr"  time="-9999999/1" value="0" leadInLength="0/1"  interpolater="leadin-linr"  />
                 <InterpolatingParam id="2229" interp="linr"  time="-9999999/1" value="0" leadInLength="0/1"  interpolater="leadin-linr"  />
                </VectorParam>
                <VectorParam id="2230"  name="scale">
                 <InterpolatingParam id="2231" interp="linr"  time="-9999999/1" value="0.66666666666666663" leadInLength="0/1"  interpolater="leadin-linr"  />
                 <InterpolatingParam id="2232" interp="linr"  time="-9999999/1" value="0.66666666666666663" leadInLength="0/1"  interpolater="leadin-linr"  />
                 <InterpolatingParam id="2233" interp="linr"  time="-9999999/1" value="1" leadInLength="0/1"  interpolater="leadin-linr"  />
                </VectorParam>
                <VectorParam id="2234"  name="anchor">
                 <InterpolatingParam id="2235" interp="linr"  time="0/1" value="0" leadInLength="0/1"  />
                 <InterpolatingParam id="2236" interp="linr"  time="0/1" value="0" leadInLength="0/1"  />
                 <InterpolatingParam id="2237" interp="linr"  time="0/1" value="0" leadInLength="0/1"  />
                </VectorParam>
               </Transformer>
               <Parameters>
                <VectorParam id="2238"  name="sourceCrop">
                 <InterpolatingParam id="2239" interp="linr"  time="0/1" value="0" leadInLength="0/1"  />
                 <InterpolatingParam id="2240" interp="linr"  time="0/1" value="0" leadInLength="0/1"  />
                 <InterpolatingParam id="2241" interp="linr"  time="0/1" value="0" leadInLength="0/1"  />
                 <InterpolatingParam id="2242" interp="linr"  time="0/1" value="0" leadInLength="0/1"  />
                </VectorParam>
                <VectorParam id="2243"  name="geometryCrop">
                 <InterpolatingParam id="2244" interp="linr"  time="-9999999/1" value="0" leadInLength="0/1"  interpolater="leadin-linr"  />
                 <InterpolatingParam id="2245" interp="linr"  time="-9999999/1" value="0" leadInLength="0/1"  interpolater="leadin-linr"  />
                 <InterpolatingParam id="2246" interp="linr"  time="-9999999/1" value="0" leadInLength="0/1"  interpolater="leadin-linr"  />
                 <InterpolatingParam id="2247" interp="linr"  time="-9999999/1" value="0" leadInLength="0/1"  interpolater="leadin-linr"  />
                </VectorParam>
                <InterpolatingParam id="2248" interp="linr"  time="-9999999/1" value="1" leadInLength="0/1"  interpolater="leadin-linr"  name="opacity"/>
                <InterpolatingParam id="2249" interp="linr"  time="0/1" value="1" leadInLength="0/1"  name="cursorOpacity"/>
                <InterpolatingParam id="2250" interp="linr"  time="0/1" value="1" leadInLength="0/1"  name="cursorScale"/>
                <InterpolatingParam id="2251" interp="linr"  time="0/1" value="1" leadInLength="0/1"  name="volume"/>
                <Parameter id="2252"  name="captions"/>
               </Parameters>
               <Effects>
                <GenericEffect id="2253" name = "CursorBaseEffectName" >
                 <Parameters>
                 <InterpolatingParam id="2254" interp="linr"  time="-9999999/1" value="1" leadInLength="0/1"   name="cursorSize"/>
                 <InterpolatingParam id="2255" interp="linr"  time="-9999999/1" value="0" leadInLength="0/1"   name="highlightBlurRadius"/>
                 <InterpolatingParam id="2256" interp="linr"  time="-9999999/1" value="0" leadInLength="0/1"   name="highlightColorBlue"/>
                 <InterpolatingParam id="2257" interp="linr"  time="-9999999/1" value="255" leadInLength="0/1"   name="highlightColorGreen"/>
                 <InterpolatingParam id="2258" interp="linr"  time="-9999999/1" value="255" leadInLength="0/1"   name="highlightColorRed"/>
                 <InterpolatingParam id="2259" interp="linr"  time="-9999999/1" value="5" leadInLength="0/1"   name="highlightFeatherSize"/>
                 <InterpolatingParam id="2260" interp="linr"  time="-9999999/1" value="2" leadInLength="0/1"   name="highlightMagnification"/>
                 <InterpolatingParam id="2261" interp="linr"  time="-9999999/1" value="1" leadInLength="0/1"   name="highlightOpacity"/>
                 <InterpolatingParam id="2262" interp="linr"  time="-9999999/1" value="45" leadInLength="0/1"   name="highlightSize"/>
                 <Parameter id="2263"   name="highlightType">
                  <Keyframes>
                  <Keyframe id="2264"  time="-9999999/1" value="0" leadInLength="0/1"  />
                  </Keyframes>
                 </Parameter>
                 <InterpolatingParam id="2265" interp="linr"  time="-9999999/1" value="0" leadInLength="0/1"   name="leftClickColorBlue"/>
                 <InterpolatingParam id="2266" interp="linr"  time="-9999999/1" value="0" leadInLength="0/1"   name="leftClickColorGreen"/>
                 <InterpolatingParam id="2267" interp="linr"  time="-9999999/1" value="255" leadInLength="0/1"   name="leftClickColorRed"/>
                 <InterpolatingParam id="2268" interp="linr"  time="-9999999/1" value="0.80000000000000004" leadInLength="0/1"   name="leftClickDuration"/>
                 <InterpolatingParam id="2269" interp="linr"  time="-9999999/1" value="20" leadInLength="0/1"   name="leftClickSize"/>
                 <Parameter id="2270"   name="leftClickSoundFilename">
                  <Keyframes>
                  <Keyframe id="2271"  time="-9999999/1" value="" leadInLength="0/1"  />
                  </Keyframes>
                 </Parameter>
                 <InterpolatingParam id="2272" interp="linr"  time="-9999999/1" value="1" leadInLength="0/1"   name="leftClickSoundVolume"/>
                 <Parameter id="2273"   name="leftClickType">
                  <Keyframes>
                  <Keyframe id="2274"  time="-9999999/1" value="0" leadInLength="0/1"  />
                  </Keyframes>
                 </Parameter>
                 <InterpolatingParam id="2275" interp="linr"  time="-9999999/1" value="1" leadInLength="0/1"   name="opacity"/>
                 <InterpolatingParam id="2276" interp="linr"  time="-9999999/1" value="255" leadInLength="0/1"   name="rightClickColorBlue"/>
                 <InterpolatingParam id="2277" interp="linr"  time="-9999999/1" value="0" leadInLength="0/1"   name="rightClickColorGreen"/>
                 <InterpolatingParam id="2278" interp="linr"  time="-9999999/1" value="0" leadInLength="0/1"   name="rightClickColorRed"/>
                 <InterpolatingParam id="2279" interp="linr"  time="-9999999/1" value="0.80000000000000004" leadInLength="0/1"   name="rightClickDuration"/>
                 <InterpolatingParam id="2280" interp="linr"  time="-9999999/1" value="20" leadInLength="0/1"   name="rightClickSize"/>
                 <Parameter id="2281"   name="rightClickSoundFilename">
                  <Keyframes>
                  <Keyframe id="2282"  time="-9999999/1" value="" leadInLength="0/1"  />
                  </Keyframes>
                 </Parameter>
                 <InterpolatingParam id="2283" interp="linr"  time="-9999999/1" value="1" leadInLength="0/1"   name="rightClickSoundVolume"/>
                 <Parameter id="2284"   name="rightClickType">
                  <Keyframes>
                  <Keyframe id="2285"  time="-9999999/1" value="0" leadInLength="0/1"  />
                  </Keyframes>
                 </Parameter>
                 </Parameters>
                 <MetaData>
                  <entry key="effectIndex" val="0"/>
                 </MetaData>
                </GenericEffect>
               </Effects>
               <Attributes>
                <Attribute id="2286" value="" name="ident"/>
                <Attribute id="2287" value="0" name="mixToMono"/>
               </Attributes>
               <MetaData>
                <entry key="AutoAppliedSmartFocus" val="False"/>
                <entry key="WinSubProjectDisplayName" val=""/>
               </MetaData>
               <ExtraData>
                <Entry key="ZoomPanBin">
                 <ZoomPanBin id="2288"  >
                  <ZoomPanKeyframes>
                   <ZoomPanKeyframe id="2289" timeRangeEnd="-9999999/1" timeRangeDuration="0/1" interpolaterName="linr"  />
                  </ZoomPanKeyframes>
                 </ZoomPanBin>
                </Entry>
                <Entry key="CursorEffectBin">
                 <CursorEffectBin id="2290"  >
                  <CursorEffectKeyframes>
                   <CursorEffectKeyframe id="2291" timeRangeEnd="-9999999/1" timeRangeDuration="0/1" interpolaterName=""  />
                  </CursorEffectKeyframes>
                 </CursorEffectBin>
                </Entry>
               </ExtraData>
               <GenericTrack id="2292"  >
                <Attributes>
                 <Attribute id="2293" value="" name="ident"/>
                 <Attribute id="2294" value="0" name="audioMuted"/>
                 <Attribute id="2295" value="0" name="videoHidden"/>
                </Attributes>
                <MetaData>
                 <entry key="IsLocked" val="False"/>
                 <entry key="WinTrackHeight" val="0"/>
                </MetaData>
                <Medias>
                 <UnifiedMedia id="2296"  >
                  <AMFile id="2297" start="0" duration="1044" scalar="1/1" mediaStart="0/1" mediaDuration="1044/1" trackNumber="1" src="13" channelNumber="0,1" >
                   <Parameters>
                    <InterpolatingParam id="2298" interp="linr"  time="0/1" value="1" leadInLength="0/1"  name="volume"/>
                    <Parameter id="2299"  name="captions"/>
                   </Parameters>
                   <Attributes>
                    <Attribute id="2300" value="" name="ident"/>
                    <Attribute id="2301" value="44100" name="sampleRate"/>
                    <Attribute id="2302" value="16" name="bitDepth"/>
                    <Attribute id="2303" value="1" name="gain"/>
                    <Attribute id="2304" value="0" name="mixToMono"/>
                   </Attributes>
                  </AMFile>
                  <ScreenVMFile id="2305" start="0" duration="1044" scalar="1/1" mediaStart="0/1" mediaDuration="1044/1" trackNumber="0" src="13" >
                   <Transformer>
                    <VectorParam id="2306"  name="translation">
                     <InterpolatingParam id="2307" interp="linr"  time="-9999999/1" value="0" leadInLength="0/1"  />
                     <InterpolatingParam id="2308" interp="linr"  time="-9999999/1" value="0" leadInLength="0/1"  />
                     <InterpolatingParam id="2309" interp="linr"  time="-9999999/1" value="0" leadInLength="0/1"  />
                    </VectorParam>
                    <VectorParam id="2310"  name="rotation">
                     <InterpolatingParam id="2311" interp="linr"  time="-9999999/1" value="0" leadInLength="0/1"  />
                     <InterpolatingParam id="2312" interp="linr"  time="-9999999/1" value="0" leadInLength="0/1"  />
                     <InterpolatingParam id="2313" interp="linr"  time="-9999999/1" value="0" leadInLength="0/1"  />
                    </VectorParam>
                    <VectorParam id="2314"  name="shear">
                     <InterpolatingParam id="2315" interp="linr"  time="-9999999/1" value="0" leadInLength="0/1"  />
                     <InterpolatingParam id="2316" interp="linr"  time="-9999999/1" value="0" leadInLength="0/1"  />
                     <InterpolatingParam id="2317" interp="linr"  time="-9999999/1" value="0" leadInLength="0/1"  />
                    </VectorParam>
                    <VectorParam id="2318"  name="scale">
                     <InterpolatingParam id="2319" interp="linr"  time="-9999999/1" value="1" leadInLength="0/1"  />
                     <InterpolatingParam id="2320" interp="linr"  time="-9999999/1" value="1" leadInLength="0/1"  />
                     <InterpolatingParam id="2321" interp="linr"  time="-9999999/1" value="1" leadInLength="0/1"  />
                    </VectorParam>
                    <VectorParam id="2322"  name="anchor">
                     <InterpolatingParam id="2323" interp="linr"  time="0/1" value="0" leadInLength="0/1"  />
                     <InterpolatingParam id="2324" interp="linr"  time="0/1" value="0" leadInLength="0/1"  />
                     <InterpolatingParam id="2325" interp="linr"  time="0/1" value="0" leadInLength="0/1"  />
                    </VectorParam>
                   </Transformer>
                   <Parameters>
                    <VectorParam id="2326"  name="sourceCrop">
                     <InterpolatingParam id="2327" interp="linr"  time="0/1" value="0" leadInLength="0/1"  />
                     <InterpolatingParam id="2328" interp="linr"  time="0/1" value="0" leadInLength="0/1"  />
                     <InterpolatingParam id="2329" interp="linr"  time="0/1" value="0" leadInLength="0/1"  />
                     <InterpolatingParam id="2330" interp="linr"  time="0/1" value="0" leadInLength="0/1"  />
                    </VectorParam>
                    <VectorParam id="2331"  name="geometryCrop">
                     <InterpolatingParam id="2332" interp="linr"  time="-9999999/1" value="0" leadInLength="0/1"  />
                     <InterpolatingParam id="2333" interp="linr"  time="-9999999/1" value="0" leadInLength="0/1"  />
                     <InterpolatingParam id="2334" interp="linr"  time="-9999999/1" value="0" leadInLength="0/1"  />
                     <InterpolatingParam id="2335" interp="linr"  time="-9999999/1" value="0" leadInLength="0/1"  />
                    </VectorParam>
                    <InterpolatingParam id="2336" interp="linr"  time="-9999999/1" value="1" leadInLength="0/1"  name="opacity"/>
                    <InterpolatingParam id="2337" interp="linr"  time="0/1" value="0" leadInLength="0/1"  name="cursorOpacity"/>
                    <InterpolatingParam id="2338" interp="linr"  time="0/1" value="0" leadInLength="0/1"  name="cursorScale"/>
                   </Parameters>
                   <Attributes>
                    <Attribute id="2339" value="" name="ident"/>
                   </Attributes>
                   <ExtraData>
                    <Entry key="ZoomPanBin">
                     <ZoomPanBin id="2340"  >
                      <ZoomPanKeyframes>
                       <ZoomPanKeyframe id="2341" timeRangeEnd="-9999999/1" timeRangeDuration="0/1" interpolaterName="linr"  />
                      </ZoomPanKeyframes>
                     </ZoomPanBin>
                    </Entry>
                    <Entry key="CursorEffectBin">
                     <CursorEffectBin id="2342"  >
                      <CursorEffectKeyframes>
                      </CursorEffectKeyframes>
                     </CursorEffectBin>
                    </Entry>
                   </ExtraData>
                  </ScreenVMFile>
                  <MetaData>
                   <entry key="AutoAppliedSmartFocus" val="False"/>
                   <entry key="WinSubProjectDisplayName" val=""/>
                  </MetaData>
                 </UnifiedMedia>
                 <UnifiedMedia id="2343"  >
                  <AMFile id="2344" start="1044" duration="23" scalar="1/1" mediaStart="1059/1" mediaDuration="23/1" trackNumber="1" src="13" channelNumber="0,1" >
                   <Parameters>
                    <InterpolatingParam id="2345" interp="linr"  time="0/1" value="1" leadInLength="0/1"  name="volume"/>
                    <Parameter id="2346"  name="captions"/>
                   </Parameters>
                   <Attributes>
                    <Attribute id="2347" value="" name="ident"/>
                    <Attribute id="2348" value="44100" name="sampleRate"/>
                    <Attribute id="2349" value="16" name="bitDepth"/>
                    <Attribute id="2350" value="1" name="gain"/>
                    <Attribute id="2351" value="0" name="mixToMono"/>
                   </Attributes>
                  </AMFile>
                  <ScreenVMFile id="2352" start="1044" duration="23" scalar="1/1" mediaStart="1059/1" mediaDuration="23/1" trackNumber="0" src="13" >
                   <Transformer>
                    <VectorParam id="2353"  name="translation">
                     <InterpolatingParam id="2354" interp="linr"  time="-9999999/1" value="0" leadInLength="0/1"  />
                     <InterpolatingParam id="2355" interp="linr"  time="-9999999/1" value="0" leadInLength="0/1"  />
                     <InterpolatingParam id="2356" interp="linr"  time="-9999999/1" value="0" leadInLength="0/1"  />
                    </VectorParam>
                    <VectorParam id="2357"  name="rotation">
                     <InterpolatingParam id="2358" interp="linr"  time="-9999999/1" value="0" leadInLength="0/1"  />
                     <InterpolatingParam id="2359" interp="linr"  time="-9999999/1" value="0" leadInLength="0/1"  />
                     <InterpolatingParam id="2360" interp="linr"  time="-9999999/1" value="0" leadInLength="0/1"  />
                    </VectorParam>
                    <VectorParam id="2361"  name="shear">
                     <InterpolatingParam id="2362" interp="linr"  time="-9999999/1" value="0" leadInLength="0/1"  />
                     <InterpolatingParam id="2363" interp="linr"  time="-9999999/1" value="0" leadInLength="0/1"  />
                     <InterpolatingParam id="2364" interp="linr"  time="-9999999/1" value="0" leadInLength="0/1"  />
                    </VectorParam>
                    <VectorParam id="2365"  name="scale">
                     <InterpolatingParam id="2366" interp="linr"  time="-9999999/1" value="1" leadInLength="0/1"  />
                     <InterpolatingParam id="2367" interp="linr"  time="-9999999/1" value="1" leadInLength="0/1"  />
                     <InterpolatingParam id="2368" interp="linr"  time="-9999999/1" value="1" leadInLength="0/1"  />
                    </VectorParam>
                    <VectorParam id="2369"  name="anchor">
                     <InterpolatingParam id="2370" interp="linr"  time="0/1" value="0" leadInLength="0/1"  />
                     <InterpolatingParam id="2371" interp="linr"  time="0/1" value="0" leadInLength="0/1"  />
                     <InterpolatingParam id="2372" interp="linr"  time="0/1" value="0" leadInLength="0/1"  />
                    </VectorParam>
                   </Transformer>
                   <Parameters>
                    <VectorParam id="2373"  name="sourceCrop">
                     <InterpolatingParam id="2374" interp="linr"  time="0/1" value="0" leadInLength="0/1"  />
                     <InterpolatingParam id="2375" interp="linr"  time="0/1" value="0" leadInLength="0/1"  />
                     <InterpolatingParam id="2376" interp="linr"  time="0/1" value="0" leadInLength="0/1"  />
                     <InterpolatingParam id="2377" interp="linr"  time="0/1" value="0" leadInLength="0/1"  />
                    </VectorParam>
                    <VectorParam id="2378"  name="geometryCrop">
                     <InterpolatingParam id="2379" interp="linr"  time="-9999999/1" value="0" leadInLength="0/1"  />
                     <InterpolatingParam id="2380" interp="linr"  time="-9999999/1" value="0" leadInLength="0/1"  />
                     <InterpolatingParam id="2381" interp="linr"  time="-9999999/1" value="0" leadInLength="0/1"  />
                     <InterpolatingParam id="2382" interp="linr"  time="-9999999/1" value="0" leadInLength="0/1"  />
                    </VectorParam>
                    <InterpolatingParam id="2383" interp="linr"  time="-9999999/1" value="1" leadInLength="0/1"  name="opacity"/>
                    <InterpolatingParam id="2384" interp="linr"  time="0/1" value="0" leadInLength="0/1"  name="cursorOpacity"/>
                    <InterpolatingParam id="2385" interp="linr"  time="0/1" value="0" leadInLength="0/1"  name="cursorScale"/>
                   </Parameters>
                   <Attributes>
                    <Attribute id="2386" value="" name="ident"/>
                   </Attributes>
                   <ExtraData>
                    <Entry key="ZoomPanBin">
                     <ZoomPanBin id="2387"  >
                      <ZoomPanKeyframes>
                       <ZoomPanKeyframe id="2388" timeRangeEnd="-9999999/1" timeRangeDuration="0/1" interpolaterName="linr"  />
                      </ZoomPanKeyframes>
                     </ZoomPanBin>
                    </Entry>
                    <Entry key="CursorEffectBin">
                     <CursorEffectBin id="2389"  >
                      <CursorEffectKeyframes>
                      </CursorEffectKeyframes>
                     </CursorEffectBin>
                    </Entry>
                   </ExtraData>
                  </ScreenVMFile>
                  <MetaData>
                   <entry key="AutoAppliedSmartFocus" val="False"/>
                   <entry key="WinSubProjectDisplayName" val=""/>
                  </MetaData>
                 </UnifiedMedia>
                 <UnifiedMedia id="2390"  >
                  <AMFile id="2391" start="1067" duration="160" scalar="1/1" mediaStart="1562/1" mediaDuration="160/1" trackNumber="1" src="13" channelNumber="0,1" >
                   <Parameters>
                    <InterpolatingParam id="2392" interp="linr"  time="0/1" value="1" leadInLength="0/1"  name="volume"/>
                    <Parameter id="2393"  name="captions"/>
                   </Parameters>
                   <Attributes>
                    <Attribute id="2394" value="" name="ident"/>
                    <Attribute id="2395" value="44100" name="sampleRate"/>
                    <Attribute id="2396" value="16" name="bitDepth"/>
                    <Attribute id="2397" value="1" name="gain"/>
                    <Attribute id="2398" value="0" name="mixToMono"/>
                   </Attributes>
                  </AMFile>
                  <ScreenVMFile id="2399" start="1067" duration="160" scalar="1/1" mediaStart="1562/1" mediaDuration="160/1" trackNumber="0" src="13" >
                   <Transformer>
                    <VectorParam id="2400"  name="translation">
                     <InterpolatingParam id="2401" interp="linr"  time="-9999999/1" value="0" leadInLength="0/1"  />
                     <InterpolatingParam id="2402" interp="linr"  time="-9999999/1" value="0" leadInLength="0/1"  />
                     <InterpolatingParam id="2403" interp="linr"  time="-9999999/1" value="0" leadInLength="0/1"  />
                    </VectorParam>
                    <VectorParam id="2404"  name="rotation">
                     <InterpolatingParam id="2405" interp="linr"  time="-9999999/1" value="0" leadInLength="0/1"  />
                     <InterpolatingParam id="2406" interp="linr"  time="-9999999/1" value="0" leadInLength="0/1"  />
                     <InterpolatingParam id="2407" interp="linr"  time="-9999999/1" value="0" leadInLength="0/1"  />
                    </VectorParam>
                    <VectorParam id="2408"  name="shear">
                     <InterpolatingParam id="2409" interp="linr"  time="-9999999/1" value="0" leadInLength="0/1"  />
                     <InterpolatingParam id="2410" interp="linr"  time="-9999999/1" value="0" leadInLength="0/1"  />
                     <InterpolatingParam id="2411" interp="linr"  time="-9999999/1" value="0" leadInLength="0/1"  />
                    </VectorParam>
                    <VectorParam id="2412"  name="scale">
                     <InterpolatingParam id="2413" interp="linr"  time="-9999999/1" value="1" leadInLength="0/1"  />
                     <InterpolatingParam id="2414" interp="linr"  time="-9999999/1" value="1" leadInLength="0/1"  />
                     <InterpolatingParam id="2415" interp="linr"  time="-9999999/1" value="1" leadInLength="0/1"  />
                    </VectorParam>
                    <VectorParam id="2416"  name="anchor">
                     <InterpolatingParam id="2417" interp="linr"  time="0/1" value="0" leadInLength="0/1"  />
                     <InterpolatingParam id="2418" interp="linr"  time="0/1" value="0" leadInLength="0/1"  />
                     <InterpolatingParam id="2419" interp="linr"  time="0/1" value="0" leadInLength="0/1"  />
                    </VectorParam>
                   </Transformer>
                   <Parameters>
                    <VectorParam id="2420"  name="sourceCrop">
                     <InterpolatingParam id="2421" interp="linr"  time="0/1" value="0" leadInLength="0/1"  />
                     <InterpolatingParam id="2422" interp="linr"  time="0/1" value="0" leadInLength="0/1"  />
                     <InterpolatingParam id="2423" interp="linr"  time="0/1" value="0" leadInLength="0/1"  />
                     <InterpolatingParam id="2424" interp="linr"  time="0/1" value="0" leadInLength="0/1"  />
                    </VectorParam>
                    <VectorParam id="2425"  name="geometryCrop">
                     <InterpolatingParam id="2426" interp="linr"  time="-9999999/1" value="0" leadInLength="0/1"  />
                     <InterpolatingParam id="2427" interp="linr"  time="-9999999/1" value="0" leadInLength="0/1"  />
                     <InterpolatingParam id="2428" interp="linr"  time="-9999999/1" value="0" leadInLength="0/1"  />
                     <InterpolatingParam id="2429" interp="linr"  time="-9999999/1" value="0" leadInLength="0/1"  />
                    </VectorParam>
                    <InterpolatingParam id="2430" interp="linr"  time="-9999999/1" value="1" leadInLength="0/1"  name="opacity"/>
                    <InterpolatingParam id="2431" interp="linr"  time="0/1" value="0" leadInLength="0/1"  name="cursorOpacity"/>
                    <InterpolatingParam id="2432" interp="linr"  time="0/1" value="0" leadInLength="0/1"  name="cursorScale"/>
                   </Parameters>
                   <Attributes>
                    <Attribute id="2433" value="" name="ident"/>
                   </Attributes>
                   <ExtraData>
                    <Entry key="ZoomPanBin">
                     <ZoomPanBin id="2434"  >
                      <ZoomPanKeyframes>
                       <ZoomPanKeyframe id="2435" timeRangeEnd="-9999999/1" timeRangeDuration="0/1" interpolaterName="linr"  />
                      </ZoomPanKeyframes>
                     </ZoomPanBin>
                    </Entry>
                    <Entry key="CursorEffectBin">
                     <CursorEffectBin id="2436"  >
                      <CursorEffectKeyframes>
                      </CursorEffectKeyframes>
                     </CursorEffectBin>
                    </Entry>
                   </ExtraData>
                  </ScreenVMFile>
                  <MetaData>
                   <entry key="AutoAppliedSmartFocus" val="False"/>
                   <entry key="WinSubProjectDisplayName" val=""/>
                  </MetaData>
                 </UnifiedMedia>
                 <UnifiedMedia id="2437"  >
                  <AMFile id="2438" start="1227" duration="258" scalar="1/1" mediaStart="1847/1" mediaDuration="258/1" trackNumber="1" src="13" channelNumber="0,1" >
                   <Parameters>
                    <InterpolatingParam id="2439" interp="linr"  time="0/1" value="1" leadInLength="0/1"  name="volume"/>
                    <Parameter id="2440"  name="captions"/>
                   </Parameters>
                   <Attributes>
                    <Attribute id="2441" value="" name="ident"/>
                    <Attribute id="2442" value="44100" name="sampleRate"/>
                    <Attribute id="2443" value="16" name="bitDepth"/>
                    <Attribute id="2444" value="1" name="gain"/>
                    <Attribute id="2445" value="0" name="mixToMono"/>
                   </Attributes>
                  </AMFile>
                  <ScreenVMFile id="2446" start="1227" duration="258" scalar="1/1" mediaStart="1847/1" mediaDuration="258/1" trackNumber="0" src="13" >
                   <Transformer>
                    <VectorParam id="2447"  name="translation">
                     <InterpolatingParam id="2448" interp="linr"  time="-9999999/1" value="0" leadInLength="0/1"  />
                     <InterpolatingParam id="2449" interp="linr"  time="-9999999/1" value="0" leadInLength="0/1"  />
                     <InterpolatingParam id="2450" interp="linr"  time="-9999999/1" value="0" leadInLength="0/1"  />
                    </VectorParam>
                    <VectorParam id="2451"  name="rotation">
                     <InterpolatingParam id="2452" interp="linr"  time="-9999999/1" value="0" leadInLength="0/1"  />
                     <InterpolatingParam id="2453" interp="linr"  time="-9999999/1" value="0" leadInLength="0/1"  />
                     <InterpolatingParam id="2454" interp="linr"  time="-9999999/1" value="0" leadInLength="0/1"  />
                    </VectorParam>
                    <VectorParam id="2455"  name="shear">
                     <InterpolatingParam id="2456" interp="linr"  time="-9999999/1" value="0" leadInLength="0/1"  />
                     <InterpolatingParam id="2457" interp="linr"  time="-9999999/1" value="0" leadInLength="0/1"  />
                     <InterpolatingParam id="2458" interp="linr"  time="-9999999/1" value="0" leadInLength="0/1"  />
                    </VectorParam>
                    <VectorParam id="2459"  name="scale">
                     <InterpolatingParam id="2460" interp="linr"  time="-9999999/1" value="1" leadInLength="0/1"  />
                     <InterpolatingParam id="2461" interp="linr"  time="-9999999/1" value="1" leadInLength="0/1"  />
                     <InterpolatingParam id="2462" interp="linr"  time="-9999999/1" value="1" leadInLength="0/1"  />
                    </VectorParam>
                    <VectorParam id="2463"  name="anchor">
                     <InterpolatingParam id="2464" interp="linr"  time="0/1" value="0" leadInLength="0/1"  />
                     <InterpolatingParam id="2465" interp="linr"  time="0/1" value="0" leadInLength="0/1"  />
                     <InterpolatingParam id="2466" interp="linr"  time="0/1" value="0" leadInLength="0/1"  />
                    </VectorParam>
                   </Transformer>
                   <Parameters>
                    <VectorParam id="2467"  name="sourceCrop">
                     <InterpolatingParam id="2468" interp="linr"  time="0/1" value="0" leadInLength="0/1"  />
                     <InterpolatingParam id="2469" interp="linr"  time="0/1" value="0" leadInLength="0/1"  />
                     <InterpolatingParam id="2470" interp="linr"  time="0/1" value="0" leadInLength="0/1"  />
                     <InterpolatingParam id="2471" interp="linr"  time="0/1" value="0" leadInLength="0/1"  />
                    </VectorParam>
                    <VectorParam id="2472"  name="geometryCrop">
                     <InterpolatingParam id="2473" interp="linr"  time="-9999999/1" value="0" leadInLength="0/1"  />
                     <InterpolatingParam id="2474" interp="linr"  time="-9999999/1" value="0" leadInLength="0/1"  />
                     <InterpolatingParam id="2475" interp="linr"  time="-9999999/1" value="0" leadInLength="0/1"  />
                     <InterpolatingParam id="2476" interp="linr"  time="-9999999/1" value="0" leadInLength="0/1"  />
                    </VectorParam>
                    <InterpolatingParam id="2477" interp="linr"  time="-9999999/1" value="1" leadInLength="0/1"  name="opacity"/>
                    <InterpolatingParam id="2478" interp="linr"  time="0/1" value="0" leadInLength="0/1"  name="cursorOpacity"/>
                    <InterpolatingParam id="2479" interp="linr"  time="0/1" value="0" leadInLength="0/1"  name="cursorScale"/>
                   </Parameters>
                   <Attributes>
                    <Attribute id="2480" value="" name="ident"/>
                   </Attributes>
                   <ExtraData>
                    <Entry key="ZoomPanBin">
                     <ZoomPanBin id="2481"  >
                      <ZoomPanKeyframes>
                       <ZoomPanKeyframe id="2482" timeRangeEnd="-9999999/1" timeRangeDuration="0/1" interpolaterName="linr"  />
                      </ZoomPanKeyframes>
                     </ZoomPanBin>
                    </Entry>
                    <Entry key="CursorEffectBin">
                     <CursorEffectBin id="2483"  >
                      <CursorEffectKeyframes>
                      </CursorEffectKeyframes>
                     </CursorEffectBin>
                    </Entry>
                   </ExtraData>
                  </ScreenVMFile>
                  <MetaData>
                   <entry key="AutoAppliedSmartFocus" val="False"/>
                   <entry key="WinSubProjectDisplayName" val=""/>
                  </MetaData>
                 </UnifiedMedia>
                 <UnifiedMedia id="2484"  >
                  <AMFile id="2485" start="1485" duration="616" scalar="1/1" mediaStart="2172/1" mediaDuration="616/1" trackNumber="1" src="13" channelNumber="0,1" >
                   <Parameters>
                    <InterpolatingParam id="2486" interp="linr"  time="0/1" value="1" leadInLength="0/1"  name="volume"/>
                    <Parameter id="2487"  name="captions"/>
                   </Parameters>
                   <Attributes>
                    <Attribute id="2488" value="" name="ident"/>
                    <Attribute id="2489" value="44100" name="sampleRate"/>
                    <Attribute id="2490" value="16" name="bitDepth"/>
                    <Attribute id="2491" value="1" name="gain"/>
                    <Attribute id="2492" value="0" name="mixToMono"/>
                   </Attributes>
                  </AMFile>
                  <ScreenVMFile id="2493" start="1485" duration="616" scalar="1/1" mediaStart="2172/1" mediaDuration="616/1" trackNumber="0" src="13" >
                   <Transformer>
                    <VectorParam id="2494"  name="translation">
                     <InterpolatingParam id="2495" interp="linr"  time="-9999999/1" value="0" leadInLength="0/1"  />
                     <InterpolatingParam id="2496" interp="linr"  time="-9999999/1" value="0" leadInLength="0/1"  />
                     <InterpolatingParam id="2497" interp="linr"  time="-9999999/1" value="0" leadInLength="0/1"  />
                    </VectorParam>
                    <VectorParam id="2498"  name="rotation">
                     <InterpolatingParam id="2499" interp="linr"  time="-9999999/1" value="0" leadInLength="0/1"  />
                     <InterpolatingParam id="2500" interp="linr"  time="-9999999/1" value="0" leadInLength="0/1"  />
                     <InterpolatingParam id="2501" interp="linr"  time="-9999999/1" value="0" leadInLength="0/1"  />
                    </VectorParam>
                    <VectorParam id="2502"  name="shear">
                     <InterpolatingParam id="2503" interp="linr"  time="-9999999/1" value="0" leadInLength="0/1"  />
                     <InterpolatingParam id="2504" interp="linr"  time="-9999999/1" value="0" leadInLength="0/1"  />
                     <InterpolatingParam id="2505" interp="linr"  time="-9999999/1" value="0" leadInLength="0/1"  />
                    </VectorParam>
                    <VectorParam id="2506"  name="scale">
                     <InterpolatingParam id="2507" interp="linr"  time="-9999999/1" value="1" leadInLength="0/1"  />
                     <InterpolatingParam id="2508" interp="linr"  time="-9999999/1" value="1" leadInLength="0/1"  />
                     <InterpolatingParam id="2509" interp="linr"  time="-9999999/1" value="1" leadInLength="0/1"  />
                    </VectorParam>
                    <VectorParam id="2510"  name="anchor">
                     <InterpolatingParam id="2511" interp="linr"  time="0/1" value="0" leadInLength="0/1"  />
                     <InterpolatingParam id="2512" interp="linr"  time="0/1" value="0" leadInLength="0/1"  />
                     <InterpolatingParam id="2513" interp="linr"  time="0/1" value="0" leadInLength="0/1"  />
                    </VectorParam>
                   </Transformer>
                   <Parameters>
                    <VectorParam id="2514"  name="sourceCrop">
                     <InterpolatingParam id="2515" interp="linr"  time="0/1" value="0" leadInLength="0/1"  />
                     <InterpolatingParam id="2516" interp="linr"  time="0/1" value="0" leadInLength="0/1"  />
                     <InterpolatingParam id="2517" interp="linr"  time="0/1" value="0" leadInLength="0/1"  />
                     <InterpolatingParam id="2518" interp="linr"  time="0/1" value="0" leadInLength="0/1"  />
                    </VectorParam>
                    <VectorParam id="2519"  name="geometryCrop">
                     <InterpolatingParam id="2520" interp="linr"  time="-9999999/1" value="0" leadInLength="0/1"  />
                     <InterpolatingParam id="2521" interp="linr"  time="-9999999/1" value="0" leadInLength="0/1"  />
                     <InterpolatingParam id="2522" interp="linr"  time="-9999999/1" value="0" leadInLength="0/1"  />
                     <InterpolatingParam id="2523" interp="linr"  time="-9999999/1" value="0" leadInLength="0/1"  />
                    </VectorParam>
                    <InterpolatingParam id="2524" interp="linr"  time="-9999999/1" value="1" leadInLength="0/1"  name="opacity"/>
                    <InterpolatingParam id="2525" interp="linr"  time="0/1" value="0" leadInLength="0/1"  name="cursorOpacity"/>
                    <InterpolatingParam id="2526" interp="linr"  time="0/1" value="0" leadInLength="0/1"  name="cursorScale"/>
                   </Parameters>
                   <Attributes>
                    <Attribute id="2527" value="" name="ident"/>
                   </Attributes>
                   <ExtraData>
                    <Entry key="ZoomPanBin">
                     <ZoomPanBin id="2528"  >
                      <ZoomPanKeyframes>
                       <ZoomPanKeyframe id="2529" timeRangeEnd="-9999999/1" timeRangeDuration="0/1" interpolaterName="linr"  />
                      </ZoomPanKeyframes>
                     </ZoomPanBin>
                    </Entry>
                    <Entry key="CursorEffectBin">
                     <CursorEffectBin id="2530"  >
                      <CursorEffectKeyframes>
                      </CursorEffectKeyframes>
                     </CursorEffectBin>
                    </Entry>
                   </ExtraData>
                  </ScreenVMFile>
                  <MetaData>
                   <entry key="AutoAppliedSmartFocus" val="False"/>
                   <entry key="WinSubProjectDisplayName" val=""/>
                  </MetaData>
                 </UnifiedMedia>
                 <UnifiedMedia id="2531"  >
                  <AMFile id="2532" start="2101" duration="389" scalar="1/1" mediaStart="2852/1" mediaDuration="389/1" trackNumber="1" src="13" channelNumber="0,1" >
                   <Parameters>
                    <InterpolatingParam id="2533" interp="linr"  time="0/1" value="1" leadInLength="0/1"  name="volume"/>
                    <Parameter id="2534"  name="captions"/>
                   </Parameters>
                   <Attributes>
                    <Attribute id="2535" value="" name="ident"/>
                    <Attribute id="2536" value="44100" name="sampleRate"/>
                    <Attribute id="2537" value="16" name="bitDepth"/>
                    <Attribute id="2538" value="1" name="gain"/>
                    <Attribute id="2539" value="0" name="mixToMono"/>
                   </Attributes>
                  </AMFile>
                  <ScreenVMFile id="2540" start="2101" duration="389" scalar="1/1" mediaStart="2852/1" mediaDuration="389/1" trackNumber="0" src="13" >
                   <Transformer>
                    <VectorParam id="2541"  name="translation">
                     <InterpolatingParam id="2542" interp="linr"  time="-9999999/1" value="0" leadInLength="0/1"  />
                     <InterpolatingParam id="2543" interp="linr"  time="-9999999/1" value="0" leadInLength="0/1"  />
                     <InterpolatingParam id="2544" interp="linr"  time="-9999999/1" value="0" leadInLength="0/1"  />
                    </VectorParam>
                    <VectorParam id="2545"  name="rotation">
                     <InterpolatingParam id="2546" interp="linr"  time="-9999999/1" value="0" leadInLength="0/1"  />
                     <InterpolatingParam id="2547" interp="linr"  time="-9999999/1" value="0" leadInLength="0/1"  />
                     <InterpolatingParam id="2548" interp="linr"  time="-9999999/1" value="0" leadInLength="0/1"  />
                    </VectorParam>
                    <VectorParam id="2549"  name="shear">
                     <InterpolatingParam id="2550" interp="linr"  time="-9999999/1" value="0" leadInLength="0/1"  />
                     <InterpolatingParam id="2551" interp="linr"  time="-9999999/1" value="0" leadInLength="0/1"  />
                     <InterpolatingParam id="2552" interp="linr"  time="-9999999/1" value="0" leadInLength="0/1"  />
                    </VectorParam>
                    <VectorParam id="2553"  name="scale">
                     <InterpolatingParam id="2554" interp="linr"  time="-9999999/1" value="1" leadInLength="0/1"  />
                     <InterpolatingParam id="2555" interp="linr"  time="-9999999/1" value="1" leadInLength="0/1"  />
                     <InterpolatingParam id="2556" interp="linr"  time="-9999999/1" value="1" leadInLength="0/1"  />
                    </VectorParam>
                    <VectorParam id="2557"  name="anchor">
                     <InterpolatingParam id="2558" interp="linr"  time="0/1" value="0" leadInLength="0/1"  />
                     <InterpolatingParam id="2559" interp="linr"  time="0/1" value="0" leadInLength="0/1"  />
                     <InterpolatingParam id="2560" interp="linr"  time="0/1" value="0" leadInLength="0/1"  />
                    </VectorParam>
                   </Transformer>
                   <Parameters>
                    <VectorParam id="2561"  name="sourceCrop">
                     <InterpolatingParam id="2562" interp="linr"  time="0/1" value="0" leadInLength="0/1"  />
                     <InterpolatingParam id="2563" interp="linr"  time="0/1" value="0" leadInLength="0/1"  />
                     <InterpolatingParam id="2564" interp="linr"  time="0/1" value="0" leadInLength="0/1"  />
                     <InterpolatingParam id="2565" interp="linr"  time="0/1" value="0" leadInLength="0/1"  />
                    </VectorParam>
                    <VectorParam id="2566"  name="geometryCrop">
                     <InterpolatingParam id="2567" interp="linr"  time="-9999999/1" value="0" leadInLength="0/1"  />
                     <InterpolatingParam id="2568" interp="linr"  time="-9999999/1" value="0" leadInLength="0/1"  />
                     <InterpolatingParam id="2569" interp="linr"  time="-9999999/1" value="0" leadInLength="0/1"  />
                     <InterpolatingParam id="2570" interp="linr"  time="-9999999/1" value="0" leadInLength="0/1"  />
                    </VectorParam>
                    <InterpolatingParam id="2571" interp="linr"  time="-9999999/1" value="1" leadInLength="0/1"  name="opacity"/>
                    <InterpolatingParam id="2572" interp="linr"  time="0/1" value="0" leadInLength="0/1"  name="cursorOpacity"/>
                    <InterpolatingParam id="2573" interp="linr"  time="0/1" value="0" leadInLength="0/1"  name="cursorScale"/>
                   </Parameters>
                   <Attributes>
                    <Attribute id="2574" value="" name="ident"/>
                   </Attributes>
                   <ExtraData>
                    <Entry key="ZoomPanBin">
                     <ZoomPanBin id="2575"  >
                      <ZoomPanKeyframes>
                       <ZoomPanKeyframe id="2576" timeRangeEnd="-9999999/1" timeRangeDuration="0/1" interpolaterName="linr"  />
                      </ZoomPanKeyframes>
                     </ZoomPanBin>
                    </Entry>
                    <Entry key="CursorEffectBin">
                     <CursorEffectBin id="2577"  >
                      <CursorEffectKeyframes>
                      </CursorEffectKeyframes>
                     </CursorEffectBin>
                    </Entry>
                   </ExtraData>
                  </ScreenVMFile>
                  <MetaData>
                   <entry key="AutoAppliedSmartFocus" val="False"/>
                   <entry key="WinSubProjectDisplayName" val=""/>
                  </MetaData>
                 </UnifiedMedia>
                </Medias>
               </GenericTrack>
              </StitchedMedia>
             </Medias>
            </GenericTrack>
           </Tracks>
          </GenericMixer>
          <MetaData>
           <entry key="IsGroupExpanded" val="False"/>
           <entry key="WinGroupOrigin" val="Asset"/>
           <entry key="WinSubProjectDisplayName" val="a"/>
          </MetaData>
          <ExtraData>
           <Entry key="ZoomPanBin">
            <ZoomPanBin id="2578"  >
             <ZoomPanKeyframes>
              <ZoomPanKeyframe id="2579" timeRangeEnd="-9999999/1" timeRangeDuration="0/1" interpolaterName="linr"  />
             </ZoomPanKeyframes>
            </ZoomPanBin>
           </Entry>
          </ExtraData>
         </Group>
         <Group id="2580" start="15817" duration="28077" scalar="1" mediaStart="0" mediaDuration="28077" baseWidthAttr="0" baseHeightAttr="0"  >
          <Parameters>
           <VectorParam id="2581"  name="sourceCrop">
            <InterpolatingParam id="2582" interp="linr"  time="0/1" value="0" leadInLength="0/1"  />
            <InterpolatingParam id="2583" interp="linr"  time="0/1" value="0" leadInLength="0/1"  />
            <InterpolatingParam id="2584" interp="linr"  time="0/1" value="0" leadInLength="0/1"  />
            <InterpolatingParam id="2585" interp="linr"  time="0/1" value="0" leadInLength="0/1"  />
           </VectorParam>
           <VectorParam id="2586"  name="geometryCrop">
            <InterpolatingParam id="2587" interp="linr"  time="-9999999/1" value="0" leadInLength="0/1"  />
            <InterpolatingParam id="2588" interp="linr"  time="-9999999/1" value="0" leadInLength="0/1"  />
            <InterpolatingParam id="2589" interp="linr"  time="-9999999/1" value="0" leadInLength="0/1"  />
            <InterpolatingParam id="2590" interp="linr"  time="-9999999/1" value="0" leadInLength="0/1"  />
           </VectorParam>
           <InterpolatingParam id="2591" interp="linr"  time="-9999999/1" value="1" leadInLength="0/1"  name="opacity"/>
           <Parameter id="2592"  name="captions"/>
           <InterpolatingParam id="2593" interp="linr"  time="0/1" value="1" leadInLength="0/1"  name="volume"/>
          </Parameters>
          <Transformer>
           <VectorParam id="2594"  name="translation">
            <InterpolatingParam id="2595" interp="linr"  time="-9999999/1" value="0" leadInLength="0/1"  />
            <InterpolatingParam id="2596" interp="linr"  time="-9999999/1" value="0" leadInLength="0/1"  />
            <InterpolatingParam id="2597" interp="linr"  time="-9999999/1" value="0" leadInLength="0/1"  />
           </VectorParam>
           <VectorParam id="2598"  name="rotation">
            <InterpolatingParam id="2599" interp="linr"  time="-9999999/1" value="0" leadInLength="0/1"  />
            <InterpolatingParam id="2600" interp="linr"  time="-9999999/1" value="0" leadInLength="0/1"  />
            <InterpolatingParam id="2601" interp="linr"  time="-9999999/1" value="0" leadInLength="0/1"  />
           </VectorParam>
           <VectorParam id="2602"  name="shear">
            <InterpolatingParam id="2603" interp="linr"  time="-9999999/1" value="0" leadInLength="0/1"  />
            <InterpolatingParam id="2604" interp="linr"  time="-9999999/1" value="0" leadInLength="0/1"  />
            <InterpolatingParam id="2605" interp="linr"  time="-9999999/1" value="0" leadInLength="0/1"  />
           </VectorParam>
           <VectorParam id="2606"  name="scale">
            <InterpolatingParam id="2607" interp="linr"  time="-9999999/1" value="1" leadInLength="0/1"  />
            <InterpolatingParam id="2608" interp="linr"  time="-9999999/1" value="1" leadInLength="0/1"  />
            <InterpolatingParam id="2609" interp="linr"  time="-9999999/1" value="1" leadInLength="0/1"  />
           </VectorParam>
           <VectorParam id="2610"  name="anchor">
            <InterpolatingParam id="2611" interp="linr"  time="0/1" value="0" leadInLength="0/1"  />
            <InterpolatingParam id="2612" interp="linr"  time="0/1" value="0" leadInLength="0/1"  />
            <InterpolatingParam id="2613" interp="linr"  time="0/1" value="0" leadInLength="0/1"  />
           </VectorParam>
          </Transformer>
          <GenericMixer id="2614"  >
           <MetaData>
           </MetaData>
           <Tracks>
            <GenericTrack id="2615"  >
             <Attributes>
              <Attribute id="2616" value="" name="ident"/>
              <Attribute id="2617" value="0" name="audioMuted"/>
              <Attribute id="2618" value="0" name="videoHidden"/>
             </Attributes>
             <MetaData>
              <entry key="IsLocked" val="False"/>
              <entry key="WinTrackHeight" val="0"/>
             </MetaData>
             <Medias>
              <StitchedMedia id="2619" start="0" duration="28077" scalar="1/1" mediaStart="0/1" mediaDuration="28077/1" minMediaStart="0/1" >
               <Transformer>
                <VectorParam id="2620"  name="translation">
                 <InterpolatingParam id="2621" interp="linr"  time="0/1" value="0" leadInLength="0/1"  />
                 <InterpolatingParam id="2622" interp="linr"  time="0/1" value="0" leadInLength="0/1"  />
                 <InterpolatingParam id="2623" interp="linr"  time="0/1" value="0" leadInLength="0/1"  />
                </VectorParam>
                <VectorParam id="2624"  name="rotation">
                 <InterpolatingParam id="2625" interp="linr"  time="0/1" value="0" leadInLength="0/1"  />
                 <InterpolatingParam id="2626" interp="linr"  time="0/1" value="0" leadInLength="0/1"  />
                 <InterpolatingParam id="2627" interp="linr"  time="0/1" value="0" leadInLength="0/1"  />
                </VectorParam>
                <VectorParam id="2628"  name="shear">
                 <InterpolatingParam id="2629" interp="linr"  time="0/1" value="0" leadInLength="0/1"  />
                 <InterpolatingParam id="2630" interp="linr"  time="0/1" value="0" leadInLength="0/1"  />
                 <InterpolatingParam id="2631" interp="linr"  time="0/1" value="0" leadInLength="0/1"  />
                </VectorParam>
                <VectorParam id="2632"  name="scale">
                 <InterpolatingParam id="2633" interp="linr"  time="0/1" value="1" leadInLength="0/1"  />
                 <InterpolatingParam id="2634" interp="linr"  time="0/1" value="1" leadInLength="0/1"  />
                 <InterpolatingParam id="2635" interp="linr"  time="0/1" value="1" leadInLength="0/1"  />
                </VectorParam>
                <VectorParam id="2636"  name="anchor">
                 <InterpolatingParam id="2637" interp="linr"  time="0/1" value="0" leadInLength="0/1"  />
                 <InterpolatingParam id="2638" interp="linr"  time="0/1" value="0" leadInLength="0/1"  />
                 <InterpolatingParam id="2639" interp="linr"  time="0/1" value="0" leadInLength="0/1"  />
                </VectorParam>
               </Transformer>
               <Parameters>
                <InterpolatingParam id="2640" interp="linr"  time="0/1" value="1" leadInLength="0/1"  name="cursorOpacity"/>
                <InterpolatingParam id="2641" interp="linr"  time="0/1" value="1" leadInLength="0/1"  name="cursorScale"/>
                <InterpolatingParam id="2642" interp="linr"  name="volume">
                 <Keyframes>
                 <Keyframe id="2643"  time="0/1" value="1" leadInLength="0/1"  />
                 <Keyframe id="2644"  time="16410/1" value="1" leadInLength="0/1"  />
                 <Keyframe id="2645"  time="16411/1" value="1.5625" leadInLength="0/1"  />
                 <Keyframe id="2646"  time="16846/1" value="1.5625" leadInLength="0/1"  />
                 <Keyframe id="2647"  time="16847/1" value="1" leadInLength="0/1"  />
                 </Keyframes>
                </InterpolatingParam>
                <Parameter id="2648"  name="captions"/>
               </Parameters>
               <Attributes>
                <Attribute id="2649" value="" name="ident"/>
                <Attribute id="2650" value="0" name="mixToMono"/>
               </Attributes>
               <MetaData>
                <entry key="WinSubProjectDisplayName" val=""/>
               </MetaData>
               <ExtraData>
                <Entry key="ZoomPanBin">
                 <ZoomPanBin id="2651"  >
                  <ZoomPanKeyframes>
                  </ZoomPanKeyframes>
                 </ZoomPanBin>
                </Entry>
                <Entry key="CursorEffectBin">
                 <CursorEffectBin id="2652"  >
                  <CursorEffectKeyframes>
                  </CursorEffectKeyframes>
                 </CursorEffectBin>
                </Entry>
               </ExtraData>
               <GenericTrack id="2653"  >
                <Attributes>
                 <Attribute id="2654" value="" name="ident"/>
                 <Attribute id="2655" value="0" name="audioMuted"/>
                 <Attribute id="2656" value="0" name="videoHidden"/>
                </Attributes>
                <MetaData>
                 <entry key="IsLocked" val="False"/>
                 <entry key="WinTrackHeight" val="0"/>
                </MetaData>
                <Medias>
                 <AMFile id="2657" start="0" duration="185" scalar="1/1" mediaStart="0/1" mediaDuration="185/1" trackNumber="2" src="14" channelNumber="0,1" >
                  <Parameters>
                   <InterpolatingParam id="2658" interp="linr"  time="0/1" value="1" leadInLength="0/1"  name="volume"/>
                   <Parameter id="2659"  name="captions"/>
                  </Parameters>
                  <Attributes>
                   <Attribute id="2660" value="" name="ident"/>
                   <Attribute id="2661" value="44100" name="sampleRate"/>
                   <Attribute id="2662" value="16" name="bitDepth"/>
                   <Attribute id="2663" value="1" name="gain"/>
                   <Attribute id="2664" value="0" name="mixToMono"/>
                  </Attributes>
                  <MetaData>
                   <entry key="WinSubProjectDisplayName" val=""/>
                  </MetaData>
                 </AMFile>
                 <AMFile id="2665" start="185" duration="372" scalar="1/1" mediaStart="205/1" mediaDuration="372/1" trackNumber="2" src="14" channelNumber="0,1" >
                  <Parameters>
                   <InterpolatingParam id="2666" interp="linr"  time="0/1" value="1" leadInLength="0/1"  name="volume"/>
                   <Parameter id="2667"  name="captions"/>
                  </Parameters>
                  <Attributes>
                   <Attribute id="2668" value="" name="ident"/>
                   <Attribute id="2669" value="44100" name="sampleRate"/>
                   <Attribute id="2670" value="16" name="bitDepth"/>
                   <Attribute id="2671" value="1" name="gain"/>
                   <Attribute id="2672" value="0" name="mixToMono"/>
                  </Attributes>
                  <MetaData>
                   <entry key="WinSubProjectDisplayName" val=""/>
                  </MetaData>
                 </AMFile>
                 <AMFile id="2673" start="557" duration="508" scalar="1/1" mediaStart="585/1" mediaDuration="508/1" trackNumber="2" src="14" channelNumber="0,1" >
                  <Parameters>
                   <InterpolatingParam id="2674" interp="linr"  time="0/1" value="1" leadInLength="0/1"  name="volume"/>
                   <Parameter id="2675"  name="captions"/>
                  </Parameters>
                  <Attributes>
                   <Attribute id="2676" value="" name="ident"/>
                   <Attribute id="2677" value="44100" name="sampleRate"/>
                   <Attribute id="2678" value="16" name="bitDepth"/>
                   <Attribute id="2679" value="1" name="gain"/>
                   <Attribute id="2680" value="0" name="mixToMono"/>
                  </Attributes>
                  <MetaData>
                   <entry key="WinSubProjectDisplayName" val=""/>
                  </MetaData>
                 </AMFile>
                 <AMFile id="2681" start="1065" duration="2085" scalar="1/1" mediaStart="1109/1" mediaDuration="2085/1" trackNumber="2" src="14" channelNumber="0,1" >
                  <Parameters>
                   <InterpolatingParam id="2682" interp="linr"  time="0/1" value="1" leadInLength="0/1"  name="volume"/>
                   <Parameter id="2683"  name="captions"/>
                  </Parameters>
                  <Attributes>
                   <Attribute id="2684" value="" name="ident"/>
                   <Attribute id="2685" value="44100" name="sampleRate"/>
                   <Attribute id="2686" value="16" name="bitDepth"/>
                   <Attribute id="2687" value="1" name="gain"/>
                   <Attribute id="2688" value="0" name="mixToMono"/>
                  </Attributes>
                  <MetaData>
                   <entry key="WinSubProjectDisplayName" val=""/>
                  </MetaData>
                 </AMFile>
                 <AMFile id="2689" start="3150" duration="907" scalar="1/1" mediaStart="3220/1" mediaDuration="907/1" trackNumber="2" src="14" channelNumber="0,1" >
                  <Parameters>
                   <InterpolatingParam id="2690" interp="linr"  time="0/1" value="1" leadInLength="0/1"  name="volume"/>
                   <Parameter id="2691"  name="captions"/>
                  </Parameters>
                  <Attributes>
                   <Attribute id="2692" value="" name="ident"/>
                   <Attribute id="2693" value="44100" name="sampleRate"/>
                   <Attribute id="2694" value="16" name="bitDepth"/>
                   <Attribute id="2695" value="1" name="gain"/>
                   <Attribute id="2696" value="0" name="mixToMono"/>
                  </Attributes>
                  <MetaData>
                   <entry key="WinSubProjectDisplayName" val=""/>
                  </MetaData>
                 </AMFile>
                 <AMFile id="2697" start="4057" duration="5466" scalar="1/1" mediaStart="4182/1" mediaDuration="5466/1" trackNumber="2" src="14" channelNumber="0,1" >
                  <Parameters>
                   <InterpolatingParam id="2698" interp="linr"  time="0/1" value="1" leadInLength="0/1"  name="volume"/>
                   <Parameter id="2699"  name="captions"/>
                  </Parameters>
                  <Attributes>
                   <Attribute id="2700" value="" name="ident"/>
                   <Attribute id="2701" value="44100" name="sampleRate"/>
                   <Attribute id="2702" value="16" name="bitDepth"/>
                   <Attribute id="2703" value="1" name="gain"/>
                   <Attribute id="2704" value="0" name="mixToMono"/>
                  </Attributes>
                  <MetaData>
                   <entry key="WinSubProjectDisplayName" val=""/>
                  </MetaData>
                 </AMFile>
                 <AMFile id="2705" start="9523" duration="679" scalar="1/1" mediaStart="9658/1" mediaDuration="679/1" trackNumber="2" src="14" channelNumber="0,1" >
                  <Parameters>
                   <InterpolatingParam id="2706" interp="linr"  time="0/1" value="1" leadInLength="0/1"  name="volume"/>
                   <Parameter id="2707"  name="captions"/>
                  </Parameters>
                  <Attributes>
                   <Attribute id="2708" value="" name="ident"/>
                   <Attribute id="2709" value="44100" name="sampleRate"/>
                   <Attribute id="2710" value="16" name="bitDepth"/>
                   <Attribute id="2711" value="1" name="gain"/>
                   <Attribute id="2712" value="0" name="mixToMono"/>
                  </Attributes>
                  <MetaData>
                   <entry key="WinSubProjectDisplayName" val=""/>
                  </MetaData>
                 </AMFile>
                 <AMFile id="2713" start="10202" duration="152" scalar="1/1" mediaStart="10349/1" mediaDuration="152/1" trackNumber="2" src="14" channelNumber="0,1" >
                  <Parameters>
                   <InterpolatingParam id="2714" interp="linr"  time="0/1" value="1" leadInLength="0/1"  name="volume"/>
                   <Parameter id="2715"  name="captions"/>
                  </Parameters>
                  <Attributes>
                   <Attribute id="2716" value="" name="ident"/>
                   <Attribute id="2717" value="44100" name="sampleRate"/>
                   <Attribute id="2718" value="16" name="bitDepth"/>
                   <Attribute id="2719" value="1" name="gain"/>
                   <Attribute id="2720" value="0" name="mixToMono"/>
                  </Attributes>
                  <MetaData>
                   <entry key="WinSubProjectDisplayName" val=""/>
                  </MetaData>
                 </AMFile>
                 <AMFile id="2721" start="10354" duration="763" scalar="1/1" mediaStart="10597/1" mediaDuration="763/1" trackNumber="2" src="14" channelNumber="0,1" >
                  <Parameters>
                   <InterpolatingParam id="2722" interp="linr"  time="0/1" value="1" leadInLength="0/1"  name="volume"/>
                   <Parameter id="2723"  name="captions"/>
                  </Parameters>
                  <Attributes>
                   <Attribute id="2724" value="" name="ident"/>
                   <Attribute id="2725" value="44100" name="sampleRate"/>
                   <Attribute id="2726" value="16" name="bitDepth"/>
                   <Attribute id="2727" value="1" name="gain"/>
                   <Attribute id="2728" value="0" name="mixToMono"/>
                  </Attributes>
                  <MetaData>
                   <entry key="WinSubProjectDisplayName" val=""/>
                  </MetaData>
                 </AMFile>
                 <AMFile id="2729" start="11117" duration="441" scalar="1/1" mediaStart="11374/1" mediaDuration="441/1" trackNumber="2" src="14" channelNumber="0,1" >
                  <Parameters>
                   <InterpolatingParam id="2730" interp="linr"  time="0/1" value="1" leadInLength="0/1"  name="volume"/>
                   <Parameter id="2731"  name="captions"/>
                  </Parameters>
                  <Attributes>
                   <Attribute id="2732" value="" name="ident"/>
                   <Attribute id="2733" value="44100" name="sampleRate"/>
                   <Attribute id="2734" value="16" name="bitDepth"/>
                   <Attribute id="2735" value="1" name="gain"/>
                   <Attribute id="2736" value="0" name="mixToMono"/>
                  </Attributes>
                  <MetaData>
                   <entry key="WinSubProjectDisplayName" val=""/>
                  </MetaData>
                 </AMFile>
                 <AMFile id="2737" start="11558" duration="699" scalar="1/1" mediaStart="12126/1" mediaDuration="699/1" trackNumber="2" src="14" channelNumber="0,1" >
                  <Parameters>
                   <InterpolatingParam id="2738" interp="linr"  time="0/1" value="1" leadInLength="0/1"  name="volume"/>
                   <Parameter id="2739"  name="captions"/>
                  </Parameters>
                  <Attributes>
                   <Attribute id="2740" value="" name="ident"/>
                   <Attribute id="2741" value="44100" name="sampleRate"/>
                   <Attribute id="2742" value="16" name="bitDepth"/>
                   <Attribute id="2743" value="1" name="gain"/>
                   <Attribute id="2744" value="0" name="mixToMono"/>
                  </Attributes>
                  <MetaData>
                   <entry key="WinSubProjectDisplayName" val=""/>
                  </MetaData>
                 </AMFile>
                 <AMFile id="2745" start="12257" duration="1442" scalar="1/1" mediaStart="13586/1" mediaDuration="1442/1" trackNumber="2" src="14" channelNumber="0,1" >
                  <Parameters>
                   <InterpolatingParam id="2746" interp="linr"  time="0/1" value="1" leadInLength="0/1"  name="volume"/>
                   <Parameter id="2747"  name="captions"/>
                  </Parameters>
                  <Attributes>
                   <Attribute id="2748" value="" name="ident"/>
                   <Attribute id="2749" value="44100" name="sampleRate"/>
                   <Attribute id="2750" value="16" name="bitDepth"/>
                   <Attribute id="2751" value="1" name="gain"/>
                   <Attribute id="2752" value="0" name="mixToMono"/>
                  </Attributes>
                  <MetaData>
                   <entry key="WinSubProjectDisplayName" val=""/>
                  </MetaData>
                 </AMFile>
                 <AMFile id="2753" start="13699" duration="19" scalar="1/1" mediaStart="15250/1" mediaDuration="19/1" trackNumber="2" src="14" channelNumber="0,1" >
                  <Parameters>
                   <InterpolatingParam id="2754" interp="linr"  time="0/1" value="1" leadInLength="0/1"  name="volume"/>
                   <Parameter id="2755"  name="captions"/>
                  </Parameters>
                  <Attributes>
                   <Attribute id="2756" value="" name="ident"/>
                   <Attribute id="2757" value="44100" name="sampleRate"/>
                   <Attribute id="2758" value="16" name="bitDepth"/>
                   <Attribute id="2759" value="1" name="gain"/>
                   <Attribute id="2760" value="0" name="mixToMono"/>
                  </Attributes>
                  <MetaData>
                   <entry key="WinSubProjectDisplayName" val=""/>
                  </MetaData>
                 </AMFile>
                 <AMFile id="2761" start="13718" duration="286" scalar="1/1" mediaStart="15285/1" mediaDuration="286/1" trackNumber="2" src="14" channelNumber="0,1" >
                  <Parameters>
                   <InterpolatingParam id="2762" interp="linr"  time="0/1" value="1" leadInLength="0/1"  name="volume"/>
                   <Parameter id="2763"  name="captions"/>
                  </Parameters>
                  <Attributes>
                   <Attribute id="2764" value="" name="ident"/>
                   <Attribute id="2765" value="44100" name="sampleRate"/>
                   <Attribute id="2766" value="16" name="bitDepth"/>
                   <Attribute id="2767" value="1" name="gain"/>
                   <Attribute id="2768" value="0" name="mixToMono"/>
                  </Attributes>
                  <MetaData>
                   <entry key="WinSubProjectDisplayName" val=""/>
                  </MetaData>
                 </AMFile>
                 <AMFile id="2769" start="14004" duration="313" scalar="1/1" mediaStart="15609/1" mediaDuration="313/1" trackNumber="2" src="14" channelNumber="0,1" >
                  <Parameters>
                   <InterpolatingParam id="2770" interp="linr"  time="0/1" value="1" leadInLength="0/1"  name="volume"/>
                   <Parameter id="2771"  name="captions"/>
                  </Parameters>
                  <Attributes>
                   <Attribute id="2772" value="" name="ident"/>
                   <Attribute id="2773" value="44100" name="sampleRate"/>
                   <Attribute id="2774" value="16" name="bitDepth"/>
                   <Attribute id="2775" value="1" name="gain"/>
                   <Attribute id="2776" value="0" name="mixToMono"/>
                  </Attributes>
                  <MetaData>
                   <entry key="WinSubProjectDisplayName" val=""/>
                  </MetaData>
                 </AMFile>
                 <AMFile id="2777" start="14317" duration="1" scalar="1/1" mediaStart="15967/1" mediaDuration="1/1" trackNumber="2" src="14" channelNumber="0,1" >
                  <Parameters>
                   <InterpolatingParam id="2778" interp="linr"  time="0/1" value="1" leadInLength="0/1"  name="volume"/>
                   <Parameter id="2779"  name="captions"/>
                  </Parameters>
                  <Attributes>
                   <Attribute id="2780" value="" name="ident"/>
                   <Attribute id="2781" value="44100" name="sampleRate"/>
                   <Attribute id="2782" value="16" name="bitDepth"/>
                   <Attribute id="2783" value="1" name="gain"/>
                   <Attribute id="2784" value="0" name="mixToMono"/>
                  </Attributes>
                  <MetaData>
                   <entry key="WinSubProjectDisplayName" val=""/>
                  </MetaData>
                 </AMFile>
                 <AMFile id="2785" start="14318" duration="155" scalar="1/1" mediaStart="16824/1" mediaDuration="155/1" trackNumber="2" src="14" channelNumber="0,1" >
                  <Parameters>
                   <InterpolatingParam id="2786" interp="linr"  time="0/1" value="1" leadInLength="0/1"  name="volume"/>
                   <Parameter id="2787"  name="captions"/>
                  </Parameters>
                  <Attributes>
                   <Attribute id="2788" value="" name="ident"/>
                   <Attribute id="2789" value="44100" name="sampleRate"/>
                   <Attribute id="2790" value="16" name="bitDepth"/>
                   <Attribute id="2791" value="1" name="gain"/>
                   <Attribute id="2792" value="0" name="mixToMono"/>
                  </Attributes>
                  <MetaData>
                   <entry key="WinSubProjectDisplayName" val=""/>
                  </MetaData>
                 </AMFile>
                 <AMFile id="2793" start="14473" duration="761" scalar="1/1" mediaStart="17125/1" mediaDuration="761/1" trackNumber="2" src="14" channelNumber="0,1" >
                  <Parameters>
                   <InterpolatingParam id="2794" interp="linr"  time="0/1" value="1" leadInLength="0/1"  name="volume"/>
                   <Parameter id="2795"  name="captions"/>
                  </Parameters>
                  <Attributes>
                   <Attribute id="2796" value="" name="ident"/>
                   <Attribute id="2797" value="44100" name="sampleRate"/>
                   <Attribute id="2798" value="16" name="bitDepth"/>
                   <Attribute id="2799" value="1" name="gain"/>
                   <Attribute id="2800" value="0" name="mixToMono"/>
                  </Attributes>
                  <MetaData>
                   <entry key="WinSubProjectDisplayName" val=""/>
                  </MetaData>
                 </AMFile>
                 <AMFile id="2801" start="15234" duration="1697" scalar="1/1" mediaStart="18000/1" mediaDuration="1697/1" trackNumber="2" src="14" channelNumber="0,1" >
                  <Parameters>
                   <InterpolatingParam id="2802" interp="linr"  time="0/1" value="1" leadInLength="0/1"  name="volume"/>
                   <Parameter id="2803"  name="captions"/>
                  </Parameters>
                  <Attributes>
                   <Attribute id="2804" value="" name="ident"/>
                   <Attribute id="2805" value="44100" name="sampleRate"/>
                   <Attribute id="2806" value="16" name="bitDepth"/>
                   <Attribute id="2807" value="1" name="gain"/>
                   <Attribute id="2808" value="0" name="mixToMono"/>
                  </Attributes>
                  <MetaData>
                   <entry key="WinSubProjectDisplayName" val=""/>
                  </MetaData>
                 </AMFile>
                 <AMFile id="2809" start="16931" duration="550" scalar="1/1" mediaStart="19797/1" mediaDuration="550/1" trackNumber="2" src="14" channelNumber="0,1" >
                  <Parameters>
                   <InterpolatingParam id="2810" interp="linr"  time="0/1" value="1" leadInLength="0/1"  name="volume"/>
                   <Parameter id="2811"  name="captions"/>
                  </Parameters>
                  <Attributes>
                   <Attribute id="2812" value="" name="ident"/>
                   <Attribute id="2813" value="44100" name="sampleRate"/>
                   <Attribute id="2814" value="16" name="bitDepth"/>
                   <Attribute id="2815" value="1" name="gain"/>
                   <Attribute id="2816" value="0" name="mixToMono"/>
                  </Attributes>
                  <MetaData>
                   <entry key="WinSubProjectDisplayName" val=""/>
                  </MetaData>
                 </AMFile>
                 <AMFile id="2817" start="17481" duration="47" scalar="1/1" mediaStart="20406/1" mediaDuration="47/1" trackNumber="2" src="14" channelNumber="0,1" >
                  <Parameters>
                   <InterpolatingParam id="2818" interp="linr"  time="0/1" value="1" leadInLength="0/1"  name="volume"/>
                   <Parameter id="2819"  name="captions"/>
                  </Parameters>
                  <Attributes>
                   <Attribute id="2820" value="" name="ident"/>
                   <Attribute id="2821" value="44100" name="sampleRate"/>
                   <Attribute id="2822" value="16" name="bitDepth"/>
                   <Attribute id="2823" value="1" name="gain"/>
                   <Attribute id="2824" value="0" name="mixToMono"/>
                  </Attributes>
                  <MetaData>
                   <entry key="WinSubProjectDisplayName" val=""/>
                  </MetaData>
                 </AMFile>
                 <AMFile id="2825" start="17528" duration="238" scalar="1/1" mediaStart="20475/1" mediaDuration="238/1" trackNumber="2" src="14" channelNumber="0,1" >
                  <Parameters>
                   <InterpolatingParam id="2826" interp="linr"  time="0/1" value="1" leadInLength="0/1"  name="volume"/>
                   <Parameter id="2827"  name="captions"/>
                  </Parameters>
                  <Attributes>
                   <Attribute id="2828" value="" name="ident"/>
                   <Attribute id="2829" value="44100" name="sampleRate"/>
                   <Attribute id="2830" value="16" name="bitDepth"/>
                   <Attribute id="2831" value="1" name="gain"/>
                   <Attribute id="2832" value="0" name="mixToMono"/>
                  </Attributes>
                  <MetaData>
                   <entry key="WinSubProjectDisplayName" val=""/>
                  </MetaData>
                 </AMFile>
                 <AMFile id="2833" start="17766" duration="21" scalar="1/1" mediaStart="20721/1" mediaDuration="21/1" trackNumber="2" src="14" channelNumber="0,1" >
                  <Parameters>
                   <InterpolatingParam id="2834" interp="linr"  time="0/1" value="1" leadInLength="0/1"  name="volume"/>
                   <Parameter id="2835"  name="captions"/>
                  </Parameters>
                  <Attributes>
                   <Attribute id="2836" value="" name="ident"/>
                   <Attribute id="2837" value="44100" name="sampleRate"/>
                   <Attribute id="2838" value="16" name="bitDepth"/>
                   <Attribute id="2839" value="1" name="gain"/>
                   <Attribute id="2840" value="0" name="mixToMono"/>
                  </Attributes>
                  <MetaData>
                   <entry key="WinSubProjectDisplayName" val=""/>
                  </MetaData>
                 </AMFile>
                 <AMFile id="2841" start="17787" duration="1820" scalar="1/1" mediaStart="20748/1" mediaDuration="1820/1" trackNumber="2" src="14" channelNumber="0,1" >
                  <Parameters>
                   <InterpolatingParam id="2842" interp="linr"  time="0/1" value="1" leadInLength="0/1"  name="volume"/>
                   <Parameter id="2843"  name="captions"/>
                  </Parameters>
                  <Attributes>
                   <Attribute id="2844" value="" name="ident"/>
                   <Attribute id="2845" value="44100" name="sampleRate"/>
                   <Attribute id="2846" value="16" name="bitDepth"/>
                   <Attribute id="2847" value="1" name="gain"/>
                   <Attribute id="2848" value="0" name="mixToMono"/>
                  </Attributes>
                  <MetaData>
                   <entry key="WinSubProjectDisplayName" val=""/>
                  </MetaData>
                 </AMFile>
                 <AMFile id="2849" start="19607" duration="222" scalar="1/1" mediaStart="22577/1" mediaDuration="222/1" trackNumber="2" src="14" channelNumber="0,1" >
                  <Parameters>
                   <InterpolatingParam id="2850" interp="linr"  time="0/1" value="1" leadInLength="0/1"  name="volume"/>
                   <Parameter id="2851"  name="captions"/>
                  </Parameters>
                  <Attributes>
                   <Attribute id="2852" value="" name="ident"/>
                   <Attribute id="2853" value="44100" name="sampleRate"/>
                   <Attribute id="2854" value="16" name="bitDepth"/>
                   <Attribute id="2855" value="1" name="gain"/>
                   <Attribute id="2856" value="0" name="mixToMono"/>
                  </Attributes>
                  <MetaData>
                   <entry key="WinSubProjectDisplayName" val=""/>
                  </MetaData>
                 </AMFile>
                 <AMFile id="2857" start="19829" duration="52" scalar="1/1" mediaStart="23050/1" mediaDuration="52/1" trackNumber="2" src="14" channelNumber="0,1" >
                  <Parameters>
                   <InterpolatingParam id="2858" interp="linr"  time="0/1" value="1" leadInLength="0/1"  name="volume"/>
                   <Parameter id="2859"  name="captions"/>
                  </Parameters>
                  <Attributes>
                   <Attribute id="2860" value="" name="ident"/>
                   <Attribute id="2861" value="44100" name="sampleRate"/>
                   <Attribute id="2862" value="16" name="bitDepth"/>
                   <Attribute id="2863" value="1" name="gain"/>
                   <Attribute id="2864" value="0" name="mixToMono"/>
                  </Attributes>
                  <MetaData>
                   <entry key="WinSubProjectDisplayName" val=""/>
                  </MetaData>
                 </AMFile>
                 <AMFile id="2865" start="19881" duration="548" scalar="1/1" mediaStart="23115/1" mediaDuration="548/1" trackNumber="2" src="14" channelNumber="0,1" >
                  <Parameters>
                   <InterpolatingParam id="2866" interp="linr"  time="0/1" value="1" leadInLength="0/1"  name="volume"/>
                   <Parameter id="2867"  name="captions"/>
                  </Parameters>
                  <Attributes>
                   <Attribute id="2868" value="" name="ident"/>
                   <Attribute id="2869" value="44100" name="sampleRate"/>
                   <Attribute id="2870" value="16" name="bitDepth"/>
                   <Attribute id="2871" value="1" name="gain"/>
                   <Attribute id="2872" value="0" name="mixToMono"/>
                  </Attributes>
                  <MetaData>
                   <entry key="WinSubProjectDisplayName" val=""/>
                  </MetaData>
                 </AMFile>
                 <AMFile id="2873" start="20429" duration="257" scalar="1/1" mediaStart="23960/1" mediaDuration="257/1" trackNumber="2" src="14" channelNumber="0,1" >
                  <Parameters>
                   <InterpolatingParam id="2874" interp="linr"  time="0/1" value="1" leadInLength="0/1"  name="volume"/>
                   <Parameter id="2875"  name="captions"/>
                  </Parameters>
                  <Attributes>
                   <Attribute id="2876" value="" name="ident"/>
                   <Attribute id="2877" value="44100" name="sampleRate"/>
                   <Attribute id="2878" value="16" name="bitDepth"/>
                   <Attribute id="2879" value="1" name="gain"/>
                   <Attribute id="2880" value="0" name="mixToMono"/>
                  </Attributes>
                  <MetaData>
                   <entry key="WinSubProjectDisplayName" val=""/>
                  </MetaData>
                 </AMFile>
                 <AMFile id="2881" start="20686" duration="2004" scalar="1/1" mediaStart="24480/1" mediaDuration="2004/1" trackNumber="2" src="14" channelNumber="0,1" >
                  <Parameters>
                   <InterpolatingParam id="2882" interp="linr"  time="0/1" value="1" leadInLength="0/1"  name="volume"/>
                   <Parameter id="2883"  name="captions"/>
                  </Parameters>
                  <Attributes>
                   <Attribute id="2884" value="" name="ident"/>
                   <Attribute id="2885" value="44100" name="sampleRate"/>
                   <Attribute id="2886" value="16" name="bitDepth"/>
                   <Attribute id="2887" value="1" name="gain"/>
                   <Attribute id="2888" value="0" name="mixToMono"/>
                  </Attributes>
                  <MetaData>
                   <entry key="WinSubProjectDisplayName" val=""/>
                  </MetaData>
                 </AMFile>
                 <AMFile id="2889" start="22690" duration="1025" scalar="1/1" mediaStart="27080/1" mediaDuration="1025/1" trackNumber="2" src="14" channelNumber="0,1" >
                  <Parameters>
                   <InterpolatingParam id="2890" interp="linr"  time="0/1" value="1" leadInLength="0/1"  name="volume"/>
                   <Parameter id="2891"  name="captions"/>
                  </Parameters>
                  <Attributes>
                   <Attribute id="2892" value="" name="ident"/>
                   <Attribute id="2893" value="44100" name="sampleRate"/>
                   <Attribute id="2894" value="16" name="bitDepth"/>
                   <Attribute id="2895" value="1" name="gain"/>
                   <Attribute id="2896" value="0" name="mixToMono"/>
                  </Attributes>
                  <MetaData>
                   <entry key="WinSubProjectDisplayName" val=""/>
                  </MetaData>
                 </AMFile>
                 <AMFile id="2897" start="23715" duration="294" scalar="1/1" mediaStart="28114/1" mediaDuration="294/1" trackNumber="2" src="14" channelNumber="0,1" >
                  <Parameters>
                   <InterpolatingParam id="2898" interp="linr"  time="0/1" value="1" leadInLength="0/1"  name="volume"/>
                   <Parameter id="2899"  name="captions"/>
                  </Parameters>
                  <Attributes>
                   <Attribute id="2900" value="" name="ident"/>
                   <Attribute id="2901" value="44100" name="sampleRate"/>
                   <Attribute id="2902" value="16" name="bitDepth"/>
                   <Attribute id="2903" value="1" name="gain"/>
                   <Attribute id="2904" value="0" name="mixToMono"/>
                  </Attributes>
                  <MetaData>
                   <entry key="WinSubProjectDisplayName" val=""/>
                  </MetaData>
                 </AMFile>
                 <AMFile id="2905" start="24009" duration="547" scalar="1/1" mediaStart="28423/1" mediaDuration="547/1" trackNumber="2" src="14" channelNumber="0,1" >
                  <Parameters>
                   <InterpolatingParam id="2906" interp="linr"  time="0/1" value="1" leadInLength="0/1"  name="volume"/>
                   <Parameter id="2907"  name="captions"/>
                  </Parameters>
                  <Attributes>
                   <Attribute id="2908" value="" name="ident"/>
                   <Attribute id="2909" value="44100" name="sampleRate"/>
                   <Attribute id="2910" value="16" name="bitDepth"/>
                   <Attribute id="2911" value="1" name="gain"/>
                   <Attribute id="2912" value="0" name="mixToMono"/>
                  </Attributes>
                  <MetaData>
                   <entry key="WinSubProjectDisplayName" val=""/>
                  </MetaData>
                 </AMFile>
                 <AMFile id="2913" start="24556" duration="6" scalar="1/1" mediaStart="28975/1" mediaDuration="6/1" trackNumber="2" src="14" channelNumber="0,1" >
                  <Parameters>
                   <InterpolatingParam id="2914" interp="linr"  time="0/1" value="1" leadInLength="0/1"  name="volume"/>
                   <Parameter id="2915"  name="captions"/>
                  </Parameters>
                  <Attributes>
                   <Attribute id="2916" value="" name="ident"/>
                   <Attribute id="2917" value="44100" name="sampleRate"/>
                   <Attribute id="2918" value="16" name="bitDepth"/>
                   <Attribute id="2919" value="1" name="gain"/>
                   <Attribute id="2920" value="0" name="mixToMono"/>
                  </Attributes>
                  <MetaData>
                   <entry key="WinSubProjectDisplayName" val=""/>
                  </MetaData>
                 </AMFile>
                 <AMFile id="2921" start="24562" duration="24" scalar="1/1" mediaStart="28985/1" mediaDuration="24/1" trackNumber="2" src="14" channelNumber="0,1" >
                  <Parameters>
                   <InterpolatingParam id="2922" interp="linr"  time="0/1" value="1" leadInLength="0/1"  name="volume"/>
                   <Parameter id="2923"  name="captions"/>
                  </Parameters>
                  <Attributes>
                   <Attribute id="2924" value="" name="ident"/>
                   <Attribute id="2925" value="44100" name="sampleRate"/>
                   <Attribute id="2926" value="16" name="bitDepth"/>
                   <Attribute id="2927" value="1" name="gain"/>
                   <Attribute id="2928" value="0" name="mixToMono"/>
                  </Attributes>
                  <MetaData>
                   <entry key="WinSubProjectDisplayName" val=""/>
                  </MetaData>
                 </AMFile>
                 <AMFile id="2929" start="24586" duration="321" scalar="1/1" mediaStart="29029/1" mediaDuration="321/1" trackNumber="2" src="14" channelNumber="0,1" >
                  <Parameters>
                   <InterpolatingParam id="2930" interp="linr"  time="0/1" value="1" leadInLength="0/1"  name="volume"/>
                   <Parameter id="2931"  name="captions"/>
                  </Parameters>
                  <Attributes>
                   <Attribute id="2932" value="" name="ident"/>
                   <Attribute id="2933" value="44100" name="sampleRate"/>
                   <Attribute id="2934" value="16" name="bitDepth"/>
                   <Attribute id="2935" value="1" name="gain"/>
                   <Attribute id="2936" value="0" name="mixToMono"/>
                  </Attributes>
                  <MetaData>
                   <entry key="WinSubProjectDisplayName" val=""/>
                  </MetaData>
                 </AMFile>
                 <AMFile id="2937" start="24907" duration="123" scalar="1/1" mediaStart="29435/1" mediaDuration="123/1" trackNumber="2" src="14" channelNumber="0,1" >
                  <Parameters>
                   <InterpolatingParam id="2938" interp="linr"  time="0/1" value="1" leadInLength="0/1"  name="volume"/>
                   <Parameter id="2939"  name="captions"/>
                  </Parameters>
                  <Attributes>
                   <Attribute id="2940" value="" name="ident"/>
                   <Attribute id="2941" value="44100" name="sampleRate"/>
                   <Attribute id="2942" value="16" name="bitDepth"/>
                   <Attribute id="2943" value="1" name="gain"/>
                   <Attribute id="2944" value="0" name="mixToMono"/>
                  </Attributes>
                  <MetaData>
                   <entry key="WinSubProjectDisplayName" val=""/>
                  </MetaData>
                 </AMFile>
                 <AMFile id="2945" start="25030" duration="30" scalar="1/1" mediaStart="29581/1" mediaDuration="30/1" trackNumber="2" src="14" channelNumber="0,1" >
                  <Parameters>
                   <InterpolatingParam id="2946" interp="linr"  time="0/1" value="1" leadInLength="0/1"  name="volume"/>
                   <Parameter id="2947"  name="captions"/>
                  </Parameters>
                  <Attributes>
                   <Attribute id="2948" value="" name="ident"/>
                   <Attribute id="2949" value="44100" name="sampleRate"/>
                   <Attribute id="2950" value="16" name="bitDepth"/>
                   <Attribute id="2951" value="1" name="gain"/>
                   <Attribute id="2952" value="0" name="mixToMono"/>
                  </Attributes>
                  <MetaData>
                   <entry key="WinSubProjectDisplayName" val=""/>
                  </MetaData>
                 </AMFile>
                 <AMFile id="2953" start="25060" duration="24" scalar="1/1" mediaStart="29627/1" mediaDuration="24/1" trackNumber="2" src="14" channelNumber="0,1" >
                  <Parameters>
                   <InterpolatingParam id="2954" interp="linr"  time="0/1" value="1" leadInLength="0/1"  name="volume"/>
                   <Parameter id="2955"  name="captions"/>
                  </Parameters>
                  <Attributes>
                   <Attribute id="2956" value="" name="ident"/>
                   <Attribute id="2957" value="44100" name="sampleRate"/>
                   <Attribute id="2958" value="16" name="bitDepth"/>
                   <Attribute id="2959" value="1" name="gain"/>
                   <Attribute id="2960" value="0" name="mixToMono"/>
                  </Attributes>
                  <MetaData>
                   <entry key="WinSubProjectDisplayName" val=""/>
                  </MetaData>
                 </AMFile>
                 <AMFile id="2961" start="25084" duration="2049" scalar="1/1" mediaStart="29657/1" mediaDuration="2049/1" trackNumber="2" src="14" channelNumber="0,1" >
                  <Parameters>
                   <InterpolatingParam id="2962" interp="linr"  time="0/1" value="1" leadInLength="0/1"  name="volume"/>
                   <Parameter id="2963"  name="captions"/>
                  </Parameters>
                  <Attributes>
                   <Attribute id="2964" value="" name="ident"/>
                   <Attribute id="2965" value="44100" name="sampleRate"/>
                   <Attribute id="2966" value="16" name="bitDepth"/>
                   <Attribute id="2967" value="1" name="gain"/>
                   <Attribute id="2968" value="0" name="mixToMono"/>
                  </Attributes>
                  <MetaData>
                   <entry key="WinSubProjectDisplayName" val=""/>
                  </MetaData>
                 </AMFile>
                 <AMFile id="2969" start="27133" duration="487" scalar="1/1" mediaStart="31836/1" mediaDuration="487/1" trackNumber="2" src="14" channelNumber="0,1" >
                  <Parameters>
                   <InterpolatingParam id="2970" interp="linr"  time="0/1" value="1" leadInLength="0/1"  name="volume"/>
                   <Parameter id="2971"  name="captions"/>
                  </Parameters>
                  <Attributes>
                   <Attribute id="2972" value="" name="ident"/>
                   <Attribute id="2973" value="44100" name="sampleRate"/>
                   <Attribute id="2974" value="16" name="bitDepth"/>
                   <Attribute id="2975" value="1" name="gain"/>
                   <Attribute id="2976" value="0" name="mixToMono"/>
                  </Attributes>
                  <MetaData>
                   <entry key="WinSubProjectDisplayName" val=""/>
                  </MetaData>
                 </AMFile>
                 <AMFile id="2977" start="27620" duration="17" scalar="1/1" mediaStart="32338/1" mediaDuration="17/1" trackNumber="2" src="14" channelNumber="0,1" >
                  <Parameters>
                   <InterpolatingParam id="2978" interp="linr"  time="0/1" value="1" leadInLength="0/1"  name="volume"/>
                   <Parameter id="2979"  name="captions"/>
                  </Parameters>
                  <Attributes>
                   <Attribute id="2980" value="" name="ident"/>
                   <Attribute id="2981" value="44100" name="sampleRate"/>
                   <Attribute id="2982" value="16" name="bitDepth"/>
                   <Attribute id="2983" value="1" name="gain"/>
                   <Attribute id="2984" value="0" name="mixToMono"/>
                  </Attributes>
                  <MetaData>
                   <entry key="WinSubProjectDisplayName" val=""/>
                  </MetaData>
                 </AMFile>
                 <AMFile id="2985" start="27637" duration="130" scalar="1/1" mediaStart="32384/1" mediaDuration="130/1" trackNumber="2" src="14" channelNumber="0,1" >
                  <Parameters>
                   <InterpolatingParam id="2986" interp="linr"  time="0/1" value="1" leadInLength="0/1"  name="volume"/>
                   <Parameter id="2987"  name="captions"/>
                  </Parameters>
                  <Attributes>
                   <Attribute id="2988" value="" name="ident"/>
                   <Attribute id="2989" value="44100" name="sampleRate"/>
                   <Attribute id="2990" value="16" name="bitDepth"/>
                   <Attribute id="2991" value="1" name="gain"/>
                   <Attribute id="2992" value="0" name="mixToMono"/>
                  </Attributes>
                  <MetaData>
                   <entry key="WinSubProjectDisplayName" val=""/>
                  </MetaData>
                 </AMFile>
                 <AMFile id="2993" start="27767" duration="172" scalar="1/1" mediaStart="32590/1" mediaDuration="172/1" trackNumber="2" src="14" channelNumber="0,1" >
                  <Parameters>
                   <InterpolatingParam id="2994" interp="linr"  time="0/1" value="1" leadInLength="0/1"  name="volume"/>
                   <Parameter id="2995"  name="captions"/>
                  </Parameters>
                  <Attributes>
                   <Attribute id="2996" value="" name="ident"/>
                   <Attribute id="2997" value="44100" name="sampleRate"/>
                   <Attribute id="2998" value="16" name="bitDepth"/>
                   <Attribute id="2999" value="1" name="gain"/>
                   <Attribute id="3000" value="0" name="mixToMono"/>
                  </Attributes>
                  <MetaData>
                   <entry key="WinSubProjectDisplayName" val=""/>
                  </MetaData>
                 </AMFile>
                 <AMFile id="3001" start="27939" duration="14214" scalar="1/1" mediaStart="32947/1" mediaDuration="14214/1" trackNumber="2" src="14" channelNumber="0,1" >
                  <Parameters>
                   <InterpolatingParam id="3002" interp="linr"  time="0/1" value="1" leadInLength="0/1"  name="volume"/>
                   <Parameter id="3003"  name="captions"/>
                  </Parameters>
                  <Attributes>
                   <Attribute id="3004" value="" name="ident"/>
                   <Attribute id="3005" value="44100" name="sampleRate"/>
                   <Attribute id="3006" value="16" name="bitDepth"/>
                   <Attribute id="3007" value="1" name="gain"/>
                   <Attribute id="3008" value="0" name="mixToMono"/>
                  </Attributes>
                  <MetaData>
                   <entry key="WinSubProjectDisplayName" val=""/>
                  </MetaData>
                 </AMFile>
                </Medias>
               </GenericTrack>
              </StitchedMedia>
             </Medias>
            </GenericTrack>
            <GenericTrack id="3009"  >
             <Attributes>
              <Attribute id="3010" value="" name="ident"/>
              <Attribute id="3011" value="0" name="audioMuted"/>
              <Attribute id="3012" value="0" name="videoHidden"/>
             </Attributes>
             <MetaData>
              <entry key="IsLocked" val="False"/>
              <entry key="WinTrackHeight" val="0"/>
             </MetaData>
             <Medias>
              <StitchedMedia id="3013" start="0" duration="28077" scalar="1/1" mediaStart="0/1" mediaDuration="28077/1" minMediaStart="0/1" >
               <Transformer>
                <VectorParam id="3014"  name="translation">
                 <InterpolatingParam id="3015" interp="linr"  time="-9999999/1" value="0" leadInLength="0/1"  interpolater="leadin-linr"  />
                 <InterpolatingParam id="3016" interp="linr"  time="-9999999/1" value="0" leadInLength="0/1"  interpolater="leadin-linr"  />
                 <InterpolatingParam id="3017" interp="linr"  time="-9999999/1" value="0" leadInLength="0/1"  interpolater="leadin-linr"  />
                </VectorParam>
                <VectorParam id="3018"  name="rotation">
                 <InterpolatingParam id="3019" interp="linr"  time="-9999999/1" value="0" leadInLength="0/1"  interpolater="leadin-linr"  />
                 <InterpolatingParam id="3020" interp="linr"  time="-9999999/1" value="0" leadInLength="0/1"  interpolater="leadin-linr"  />
                 <InterpolatingParam id="3021" interp="linr"  time="-9999999/1" value="0" leadInLength="0/1"  interpolater="leadin-linr"  />
                </VectorParam>
                <VectorParam id="3022"  name="shear">
                 <InterpolatingParam id="3023" interp="linr"  time="-9999999/1" value="0" leadInLength="0/1"  interpolater="leadin-linr"  />
                 <InterpolatingParam id="3024" interp="linr"  time="-9999999/1" value="0" leadInLength="0/1"  interpolater="leadin-linr"  />
                 <InterpolatingParam id="3025" interp="linr"  time="-9999999/1" value="0" leadInLength="0/1"  interpolater="leadin-linr"  />
                </VectorParam>
                <VectorParam id="3026"  name="scale">
                 <InterpolatingParam id="3027" interp="linr"  time="-9999999/1" value="0.66666666666666663" leadInLength="0/1"  interpolater="leadin-linr"  />
                 <InterpolatingParam id="3028" interp="linr"  time="-9999999/1" value="0.66666666666666663" leadInLength="0/1"  interpolater="leadin-linr"  />
                 <InterpolatingParam id="3029" interp="linr"  time="-9999999/1" value="1" leadInLength="0/1"  interpolater="leadin-linr"  />
                </VectorParam>
                <VectorParam id="3030"  name="anchor">
                 <InterpolatingParam id="3031" interp="linr"  time="0/1" value="0" leadInLength="0/1"  />
                 <InterpolatingParam id="3032" interp="linr"  time="0/1" value="0" leadInLength="0/1"  />
                 <InterpolatingParam id="3033" interp="linr"  time="0/1" value="0" leadInLength="0/1"  />
                </VectorParam>
               </Transformer>
               <Parameters>
                <VectorParam id="3034"  name="sourceCrop">
                 <InterpolatingParam id="3035" interp="linr"  time="0/1" value="0" leadInLength="0/1"  />
                 <InterpolatingParam id="3036" interp="linr"  time="0/1" value="0" leadInLength="0/1"  />
                 <InterpolatingParam id="3037" interp="linr"  time="0/1" value="0" leadInLength="0/1"  />
                 <InterpolatingParam id="3038" interp="linr"  time="0/1" value="0" leadInLength="0/1"  />
                </VectorParam>
                <VectorParam id="3039"  name="geometryCrop">
                 <InterpolatingParam id="3040" interp="linr"  time="-9999999/1" value="0" leadInLength="0/1"  interpolater="leadin-linr"  />
                 <InterpolatingParam id="3041" interp="linr"  time="-9999999/1" value="0" leadInLength="0/1"  interpolater="leadin-linr"  />
                 <InterpolatingParam id="3042" interp="linr"  time="-9999999/1" value="0" leadInLength="0/1"  interpolater="leadin-linr"  />
                 <InterpolatingParam id="3043" interp="linr"  time="-9999999/1" value="0" leadInLength="0/1"  interpolater="leadin-linr"  />
                </VectorParam>
                <InterpolatingParam id="3044" interp="linr"  time="-9999999/1" value="1" leadInLength="0/1"  interpolater="leadin-linr"  name="opacity"/>
                <InterpolatingParam id="3045" interp="linr"  time="0/1" value="1" leadInLength="0/1"  name="cursorOpacity"/>
                <InterpolatingParam id="3046" interp="linr"  time="0/1" value="1" leadInLength="0/1"  name="cursorScale"/>
                <InterpolatingParam id="3047" interp="linr"  name="volume">
                 <Keyframes>
                 <Keyframe id="3048"  time="0/1" value="1" leadInLength="0/1"  />
                 <Keyframe id="3049"  time="16410/1" value="1" leadInLength="0/1"  />
                 <Keyframe id="3050"  time="16411/1" value="1.5625" leadInLength="0/1"  />
                 <Keyframe id="3051"  time="16846/1" value="1.5625" leadInLength="0/1"  />
                 <Keyframe id="3052"  time="16847/1" value="1" leadInLength="0/1"  />
                 </Keyframes>
                </InterpolatingParam>
                <Parameter id="3053"  name="captions"/>
               </Parameters>
               <Effects>
                <GenericEffect id="3054" name = "CursorBaseEffectName" >
                 <Parameters>
                 <InterpolatingParam id="3055" interp="linr"  time="-9999999/1" value="1" leadInLength="0/1"   name="cursorSize"/>
                 <InterpolatingParam id="3056" interp="linr"  time="-9999999/1" value="0" leadInLength="0/1"   name="highlightBlurRadius"/>
                 <InterpolatingParam id="3057" interp="linr"  time="-9999999/1" value="0" leadInLength="0/1"   name="highlightColorBlue"/>
                 <InterpolatingParam id="3058" interp="linr"  time="-9999999/1" value="255" leadInLength="0/1"   name="highlightColorGreen"/>
                 <InterpolatingParam id="3059" interp="linr"  time="-9999999/1" value="255" leadInLength="0/1"   name="highlightColorRed"/>
                 <InterpolatingParam id="3060" interp="linr"  time="-9999999/1" value="5" leadInLength="0/1"   name="highlightFeatherSize"/>
                 <InterpolatingParam id="3061" interp="linr"  time="-9999999/1" value="2" leadInLength="0/1"   name="highlightMagnification"/>
                 <InterpolatingParam id="3062" interp="linr"  time="-9999999/1" value="1" leadInLength="0/1"   name="highlightOpacity"/>
                 <InterpolatingParam id="3063" interp="linr"  time="-9999999/1" value="45" leadInLength="0/1"   name="highlightSize"/>
                 <Parameter id="3064"   name="highlightType">
                  <Keyframes>
                  <Keyframe id="3065"  time="-9999999/1" value="0" leadInLength="0/1"  />
                  </Keyframes>
                 </Parameter>
                 <InterpolatingParam id="3066" interp="linr"  time="-9999999/1" value="0" leadInLength="0/1"   name="leftClickColorBlue"/>
                 <InterpolatingParam id="3067" interp="linr"  time="-9999999/1" value="0" leadInLength="0/1"   name="leftClickColorGreen"/>
                 <InterpolatingParam id="3068" interp="linr"  time="-9999999/1" value="255" leadInLength="0/1"   name="leftClickColorRed"/>
                 <InterpolatingParam id="3069" interp="linr"  time="-9999999/1" value="0.80000000000000004" leadInLength="0/1"   name="leftClickDuration"/>
                 <InterpolatingParam id="3070" interp="linr"  time="-9999999/1" value="20" leadInLength="0/1"   name="leftClickSize"/>
                 <Parameter id="3071"   name="leftClickSoundFilename">
                  <Keyframes>
                  <Keyframe id="3072"  time="-9999999/1" value="" leadInLength="0/1"  />
                  </Keyframes>
                 </Parameter>
                 <InterpolatingParam id="3073" interp="linr"  time="-9999999/1" value="1" leadInLength="0/1"   name="leftClickSoundVolume"/>
                 <Parameter id="3074"   name="leftClickType">
                  <Keyframes>
                  <Keyframe id="3075"  time="-9999999/1" value="0" leadInLength="0/1"  />
                  </Keyframes>
                 </Parameter>
                 <InterpolatingParam id="3076" interp="linr"  time="-9999999/1" value="1" leadInLength="0/1"   name="opacity"/>
                 <InterpolatingParam id="3077" interp="linr"  time="-9999999/1" value="255" leadInLength="0/1"   name="rightClickColorBlue"/>
                 <InterpolatingParam id="3078" interp="linr"  time="-9999999/1" value="0" leadInLength="0/1"   name="rightClickColorGreen"/>
                 <InterpolatingParam id="3079" interp="linr"  time="-9999999/1" value="0" leadInLength="0/1"   name="rightClickColorRed"/>
                 <InterpolatingParam id="3080" interp="linr"  time="-9999999/1" value="0.80000000000000004" leadInLength="0/1"   name="rightClickDuration"/>
                 <InterpolatingParam id="3081" interp="linr"  time="-9999999/1" value="20" leadInLength="0/1"   name="rightClickSize"/>
                 <Parameter id="3082"   name="rightClickSoundFilename">
                  <Keyframes>
                  <Keyframe id="3083"  time="-9999999/1" value="" leadInLength="0/1"  />
                  </Keyframes>
                 </Parameter>
                 <InterpolatingParam id="3084" interp="linr"  time="-9999999/1" value="1" leadInLength="0/1"   name="rightClickSoundVolume"/>
                 <Parameter id="3085"   name="rightClickType">
                  <Keyframes>
                  <Keyframe id="3086"  time="-9999999/1" value="0" leadInLength="0/1"  />
                  </Keyframes>
                 </Parameter>
                 </Parameters>
                 <MetaData>
                  <entry key="effectIndex" val="0"/>
                 </MetaData>
                </GenericEffect>
               </Effects>
               <Attributes>
                <Attribute id="3087" value="" name="ident"/>
                <Attribute id="3088" value="0" name="mixToMono"/>
               </Attributes>
               <MetaData>
                <entry key="AutoAppliedSmartFocus" val="False"/>
                <entry key="WinSubProjectDisplayName" val=""/>
               </MetaData>
               <ExtraData>
                <Entry key="ZoomPanBin">
                 <ZoomPanBin id="3089"  >
                  <ZoomPanKeyframes>
                   <ZoomPanKeyframe id="3090" timeRangeEnd="-9999999/1" timeRangeDuration="0/1" interpolaterName="linr"  />
                  </ZoomPanKeyframes>
                 </ZoomPanBin>
                </Entry>
                <Entry key="CursorEffectBin">
                 <CursorEffectBin id="3091"  >
                  <CursorEffectKeyframes>
                   <CursorEffectKeyframe id="3092" timeRangeEnd="-9999999/1" timeRangeDuration="0/1" interpolaterName=""  />
                  </CursorEffectKeyframes>
                 </CursorEffectBin>
                </Entry>
               </ExtraData>
               <GenericTrack id="3093"  >
                <Attributes>
                 <Attribute id="3094" value="" name="ident"/>
                 <Attribute id="3095" value="0" name="audioMuted"/>
                 <Attribute id="3096" value="0" name="videoHidden"/>
                </Attributes>
                <MetaData>
                 <entry key="IsLocked" val="False"/>
                 <entry key="WinTrackHeight" val="0"/>
                </MetaData>
                <Medias>
                 <UnifiedMedia id="3097"  >
                  <AMFile id="3098" start="0" duration="185" scalar="1/1" mediaStart="0/1" mediaDuration="185/1" trackNumber="1" src="14" channelNumber="0,1" >
                   <Parameters>
                    <InterpolatingParam id="3099" interp="linr"  time="0/1" value="1" leadInLength="0/1"  name="volume"/>
                    <Parameter id="3100"  name="captions"/>
                   </Parameters>
                   <Attributes>
                    <Attribute id="3101" value="" name="ident"/>
                    <Attribute id="3102" value="44100" name="sampleRate"/>
                    <Attribute id="3103" value="16" name="bitDepth"/>
                    <Attribute id="3104" value="1" name="gain"/>
                    <Attribute id="3105" value="0" name="mixToMono"/>
                   </Attributes>
                  </AMFile>
                  <ScreenVMFile id="3106" start="0" duration="185" scalar="1/1" mediaStart="0/1" mediaDuration="185/1" trackNumber="0" src="14" >
                   <Transformer>
                    <VectorParam id="3107"  name="translation">
                     <InterpolatingParam id="3108" interp="linr"  time="-9999999/1" value="0" leadInLength="0/1"  />
                     <InterpolatingParam id="3109" interp="linr"  time="-9999999/1" value="0" leadInLength="0/1"  />
                     <InterpolatingParam id="3110" interp="linr"  time="-9999999/1" value="0" leadInLength="0/1"  />
                    </VectorParam>
                    <VectorParam id="3111"  name="rotation">
                     <InterpolatingParam id="3112" interp="linr"  time="-9999999/1" value="0" leadInLength="0/1"  />
                     <InterpolatingParam id="3113" interp="linr"  time="-9999999/1" value="0" leadInLength="0/1"  />
                     <InterpolatingParam id="3114" interp="linr"  time="-9999999/1" value="0" leadInLength="0/1"  />
                    </VectorParam>
                    <VectorParam id="3115"  name="shear">
                     <InterpolatingParam id="3116" interp="linr"  time="-9999999/1" value="0" leadInLength="0/1"  />
                     <InterpolatingParam id="3117" interp="linr"  time="-9999999/1" value="0" leadInLength="0/1"  />
                     <InterpolatingParam id="3118" interp="linr"  time="-9999999/1" value="0" leadInLength="0/1"  />
                    </VectorParam>
                    <VectorParam id="3119"  name="scale">
                     <InterpolatingParam id="3120" interp="linr"  time="-9999999/1" value="1" leadInLength="0/1"  />
                     <InterpolatingParam id="3121" interp="linr"  time="-9999999/1" value="1" leadInLength="0/1"  />
                     <InterpolatingParam id="3122" interp="linr"  time="-9999999/1" value="1" leadInLength="0/1"  />
                    </VectorParam>
                    <VectorParam id="3123"  name="anchor">
                     <InterpolatingParam id="3124" interp="linr"  time="0/1" value="0" leadInLength="0/1"  />
                     <InterpolatingParam id="3125" interp="linr"  time="0/1" value="0" leadInLength="0/1"  />
                     <InterpolatingParam id="3126" interp="linr"  time="0/1" value="0" leadInLength="0/1"  />
                    </VectorParam>
                   </Transformer>
                   <Parameters>
                    <VectorParam id="3127"  name="sourceCrop">
                     <InterpolatingParam id="3128" interp="linr"  time="0/1" value="0" leadInLength="0/1"  />
                     <InterpolatingParam id="3129" interp="linr"  time="0/1" value="0" leadInLength="0/1"  />
                     <InterpolatingParam id="3130" interp="linr"  time="0/1" value="0" leadInLength="0/1"  />
                     <InterpolatingParam id="3131" interp="linr"  time="0/1" value="0" leadInLength="0/1"  />
                    </VectorParam>
                    <VectorParam id="3132"  name="geometryCrop">
                     <InterpolatingParam id="3133" interp="linr"  time="-9999999/1" value="0" leadInLength="0/1"  />
                     <InterpolatingParam id="3134" interp="linr"  time="-9999999/1" value="0" leadInLength="0/1"  />
                     <InterpolatingParam id="3135" interp="linr"  time="-9999999/1" value="0" leadInLength="0/1"  />
                     <InterpolatingParam id="3136" interp="linr"  time="-9999999/1" value="0" leadInLength="0/1"  />
                    </VectorParam>
                    <InterpolatingParam id="3137" interp="linr"  time="-9999999/1" value="1" leadInLength="0/1"  name="opacity"/>
                    <InterpolatingParam id="3138" interp="linr"  time="0/1" value="0" leadInLength="0/1"  name="cursorOpacity"/>
                    <InterpolatingParam id="3139" interp="linr"  time="0/1" value="0" leadInLength="0/1"  name="cursorScale"/>
                   </Parameters>
                   <Attributes>
                    <Attribute id="3140" value="" name="ident"/>
                   </Attributes>
                   <ExtraData>
                    <Entry key="ZoomPanBin">
                     <ZoomPanBin id="3141"  >
                      <ZoomPanKeyframes>
                       <ZoomPanKeyframe id="3142" timeRangeEnd="-9999999/1" timeRangeDuration="0/1" interpolaterName="linr"  />
                      </ZoomPanKeyframes>
                     </ZoomPanBin>
                    </Entry>
                    <Entry key="CursorEffectBin">
                     <CursorEffectBin id="3143"  >
                      <CursorEffectKeyframes>
                      </CursorEffectKeyframes>
                     </CursorEffectBin>
                    </Entry>
                   </ExtraData>
                  </ScreenVMFile>
                  <MetaData>
                   <entry key="AutoAppliedSmartFocus" val="False"/>
                   <entry key="WinSubProjectDisplayName" val=""/>
                  </MetaData>
                 </UnifiedMedia>
                 <UnifiedMedia id="3144"  >
                  <AMFile id="3145" start="185" duration="372" scalar="1/1" mediaStart="205/1" mediaDuration="372/1" trackNumber="1" src="14" channelNumber="0,1" >
                   <Parameters>
                    <InterpolatingParam id="3146" interp="linr"  time="0/1" value="1" leadInLength="0/1"  name="volume"/>
                    <Parameter id="3147"  name="captions"/>
                   </Parameters>
                   <Attributes>
                    <Attribute id="3148" value="" name="ident"/>
                    <Attribute id="3149" value="44100" name="sampleRate"/>
                    <Attribute id="3150" value="16" name="bitDepth"/>
                    <Attribute id="3151" value="1" name="gain"/>
                    <Attribute id="3152" value="0" name="mixToMono"/>
                   </Attributes>
                  </AMFile>
                  <ScreenVMFile id="3153" start="185" duration="372" scalar="1/1" mediaStart="205/1" mediaDuration="372/1" trackNumber="0" src="14" >
                   <Transformer>
                    <VectorParam id="3154"  name="translation">
                     <InterpolatingParam id="3155" interp="linr"  time="-9999999/1" value="0" leadInLength="0/1"  />
                     <InterpolatingParam id="3156" interp="linr"  time="-9999999/1" value="0" leadInLength="0/1"  />
                     <InterpolatingParam id="3157" interp="linr"  time="-9999999/1" value="0" leadInLength="0/1"  />
                    </VectorParam>
                    <VectorParam id="3158"  name="rotation">
                     <InterpolatingParam id="3159" interp="linr"  time="-9999999/1" value="0" leadInLength="0/1"  />
                     <InterpolatingParam id="3160" interp="linr"  time="-9999999/1" value="0" leadInLength="0/1"  />
                     <InterpolatingParam id="3161" interp="linr"  time="-9999999/1" value="0" leadInLength="0/1"  />
                    </VectorParam>
                    <VectorParam id="3162"  name="shear">
                     <InterpolatingParam id="3163" interp="linr"  time="-9999999/1" value="0" leadInLength="0/1"  />
                     <InterpolatingParam id="3164" interp="linr"  time="-9999999/1" value="0" leadInLength="0/1"  />
                     <InterpolatingParam id="3165" interp="linr"  time="-9999999/1" value="0" leadInLength="0/1"  />
                    </VectorParam>
                    <VectorParam id="3166"  name="scale">
                     <InterpolatingParam id="3167" interp="linr"  time="-9999999/1" value="1" leadInLength="0/1"  />
                     <InterpolatingParam id="3168" interp="linr"  time="-9999999/1" value="1" leadInLength="0/1"  />
                     <InterpolatingParam id="3169" interp="linr"  time="-9999999/1" value="1" leadInLength="0/1"  />
                    </VectorParam>
                    <VectorParam id="3170"  name="anchor">
                     <InterpolatingParam id="3171" interp="linr"  time="0/1" value="0" leadInLength="0/1"  />
                     <InterpolatingParam id="3172" interp="linr"  time="0/1" value="0" leadInLength="0/1"  />
                     <InterpolatingParam id="3173" interp="linr"  time="0/1" value="0" leadInLength="0/1"  />
                    </VectorParam>
                   </Transformer>
                   <Parameters>
                    <VectorParam id="3174"  name="sourceCrop">
                     <InterpolatingParam id="3175" interp="linr"  time="0/1" value="0" leadInLength="0/1"  />
                     <InterpolatingParam id="3176" interp="linr"  time="0/1" value="0" leadInLength="0/1"  />
                     <InterpolatingParam id="3177" interp="linr"  time="0/1" value="0" leadInLength="0/1"  />
                     <InterpolatingParam id="3178" interp="linr"  time="0/1" value="0" leadInLength="0/1"  />
                    </VectorParam>
                    <VectorParam id="3179"  name="geometryCrop">
                     <InterpolatingParam id="3180" interp="linr"  time="-9999999/1" value="0" leadInLength="0/1"  />
                     <InterpolatingParam id="3181" interp="linr"  time="-9999999/1" value="0" leadInLength="0/1"  />
                     <InterpolatingParam id="3182" interp="linr"  time="-9999999/1" value="0" leadInLength="0/1"  />
                     <InterpolatingParam id="3183" interp="linr"  time="-9999999/1" value="0" leadInLength="0/1"  />
                    </VectorParam>
                    <InterpolatingParam id="3184" interp="linr"  time="-9999999/1" value="1" leadInLength="0/1"  name="opacity"/>
                    <InterpolatingParam id="3185" interp="linr"  time="0/1" value="0" leadInLength="0/1"  name="cursorOpacity"/>
                    <InterpolatingParam id="3186" interp="linr"  time="0/1" value="0" leadInLength="0/1"  name="cursorScale"/>
                   </Parameters>
                   <Attributes>
                    <Attribute id="3187" value="" name="ident"/>
                   </Attributes>
                   <ExtraData>
                    <Entry key="ZoomPanBin">
                     <ZoomPanBin id="3188"  >
                      <ZoomPanKeyframes>
                       <ZoomPanKeyframe id="3189" timeRangeEnd="-9999999/1" timeRangeDuration="0/1" interpolaterName="linr"  />
                      </ZoomPanKeyframes>
                     </ZoomPanBin>
                    </Entry>
                    <Entry key="CursorEffectBin">
                     <CursorEffectBin id="3190"  >
                      <CursorEffectKeyframes>
                      </CursorEffectKeyframes>
                     </CursorEffectBin>
                    </Entry>
                   </ExtraData>
                  </ScreenVMFile>
                  <MetaData>
                   <entry key="AutoAppliedSmartFocus" val="False"/>
                   <entry key="WinSubProjectDisplayName" val=""/>
                  </MetaData>
                 </UnifiedMedia>
                 <UnifiedMedia id="3191"  >
                  <AMFile id="3192" start="557" duration="508" scalar="1/1" mediaStart="585/1" mediaDuration="508/1" trackNumber="1" src="14" channelNumber="0,1" >
                   <Parameters>
                    <InterpolatingParam id="3193" interp="linr"  time="0/1" value="1" leadInLength="0/1"  name="volume"/>
                    <Parameter id="3194"  name="captions"/>
                   </Parameters>
                   <Attributes>
                    <Attribute id="3195" value="" name="ident"/>
                    <Attribute id="3196" value="44100" name="sampleRate"/>
                    <Attribute id="3197" value="16" name="bitDepth"/>
                    <Attribute id="3198" value="1" name="gain"/>
                    <Attribute id="3199" value="0" name="mixToMono"/>
                   </Attributes>
                  </AMFile>
                  <ScreenVMFile id="3200" start="557" duration="508" scalar="1/1" mediaStart="585/1" mediaDuration="508/1" trackNumber="0" src="14" >
                   <Transformer>
                    <VectorParam id="3201"  name="translation">
                     <InterpolatingParam id="3202" interp="linr"  time="-9999999/1" value="0" leadInLength="0/1"  />
                     <InterpolatingParam id="3203" interp="linr"  time="-9999999/1" value="0" leadInLength="0/1"  />
                     <InterpolatingParam id="3204" interp="linr"  time="-9999999/1" value="0" leadInLength="0/1"  />
                    </VectorParam>
                    <VectorParam id="3205"  name="rotation">
                     <InterpolatingParam id="3206" interp="linr"  time="-9999999/1" value="0" leadInLength="0/1"  />
                     <InterpolatingParam id="3207" interp="linr"  time="-9999999/1" value="0" leadInLength="0/1"  />
                     <InterpolatingParam id="3208" interp="linr"  time="-9999999/1" value="0" leadInLength="0/1"  />
                    </VectorParam>
                    <VectorParam id="3209"  name="shear">
                     <InterpolatingParam id="3210" interp="linr"  time="-9999999/1" value="0" leadInLength="0/1"  />
                     <InterpolatingParam id="3211" interp="linr"  time="-9999999/1" value="0" leadInLength="0/1"  />
                     <InterpolatingParam id="3212" interp="linr"  time="-9999999/1" value="0" leadInLength="0/1"  />
                    </VectorParam>
                    <VectorParam id="3213"  name="scale">
                     <InterpolatingParam id="3214" interp="linr"  time="-9999999/1" value="1" leadInLength="0/1"  />
                     <InterpolatingParam id="3215" interp="linr"  time="-9999999/1" value="1" leadInLength="0/1"  />
                     <InterpolatingParam id="3216" interp="linr"  time="-9999999/1" value="1" leadInLength="0/1"  />
                    </VectorParam>
                    <VectorParam id="3217"  name="anchor">
                     <InterpolatingParam id="3218" interp="linr"  time="0/1" value="0" leadInLength="0/1"  />
                     <InterpolatingParam id="3219" interp="linr"  time="0/1" value="0" leadInLength="0/1"  />
                     <InterpolatingParam id="3220" interp="linr"  time="0/1" value="0" leadInLength="0/1"  />
                    </VectorParam>
                   </Transformer>
                   <Parameters>
                    <VectorParam id="3221"  name="sourceCrop">
                     <InterpolatingParam id="3222" interp="linr"  time="0/1" value="0" leadInLength="0/1"  />
                     <InterpolatingParam id="3223" interp="linr"  time="0/1" value="0" leadInLength="0/1"  />
                     <InterpolatingParam id="3224" interp="linr"  time="0/1" value="0" leadInLength="0/1"  />
                     <InterpolatingParam id="3225" interp="linr"  time="0/1" value="0" leadInLength="0/1"  />
                    </VectorParam>
                    <VectorParam id="3226"  name="geometryCrop">
                     <InterpolatingParam id="3227" interp="linr"  time="-9999999/1" value="0" leadInLength="0/1"  />
                     <InterpolatingParam id="3228" interp="linr"  time="-9999999/1" value="0" leadInLength="0/1"  />
                     <InterpolatingParam id="3229" interp="linr"  time="-9999999/1" value="0" leadInLength="0/1"  />
                     <InterpolatingParam id="3230" interp="linr"  time="-9999999/1" value="0" leadInLength="0/1"  />
                    </VectorParam>
                    <InterpolatingParam id="3231" interp="linr"  time="-9999999/1" value="1" leadInLength="0/1"  name="opacity"/>
                    <InterpolatingParam id="3232" interp="linr"  time="0/1" value="0" leadInLength="0/1"  name="cursorOpacity"/>
                    <InterpolatingParam id="3233" interp="linr"  time="0/1" value="0" leadInLength="0/1"  name="cursorScale"/>
                   </Parameters>
                   <Attributes>
                    <Attribute id="3234" value="" name="ident"/>
                   </Attributes>
                   <ExtraData>
                    <Entry key="ZoomPanBin">
                     <ZoomPanBin id="3235"  >
                      <ZoomPanKeyframes>
                       <ZoomPanKeyframe id="3236" timeRangeEnd="-9999999/1" timeRangeDuration="0/1" interpolaterName="linr"  />
                      </ZoomPanKeyframes>
                     </ZoomPanBin>
                    </Entry>
                    <Entry key="CursorEffectBin">
                     <CursorEffectBin id="3237"  >
                      <CursorEffectKeyframes>
                      </CursorEffectKeyframes>
                     </CursorEffectBin>
                    </Entry>
                   </ExtraData>
                  </ScreenVMFile>
                  <MetaData>
                   <entry key="AutoAppliedSmartFocus" val="False"/>
                   <entry key="WinSubProjectDisplayName" val=""/>
                  </MetaData>
                 </UnifiedMedia>
                 <UnifiedMedia id="3238"  >
                  <AMFile id="3239" start="1065" duration="2085" scalar="1/1" mediaStart="1109/1" mediaDuration="2085/1" trackNumber="1" src="14" channelNumber="0,1" >
                   <Parameters>
                    <InterpolatingParam id="3240" interp="linr"  time="0/1" value="1" leadInLength="0/1"  name="volume"/>
                    <Parameter id="3241"  name="captions"/>
                   </Parameters>
                   <Attributes>
                    <Attribute id="3242" value="" name="ident"/>
                    <Attribute id="3243" value="44100" name="sampleRate"/>
                    <Attribute id="3244" value="16" name="bitDepth"/>
                    <Attribute id="3245" value="1" name="gain"/>
                    <Attribute id="3246" value="0" name="mixToMono"/>
                   </Attributes>
                  </AMFile>
                  <ScreenVMFile id="3247" start="1065" duration="2085" scalar="1/1" mediaStart="1109/1" mediaDuration="2085/1" trackNumber="0" src="14" >
                   <Transformer>
                    <VectorParam id="3248"  name="translation">
                     <InterpolatingParam id="3249" interp="linr"  time="-9999999/1" value="0" leadInLength="0/1"  />
                     <InterpolatingParam id="3250" interp="linr"  time="-9999999/1" value="0" leadInLength="0/1"  />
                     <InterpolatingParam id="3251" interp="linr"  time="-9999999/1" value="0" leadInLength="0/1"  />
                    </VectorParam>
                    <VectorParam id="3252"  name="rotation">
                     <InterpolatingParam id="3253" interp="linr"  time="-9999999/1" value="0" leadInLength="0/1"  />
                     <InterpolatingParam id="3254" interp="linr"  time="-9999999/1" value="0" leadInLength="0/1"  />
                     <InterpolatingParam id="3255" interp="linr"  time="-9999999/1" value="0" leadInLength="0/1"  />
                    </VectorParam>
                    <VectorParam id="3256"  name="shear">
                     <InterpolatingParam id="3257" interp="linr"  time="-9999999/1" value="0" leadInLength="0/1"  />
                     <InterpolatingParam id="3258" interp="linr"  time="-9999999/1" value="0" leadInLength="0/1"  />
                     <InterpolatingParam id="3259" interp="linr"  time="-9999999/1" value="0" leadInLength="0/1"  />
                    </VectorParam>
                    <VectorParam id="3260"  name="scale">
                     <InterpolatingParam id="3261" interp="linr"  time="-9999999/1" value="1" leadInLength="0/1"  />
                     <InterpolatingParam id="3262" interp="linr"  time="-9999999/1" value="1" leadInLength="0/1"  />
                     <InterpolatingParam id="3263" interp="linr"  time="-9999999/1" value="1" leadInLength="0/1"  />
                    </VectorParam>
                    <VectorParam id="3264"  name="anchor">
                     <InterpolatingParam id="3265" interp="linr"  time="0/1" value="0" leadInLength="0/1"  />
                     <InterpolatingParam id="3266" interp="linr"  time="0/1" value="0" leadInLength="0/1"  />
                     <InterpolatingParam id="3267" interp="linr"  time="0/1" value="0" leadInLength="0/1"  />
                    </VectorParam>
                   </Transformer>
                   <Parameters>
                    <VectorParam id="3268"  name="sourceCrop">
                     <InterpolatingParam id="3269" interp="linr"  time="0/1" value="0" leadInLength="0/1"  />
                     <InterpolatingParam id="3270" interp="linr"  time="0/1" value="0" leadInLength="0/1"  />
                     <InterpolatingParam id="3271" interp="linr"  time="0/1" value="0" leadInLength="0/1"  />
                     <InterpolatingParam id="3272" interp="linr"  time="0/1" value="0" leadInLength="0/1"  />
                    </VectorParam>
                    <VectorParam id="3273"  name="geometryCrop">
                     <InterpolatingParam id="3274" interp="linr"  time="-9999999/1" value="0" leadInLength="0/1"  />
                     <InterpolatingParam id="3275" interp="linr"  time="-9999999/1" value="0" leadInLength="0/1"  />
                     <InterpolatingParam id="3276" interp="linr"  time="-9999999/1" value="0" leadInLength="0/1"  />
                     <InterpolatingParam id="3277" interp="linr"  time="-9999999/1" value="0" leadInLength="0/1"  />
                    </VectorParam>
                    <InterpolatingParam id="3278" interp="linr"  time="-9999999/1" value="1" leadInLength="0/1"  name="opacity"/>
                    <InterpolatingParam id="3279" interp="linr"  time="0/1" value="0" leadInLength="0/1"  name="cursorOpacity"/>
                    <InterpolatingParam id="3280" interp="linr"  time="0/1" value="0" leadInLength="0/1"  name="cursorScale"/>
                   </Parameters>
                   <Attributes>
                    <Attribute id="3281" value="" name="ident"/>
                   </Attributes>
                   <ExtraData>
                    <Entry key="ZoomPanBin">
                     <ZoomPanBin id="3282"  >
                      <ZoomPanKeyframes>
                       <ZoomPanKeyframe id="3283" timeRangeEnd="-9999999/1" timeRangeDuration="0/1" interpolaterName="linr"  />
                      </ZoomPanKeyframes>
                     </ZoomPanBin>
                    </Entry>
                    <Entry key="CursorEffectBin">
                     <CursorEffectBin id="3284"  >
                      <CursorEffectKeyframes>
                      </CursorEffectKeyframes>
                     </CursorEffectBin>
                    </Entry>
                   </ExtraData>
                  </ScreenVMFile>
                  <MetaData>
                   <entry key="AutoAppliedSmartFocus" val="False"/>
                   <entry key="WinSubProjectDisplayName" val=""/>
                  </MetaData>
                 </UnifiedMedia>
                 <UnifiedMedia id="3285"  >
                  <AMFile id="3286" start="3150" duration="907" scalar="1/1" mediaStart="3220/1" mediaDuration="907/1" trackNumber="1" src="14" channelNumber="0,1" >
                   <Parameters>
                    <InterpolatingParam id="3287" interp="linr"  time="0/1" value="1" leadInLength="0/1"  name="volume"/>
                    <Parameter id="3288"  name="captions"/>
                   </Parameters>
                   <Attributes>
                    <Attribute id="3289" value="" name="ident"/>
                    <Attribute id="3290" value="44100" name="sampleRate"/>
                    <Attribute id="3291" value="16" name="bitDepth"/>
                    <Attribute id="3292" value="1" name="gain"/>
                    <Attribute id="3293" value="0" name="mixToMono"/>
                   </Attributes>
                  </AMFile>
                  <ScreenVMFile id="3294" start="3150" duration="907" scalar="1/1" mediaStart="3220/1" mediaDuration="907/1" trackNumber="0" src="14" >
                   <Transformer>
                    <VectorParam id="3295"  name="translation">
                     <InterpolatingParam id="3296" interp="linr"  time="-9999999/1" value="0" leadInLength="0/1"  />
                     <InterpolatingParam id="3297" interp="linr"  time="-9999999/1" value="0" leadInLength="0/1"  />
                     <InterpolatingParam id="3298" interp="linr"  time="-9999999/1" value="0" leadInLength="0/1"  />
                    </VectorParam>
                    <VectorParam id="3299"  name="rotation">
                     <InterpolatingParam id="3300" interp="linr"  time="-9999999/1" value="0" leadInLength="0/1"  />
                     <InterpolatingParam id="3301" interp="linr"  time="-9999999/1" value="0" leadInLength="0/1"  />
                     <InterpolatingParam id="3302" interp="linr"  time="-9999999/1" value="0" leadInLength="0/1"  />
                    </VectorParam>
                    <VectorParam id="3303"  name="shear">
                     <InterpolatingParam id="3304" interp="linr"  time="-9999999/1" value="0" leadInLength="0/1"  />
                     <InterpolatingParam id="3305" interp="linr"  time="-9999999/1" value="0" leadInLength="0/1"  />
                     <InterpolatingParam id="3306" interp="linr"  time="-9999999/1" value="0" leadInLength="0/1"  />
                    </VectorParam>
                    <VectorParam id="3307"  name="scale">
                     <InterpolatingParam id="3308" interp="linr"  time="-9999999/1" value="1" leadInLength="0/1"  />
                     <InterpolatingParam id="3309" interp="linr"  time="-9999999/1" value="1" leadInLength="0/1"  />
                     <InterpolatingParam id="3310" interp="linr"  time="-9999999/1" value="1" leadInLength="0/1"  />
                    </VectorParam>
                    <VectorParam id="3311"  name="anchor">
                     <InterpolatingParam id="3312" interp="linr"  time="0/1" value="0" leadInLength="0/1"  />
                     <InterpolatingParam id="3313" interp="linr"  time="0/1" value="0" leadInLength="0/1"  />
                     <InterpolatingParam id="3314" interp="linr"  time="0/1" value="0" leadInLength="0/1"  />
                    </VectorParam>
                   </Transformer>
                   <Parameters>
                    <VectorParam id="3315"  name="sourceCrop">
                     <InterpolatingParam id="3316" interp="linr"  time="0/1" value="0" leadInLength="0/1"  />
                     <InterpolatingParam id="3317" interp="linr"  time="0/1" value="0" leadInLength="0/1"  />
                     <InterpolatingParam id="3318" interp="linr"  time="0/1" value="0" leadInLength="0/1"  />
                     <InterpolatingParam id="3319" interp="linr"  time="0/1" value="0" leadInLength="0/1"  />
                    </VectorParam>
                    <VectorParam id="3320"  name="geometryCrop">
                     <InterpolatingParam id="3321" interp="linr"  time="-9999999/1" value="0" leadInLength="0/1"  />
                     <InterpolatingParam id="3322" interp="linr"  time="-9999999/1" value="0" leadInLength="0/1"  />
                     <InterpolatingParam id="3323" interp="linr"  time="-9999999/1" value="0" leadInLength="0/1"  />
                     <InterpolatingParam id="3324" interp="linr"  time="-9999999/1" value="0" leadInLength="0/1"  />
                    </VectorParam>
                    <InterpolatingParam id="3325" interp="linr"  time="-9999999/1" value="1" leadInLength="0/1"  name="opacity"/>
                    <InterpolatingParam id="3326" interp="linr"  time="0/1" value="0" leadInLength="0/1"  name="cursorOpacity"/>
                    <InterpolatingParam id="3327" interp="linr"  time="0/1" value="0" leadInLength="0/1"  name="cursorScale"/>
                   </Parameters>
                   <Attributes>
                    <Attribute id="3328" value="" name="ident"/>
                   </Attributes>
                   <ExtraData>
                    <Entry key="ZoomPanBin">
                     <ZoomPanBin id="3329"  >
                      <ZoomPanKeyframes>
                       <ZoomPanKeyframe id="3330" timeRangeEnd="-9999999/1" timeRangeDuration="0/1" interpolaterName="linr"  />
                      </ZoomPanKeyframes>
                     </ZoomPanBin>
                    </Entry>
                    <Entry key="CursorEffectBin">
                     <CursorEffectBin id="3331"  >
                      <CursorEffectKeyframes>
                      </CursorEffectKeyframes>
                     </CursorEffectBin>
                    </Entry>
                   </ExtraData>
                  </ScreenVMFile>
                  <MetaData>
                   <entry key="AutoAppliedSmartFocus" val="False"/>
                   <entry key="WinSubProjectDisplayName" val=""/>
                  </MetaData>
                 </UnifiedMedia>
                 <UnifiedMedia id="3332"  >
                  <AMFile id="3333" start="4057" duration="5466" scalar="1/1" mediaStart="4182/1" mediaDuration="5466/1" trackNumber="1" src="14" channelNumber="0,1" >
                   <Parameters>
                    <InterpolatingParam id="3334" interp="linr"  time="0/1" value="1" leadInLength="0/1"  name="volume"/>
                    <Parameter id="3335"  name="captions"/>
                   </Parameters>
                   <Attributes>
                    <Attribute id="3336" value="" name="ident"/>
                    <Attribute id="3337" value="44100" name="sampleRate"/>
                    <Attribute id="3338" value="16" name="bitDepth"/>
                    <Attribute id="3339" value="1" name="gain"/>
                    <Attribute id="3340" value="0" name="mixToMono"/>
                   </Attributes>
                  </AMFile>
                  <ScreenVMFile id="3341" start="4057" duration="5466" scalar="1/1" mediaStart="4182/1" mediaDuration="5466/1" trackNumber="0" src="14" >
                   <Transformer>
                    <VectorParam id="3342"  name="translation">
                     <InterpolatingParam id="3343" interp="linr"  time="-9999999/1" value="0" leadInLength="0/1"  />
                     <InterpolatingParam id="3344" interp="linr"  time="-9999999/1" value="0" leadInLength="0/1"  />
                     <InterpolatingParam id="3345" interp="linr"  time="-9999999/1" value="0" leadInLength="0/1"  />
                    </VectorParam>
                    <VectorParam id="3346"  name="rotation">
                     <InterpolatingParam id="3347" interp="linr"  time="-9999999/1" value="0" leadInLength="0/1"  />
                     <InterpolatingParam id="3348" interp="linr"  time="-9999999/1" value="0" leadInLength="0/1"  />
                     <InterpolatingParam id="3349" interp="linr"  time="-9999999/1" value="0" leadInLength="0/1"  />
                    </VectorParam>
                    <VectorParam id="3350"  name="shear">
                     <InterpolatingParam id="3351" interp="linr"  time="-9999999/1" value="0" leadInLength="0/1"  />
                     <InterpolatingParam id="3352" interp="linr"  time="-9999999/1" value="0" leadInLength="0/1"  />
                     <InterpolatingParam id="3353" interp="linr"  time="-9999999/1" value="0" leadInLength="0/1"  />
                    </VectorParam>
                    <VectorParam id="3354"  name="scale">
                     <InterpolatingParam id="3355" interp="linr"  time="-9999999/1" value="1" leadInLength="0/1"  />
                     <InterpolatingParam id="3356" interp="linr"  time="-9999999/1" value="1" leadInLength="0/1"  />
                     <InterpolatingParam id="3357" interp="linr"  time="-9999999/1" value="1" leadInLength="0/1"  />
                    </VectorParam>
                    <VectorParam id="3358"  name="anchor">
                     <InterpolatingParam id="3359" interp="linr"  time="0/1" value="0" leadInLength="0/1"  />
                     <InterpolatingParam id="3360" interp="linr"  time="0/1" value="0" leadInLength="0/1"  />
                     <InterpolatingParam id="3361" interp="linr"  time="0/1" value="0" leadInLength="0/1"  />
                    </VectorParam>
                   </Transformer>
                   <Parameters>
                    <VectorParam id="3362"  name="sourceCrop">
                     <InterpolatingParam id="3363" interp="linr"  time="0/1" value="0" leadInLength="0/1"  />
                     <InterpolatingParam id="3364" interp="linr"  time="0/1" value="0" leadInLength="0/1"  />
                     <InterpolatingParam id="3365" interp="linr"  time="0/1" value="0" leadInLength="0/1"  />
                     <InterpolatingParam id="3366" interp="linr"  time="0/1" value="0" leadInLength="0/1"  />
                    </VectorParam>
                    <VectorParam id="3367"  name="geometryCrop">
                     <InterpolatingParam id="3368" interp="linr"  time="-9999999/1" value="0" leadInLength="0/1"  />
                     <InterpolatingParam id="3369" interp="linr"  time="-9999999/1" value="0" leadInLength="0/1"  />
                     <InterpolatingParam id="3370" interp="linr"  time="-9999999/1" value="0" leadInLength="0/1"  />
                     <InterpolatingParam id="3371" interp="linr"  time="-9999999/1" value="0" leadInLength="0/1"  />
                    </VectorParam>
                    <InterpolatingParam id="3372" interp="linr"  time="-9999999/1" value="1" leadInLength="0/1"  name="opacity"/>
                    <InterpolatingParam id="3373" interp="linr"  time="0/1" value="0" leadInLength="0/1"  name="cursorOpacity"/>
                    <InterpolatingParam id="3374" interp="linr"  time="0/1" value="0" leadInLength="0/1"  name="cursorScale"/>
                   </Parameters>
                   <Attributes>
                    <Attribute id="3375" value="" name="ident"/>
                   </Attributes>
                   <ExtraData>
                    <Entry key="ZoomPanBin">
                     <ZoomPanBin id="3376"  >
                      <ZoomPanKeyframes>
                       <ZoomPanKeyframe id="3377" timeRangeEnd="-9999999/1" timeRangeDuration="0/1" interpolaterName="linr"  />
                      </ZoomPanKeyframes>
                     </ZoomPanBin>
                    </Entry>
                    <Entry key="CursorEffectBin">
                     <CursorEffectBin id="3378"  >
                      <CursorEffectKeyframes>
                      </CursorEffectKeyframes>
                     </CursorEffectBin>
                    </Entry>
                   </ExtraData>
                  </ScreenVMFile>
                  <MetaData>
                   <entry key="AutoAppliedSmartFocus" val="False"/>
                   <entry key="WinSubProjectDisplayName" val=""/>
                  </MetaData>
                 </UnifiedMedia>
                 <UnifiedMedia id="3379"  >
                  <AMFile id="3380" start="9523" duration="679" scalar="1/1" mediaStart="9658/1" mediaDuration="679/1" trackNumber="1" src="14" channelNumber="0,1" >
                   <Parameters>
                    <InterpolatingParam id="3381" interp="linr"  time="0/1" value="1" leadInLength="0/1"  name="volume"/>
                    <Parameter id="3382"  name="captions"/>
                   </Parameters>
                   <Attributes>
                    <Attribute id="3383" value="" name="ident"/>
                    <Attribute id="3384" value="44100" name="sampleRate"/>
                    <Attribute id="3385" value="16" name="bitDepth"/>
                    <Attribute id="3386" value="1" name="gain"/>
                    <Attribute id="3387" value="0" name="mixToMono"/>
                   </Attributes>
                  </AMFile>
                  <ScreenVMFile id="3388" start="9523" duration="679" scalar="1/1" mediaStart="9658/1" mediaDuration="679/1" trackNumber="0" src="14" >
                   <Transformer>
                    <VectorParam id="3389"  name="translation">
                     <InterpolatingParam id="3390" interp="linr"  time="-9999999/1" value="0" leadInLength="0/1"  />
                     <InterpolatingParam id="3391" interp="linr"  time="-9999999/1" value="0" leadInLength="0/1"  />
                     <InterpolatingParam id="3392" interp="linr"  time="-9999999/1" value="0" leadInLength="0/1"  />
                    </VectorParam>
                    <VectorParam id="3393"  name="rotation">
                     <InterpolatingParam id="3394" interp="linr"  time="-9999999/1" value="0" leadInLength="0/1"  />
                     <InterpolatingParam id="3395" interp="linr"  time="-9999999/1" value="0" leadInLength="0/1"  />
                     <InterpolatingParam id="3396" interp="linr"  time="-9999999/1" value="0" leadInLength="0/1"  />
                    </VectorParam>
                    <VectorParam id="3397"  name="shear">
                     <InterpolatingParam id="3398" interp="linr"  time="-9999999/1" value="0" leadInLength="0/1"  />
                     <InterpolatingParam id="3399" interp="linr"  time="-9999999/1" value="0" leadInLength="0/1"  />
                     <InterpolatingParam id="3400" interp="linr"  time="-9999999/1" value="0" leadInLength="0/1"  />
                    </VectorParam>
                    <VectorParam id="3401"  name="scale">
                     <InterpolatingParam id="3402" interp="linr"  time="-9999999/1" value="1" leadInLength="0/1"  />
                     <InterpolatingParam id="3403" interp="linr"  time="-9999999/1" value="1" leadInLength="0/1"  />
                     <InterpolatingParam id="3404" interp="linr"  time="-9999999/1" value="1" leadInLength="0/1"  />
                    </VectorParam>
                    <VectorParam id="3405"  name="anchor">
                     <InterpolatingParam id="3406" interp="linr"  time="0/1" value="0" leadInLength="0/1"  />
                     <InterpolatingParam id="3407" interp="linr"  time="0/1" value="0" leadInLength="0/1"  />
                     <InterpolatingParam id="3408" interp="linr"  time="0/1" value="0" leadInLength="0/1"  />
                    </VectorParam>
                   </Transformer>
                   <Parameters>
                    <VectorParam id="3409"  name="sourceCrop">
                     <InterpolatingParam id="3410" interp="linr"  time="0/1" value="0" leadInLength="0/1"  />
                     <InterpolatingParam id="3411" interp="linr"  time="0/1" value="0" leadInLength="0/1"  />
                     <InterpolatingParam id="3412" interp="linr"  time="0/1" value="0" leadInLength="0/1"  />
                     <InterpolatingParam id="3413" interp="linr"  time="0/1" value="0" leadInLength="0/1"  />
                    </VectorParam>
                    <VectorParam id="3414"  name="geometryCrop">
                     <InterpolatingParam id="3415" interp="linr"  time="-9999999/1" value="0" leadInLength="0/1"  />
                     <InterpolatingParam id="3416" interp="linr"  time="-9999999/1" value="0" leadInLength="0/1"  />
                     <InterpolatingParam id="3417" interp="linr"  time="-9999999/1" value="0" leadInLength="0/1"  />
                     <InterpolatingParam id="3418" interp="linr"  time="-9999999/1" value="0" leadInLength="0/1"  />
                    </VectorParam>
                    <InterpolatingParam id="3419" interp="linr"  time="-9999999/1" value="1" leadInLength="0/1"  name="opacity"/>
                    <InterpolatingParam id="3420" interp="linr"  time="0/1" value="0" leadInLength="0/1"  name="cursorOpacity"/>
                    <InterpolatingParam id="3421" interp="linr"  time="0/1" value="0" leadInLength="0/1"  name="cursorScale"/>
                   </Parameters>
                   <Attributes>
                    <Attribute id="3422" value="" name="ident"/>
                   </Attributes>
                   <ExtraData>
                    <Entry key="ZoomPanBin">
                     <ZoomPanBin id="3423"  >
                      <ZoomPanKeyframes>
                       <ZoomPanKeyframe id="3424" timeRangeEnd="-9999999/1" timeRangeDuration="0/1" interpolaterName="linr"  />
                      </ZoomPanKeyframes>
                     </ZoomPanBin>
                    </Entry>
                    <Entry key="CursorEffectBin">
                     <CursorEffectBin id="3425"  >
                      <CursorEffectKeyframes>
                      </CursorEffectKeyframes>
                     </CursorEffectBin>
                    </Entry>
                   </ExtraData>
                  </ScreenVMFile>
                  <MetaData>
                   <entry key="AutoAppliedSmartFocus" val="False"/>
                   <entry key="WinSubProjectDisplayName" val=""/>
                  </MetaData>
                 </UnifiedMedia>
                 <UnifiedMedia id="3426"  >
                  <AMFile id="3427" start="10202" duration="152" scalar="1/1" mediaStart="10349/1" mediaDuration="152/1" trackNumber="1" src="14" channelNumber="0,1" >
                   <Parameters>
                    <InterpolatingParam id="3428" interp="linr"  time="0/1" value="1" leadInLength="0/1"  name="volume"/>
                    <Parameter id="3429"  name="captions"/>
                   </Parameters>
                   <Attributes>
                    <Attribute id="3430" value="" name="ident"/>
                    <Attribute id="3431" value="44100" name="sampleRate"/>
                    <Attribute id="3432" value="16" name="bitDepth"/>
                    <Attribute id="3433" value="1" name="gain"/>
                    <Attribute id="3434" value="0" name="mixToMono"/>
                   </Attributes>
                  </AMFile>
                  <ScreenVMFile id="3435" start="10202" duration="152" scalar="1/1" mediaStart="10349/1" mediaDuration="152/1" trackNumber="0" src="14" >
                   <Transformer>
                    <VectorParam id="3436"  name="translation">
                     <InterpolatingParam id="3437" interp="linr"  time="-9999999/1" value="0" leadInLength="0/1"  />
                     <InterpolatingParam id="3438" interp="linr"  time="-9999999/1" value="0" leadInLength="0/1"  />
                     <InterpolatingParam id="3439" interp="linr"  time="-9999999/1" value="0" leadInLength="0/1"  />
                    </VectorParam>
                    <VectorParam id="3440"  name="rotation">
                     <InterpolatingParam id="3441" interp="linr"  time="-9999999/1" value="0" leadInLength="0/1"  />
                     <InterpolatingParam id="3442" interp="linr"  time="-9999999/1" value="0" leadInLength="0/1"  />
                     <InterpolatingParam id="3443" interp="linr"  time="-9999999/1" value="0" leadInLength="0/1"  />
                    </VectorParam>
                    <VectorParam id="3444"  name="shear">
                     <InterpolatingParam id="3445" interp="linr"  time="-9999999/1" value="0" leadInLength="0/1"  />
                     <InterpolatingParam id="3446" interp="linr"  time="-9999999/1" value="0" leadInLength="0/1"  />
                     <InterpolatingParam id="3447" interp="linr"  time="-9999999/1" value="0" leadInLength="0/1"  />
                    </VectorParam>
                    <VectorParam id="3448"  name="scale">
                     <InterpolatingParam id="3449" interp="linr"  time="-9999999/1" value="1" leadInLength="0/1"  />
                     <InterpolatingParam id="3450" interp="linr"  time="-9999999/1" value="1" leadInLength="0/1"  />
                     <InterpolatingParam id="3451" interp="linr"  time="-9999999/1" value="1" leadInLength="0/1"  />
                    </VectorParam>
                    <VectorParam id="3452"  name="anchor">
                     <InterpolatingParam id="3453" interp="linr"  time="0/1" value="0" leadInLength="0/1"  />
                     <InterpolatingParam id="3454" interp="linr"  time="0/1" value="0" leadInLength="0/1"  />
                     <InterpolatingParam id="3455" interp="linr"  time="0/1" value="0" leadInLength="0/1"  />
                    </VectorParam>
                   </Transformer>
                   <Parameters>
                    <VectorParam id="3456"  name="sourceCrop">
                     <InterpolatingParam id="3457" interp="linr"  time="0/1" value="0" leadInLength="0/1"  />
                     <InterpolatingParam id="3458" interp="linr"  time="0/1" value="0" leadInLength="0/1"  />
                     <InterpolatingParam id="3459" interp="linr"  time="0/1" value="0" leadInLength="0/1"  />
                     <InterpolatingParam id="3460" interp="linr"  time="0/1" value="0" leadInLength="0/1"  />
                    </VectorParam>
                    <VectorParam id="3461"  name="geometryCrop">
                     <InterpolatingParam id="3462" interp="linr"  time="-9999999/1" value="0" leadInLength="0/1"  />
                     <InterpolatingParam id="3463" interp="linr"  time="-9999999/1" value="0" leadInLength="0/1"  />
                     <InterpolatingParam id="3464" interp="linr"  time="-9999999/1" value="0" leadInLength="0/1"  />
                     <InterpolatingParam id="3465" interp="linr"  time="-9999999/1" value="0" leadInLength="0/1"  />
                    </VectorParam>
                    <InterpolatingParam id="3466" interp="linr"  time="-9999999/1" value="1" leadInLength="0/1"  name="opacity"/>
                    <InterpolatingParam id="3467" interp="linr"  time="0/1" value="0" leadInLength="0/1"  name="cursorOpacity"/>
                    <InterpolatingParam id="3468" interp="linr"  time="0/1" value="0" leadInLength="0/1"  name="cursorScale"/>
                   </Parameters>
                   <Attributes>
                    <Attribute id="3469" value="" name="ident"/>
                   </Attributes>
                   <ExtraData>
                    <Entry key="ZoomPanBin">
                     <ZoomPanBin id="3470"  >
                      <ZoomPanKeyframes>
                       <ZoomPanKeyframe id="3471" timeRangeEnd="-9999999/1" timeRangeDuration="0/1" interpolaterName="linr"  />
                      </ZoomPanKeyframes>
                     </ZoomPanBin>
                    </Entry>
                    <Entry key="CursorEffectBin">
                     <CursorEffectBin id="3472"  >
                      <CursorEffectKeyframes>
                      </CursorEffectKeyframes>
                     </CursorEffectBin>
                    </Entry>
                   </ExtraData>
                  </ScreenVMFile>
                  <MetaData>
                   <entry key="AutoAppliedSmartFocus" val="False"/>
                   <entry key="WinSubProjectDisplayName" val=""/>
                  </MetaData>
                 </UnifiedMedia>
                 <UnifiedMedia id="3473"  >
                  <AMFile id="3474" start="10354" duration="763" scalar="1/1" mediaStart="10597/1" mediaDuration="763/1" trackNumber="1" src="14" channelNumber="0,1" >
                   <Parameters>
                    <InterpolatingParam id="3475" interp="linr"  time="0/1" value="1" leadInLength="0/1"  name="volume"/>
                    <Parameter id="3476"  name="captions"/>
                   </Parameters>
                   <Attributes>
                    <Attribute id="3477" value="" name="ident"/>
                    <Attribute id="3478" value="44100" name="sampleRate"/>
                    <Attribute id="3479" value="16" name="bitDepth"/>
                    <Attribute id="3480" value="1" name="gain"/>
                    <Attribute id="3481" value="0" name="mixToMono"/>
                   </Attributes>
                  </AMFile>
                  <ScreenVMFile id="3482" start="10354" duration="763" scalar="1/1" mediaStart="10597/1" mediaDuration="763/1" trackNumber="0" src="14" >
                   <Transformer>
                    <VectorParam id="3483"  name="translation">
                     <InterpolatingParam id="3484" interp="linr"  time="-9999999/1" value="0" leadInLength="0/1"  />
                     <InterpolatingParam id="3485" interp="linr"  time="-9999999/1" value="0" leadInLength="0/1"  />
                     <InterpolatingParam id="3486" interp="linr"  time="-9999999/1" value="0" leadInLength="0/1"  />
                    </VectorParam>
                    <VectorParam id="3487"  name="rotation">
                     <InterpolatingParam id="3488" interp="linr"  time="-9999999/1" value="0" leadInLength="0/1"  />
                     <InterpolatingParam id="3489" interp="linr"  time="-9999999/1" value="0" leadInLength="0/1"  />
                     <InterpolatingParam id="3490" interp="linr"  time="-9999999/1" value="0" leadInLength="0/1"  />
                    </VectorParam>
                    <VectorParam id="3491"  name="shear">
                     <InterpolatingParam id="3492" interp="linr"  time="-9999999/1" value="0" leadInLength="0/1"  />
                     <InterpolatingParam id="3493" interp="linr"  time="-9999999/1" value="0" leadInLength="0/1"  />
                     <InterpolatingParam id="3494" interp="linr"  time="-9999999/1" value="0" leadInLength="0/1"  />
                    </VectorParam>
                    <VectorParam id="3495"  name="scale">
                     <InterpolatingParam id="3496" interp="linr"  time="-9999999/1" value="1" leadInLength="0/1"  />
                     <InterpolatingParam id="3497" interp="linr"  time="-9999999/1" value="1" leadInLength="0/1"  />
                     <InterpolatingParam id="3498" interp="linr"  time="-9999999/1" value="1" leadInLength="0/1"  />
                    </VectorParam>
                    <VectorParam id="3499"  name="anchor">
                     <InterpolatingParam id="3500" interp="linr"  time="0/1" value="0" leadInLength="0/1"  />
                     <InterpolatingParam id="3501" interp="linr"  time="0/1" value="0" leadInLength="0/1"  />
                     <InterpolatingParam id="3502" interp="linr"  time="0/1" value="0" leadInLength="0/1"  />
                    </VectorParam>
                   </Transformer>
                   <Parameters>
                    <VectorParam id="3503"  name="sourceCrop">
                     <InterpolatingParam id="3504" interp="linr"  time="0/1" value="0" leadInLength="0/1"  />
                     <InterpolatingParam id="3505" interp="linr"  time="0/1" value="0" leadInLength="0/1"  />
                     <InterpolatingParam id="3506" interp="linr"  time="0/1" value="0" leadInLength="0/1"  />
                     <InterpolatingParam id="3507" interp="linr"  time="0/1" value="0" leadInLength="0/1"  />
                    </VectorParam>
                    <VectorParam id="3508"  name="geometryCrop">
                     <InterpolatingParam id="3509" interp="linr"  time="-9999999/1" value="0" leadInLength="0/1"  />
                     <InterpolatingParam id="3510" interp="linr"  time="-9999999/1" value="0" leadInLength="0/1"  />
                     <InterpolatingParam id="3511" interp="linr"  time="-9999999/1" value="0" leadInLength="0/1"  />
                     <InterpolatingParam id="3512" interp="linr"  time="-9999999/1" value="0" leadInLength="0/1"  />
                    </VectorParam>
                    <InterpolatingParam id="3513" interp="linr"  time="-9999999/1" value="1" leadInLength="0/1"  name="opacity"/>
                    <InterpolatingParam id="3514" interp="linr"  time="0/1" value="0" leadInLength="0/1"  name="cursorOpacity"/>
                    <InterpolatingParam id="3515" interp="linr"  time="0/1" value="0" leadInLength="0/1"  name="cursorScale"/>
                   </Parameters>
                   <Attributes>
                    <Attribute id="3516" value="" name="ident"/>
                   </Attributes>
                   <ExtraData>
                    <Entry key="ZoomPanBin">
                     <ZoomPanBin id="3517"  >
                      <ZoomPanKeyframes>
                       <ZoomPanKeyframe id="3518" timeRangeEnd="-9999999/1" timeRangeDuration="0/1" interpolaterName="linr"  />
                      </ZoomPanKeyframes>
                     </ZoomPanBin>
                    </Entry>
                    <Entry key="CursorEffectBin">
                     <CursorEffectBin id="3519"  >
                      <CursorEffectKeyframes>
                      </CursorEffectKeyframes>
                     </CursorEffectBin>
                    </Entry>
                   </ExtraData>
                  </ScreenVMFile>
                  <MetaData>
                   <entry key="AutoAppliedSmartFocus" val="False"/>
                   <entry key="WinSubProjectDisplayName" val=""/>
                  </MetaData>
                 </UnifiedMedia>
                 <UnifiedMedia id="3520"  >
                  <AMFile id="3521" start="11117" duration="441" scalar="1/1" mediaStart="11374/1" mediaDuration="441/1" trackNumber="1" src="14" channelNumber="0,1" >
                   <Parameters>
                    <InterpolatingParam id="3522" interp="linr"  time="0/1" value="1" leadInLength="0/1"  name="volume"/>
                    <Parameter id="3523"  name="captions"/>
                   </Parameters>
                   <Attributes>
                    <Attribute id="3524" value="" name="ident"/>
                    <Attribute id="3525" value="44100" name="sampleRate"/>
                    <Attribute id="3526" value="16" name="bitDepth"/>
                    <Attribute id="3527" value="1" name="gain"/>
                    <Attribute id="3528" value="0" name="mixToMono"/>
                   </Attributes>
                  </AMFile>
                  <ScreenVMFile id="3529" start="11117" duration="441" scalar="1/1" mediaStart="11374/1" mediaDuration="441/1" trackNumber="0" src="14" >
                   <Transformer>
                    <VectorParam id="3530"  name="translation">
                     <InterpolatingParam id="3531" interp="linr"  time="-9999999/1" value="0" leadInLength="0/1"  />
                     <InterpolatingParam id="3532" interp="linr"  time="-9999999/1" value="0" leadInLength="0/1"  />
                     <InterpolatingParam id="3533" interp="linr"  time="-9999999/1" value="0" leadInLength="0/1"  />
                    </VectorParam>
                    <VectorParam id="3534"  name="rotation">
                     <InterpolatingParam id="3535" interp="linr"  time="-9999999/1" value="0" leadInLength="0/1"  />
                     <InterpolatingParam id="3536" interp="linr"  time="-9999999/1" value="0" leadInLength="0/1"  />
                     <InterpolatingParam id="3537" interp="linr"  time="-9999999/1" value="0" leadInLength="0/1"  />
                    </VectorParam>
                    <VectorParam id="3538"  name="shear">
                     <InterpolatingParam id="3539" interp="linr"  time="-9999999/1" value="0" leadInLength="0/1"  />
                     <InterpolatingParam id="3540" interp="linr"  time="-9999999/1" value="0" leadInLength="0/1"  />
                     <InterpolatingParam id="3541" interp="linr"  time="-9999999/1" value="0" leadInLength="0/1"  />
                    </VectorParam>
                    <VectorParam id="3542"  name="scale">
                     <InterpolatingParam id="3543" interp="linr"  time="-9999999/1" value="1" leadInLength="0/1"  />
                     <InterpolatingParam id="3544" interp="linr"  time="-9999999/1" value="1" leadInLength="0/1"  />
                     <InterpolatingParam id="3545" interp="linr"  time="-9999999/1" value="1" leadInLength="0/1"  />
                    </VectorParam>
                    <VectorParam id="3546"  name="anchor">
                     <InterpolatingParam id="3547" interp="linr"  time="0/1" value="0" leadInLength="0/1"  />
                     <InterpolatingParam id="3548" interp="linr"  time="0/1" value="0" leadInLength="0/1"  />
                     <InterpolatingParam id="3549" interp="linr"  time="0/1" value="0" leadInLength="0/1"  />
                    </VectorParam>
                   </Transformer>
                   <Parameters>
                    <VectorParam id="3550"  name="sourceCrop">
                     <InterpolatingParam id="3551" interp="linr"  time="0/1" value="0" leadInLength="0/1"  />
                     <InterpolatingParam id="3552" interp="linr"  time="0/1" value="0" leadInLength="0/1"  />
                     <InterpolatingParam id="3553" interp="linr"  time="0/1" value="0" leadInLength="0/1"  />
                     <InterpolatingParam id="3554" interp="linr"  time="0/1" value="0" leadInLength="0/1"  />
                    </VectorParam>
                    <VectorParam id="3555"  name="geometryCrop">
                     <InterpolatingParam id="3556" interp="linr"  time="-9999999/1" value="0" leadInLength="0/1"  />
                     <InterpolatingParam id="3557" interp="linr"  time="-9999999/1" value="0" leadInLength="0/1"  />
                     <InterpolatingParam id="3558" interp="linr"  time="-9999999/1" value="0" leadInLength="0/1"  />
                     <InterpolatingParam id="3559" interp="linr"  time="-9999999/1" value="0" leadInLength="0/1"  />
                    </VectorParam>
                    <InterpolatingParam id="3560" interp="linr"  time="-9999999/1" value="1" leadInLength="0/1"  name="opacity"/>
                    <InterpolatingParam id="3561" interp="linr"  time="0/1" value="0" leadInLength="0/1"  name="cursorOpacity"/>
                    <InterpolatingParam id="3562" interp="linr"  time="0/1" value="0" leadInLength="0/1"  name="cursorScale"/>
                   </Parameters>
                   <Attributes>
                    <Attribute id="3563" value="" name="ident"/>
                   </Attributes>
                   <ExtraData>
                    <Entry key="ZoomPanBin">
                     <ZoomPanBin id="3564"  >
                      <ZoomPanKeyframes>
                       <ZoomPanKeyframe id="3565" timeRangeEnd="-9999999/1" timeRangeDuration="0/1" interpolaterName="linr"  />
                      </ZoomPanKeyframes>
                     </ZoomPanBin>
                    </Entry>
                    <Entry key="CursorEffectBin">
                     <CursorEffectBin id="3566"  >
                      <CursorEffectKeyframes>
                      </CursorEffectKeyframes>
                     </CursorEffectBin>
                    </Entry>
                   </ExtraData>
                  </ScreenVMFile>
                  <MetaData>
                   <entry key="AutoAppliedSmartFocus" val="False"/>
                   <entry key="WinSubProjectDisplayName" val=""/>
                  </MetaData>
                 </UnifiedMedia>
                 <UnifiedMedia id="3567"  >
                  <AMFile id="3568" start="11558" duration="699" scalar="1/1" mediaStart="12126/1" mediaDuration="699/1" trackNumber="1" src="14" channelNumber="0,1" >
                   <Parameters>
                    <InterpolatingParam id="3569" interp="linr"  time="0/1" value="1" leadInLength="0/1"  name="volume"/>
                    <Parameter id="3570"  name="captions"/>
                   </Parameters>
                   <Attributes>
                    <Attribute id="3571" value="" name="ident"/>
                    <Attribute id="3572" value="44100" name="sampleRate"/>
                    <Attribute id="3573" value="16" name="bitDepth"/>
                    <Attribute id="3574" value="1" name="gain"/>
                    <Attribute id="3575" value="0" name="mixToMono"/>
                   </Attributes>
                  </AMFile>
                  <ScreenVMFile id="3576" start="11558" duration="699" scalar="1/1" mediaStart="12126/1" mediaDuration="699/1" trackNumber="0" src="14" >
                   <Transformer>
                    <VectorParam id="3577"  name="translation">
                     <InterpolatingParam id="3578" interp="linr"  time="-9999999/1" value="0" leadInLength="0/1"  />
                     <InterpolatingParam id="3579" interp="linr"  time="-9999999/1" value="0" leadInLength="0/1"  />
                     <InterpolatingParam id="3580" interp="linr"  time="-9999999/1" value="0" leadInLength="0/1"  />
                    </VectorParam>
                    <VectorParam id="3581"  name="rotation">
                     <InterpolatingParam id="3582" interp="linr"  time="-9999999/1" value="0" leadInLength="0/1"  />
                     <InterpolatingParam id="3583" interp="linr"  time="-9999999/1" value="0" leadInLength="0/1"  />
                     <InterpolatingParam id="3584" interp="linr"  time="-9999999/1" value="0" leadInLength="0/1"  />
                    </VectorParam>
                    <VectorParam id="3585"  name="shear">
                     <InterpolatingParam id="3586" interp="linr"  time="-9999999/1" value="0" leadInLength="0/1"  />
                     <InterpolatingParam id="3587" interp="linr"  time="-9999999/1" value="0" leadInLength="0/1"  />
                     <InterpolatingParam id="3588" interp="linr"  time="-9999999/1" value="0" leadInLength="0/1"  />
                    </VectorParam>
                    <VectorParam id="3589"  name="scale">
                     <InterpolatingParam id="3590" interp="linr"  time="-9999999/1" value="1" leadInLength="0/1"  />
                     <InterpolatingParam id="3591" interp="linr"  time="-9999999/1" value="1" leadInLength="0/1"  />
                     <InterpolatingParam id="3592" interp="linr"  time="-9999999/1" value="1" leadInLength="0/1"  />
                    </VectorParam>
                    <VectorParam id="3593"  name="anchor">
                     <InterpolatingParam id="3594" interp="linr"  time="0/1" value="0" leadInLength="0/1"  />
                     <InterpolatingParam id="3595" interp="linr"  time="0/1" value="0" leadInLength="0/1"  />
                     <InterpolatingParam id="3596" interp="linr"  time="0/1" value="0" leadInLength="0/1"  />
                    </VectorParam>
                   </Transformer>
                   <Parameters>
                    <VectorParam id="3597"  name="sourceCrop">
                     <InterpolatingParam id="3598" interp="linr"  time="0/1" value="0" leadInLength="0/1"  />
                     <InterpolatingParam id="3599" interp="linr"  time="0/1" value="0" leadInLength="0/1"  />
                     <InterpolatingParam id="3600" interp="linr"  time="0/1" value="0" leadInLength="0/1"  />
                     <InterpolatingParam id="3601" interp="linr"  time="0/1" value="0" leadInLength="0/1"  />
                    </VectorParam>
                    <VectorParam id="3602"  name="geometryCrop">
                     <InterpolatingParam id="3603" interp="linr"  time="-9999999/1" value="0" leadInLength="0/1"  />
                     <InterpolatingParam id="3604" interp="linr"  time="-9999999/1" value="0" leadInLength="0/1"  />
                     <InterpolatingParam id="3605" interp="linr"  time="-9999999/1" value="0" leadInLength="0/1"  />
                     <InterpolatingParam id="3606" interp="linr"  time="-9999999/1" value="0" leadInLength="0/1"  />
                    </VectorParam>
                    <InterpolatingParam id="3607" interp="linr"  time="-9999999/1" value="1" leadInLength="0/1"  name="opacity"/>
                    <InterpolatingParam id="3608" interp="linr"  time="0/1" value="0" leadInLength="0/1"  name="cursorOpacity"/>
                    <InterpolatingParam id="3609" interp="linr"  time="0/1" value="0" leadInLength="0/1"  name="cursorScale"/>
                   </Parameters>
                   <Attributes>
                    <Attribute id="3610" value="" name="ident"/>
                   </Attributes>
                   <ExtraData>
                    <Entry key="ZoomPanBin">
                     <ZoomPanBin id="3611"  >
                      <ZoomPanKeyframes>
                       <ZoomPanKeyframe id="3612" timeRangeEnd="-9999999/1" timeRangeDuration="0/1" interpolaterName="linr"  />
                      </ZoomPanKeyframes>
                     </ZoomPanBin>
                    </Entry>
                    <Entry key="CursorEffectBin">
                     <CursorEffectBin id="3613"  >
                      <CursorEffectKeyframes>
                      </CursorEffectKeyframes>
                     </CursorEffectBin>
                    </Entry>
                   </ExtraData>
                  </ScreenVMFile>
                  <MetaData>
                   <entry key="AutoAppliedSmartFocus" val="False"/>
                   <entry key="WinSubProjectDisplayName" val=""/>
                  </MetaData>
                 </UnifiedMedia>
                 <UnifiedMedia id="3614"  >
                  <AMFile id="3615" start="12257" duration="1442" scalar="1/1" mediaStart="13586/1" mediaDuration="1442/1" trackNumber="1" src="14" channelNumber="0,1" >
                   <Parameters>
                    <InterpolatingParam id="3616" interp="linr"  time="0/1" value="1" leadInLength="0/1"  name="volume"/>
                    <Parameter id="3617"  name="captions"/>
                   </Parameters>
                   <Attributes>
                    <Attribute id="3618" value="" name="ident"/>
                    <Attribute id="3619" value="44100" name="sampleRate"/>
                    <Attribute id="3620" value="16" name="bitDepth"/>
                    <Attribute id="3621" value="1" name="gain"/>
                    <Attribute id="3622" value="0" name="mixToMono"/>
                   </Attributes>
                  </AMFile>
                  <ScreenVMFile id="3623" start="12257" duration="1442" scalar="1/1" mediaStart="13586/1" mediaDuration="1442/1" trackNumber="0" src="14" >
                   <Transformer>
                    <VectorParam id="3624"  name="translation">
                     <InterpolatingParam id="3625" interp="linr"  time="-9999999/1" value="0" leadInLength="0/1"  />
                     <InterpolatingParam id="3626" interp="linr"  time="-9999999/1" value="0" leadInLength="0/1"  />
                     <InterpolatingParam id="3627" interp="linr"  time="-9999999/1" value="0" leadInLength="0/1"  />
                    </VectorParam>
                    <VectorParam id="3628"  name="rotation">
                     <InterpolatingParam id="3629" interp="linr"  time="-9999999/1" value="0" leadInLength="0/1"  />
                     <InterpolatingParam id="3630" interp="linr"  time="-9999999/1" value="0" leadInLength="0/1"  />
                     <InterpolatingParam id="3631" interp="linr"  time="-9999999/1" value="0" leadInLength="0/1"  />
                    </VectorParam>
                    <VectorParam id="3632"  name="shear">
                     <InterpolatingParam id="3633" interp="linr"  time="-9999999/1" value="0" leadInLength="0/1"  />
                     <InterpolatingParam id="3634" interp="linr"  time="-9999999/1" value="0" leadInLength="0/1"  />
                     <InterpolatingParam id="3635" interp="linr"  time="-9999999/1" value="0" leadInLength="0/1"  />
                    </VectorParam>
                    <VectorParam id="3636"  name="scale">
                     <InterpolatingParam id="3637" interp="linr"  time="-9999999/1" value="1" leadInLength="0/1"  />
                     <InterpolatingParam id="3638" interp="linr"  time="-9999999/1" value="1" leadInLength="0/1"  />
                     <InterpolatingParam id="3639" interp="linr"  time="-9999999/1" value="1" leadInLength="0/1"  />
                    </VectorParam>
                    <VectorParam id="3640"  name="anchor">
                     <InterpolatingParam id="3641" interp="linr"  time="0/1" value="0" leadInLength="0/1"  />
                     <InterpolatingParam id="3642" interp="linr"  time="0/1" value="0" leadInLength="0/1"  />
                     <InterpolatingParam id="3643" interp="linr"  time="0/1" value="0" leadInLength="0/1"  />
                    </VectorParam>
                   </Transformer>
                   <Parameters>
                    <VectorParam id="3644"  name="sourceCrop">
                     <InterpolatingParam id="3645" interp="linr"  time="0/1" value="0" leadInLength="0/1"  />
                     <InterpolatingParam id="3646" interp="linr"  time="0/1" value="0" leadInLength="0/1"  />
                     <InterpolatingParam id="3647" interp="linr"  time="0/1" value="0" leadInLength="0/1"  />
                     <InterpolatingParam id="3648" interp="linr"  time="0/1" value="0" leadInLength="0/1"  />
                    </VectorParam>
                    <VectorParam id="3649"  name="geometryCrop">
                     <InterpolatingParam id="3650" interp="linr"  time="-9999999/1" value="0" leadInLength="0/1"  />
                     <InterpolatingParam id="3651" interp="linr"  time="-9999999/1" value="0" leadInLength="0/1"  />
                     <InterpolatingParam id="3652" interp="linr"  time="-9999999/1" value="0" leadInLength="0/1"  />
                     <InterpolatingParam id="3653" interp="linr"  time="-9999999/1" value="0" leadInLength="0/1"  />
                    </VectorParam>
                    <InterpolatingParam id="3654" interp="linr"  time="-9999999/1" value="1" leadInLength="0/1"  name="opacity"/>
                    <InterpolatingParam id="3655" interp="linr"  time="0/1" value="0" leadInLength="0/1"  name="cursorOpacity"/>
                    <InterpolatingParam id="3656" interp="linr"  time="0/1" value="0" leadInLength="0/1"  name="cursorScale"/>
                   </Parameters>
                   <Attributes>
                    <Attribute id="3657" value="" name="ident"/>
                   </Attributes>
                   <ExtraData>
                    <Entry key="ZoomPanBin">
                     <ZoomPanBin id="3658"  >
                      <ZoomPanKeyframes>
                       <ZoomPanKeyframe id="3659" timeRangeEnd="-9999999/1" timeRangeDuration="0/1" interpolaterName="linr"  />
                      </ZoomPanKeyframes>
                     </ZoomPanBin>
                    </Entry>
                    <Entry key="CursorEffectBin">
                     <CursorEffectBin id="3660"  >
                      <CursorEffectKeyframes>
                      </CursorEffectKeyframes>
                     </CursorEffectBin>
                    </Entry>
                   </ExtraData>
                  </ScreenVMFile>
                  <MetaData>
                   <entry key="AutoAppliedSmartFocus" val="False"/>
                   <entry key="WinSubProjectDisplayName" val=""/>
                  </MetaData>
                 </UnifiedMedia>
                 <UnifiedMedia id="3661"  >
                  <AMFile id="3662" start="13699" duration="19" scalar="1/1" mediaStart="15250/1" mediaDuration="19/1" trackNumber="1" src="14" channelNumber="0,1" >
                   <Parameters>
                    <InterpolatingParam id="3663" interp="linr"  time="0/1" value="1" leadInLength="0/1"  name="volume"/>
                    <Parameter id="3664"  name="captions"/>
                   </Parameters>
                   <Attributes>
                    <Attribute id="3665" value="" name="ident"/>
                    <Attribute id="3666" value="44100" name="sampleRate"/>
                    <Attribute id="3667" value="16" name="bitDepth"/>
                    <Attribute id="3668" value="1" name="gain"/>
                    <Attribute id="3669" value="0" name="mixToMono"/>
                   </Attributes>
                  </AMFile>
                  <ScreenVMFile id="3670" start="13699" duration="19" scalar="1/1" mediaStart="15250/1" mediaDuration="19/1" trackNumber="0" src="14" >
                   <Transformer>
                    <VectorParam id="3671"  name="translation">
                     <InterpolatingParam id="3672" interp="linr"  time="-9999999/1" value="0" leadInLength="0/1"  />
                     <InterpolatingParam id="3673" interp="linr"  time="-9999999/1" value="0" leadInLength="0/1"  />
                     <InterpolatingParam id="3674" interp="linr"  time="-9999999/1" value="0" leadInLength="0/1"  />
                    </VectorParam>
                    <VectorParam id="3675"  name="rotation">
                     <InterpolatingParam id="3676" interp="linr"  time="-9999999/1" value="0" leadInLength="0/1"  />
                     <InterpolatingParam id="3677" interp="linr"  time="-9999999/1" value="0" leadInLength="0/1"  />
                     <InterpolatingParam id="3678" interp="linr"  time="-9999999/1" value="0" leadInLength="0/1"  />
                    </VectorParam>
                    <VectorParam id="3679"  name="shear">
                     <InterpolatingParam id="3680" interp="linr"  time="-9999999/1" value="0" leadInLength="0/1"  />
                     <InterpolatingParam id="3681" interp="linr"  time="-9999999/1" value="0" leadInLength="0/1"  />
                     <InterpolatingParam id="3682" interp="linr"  time="-9999999/1" value="0" leadInLength="0/1"  />
                    </VectorParam>
                    <VectorParam id="3683"  name="scale">
                     <InterpolatingParam id="3684" interp="linr"  time="-9999999/1" value="1" leadInLength="0/1"  />
                     <InterpolatingParam id="3685" interp="linr"  time="-9999999/1" value="1" leadInLength="0/1"  />
                     <InterpolatingParam id="3686" interp="linr"  time="-9999999/1" value="1" leadInLength="0/1"  />
                    </VectorParam>
                    <VectorParam id="3687"  name="anchor">
                     <InterpolatingParam id="3688" interp="linr"  time="0/1" value="0" leadInLength="0/1"  />
                     <InterpolatingParam id="3689" interp="linr"  time="0/1" value="0" leadInLength="0/1"  />
                     <InterpolatingParam id="3690" interp="linr"  time="0/1" value="0" leadInLength="0/1"  />
                    </VectorParam>
                   </Transformer>
                   <Parameters>
                    <VectorParam id="3691"  name="sourceCrop">
                     <InterpolatingParam id="3692" interp="linr"  time="0/1" value="0" leadInLength="0/1"  />
                     <InterpolatingParam id="3693" interp="linr"  time="0/1" value="0" leadInLength="0/1"  />
                     <InterpolatingParam id="3694" interp="linr"  time="0/1" value="0" leadInLength="0/1"  />
                     <InterpolatingParam id="3695" interp="linr"  time="0/1" value="0" leadInLength="0/1"  />
                    </VectorParam>
                    <VectorParam id="3696"  name="geometryCrop">
                     <InterpolatingParam id="3697" interp="linr"  time="-9999999/1" value="0" leadInLength="0/1"  />
                     <InterpolatingParam id="3698" interp="linr"  time="-9999999/1" value="0" leadInLength="0/1"  />
                     <InterpolatingParam id="3699" interp="linr"  time="-9999999/1" value="0" leadInLength="0/1"  />
                     <InterpolatingParam id="3700" interp="linr"  time="-9999999/1" value="0" leadInLength="0/1"  />
                    </VectorParam>
                    <InterpolatingParam id="3701" interp="linr"  time="-9999999/1" value="1" leadInLength="0/1"  name="opacity"/>
                    <InterpolatingParam id="3702" interp="linr"  time="0/1" value="0" leadInLength="0/1"  name="cursorOpacity"/>
                    <InterpolatingParam id="3703" interp="linr"  time="0/1" value="0" leadInLength="0/1"  name="cursorScale"/>
                   </Parameters>
                   <Attributes>
                    <Attribute id="3704" value="" name="ident"/>
                   </Attributes>
                   <ExtraData>
                    <Entry key="ZoomPanBin">
                     <ZoomPanBin id="3705"  >
                      <ZoomPanKeyframes>
                       <ZoomPanKeyframe id="3706" timeRangeEnd="-9999999/1" timeRangeDuration="0/1" interpolaterName="linr"  />
                      </ZoomPanKeyframes>
                     </ZoomPanBin>
                    </Entry>
                    <Entry key="CursorEffectBin">
                     <CursorEffectBin id="3707"  >
                      <CursorEffectKeyframes>
                      </CursorEffectKeyframes>
                     </CursorEffectBin>
                    </Entry>
                   </ExtraData>
                  </ScreenVMFile>
                  <MetaData>
                   <entry key="AutoAppliedSmartFocus" val="False"/>
                   <entry key="WinSubProjectDisplayName" val=""/>
                  </MetaData>
                 </UnifiedMedia>
                 <UnifiedMedia id="3708"  >
                  <AMFile id="3709" start="13718" duration="286" scalar="1/1" mediaStart="15285/1" mediaDuration="286/1" trackNumber="1" src="14" channelNumber="0,1" >
                   <Parameters>
                    <InterpolatingParam id="3710" interp="linr"  time="0/1" value="1" leadInLength="0/1"  name="volume"/>
                    <Parameter id="3711"  name="captions"/>
                   </Parameters>
                   <Attributes>
                    <Attribute id="3712" value="" name="ident"/>
                    <Attribute id="3713" value="44100" name="sampleRate"/>
                    <Attribute id="3714" value="16" name="bitDepth"/>
                    <Attribute id="3715" value="1" name="gain"/>
                    <Attribute id="3716" value="0" name="mixToMono"/>
                   </Attributes>
                  </AMFile>
                  <ScreenVMFile id="3717" start="13718" duration="286" scalar="1/1" mediaStart="15285/1" mediaDuration="286/1" trackNumber="0" src="14" >
                   <Transformer>
                    <VectorParam id="3718"  name="translation">
                     <InterpolatingParam id="3719" interp="linr"  time="-9999999/1" value="0" leadInLength="0/1"  />
                     <InterpolatingParam id="3720" interp="linr"  time="-9999999/1" value="0" leadInLength="0/1"  />
                     <InterpolatingParam id="3721" interp="linr"  time="-9999999/1" value="0" leadInLength="0/1"  />
                    </VectorParam>
                    <VectorParam id="3722"  name="rotation">
                     <InterpolatingParam id="3723" interp="linr"  time="-9999999/1" value="0" leadInLength="0/1"  />
                     <InterpolatingParam id="3724" interp="linr"  time="-9999999/1" value="0" leadInLength="0/1"  />
                     <InterpolatingParam id="3725" interp="linr"  time="-9999999/1" value="0" leadInLength="0/1"  />
                    </VectorParam>
                    <VectorParam id="3726"  name="shear">
                     <InterpolatingParam id="3727" interp="linr"  time="-9999999/1" value="0" leadInLength="0/1"  />
                     <InterpolatingParam id="3728" interp="linr"  time="-9999999/1" value="0" leadInLength="0/1"  />
                     <InterpolatingParam id="3729" interp="linr"  time="-9999999/1" value="0" leadInLength="0/1"  />
                    </VectorParam>
                    <VectorParam id="3730"  name="scale">
                     <InterpolatingParam id="3731" interp="linr"  time="-9999999/1" value="1" leadInLength="0/1"  />
                     <InterpolatingParam id="3732" interp="linr"  time="-9999999/1" value="1" leadInLength="0/1"  />
                     <InterpolatingParam id="3733" interp="linr"  time="-9999999/1" value="1" leadInLength="0/1"  />
                    </VectorParam>
                    <VectorParam id="3734"  name="anchor">
                     <InterpolatingParam id="3735" interp="linr"  time="0/1" value="0" leadInLength="0/1"  />
                     <InterpolatingParam id="3736" interp="linr"  time="0/1" value="0" leadInLength="0/1"  />
                     <InterpolatingParam id="3737" interp="linr"  time="0/1" value="0" leadInLength="0/1"  />
                    </VectorParam>
                   </Transformer>
                   <Parameters>
                    <VectorParam id="3738"  name="sourceCrop">
                     <InterpolatingParam id="3739" interp="linr"  time="0/1" value="0" leadInLength="0/1"  />
                     <InterpolatingParam id="3740" interp="linr"  time="0/1" value="0" leadInLength="0/1"  />
                     <InterpolatingParam id="3741" interp="linr"  time="0/1" value="0" leadInLength="0/1"  />
                     <InterpolatingParam id="3742" interp="linr"  time="0/1" value="0" leadInLength="0/1"  />
                    </VectorParam>
                    <VectorParam id="3743"  name="geometryCrop">
                     <InterpolatingParam id="3744" interp="linr"  time="-9999999/1" value="0" leadInLength="0/1"  />
                     <InterpolatingParam id="3745" interp="linr"  time="-9999999/1" value="0" leadInLength="0/1"  />
                     <InterpolatingParam id="3746" interp="linr"  time="-9999999/1" value="0" leadInLength="0/1"  />
                     <InterpolatingParam id="3747" interp="linr"  time="-9999999/1" value="0" leadInLength="0/1"  />
                    </VectorParam>
                    <InterpolatingParam id="3748" interp="linr"  time="-9999999/1" value="1" leadInLength="0/1"  name="opacity"/>
                    <InterpolatingParam id="3749" interp="linr"  time="0/1" value="0" leadInLength="0/1"  name="cursorOpacity"/>
                    <InterpolatingParam id="3750" interp="linr"  time="0/1" value="0" leadInLength="0/1"  name="cursorScale"/>
                   </Parameters>
                   <Attributes>
                    <Attribute id="3751" value="" name="ident"/>
                   </Attributes>
                   <ExtraData>
                    <Entry key="ZoomPanBin">
                     <ZoomPanBin id="3752"  >
                      <ZoomPanKeyframes>
                       <ZoomPanKeyframe id="3753" timeRangeEnd="-9999999/1" timeRangeDuration="0/1" interpolaterName="linr"  />
                      </ZoomPanKeyframes>
                     </ZoomPanBin>
                    </Entry>
                    <Entry key="CursorEffectBin">
                     <CursorEffectBin id="3754"  >
                      <CursorEffectKeyframes>
                      </CursorEffectKeyframes>
                     </CursorEffectBin>
                    </Entry>
                   </ExtraData>
                  </ScreenVMFile>
                  <MetaData>
                   <entry key="AutoAppliedSmartFocus" val="False"/>
                   <entry key="WinSubProjectDisplayName" val=""/>
                  </MetaData>
                 </UnifiedMedia>
                 <UnifiedMedia id="3755"  >
                  <AMFile id="3756" start="14004" duration="313" scalar="1/1" mediaStart="15609/1" mediaDuration="313/1" trackNumber="1" src="14" channelNumber="0,1" >
                   <Parameters>
                    <InterpolatingParam id="3757" interp="linr"  time="0/1" value="1" leadInLength="0/1"  name="volume"/>
                    <Parameter id="3758"  name="captions"/>
                   </Parameters>
                   <Attributes>
                    <Attribute id="3759" value="" name="ident"/>
                    <Attribute id="3760" value="44100" name="sampleRate"/>
                    <Attribute id="3761" value="16" name="bitDepth"/>
                    <Attribute id="3762" value="1" name="gain"/>
                    <Attribute id="3763" value="0" name="mixToMono"/>
                   </Attributes>
                  </AMFile>
                  <ScreenVMFile id="3764" start="14004" duration="313" scalar="1/1" mediaStart="15609/1" mediaDuration="313/1" trackNumber="0" src="14" >
                   <Transformer>
                    <VectorParam id="3765"  name="translation">
                     <InterpolatingParam id="3766" interp="linr"  time="-9999999/1" value="0" leadInLength="0/1"  />
                     <InterpolatingParam id="3767" interp="linr"  time="-9999999/1" value="0" leadInLength="0/1"  />
                     <InterpolatingParam id="3768" interp="linr"  time="-9999999/1" value="0" leadInLength="0/1"  />
                    </VectorParam>
                    <VectorParam id="3769"  name="rotation">
                     <InterpolatingParam id="3770" interp="linr"  time="-9999999/1" value="0" leadInLength="0/1"  />
                     <InterpolatingParam id="3771" interp="linr"  time="-9999999/1" value="0" leadInLength="0/1"  />
                     <InterpolatingParam id="3772" interp="linr"  time="-9999999/1" value="0" leadInLength="0/1"  />
                    </VectorParam>
                    <VectorParam id="3773"  name="shear">
                     <InterpolatingParam id="3774" interp="linr"  time="-9999999/1" value="0" leadInLength="0/1"  />
                     <InterpolatingParam id="3775" interp="linr"  time="-9999999/1" value="0" leadInLength="0/1"  />
                     <InterpolatingParam id="3776" interp="linr"  time="-9999999/1" value="0" leadInLength="0/1"  />
                    </VectorParam>
                    <VectorParam id="3777"  name="scale">
                     <InterpolatingParam id="3778" interp="linr"  time="-9999999/1" value="1" leadInLength="0/1"  />
                     <InterpolatingParam id="3779" interp="linr"  time="-9999999/1" value="1" leadInLength="0/1"  />
                     <InterpolatingParam id="3780" interp="linr"  time="-9999999/1" value="1" leadInLength="0/1"  />
                    </VectorParam>
                    <VectorParam id="3781"  name="anchor">
                     <InterpolatingParam id="3782" interp="linr"  time="0/1" value="0" leadInLength="0/1"  />
                     <InterpolatingParam id="3783" interp="linr"  time="0/1" value="0" leadInLength="0/1"  />
                     <InterpolatingParam id="3784" interp="linr"  time="0/1" value="0" leadInLength="0/1"  />
                    </VectorParam>
                   </Transformer>
                   <Parameters>
                    <VectorParam id="3785"  name="sourceCrop">
                     <InterpolatingParam id="3786" interp="linr"  time="0/1" value="0" leadInLength="0/1"  />
                     <InterpolatingParam id="3787" interp="linr"  time="0/1" value="0" leadInLength="0/1"  />
                     <InterpolatingParam id="3788" interp="linr"  time="0/1" value="0" leadInLength="0/1"  />
                     <InterpolatingParam id="3789" interp="linr"  time="0/1" value="0" leadInLength="0/1"  />
                    </VectorParam>
                    <VectorParam id="3790"  name="geometryCrop">
                     <InterpolatingParam id="3791" interp="linr"  time="-9999999/1" value="0" leadInLength="0/1"  />
                     <InterpolatingParam id="3792" interp="linr"  time="-9999999/1" value="0" leadInLength="0/1"  />
                     <InterpolatingParam id="3793" interp="linr"  time="-9999999/1" value="0" leadInLength="0/1"  />
                     <InterpolatingParam id="3794" interp="linr"  time="-9999999/1" value="0" leadInLength="0/1"  />
                    </VectorParam>
                    <InterpolatingParam id="3795" interp="linr"  time="-9999999/1" value="1" leadInLength="0/1"  name="opacity"/>
                    <InterpolatingParam id="3796" interp="linr"  time="0/1" value="0" leadInLength="0/1"  name="cursorOpacity"/>
                    <InterpolatingParam id="3797" interp="linr"  time="0/1" value="0" leadInLength="0/1"  name="cursorScale"/>
                   </Parameters>
                   <Attributes>
                    <Attribute id="3798" value="" name="ident"/>
                   </Attributes>
                   <ExtraData>
                    <Entry key="ZoomPanBin">
                     <ZoomPanBin id="3799"  >
                      <ZoomPanKeyframes>
                       <ZoomPanKeyframe id="3800" timeRangeEnd="-9999999/1" timeRangeDuration="0/1" interpolaterName="linr"  />
                      </ZoomPanKeyframes>
                     </ZoomPanBin>
                    </Entry>
                    <Entry key="CursorEffectBin">
                     <CursorEffectBin id="3801"  >
                      <CursorEffectKeyframes>
                      </CursorEffectKeyframes>
                     </CursorEffectBin>
                    </Entry>
                   </ExtraData>
                  </ScreenVMFile>
                  <MetaData>
                   <entry key="AutoAppliedSmartFocus" val="False"/>
                   <entry key="WinSubProjectDisplayName" val=""/>
                  </MetaData>
                 </UnifiedMedia>
                 <UnifiedMedia id="3802"  >
                  <AMFile id="3803" start="14317" duration="1" scalar="1/1" mediaStart="15967/1" mediaDuration="1/1" trackNumber="1" src="14" channelNumber="0,1" >
                   <Parameters>
                    <InterpolatingParam id="3804" interp="linr"  time="0/1" value="1" leadInLength="0/1"  name="volume"/>
                    <Parameter id="3805"  name="captions"/>
                   </Parameters>
                   <Attributes>
                    <Attribute id="3806" value="" name="ident"/>
                    <Attribute id="3807" value="44100" name="sampleRate"/>
                    <Attribute id="3808" value="16" name="bitDepth"/>
                    <Attribute id="3809" value="1" name="gain"/>
                    <Attribute id="3810" value="0" name="mixToMono"/>
                   </Attributes>
                  </AMFile>
                  <ScreenVMFile id="3811" start="14317" duration="1" scalar="1/1" mediaStart="15967/1" mediaDuration="1/1" trackNumber="0" src="14" >
                   <Transformer>
                    <VectorParam id="3812"  name="translation">
                     <InterpolatingParam id="3813" interp="linr"  time="-9999999/1" value="0" leadInLength="0/1"  />
                     <InterpolatingParam id="3814" interp="linr"  time="-9999999/1" value="0" leadInLength="0/1"  />
                     <InterpolatingParam id="3815" interp="linr"  time="-9999999/1" value="0" leadInLength="0/1"  />
                    </VectorParam>
                    <VectorParam id="3816"  name="rotation">
                     <InterpolatingParam id="3817" interp="linr"  time="-9999999/1" value="0" leadInLength="0/1"  />
                     <InterpolatingParam id="3818" interp="linr"  time="-9999999/1" value="0" leadInLength="0/1"  />
                     <InterpolatingParam id="3819" interp="linr"  time="-9999999/1" value="0" leadInLength="0/1"  />
                    </VectorParam>
                    <VectorParam id="3820"  name="shear">
                     <InterpolatingParam id="3821" interp="linr"  time="-9999999/1" value="0" leadInLength="0/1"  />
                     <InterpolatingParam id="3822" interp="linr"  time="-9999999/1" value="0" leadInLength="0/1"  />
                     <InterpolatingParam id="3823" interp="linr"  time="-9999999/1" value="0" leadInLength="0/1"  />
                    </VectorParam>
                    <VectorParam id="3824"  name="scale">
                     <InterpolatingParam id="3825" interp="linr"  time="-9999999/1" value="1" leadInLength="0/1"  />
                     <InterpolatingParam id="3826" interp="linr"  time="-9999999/1" value="1" leadInLength="0/1"  />
                     <InterpolatingParam id="3827" interp="linr"  time="-9999999/1" value="1" leadInLength="0/1"  />
                    </VectorParam>
                    <VectorParam id="3828"  name="anchor">
                     <InterpolatingParam id="3829" interp="linr"  time="0/1" value="0" leadInLength="0/1"  />
                     <InterpolatingParam id="3830" interp="linr"  time="0/1" value="0" leadInLength="0/1"  />
                     <InterpolatingParam id="3831" interp="linr"  time="0/1" value="0" leadInLength="0/1"  />
                    </VectorParam>
                   </Transformer>
                   <Parameters>
                    <VectorParam id="3832"  name="sourceCrop">
                     <InterpolatingParam id="3833" interp="linr"  time="0/1" value="0" leadInLength="0/1"  />
                     <InterpolatingParam id="3834" interp="linr"  time="0/1" value="0" leadInLength="0/1"  />
                     <InterpolatingParam id="3835" interp="linr"  time="0/1" value="0" leadInLength="0/1"  />
                     <InterpolatingParam id="3836" interp="linr"  time="0/1" value="0" leadInLength="0/1"  />
                    </VectorParam>
                    <VectorParam id="3837"  name="geometryCrop">
                     <InterpolatingParam id="3838" interp="linr"  time="-9999999/1" value="0" leadInLength="0/1"  />
                     <InterpolatingParam id="3839" interp="linr"  time="-9999999/1" value="0" leadInLength="0/1"  />
                     <InterpolatingParam id="3840" interp="linr"  time="-9999999/1" value="0" leadInLength="0/1"  />
                     <InterpolatingParam id="3841" interp="linr"  time="-9999999/1" value="0" leadInLength="0/1"  />
                    </VectorParam>
                    <InterpolatingParam id="3842" interp="linr"  time="-9999999/1" value="1" leadInLength="0/1"  name="opacity"/>
                    <InterpolatingParam id="3843" interp="linr"  time="0/1" value="0" leadInLength="0/1"  name="cursorOpacity"/>
                    <InterpolatingParam id="3844" interp="linr"  time="0/1" value="0" leadInLength="0/1"  name="cursorScale"/>
                   </Parameters>
                   <Attributes>
                    <Attribute id="3845" value="" name="ident"/>
                   </Attributes>
                   <ExtraData>
                    <Entry key="ZoomPanBin">
                     <ZoomPanBin id="3846"  >
                      <ZoomPanKeyframes>
                       <ZoomPanKeyframe id="3847" timeRangeEnd="-9999999/1" timeRangeDuration="0/1" interpolaterName="linr"  />
                      </ZoomPanKeyframes>
                     </ZoomPanBin>
                    </Entry>
                    <Entry key="CursorEffectBin">
                     <CursorEffectBin id="3848"  >
                      <CursorEffectKeyframes>
                      </CursorEffectKeyframes>
                     </CursorEffectBin>
                    </Entry>
                   </ExtraData>
                  </ScreenVMFile>
                  <MetaData>
                   <entry key="AutoAppliedSmartFocus" val="False"/>
                   <entry key="WinSubProjectDisplayName" val=""/>
                  </MetaData>
                 </UnifiedMedia>
                 <UnifiedMedia id="3849"  >
                  <AMFile id="3850" start="14318" duration="155" scalar="1/1" mediaStart="16824/1" mediaDuration="155/1" trackNumber="1" src="14" channelNumber="0,1" >
                   <Parameters>
                    <InterpolatingParam id="3851" interp="linr"  time="0/1" value="1" leadInLength="0/1"  name="volume"/>
                    <Parameter id="3852"  name="captions"/>
                   </Parameters>
                   <Attributes>
                    <Attribute id="3853" value="" name="ident"/>
                    <Attribute id="3854" value="44100" name="sampleRate"/>
                    <Attribute id="3855" value="16" name="bitDepth"/>
                    <Attribute id="3856" value="1" name="gain"/>
                    <Attribute id="3857" value="0" name="mixToMono"/>
                   </Attributes>
                  </AMFile>
                  <ScreenVMFile id="3858" start="14318" duration="155" scalar="1/1" mediaStart="16824/1" mediaDuration="155/1" trackNumber="0" src="14" >
                   <Transformer>
                    <VectorParam id="3859"  name="translation">
                     <InterpolatingParam id="3860" interp="linr"  time="-9999999/1" value="0" leadInLength="0/1"  />
                     <InterpolatingParam id="3861" interp="linr"  time="-9999999/1" value="0" leadInLength="0/1"  />
                     <InterpolatingParam id="3862" interp="linr"  time="-9999999/1" value="0" leadInLength="0/1"  />
                    </VectorParam>
                    <VectorParam id="3863"  name="rotation">
                     <InterpolatingParam id="3864" interp="linr"  time="-9999999/1" value="0" leadInLength="0/1"  />
                     <InterpolatingParam id="3865" interp="linr"  time="-9999999/1" value="0" leadInLength="0/1"  />
                     <InterpolatingParam id="3866" interp="linr"  time="-9999999/1" value="0" leadInLength="0/1"  />
                    </VectorParam>
                    <VectorParam id="3867"  name="shear">
                     <InterpolatingParam id="3868" interp="linr"  time="-9999999/1" value="0" leadInLength="0/1"  />
                     <InterpolatingParam id="3869" interp="linr"  time="-9999999/1" value="0" leadInLength="0/1"  />
                     <InterpolatingParam id="3870" interp="linr"  time="-9999999/1" value="0" leadInLength="0/1"  />
                    </VectorParam>
                    <VectorParam id="3871"  name="scale">
                     <InterpolatingParam id="3872" interp="linr"  time="-9999999/1" value="1" leadInLength="0/1"  />
                     <InterpolatingParam id="3873" interp="linr"  time="-9999999/1" value="1" leadInLength="0/1"  />
                     <InterpolatingParam id="3874" interp="linr"  time="-9999999/1" value="1" leadInLength="0/1"  />
                    </VectorParam>
                    <VectorParam id="3875"  name="anchor">
                     <InterpolatingParam id="3876" interp="linr"  time="0/1" value="0" leadInLength="0/1"  />
                     <InterpolatingParam id="3877" interp="linr"  time="0/1" value="0" leadInLength="0/1"  />
                     <InterpolatingParam id="3878" interp="linr"  time="0/1" value="0" leadInLength="0/1"  />
                    </VectorParam>
                   </Transformer>
                   <Parameters>
                    <VectorParam id="3879"  name="sourceCrop">
                     <InterpolatingParam id="3880" interp="linr"  time="0/1" value="0" leadInLength="0/1"  />
                     <InterpolatingParam id="3881" interp="linr"  time="0/1" value="0" leadInLength="0/1"  />
                     <InterpolatingParam id="3882" interp="linr"  time="0/1" value="0" leadInLength="0/1"  />
                     <InterpolatingParam id="3883" interp="linr"  time="0/1" value="0" leadInLength="0/1"  />
                    </VectorParam>
                    <VectorParam id="3884"  name="geometryCrop">
                     <InterpolatingParam id="3885" interp="linr"  time="-9999999/1" value="0" leadInLength="0/1"  />
                     <InterpolatingParam id="3886" interp="linr"  time="-9999999/1" value="0" leadInLength="0/1"  />
                     <InterpolatingParam id="3887" interp="linr"  time="-9999999/1" value="0" leadInLength="0/1"  />
                     <InterpolatingParam id="3888" interp="linr"  time="-9999999/1" value="0" leadInLength="0/1"  />
                    </VectorParam>
                    <InterpolatingParam id="3889" interp="linr"  time="-9999999/1" value="1" leadInLength="0/1"  name="opacity"/>
                    <InterpolatingParam id="3890" interp="linr"  time="0/1" value="0" leadInLength="0/1"  name="cursorOpacity"/>
                    <InterpolatingParam id="3891" interp="linr"  time="0/1" value="0" leadInLength="0/1"  name="cursorScale"/>
                   </Parameters>
                   <Attributes>
                    <Attribute id="3892" value="" name="ident"/>
                   </Attributes>
                   <ExtraData>
                    <Entry key="ZoomPanBin">
                     <ZoomPanBin id="3893"  >
                      <ZoomPanKeyframes>
                       <ZoomPanKeyframe id="3894" timeRangeEnd="-9999999/1" timeRangeDuration="0/1" interpolaterName="linr"  />
                      </ZoomPanKeyframes>
                     </ZoomPanBin>
                    </Entry>
                    <Entry key="CursorEffectBin">
                     <CursorEffectBin id="3895"  >
                      <CursorEffectKeyframes>
                      </CursorEffectKeyframes>
                     </CursorEffectBin>
                    </Entry>
                   </ExtraData>
                  </ScreenVMFile>
                  <MetaData>
                   <entry key="AutoAppliedSmartFocus" val="False"/>
                   <entry key="WinSubProjectDisplayName" val=""/>
                  </MetaData>
                 </UnifiedMedia>
                 <UnifiedMedia id="3896"  >
                  <AMFile id="3897" start="14473" duration="761" scalar="1/1" mediaStart="17125/1" mediaDuration="761/1" trackNumber="1" src="14" channelNumber="0,1" >
                   <Parameters>
                    <InterpolatingParam id="3898" interp="linr"  time="0/1" value="1" leadInLength="0/1"  name="volume"/>
                    <Parameter id="3899"  name="captions"/>
                   </Parameters>
                   <Attributes>
                    <Attribute id="3900" value="" name="ident"/>
                    <Attribute id="3901" value="44100" name="sampleRate"/>
                    <Attribute id="3902" value="16" name="bitDepth"/>
                    <Attribute id="3903" value="1" name="gain"/>
                    <Attribute id="3904" value="0" name="mixToMono"/>
                   </Attributes>
                  </AMFile>
                  <ScreenVMFile id="3905" start="14473" duration="761" scalar="1/1" mediaStart="17125/1" mediaDuration="761/1" trackNumber="0" src="14" >
                   <Transformer>
                    <VectorParam id="3906"  name="translation">
                     <InterpolatingParam id="3907" interp="linr"  time="-9999999/1" value="0" leadInLength="0/1"  />
                     <InterpolatingParam id="3908" interp="linr"  time="-9999999/1" value="0" leadInLength="0/1"  />
                     <InterpolatingParam id="3909" interp="linr"  time="-9999999/1" value="0" leadInLength="0/1"  />
                    </VectorParam>
                    <VectorParam id="3910"  name="rotation">
                     <InterpolatingParam id="3911" interp="linr"  time="-9999999/1" value="0" leadInLength="0/1"  />
                     <InterpolatingParam id="3912" interp="linr"  time="-9999999/1" value="0" leadInLength="0/1"  />
                     <InterpolatingParam id="3913" interp="linr"  time="-9999999/1" value="0" leadInLength="0/1"  />
                    </VectorParam>
                    <VectorParam id="3914"  name="shear">
                     <InterpolatingParam id="3915" interp="linr"  time="-9999999/1" value="0" leadInLength="0/1"  />
                     <InterpolatingParam id="3916" interp="linr"  time="-9999999/1" value="0" leadInLength="0/1"  />
                     <InterpolatingParam id="3917" interp="linr"  time="-9999999/1" value="0" leadInLength="0/1"  />
                    </VectorParam>
                    <VectorParam id="3918"  name="scale">
                     <InterpolatingParam id="3919" interp="linr"  time="-9999999/1" value="1" leadInLength="0/1"  />
                     <InterpolatingParam id="3920" interp="linr"  time="-9999999/1" value="1" leadInLength="0/1"  />
                     <InterpolatingParam id="3921" interp="linr"  time="-9999999/1" value="1" leadInLength="0/1"  />
                    </VectorParam>
                    <VectorParam id="3922"  name="anchor">
                     <InterpolatingParam id="3923" interp="linr"  time="0/1" value="0" leadInLength="0/1"  />
                     <InterpolatingParam id="3924" interp="linr"  time="0/1" value="0" leadInLength="0/1"  />
                     <InterpolatingParam id="3925" interp="linr"  time="0/1" value="0" leadInLength="0/1"  />
                    </VectorParam>
                   </Transformer>
                   <Parameters>
                    <VectorParam id="3926"  name="sourceCrop">
                     <InterpolatingParam id="3927" interp="linr"  time="0/1" value="0" leadInLength="0/1"  />
                     <InterpolatingParam id="3928" interp="linr"  time="0/1" value="0" leadInLength="0/1"  />
                     <InterpolatingParam id="3929" interp="linr"  time="0/1" value="0" leadInLength="0/1"  />
                     <InterpolatingParam id="3930" interp="linr"  time="0/1" value="0" leadInLength="0/1"  />
                    </VectorParam>
                    <VectorParam id="3931"  name="geometryCrop">
                     <InterpolatingParam id="3932" interp="linr"  time="-9999999/1" value="0" leadInLength="0/1"  />
                     <InterpolatingParam id="3933" interp="linr"  time="-9999999/1" value="0" leadInLength="0/1"  />
                     <InterpolatingParam id="3934" interp="linr"  time="-9999999/1" value="0" leadInLength="0/1"  />
                     <InterpolatingParam id="3935" interp="linr"  time="-9999999/1" value="0" leadInLength="0/1"  />
                    </VectorParam>
                    <InterpolatingParam id="3936" interp="linr"  time="-9999999/1" value="1" leadInLength="0/1"  name="opacity"/>
                    <InterpolatingParam id="3937" interp="linr"  time="0/1" value="0" leadInLength="0/1"  name="cursorOpacity"/>
                    <InterpolatingParam id="3938" interp="linr"  time="0/1" value="0" leadInLength="0/1"  name="cursorScale"/>
                   </Parameters>
                   <Attributes>
                    <Attribute id="3939" value="" name="ident"/>
                   </Attributes>
                   <ExtraData>
                    <Entry key="ZoomPanBin">
                     <ZoomPanBin id="3940"  >
                      <ZoomPanKeyframes>
                       <ZoomPanKeyframe id="3941" timeRangeEnd="-9999999/1" timeRangeDuration="0/1" interpolaterName="linr"  />
                      </ZoomPanKeyframes>
                     </ZoomPanBin>
                    </Entry>
                    <Entry key="CursorEffectBin">
                     <CursorEffectBin id="3942"  >
                      <CursorEffectKeyframes>
                      </CursorEffectKeyframes>
                     </CursorEffectBin>
                    </Entry>
                   </ExtraData>
                  </ScreenVMFile>
                  <MetaData>
                   <entry key="AutoAppliedSmartFocus" val="False"/>
                   <entry key="WinSubProjectDisplayName" val=""/>
                  </MetaData>
                 </UnifiedMedia>
                 <UnifiedMedia id="3943"  >
                  <AMFile id="3944" start="15234" duration="1697" scalar="1/1" mediaStart="18000/1" mediaDuration="1697/1" trackNumber="1" src="14" channelNumber="0,1" >
                   <Parameters>
                    <InterpolatingParam id="3945" interp="linr"  time="0/1" value="1" leadInLength="0/1"  name="volume"/>
                    <Parameter id="3946"  name="captions"/>
                   </Parameters>
                   <Attributes>
                    <Attribute id="3947" value="" name="ident"/>
                    <Attribute id="3948" value="44100" name="sampleRate"/>
                    <Attribute id="3949" value="16" name="bitDepth"/>
                    <Attribute id="3950" value="1" name="gain"/>
                    <Attribute id="3951" value="0" name="mixToMono"/>
                   </Attributes>
                  </AMFile>
                  <ScreenVMFile id="3952" start="15234" duration="1697" scalar="1/1" mediaStart="18000/1" mediaDuration="1697/1" trackNumber="0" src="14" >
                   <Transformer>
                    <VectorParam id="3953"  name="translation">
                     <InterpolatingParam id="3954" interp="linr"  time="-9999999/1" value="0" leadInLength="0/1"  />
                     <InterpolatingParam id="3955" interp="linr"  time="-9999999/1" value="0" leadInLength="0/1"  />
                     <InterpolatingParam id="3956" interp="linr"  time="-9999999/1" value="0" leadInLength="0/1"  />
                    </VectorParam>
                    <VectorParam id="3957"  name="rotation">
                     <InterpolatingParam id="3958" interp="linr"  time="-9999999/1" value="0" leadInLength="0/1"  />
                     <InterpolatingParam id="3959" interp="linr"  time="-9999999/1" value="0" leadInLength="0/1"  />
                     <InterpolatingParam id="3960" interp="linr"  time="-9999999/1" value="0" leadInLength="0/1"  />
                    </VectorParam>
                    <VectorParam id="3961"  name="shear">
                     <InterpolatingParam id="3962" interp="linr"  time="-9999999/1" value="0" leadInLength="0/1"  />
                     <InterpolatingParam id="3963" interp="linr"  time="-9999999/1" value="0" leadInLength="0/1"  />
                     <InterpolatingParam id="3964" interp="linr"  time="-9999999/1" value="0" leadInLength="0/1"  />
                    </VectorParam>
                    <VectorParam id="3965"  name="scale">
                     <InterpolatingParam id="3966" interp="linr"  time="-9999999/1" value="1" leadInLength="0/1"  />
                     <InterpolatingParam id="3967" interp="linr"  time="-9999999/1" value="1" leadInLength="0/1"  />
                     <InterpolatingParam id="3968" interp="linr"  time="-9999999/1" value="1" leadInLength="0/1"  />
                    </VectorParam>
                    <VectorParam id="3969"  name="anchor">
                     <InterpolatingParam id="3970" interp="linr"  time="0/1" value="0" leadInLength="0/1"  />
                     <InterpolatingParam id="3971" interp="linr"  time="0/1" value="0" leadInLength="0/1"  />
                     <InterpolatingParam id="3972" interp="linr"  time="0/1" value="0" leadInLength="0/1"  />
                    </VectorParam>
                   </Transformer>
                   <Parameters>
                    <VectorParam id="3973"  name="sourceCrop">
                     <InterpolatingParam id="3974" interp="linr"  time="0/1" value="0" leadInLength="0/1"  />
                     <InterpolatingParam id="3975" interp="linr"  time="0/1" value="0" leadInLength="0/1"  />
                     <InterpolatingParam id="3976" interp="linr"  time="0/1" value="0" leadInLength="0/1"  />
                     <InterpolatingParam id="3977" interp="linr"  time="0/1" value="0" leadInLength="0/1"  />
                    </VectorParam>
                    <VectorParam id="3978"  name="geometryCrop">
                     <InterpolatingParam id="3979" interp="linr"  time="-9999999/1" value="0" leadInLength="0/1"  />
                     <InterpolatingParam id="3980" interp="linr"  time="-9999999/1" value="0" leadInLength="0/1"  />
                     <InterpolatingParam id="3981" interp="linr"  time="-9999999/1" value="0" leadInLength="0/1"  />
                     <InterpolatingParam id="3982" interp="linr"  time="-9999999/1" value="0" leadInLength="0/1"  />
                    </VectorParam>
                    <InterpolatingParam id="3983" interp="linr"  time="-9999999/1" value="1" leadInLength="0/1"  name="opacity"/>
                    <InterpolatingParam id="3984" interp="linr"  time="0/1" value="0" leadInLength="0/1"  name="cursorOpacity"/>
                    <InterpolatingParam id="3985" interp="linr"  time="0/1" value="0" leadInLength="0/1"  name="cursorScale"/>
                   </Parameters>
                   <Attributes>
                    <Attribute id="3986" value="" name="ident"/>
                   </Attributes>
                   <ExtraData>
                    <Entry key="ZoomPanBin">
                     <ZoomPanBin id="3987"  >
                      <ZoomPanKeyframes>
                       <ZoomPanKeyframe id="3988" timeRangeEnd="-9999999/1" timeRangeDuration="0/1" interpolaterName="linr"  />
                      </ZoomPanKeyframes>
                     </ZoomPanBin>
                    </Entry>
                    <Entry key="CursorEffectBin">
                     <CursorEffectBin id="3989"  >
                      <CursorEffectKeyframes>
                      </CursorEffectKeyframes>
                     </CursorEffectBin>
                    </Entry>
                   </ExtraData>
                  </ScreenVMFile>
                  <MetaData>
                   <entry key="AutoAppliedSmartFocus" val="False"/>
                   <entry key="WinSubProjectDisplayName" val=""/>
                  </MetaData>
                 </UnifiedMedia>
                 <UnifiedMedia id="3990"  >
                  <AMFile id="3991" start="16931" duration="550" scalar="1/1" mediaStart="19797/1" mediaDuration="550/1" trackNumber="1" src="14" channelNumber="0,1" >
                   <Parameters>
                    <InterpolatingParam id="3992" interp="linr"  time="0/1" value="1" leadInLength="0/1"  name="volume"/>
                    <Parameter id="3993"  name="captions"/>
                   </Parameters>
                   <Attributes>
                    <Attribute id="3994" value="" name="ident"/>
                    <Attribute id="3995" value="44100" name="sampleRate"/>
                    <Attribute id="3996" value="16" name="bitDepth"/>
                    <Attribute id="3997" value="1" name="gain"/>
                    <Attribute id="3998" value="0" name="mixToMono"/>
                   </Attributes>
                  </AMFile>
                  <ScreenVMFile id="3999" start="16931" duration="550" scalar="1/1" mediaStart="19797/1" mediaDuration="550/1" trackNumber="0" src="14" >
                   <Transformer>
                    <VectorParam id="4000"  name="translation">
                     <InterpolatingParam id="4001" interp="linr"  time="-9999999/1" value="0" leadInLength="0/1"  />
                     <InterpolatingParam id="4002" interp="linr"  time="-9999999/1" value="0" leadInLength="0/1"  />
                     <InterpolatingParam id="4003" interp="linr"  time="-9999999/1" value="0" leadInLength="0/1"  />
                    </VectorParam>
                    <VectorParam id="4004"  name="rotation">
                     <InterpolatingParam id="4005" interp="linr"  time="-9999999/1" value="0" leadInLength="0/1"  />
                     <InterpolatingParam id="4006" interp="linr"  time="-9999999/1" value="0" leadInLength="0/1"  />
                     <InterpolatingParam id="4007" interp="linr"  time="-9999999/1" value="0" leadInLength="0/1"  />
                    </VectorParam>
                    <VectorParam id="4008"  name="shear">
                     <InterpolatingParam id="4009" interp="linr"  time="-9999999/1" value="0" leadInLength="0/1"  />
                     <InterpolatingParam id="4010" interp="linr"  time="-9999999/1" value="0" leadInLength="0/1"  />
                     <InterpolatingParam id="4011" interp="linr"  time="-9999999/1" value="0" leadInLength="0/1"  />
                    </VectorParam>
                    <VectorParam id="4012"  name="scale">
                     <InterpolatingParam id="4013" interp="linr"  time="-9999999/1" value="1" leadInLength="0/1"  />
                     <InterpolatingParam id="4014" interp="linr"  time="-9999999/1" value="1" leadInLength="0/1"  />
                     <InterpolatingParam id="4015" interp="linr"  time="-9999999/1" value="1" leadInLength="0/1"  />
                    </VectorParam>
                    <VectorParam id="4016"  name="anchor">
                     <InterpolatingParam id="4017" interp="linr"  time="0/1" value="0" leadInLength="0/1"  />
                     <InterpolatingParam id="4018" interp="linr"  time="0/1" value="0" leadInLength="0/1"  />
                     <InterpolatingParam id="4019" interp="linr"  time="0/1" value="0" leadInLength="0/1"  />
                    </VectorParam>
                   </Transformer>
                   <Parameters>
                    <VectorParam id="4020"  name="sourceCrop">
                     <InterpolatingParam id="4021" interp="linr"  time="0/1" value="0" leadInLength="0/1"  />
                     <InterpolatingParam id="4022" interp="linr"  time="0/1" value="0" leadInLength="0/1"  />
                     <InterpolatingParam id="4023" interp="linr"  time="0/1" value="0" leadInLength="0/1"  />
                     <InterpolatingParam id="4024" interp="linr"  time="0/1" value="0" leadInLength="0/1"  />
                    </VectorParam>
                    <VectorParam id="4025"  name="geometryCrop">
                     <InterpolatingParam id="4026" interp="linr"  time="-9999999/1" value="0" leadInLength="0/1"  />
                     <InterpolatingParam id="4027" interp="linr"  time="-9999999/1" value="0" leadInLength="0/1"  />
                     <InterpolatingParam id="4028" interp="linr"  time="-9999999/1" value="0" leadInLength="0/1"  />
                     <InterpolatingParam id="4029" interp="linr"  time="-9999999/1" value="0" leadInLength="0/1"  />
                    </VectorParam>
                    <InterpolatingParam id="4030" interp="linr"  time="-9999999/1" value="1" leadInLength="0/1"  name="opacity"/>
                    <InterpolatingParam id="4031" interp="linr"  time="0/1" value="0" leadInLength="0/1"  name="cursorOpacity"/>
                    <InterpolatingParam id="4032" interp="linr"  time="0/1" value="0" leadInLength="0/1"  name="cursorScale"/>
                   </Parameters>
                   <Attributes>
                    <Attribute id="4033" value="" name="ident"/>
                   </Attributes>
                   <ExtraData>
                    <Entry key="ZoomPanBin">
                     <ZoomPanBin id="4034"  >
                      <ZoomPanKeyframes>
                       <ZoomPanKeyframe id="4035" timeRangeEnd="-9999999/1" timeRangeDuration="0/1" interpolaterName="linr"  />
                      </ZoomPanKeyframes>
                     </ZoomPanBin>
                    </Entry>
                    <Entry key="CursorEffectBin">
                     <CursorEffectBin id="4036"  >
                      <CursorEffectKeyframes>
                      </CursorEffectKeyframes>
                     </CursorEffectBin>
                    </Entry>
                   </ExtraData>
                  </ScreenVMFile>
                  <MetaData>
                   <entry key="AutoAppliedSmartFocus" val="False"/>
                   <entry key="WinSubProjectDisplayName" val=""/>
                  </MetaData>
                 </UnifiedMedia>
                 <UnifiedMedia id="4037"  >
                  <AMFile id="4038" start="17481" duration="47" scalar="1/1" mediaStart="20406/1" mediaDuration="47/1" trackNumber="1" src="14" channelNumber="0,1" >
                   <Parameters>
                    <InterpolatingParam id="4039" interp="linr"  time="0/1" value="1" leadInLength="0/1"  name="volume"/>
                    <Parameter id="4040"  name="captions"/>
                   </Parameters>
                   <Attributes>
                    <Attribute id="4041" value="" name="ident"/>
                    <Attribute id="4042" value="44100" name="sampleRate"/>
                    <Attribute id="4043" value="16" name="bitDepth"/>
                    <Attribute id="4044" value="1" name="gain"/>
                    <Attribute id="4045" value="0" name="mixToMono"/>
                   </Attributes>
                  </AMFile>
                  <ScreenVMFile id="4046" start="17481" duration="47" scalar="1/1" mediaStart="20406/1" mediaDuration="47/1" trackNumber="0" src="14" >
                   <Transformer>
                    <VectorParam id="4047"  name="translation">
                     <InterpolatingParam id="4048" interp="linr"  time="-9999999/1" value="0" leadInLength="0/1"  />
                     <InterpolatingParam id="4049" interp="linr"  time="-9999999/1" value="0" leadInLength="0/1"  />
                     <InterpolatingParam id="4050" interp="linr"  time="-9999999/1" value="0" leadInLength="0/1"  />
                    </VectorParam>
                    <VectorParam id="4051"  name="rotation">
                     <InterpolatingParam id="4052" interp="linr"  time="-9999999/1" value="0" leadInLength="0/1"  />
                     <InterpolatingParam id="4053" interp="linr"  time="-9999999/1" value="0" leadInLength="0/1"  />
                     <InterpolatingParam id="4054" interp="linr"  time="-9999999/1" value="0" leadInLength="0/1"  />
                    </VectorParam>
                    <VectorParam id="4055"  name="shear">
                     <InterpolatingParam id="4056" interp="linr"  time="-9999999/1" value="0" leadInLength="0/1"  />
                     <InterpolatingParam id="4057" interp="linr"  time="-9999999/1" value="0" leadInLength="0/1"  />
                     <InterpolatingParam id="4058" interp="linr"  time="-9999999/1" value="0" leadInLength="0/1"  />
                    </VectorParam>
                    <VectorParam id="4059"  name="scale">
                     <InterpolatingParam id="4060" interp="linr"  time="-9999999/1" value="1" leadInLength="0/1"  />
                     <InterpolatingParam id="4061" interp="linr"  time="-9999999/1" value="1" leadInLength="0/1"  />
                     <InterpolatingParam id="4062" interp="linr"  time="-9999999/1" value="1" leadInLength="0/1"  />
                    </VectorParam>
                    <VectorParam id="4063"  name="anchor">
                     <InterpolatingParam id="4064" interp="linr"  time="0/1" value="0" leadInLength="0/1"  />
                     <InterpolatingParam id="4065" interp="linr"  time="0/1" value="0" leadInLength="0/1"  />
                     <InterpolatingParam id="4066" interp="linr"  time="0/1" value="0" leadInLength="0/1"  />
                    </VectorParam>
                   </Transformer>
                   <Parameters>
                    <VectorParam id="4067"  name="sourceCrop">
                     <InterpolatingParam id="4068" interp="linr"  time="0/1" value="0" leadInLength="0/1"  />
                     <InterpolatingParam id="4069" interp="linr"  time="0/1" value="0" leadInLength="0/1"  />
                     <InterpolatingParam id="4070" interp="linr"  time="0/1" value="0" leadInLength="0/1"  />
                     <InterpolatingParam id="4071" interp="linr"  time="0/1" value="0" leadInLength="0/1"  />
                    </VectorParam>
                    <VectorParam id="4072"  name="geometryCrop">
                     <InterpolatingParam id="4073" interp="linr"  time="-9999999/1" value="0" leadInLength="0/1"  />
                     <InterpolatingParam id="4074" interp="linr"  time="-9999999/1" value="0" leadInLength="0/1"  />
                     <InterpolatingParam id="4075" interp="linr"  time="-9999999/1" value="0" leadInLength="0/1"  />
                     <InterpolatingParam id="4076" interp="linr"  time="-9999999/1" value="0" leadInLength="0/1"  />
                    </VectorParam>
                    <InterpolatingParam id="4077" interp="linr"  time="-9999999/1" value="1" leadInLength="0/1"  name="opacity"/>
                    <InterpolatingParam id="4078" interp="linr"  time="0/1" value="0" leadInLength="0/1"  name="cursorOpacity"/>
                    <InterpolatingParam id="4079" interp="linr"  time="0/1" value="0" leadInLength="0/1"  name="cursorScale"/>
                   </Parameters>
                   <Attributes>
                    <Attribute id="4080" value="" name="ident"/>
                   </Attributes>
                   <ExtraData>
                    <Entry key="ZoomPanBin">
                     <ZoomPanBin id="4081"  >
                      <ZoomPanKeyframes>
                       <ZoomPanKeyframe id="4082" timeRangeEnd="-9999999/1" timeRangeDuration="0/1" interpolaterName="linr"  />
                      </ZoomPanKeyframes>
                     </ZoomPanBin>
                    </Entry>
                    <Entry key="CursorEffectBin">
                     <CursorEffectBin id="4083"  >
                      <CursorEffectKeyframes>
                      </CursorEffectKeyframes>
                     </CursorEffectBin>
                    </Entry>
                   </ExtraData>
                  </ScreenVMFile>
                  <MetaData>
                   <entry key="AutoAppliedSmartFocus" val="False"/>
                   <entry key="WinSubProjectDisplayName" val=""/>
                  </MetaData>
                 </UnifiedMedia>
                 <UnifiedMedia id="4084"  >
                  <AMFile id="4085" start="17528" duration="238" scalar="1/1" mediaStart="20475/1" mediaDuration="238/1" trackNumber="1" src="14" channelNumber="0,1" >
                   <Parameters>
                    <InterpolatingParam id="4086" interp="linr"  time="0/1" value="1" leadInLength="0/1"  name="volume"/>
                    <Parameter id="4087"  name="captions"/>
                   </Parameters>
                   <Attributes>
                    <Attribute id="4088" value="" name="ident"/>
                    <Attribute id="4089" value="44100" name="sampleRate"/>
                    <Attribute id="4090" value="16" name="bitDepth"/>
                    <Attribute id="4091" value="1" name="gain"/>
                    <Attribute id="4092" value="0" name="mixToMono"/>
                   </Attributes>
                  </AMFile>
                  <ScreenVMFile id="4093" start="17528" duration="238" scalar="1/1" mediaStart="20475/1" mediaDuration="238/1" trackNumber="0" src="14" >
                   <Transformer>
                    <VectorParam id="4094"  name="translation">
                     <InterpolatingParam id="4095" interp="linr"  time="-9999999/1" value="0" leadInLength="0/1"  />
                     <InterpolatingParam id="4096" interp="linr"  time="-9999999/1" value="0" leadInLength="0/1"  />
                     <InterpolatingParam id="4097" interp="linr"  time="-9999999/1" value="0" leadInLength="0/1"  />
                    </VectorParam>
                    <VectorParam id="4098"  name="rotation">
                     <InterpolatingParam id="4099" interp="linr"  time="-9999999/1" value="0" leadInLength="0/1"  />
                     <InterpolatingParam id="4100" interp="linr"  time="-9999999/1" value="0" leadInLength="0/1"  />
                     <InterpolatingParam id="4101" interp="linr"  time="-9999999/1" value="0" leadInLength="0/1"  />
                    </VectorParam>
                    <VectorParam id="4102"  name="shear">
                     <InterpolatingParam id="4103" interp="linr"  time="-9999999/1" value="0" leadInLength="0/1"  />
                     <InterpolatingParam id="4104" interp="linr"  time="-9999999/1" value="0" leadInLength="0/1"  />
                     <InterpolatingParam id="4105" interp="linr"  time="-9999999/1" value="0" leadInLength="0/1"  />
                    </VectorParam>
                    <VectorParam id="4106"  name="scale">
                     <InterpolatingParam id="4107" interp="linr"  time="-9999999/1" value="1" leadInLength="0/1"  />
                     <InterpolatingParam id="4108" interp="linr"  time="-9999999/1" value="1" leadInLength="0/1"  />
                     <InterpolatingParam id="4109" interp="linr"  time="-9999999/1" value="1" leadInLength="0/1"  />
                    </VectorParam>
                    <VectorParam id="4110"  name="anchor">
                     <InterpolatingParam id="4111" interp="linr"  time="0/1" value="0" leadInLength="0/1"  />
                     <InterpolatingParam id="4112" interp="linr"  time="0/1" value="0" leadInLength="0/1"  />
                     <InterpolatingParam id="4113" interp="linr"  time="0/1" value="0" leadInLength="0/1"  />
                    </VectorParam>
                   </Transformer>
                   <Parameters>
                    <VectorParam id="4114"  name="sourceCrop">
                     <InterpolatingParam id="4115" interp="linr"  time="0/1" value="0" leadInLength="0/1"  />
                     <InterpolatingParam id="4116" interp="linr"  time="0/1" value="0" leadInLength="0/1"  />
                     <InterpolatingParam id="4117" interp="linr"  time="0/1" value="0" leadInLength="0/1"  />
                     <InterpolatingParam id="4118" interp="linr"  time="0/1" value="0" leadInLength="0/1"  />
                    </VectorParam>
                    <VectorParam id="4119"  name="geometryCrop">
                     <InterpolatingParam id="4120" interp="linr"  time="-9999999/1" value="0" leadInLength="0/1"  />
                     <InterpolatingParam id="4121" interp="linr"  time="-9999999/1" value="0" leadInLength="0/1"  />
                     <InterpolatingParam id="4122" interp="linr"  time="-9999999/1" value="0" leadInLength="0/1"  />
                     <InterpolatingParam id="4123" interp="linr"  time="-9999999/1" value="0" leadInLength="0/1"  />
                    </VectorParam>
                    <InterpolatingParam id="4124" interp="linr"  time="-9999999/1" value="1" leadInLength="0/1"  name="opacity"/>
                    <InterpolatingParam id="4125" interp="linr"  time="0/1" value="0" leadInLength="0/1"  name="cursorOpacity"/>
                    <InterpolatingParam id="4126" interp="linr"  time="0/1" value="0" leadInLength="0/1"  name="cursorScale"/>
                   </Parameters>
                   <Attributes>
                    <Attribute id="4127" value="" name="ident"/>
                   </Attributes>
                   <ExtraData>
                    <Entry key="ZoomPanBin">
                     <ZoomPanBin id="4128"  >
                      <ZoomPanKeyframes>
                       <ZoomPanKeyframe id="4129" timeRangeEnd="-9999999/1" timeRangeDuration="0/1" interpolaterName="linr"  />
                      </ZoomPanKeyframes>
                     </ZoomPanBin>
                    </Entry>
                    <Entry key="CursorEffectBin">
                     <CursorEffectBin id="4130"  >
                      <CursorEffectKeyframes>
                      </CursorEffectKeyframes>
                     </CursorEffectBin>
                    </Entry>
                   </ExtraData>
                  </ScreenVMFile>
                  <MetaData>
                   <entry key="AutoAppliedSmartFocus" val="False"/>
                   <entry key="WinSubProjectDisplayName" val=""/>
                  </MetaData>
                 </UnifiedMedia>
                 <UnifiedMedia id="4131"  >
                  <AMFile id="4132" start="17766" duration="21" scalar="1/1" mediaStart="20721/1" mediaDuration="21/1" trackNumber="1" src="14" channelNumber="0,1" >
                   <Parameters>
                    <InterpolatingParam id="4133" interp="linr"  time="0/1" value="1" leadInLength="0/1"  name="volume"/>
                    <Parameter id="4134"  name="captions"/>
                   </Parameters>
                   <Attributes>
                    <Attribute id="4135" value="" name="ident"/>
                    <Attribute id="4136" value="44100" name="sampleRate"/>
                    <Attribute id="4137" value="16" name="bitDepth"/>
                    <Attribute id="4138" value="1" name="gain"/>
                    <Attribute id="4139" value="0" name="mixToMono"/>
                   </Attributes>
                  </AMFile>
                  <ScreenVMFile id="4140" start="17766" duration="21" scalar="1/1" mediaStart="20721/1" mediaDuration="21/1" trackNumber="0" src="14" >
                   <Transformer>
                    <VectorParam id="4141"  name="translation">
                     <InterpolatingParam id="4142" interp="linr"  time="-9999999/1" value="0" leadInLength="0/1"  />
                     <InterpolatingParam id="4143" interp="linr"  time="-9999999/1" value="0" leadInLength="0/1"  />
                     <InterpolatingParam id="4144" interp="linr"  time="-9999999/1" value="0" leadInLength="0/1"  />
                    </VectorParam>
                    <VectorParam id="4145"  name="rotation">
                     <InterpolatingParam id="4146" interp="linr"  time="-9999999/1" value="0" leadInLength="0/1"  />
                     <InterpolatingParam id="4147" interp="linr"  time="-9999999/1" value="0" leadInLength="0/1"  />
                     <InterpolatingParam id="4148" interp="linr"  time="-9999999/1" value="0" leadInLength="0/1"  />
                    </VectorParam>
                    <VectorParam id="4149"  name="shear">
                     <InterpolatingParam id="4150" interp="linr"  time="-9999999/1" value="0" leadInLength="0/1"  />
                     <InterpolatingParam id="4151" interp="linr"  time="-9999999/1" value="0" leadInLength="0/1"  />
                     <InterpolatingParam id="4152" interp="linr"  time="-9999999/1" value="0" leadInLength="0/1"  />
                    </VectorParam>
                    <VectorParam id="4153"  name="scale">
                     <InterpolatingParam id="4154" interp="linr"  time="-9999999/1" value="1" leadInLength="0/1"  />
                     <InterpolatingParam id="4155" interp="linr"  time="-9999999/1" value="1" leadInLength="0/1"  />
                     <InterpolatingParam id="4156" interp="linr"  time="-9999999/1" value="1" leadInLength="0/1"  />
                    </VectorParam>
                    <VectorParam id="4157"  name="anchor">
                     <InterpolatingParam id="4158" interp="linr"  time="0/1" value="0" leadInLength="0/1"  />
                     <InterpolatingParam id="4159" interp="linr"  time="0/1" value="0" leadInLength="0/1"  />
                     <InterpolatingParam id="4160" interp="linr"  time="0/1" value="0" leadInLength="0/1"  />
                    </VectorParam>
                   </Transformer>
                   <Parameters>
                    <VectorParam id="4161"  name="sourceCrop">
                     <InterpolatingParam id="4162" interp="linr"  time="0/1" value="0" leadInLength="0/1"  />
                     <InterpolatingParam id="4163" interp="linr"  time="0/1" value="0" leadInLength="0/1"  />
                     <InterpolatingParam id="4164" interp="linr"  time="0/1" value="0" leadInLength="0/1"  />
                     <InterpolatingParam id="4165" interp="linr"  time="0/1" value="0" leadInLength="0/1"  />
                    </VectorParam>
                    <VectorParam id="4166"  name="geometryCrop">
                     <InterpolatingParam id="4167" interp="linr"  time="-9999999/1" value="0" leadInLength="0/1"  />
                     <InterpolatingParam id="4168" interp="linr"  time="-9999999/1" value="0" leadInLength="0/1"  />
                     <InterpolatingParam id="4169" interp="linr"  time="-9999999/1" value="0" leadInLength="0/1"  />
                     <InterpolatingParam id="4170" interp="linr"  time="-9999999/1" value="0" leadInLength="0/1"  />
                    </VectorParam>
                    <InterpolatingParam id="4171" interp="linr"  time="-9999999/1" value="1" leadInLength="0/1"  name="opacity"/>
                    <InterpolatingParam id="4172" interp="linr"  time="0/1" value="0" leadInLength="0/1"  name="cursorOpacity"/>
                    <InterpolatingParam id="4173" interp="linr"  time="0/1" value="0" leadInLength="0/1"  name="cursorScale"/>
                   </Parameters>
                   <Attributes>
                    <Attribute id="4174" value="" name="ident"/>
                   </Attributes>
                   <ExtraData>
                    <Entry key="ZoomPanBin">
                     <ZoomPanBin id="4175"  >
                      <ZoomPanKeyframes>
                       <ZoomPanKeyframe id="4176" timeRangeEnd="-9999999/1" timeRangeDuration="0/1" interpolaterName="linr"  />
                      </ZoomPanKeyframes>
                     </ZoomPanBin>
                    </Entry>
                    <Entry key="CursorEffectBin">
                     <CursorEffectBin id="4177"  >
                      <CursorEffectKeyframes>
                      </CursorEffectKeyframes>
                     </CursorEffectBin>
                    </Entry>
                   </ExtraData>
                  </ScreenVMFile>
                  <MetaData>
                   <entry key="AutoAppliedSmartFocus" val="False"/>
                   <entry key="WinSubProjectDisplayName" val=""/>
                  </MetaData>
                 </UnifiedMedia>
                 <UnifiedMedia id="4178"  >
                  <AMFile id="4179" start="17787" duration="1820" scalar="1/1" mediaStart="20748/1" mediaDuration="1820/1" trackNumber="1" src="14" channelNumber="0,1" >
                   <Parameters>
                    <InterpolatingParam id="4180" interp="linr"  time="0/1" value="1" leadInLength="0/1"  name="volume"/>
                    <Parameter id="4181"  name="captions"/>
                   </Parameters>
                   <Attributes>
                    <Attribute id="4182" value="" name="ident"/>
                    <Attribute id="4183" value="44100" name="sampleRate"/>
                    <Attribute id="4184" value="16" name="bitDepth"/>
                    <Attribute id="4185" value="1" name="gain"/>
                    <Attribute id="4186" value="0" name="mixToMono"/>
                   </Attributes>
                  </AMFile>
                  <ScreenVMFile id="4187" start="17787" duration="1820" scalar="1/1" mediaStart="20748/1" mediaDuration="1820/1" trackNumber="0" src="14" >
                   <Transformer>
                    <VectorParam id="4188"  name="translation">
                     <InterpolatingParam id="4189" interp="linr"  time="-9999999/1" value="0" leadInLength="0/1"  />
                     <InterpolatingParam id="4190" interp="linr"  time="-9999999/1" value="0" leadInLength="0/1"  />
                     <InterpolatingParam id="4191" interp="linr"  time="-9999999/1" value="0" leadInLength="0/1"  />
                    </VectorParam>
                    <VectorParam id="4192"  name="rotation">
                     <InterpolatingParam id="4193" interp="linr"  time="-9999999/1" value="0" leadInLength="0/1"  />
                     <InterpolatingParam id="4194" interp="linr"  time="-9999999/1" value="0" leadInLength="0/1"  />
                     <InterpolatingParam id="4195" interp="linr"  time="-9999999/1" value="0" leadInLength="0/1"  />
                    </VectorParam>
                    <VectorParam id="4196"  name="shear">
                     <InterpolatingParam id="4197" interp="linr"  time="-9999999/1" value="0" leadInLength="0/1"  />
                     <InterpolatingParam id="4198" interp="linr"  time="-9999999/1" value="0" leadInLength="0/1"  />
                     <InterpolatingParam id="4199" interp="linr"  time="-9999999/1" value="0" leadInLength="0/1"  />
                    </VectorParam>
                    <VectorParam id="4200"  name="scale">
                     <InterpolatingParam id="4201" interp="linr"  time="-9999999/1" value="1" leadInLength="0/1"  />
                     <InterpolatingParam id="4202" interp="linr"  time="-9999999/1" value="1" leadInLength="0/1"  />
                     <InterpolatingParam id="4203" interp="linr"  time="-9999999/1" value="1" leadInLength="0/1"  />
                    </VectorParam>
                    <VectorParam id="4204"  name="anchor">
                     <InterpolatingParam id="4205" interp="linr"  time="0/1" value="0" leadInLength="0/1"  />
                     <InterpolatingParam id="4206" interp="linr"  time="0/1" value="0" leadInLength="0/1"  />
                     <InterpolatingParam id="4207" interp="linr"  time="0/1" value="0" leadInLength="0/1"  />
                    </VectorParam>
                   </Transformer>
                   <Parameters>
                    <VectorParam id="4208"  name="sourceCrop">
                     <InterpolatingParam id="4209" interp="linr"  time="0/1" value="0" leadInLength="0/1"  />
                     <InterpolatingParam id="4210" interp="linr"  time="0/1" value="0" leadInLength="0/1"  />
                     <InterpolatingParam id="4211" interp="linr"  time="0/1" value="0" leadInLength="0/1"  />
                     <InterpolatingParam id="4212" interp="linr"  time="0/1" value="0" leadInLength="0/1"  />
                    </VectorParam>
                    <VectorParam id="4213"  name="geometryCrop">
                     <InterpolatingParam id="4214" interp="linr"  time="-9999999/1" value="0" leadInLength="0/1"  />
                     <InterpolatingParam id="4215" interp="linr"  time="-9999999/1" value="0" leadInLength="0/1"  />
                     <InterpolatingParam id="4216" interp="linr"  time="-9999999/1" value="0" leadInLength="0/1"  />
                     <InterpolatingParam id="4217" interp="linr"  time="-9999999/1" value="0" leadInLength="0/1"  />
                    </VectorParam>
                    <InterpolatingParam id="4218" interp="linr"  time="-9999999/1" value="1" leadInLength="0/1"  name="opacity"/>
                    <InterpolatingParam id="4219" interp="linr"  time="0/1" value="0" leadInLength="0/1"  name="cursorOpacity"/>
                    <InterpolatingParam id="4220" interp="linr"  time="0/1" value="0" leadInLength="0/1"  name="cursorScale"/>
                   </Parameters>
                   <Attributes>
                    <Attribute id="4221" value="" name="ident"/>
                   </Attributes>
                   <ExtraData>
                    <Entry key="ZoomPanBin">
                     <ZoomPanBin id="4222"  >
                      <ZoomPanKeyframes>
                       <ZoomPanKeyframe id="4223" timeRangeEnd="-9999999/1" timeRangeDuration="0/1" interpolaterName="linr"  />
                      </ZoomPanKeyframes>
                     </ZoomPanBin>
                    </Entry>
                    <Entry key="CursorEffectBin">
                     <CursorEffectBin id="4224"  >
                      <CursorEffectKeyframes>
                      </CursorEffectKeyframes>
                     </CursorEffectBin>
                    </Entry>
                   </ExtraData>
                  </ScreenVMFile>
                  <MetaData>
                   <entry key="AutoAppliedSmartFocus" val="False"/>
                   <entry key="WinSubProjectDisplayName" val=""/>
                  </MetaData>
                 </UnifiedMedia>
                 <UnifiedMedia id="4225"  >
                  <AMFile id="4226" start="19607" duration="222" scalar="1/1" mediaStart="22577/1" mediaDuration="222/1" trackNumber="1" src="14" channelNumber="0,1" >
                   <Parameters>
                    <InterpolatingParam id="4227" interp="linr"  time="0/1" value="1" leadInLength="0/1"  name="volume"/>
                    <Parameter id="4228"  name="captions"/>
                   </Parameters>
                   <Attributes>
                    <Attribute id="4229" value="" name="ident"/>
                    <Attribute id="4230" value="44100" name="sampleRate"/>
                    <Attribute id="4231" value="16" name="bitDepth"/>
                    <Attribute id="4232" value="1" name="gain"/>
                    <Attribute id="4233" value="0" name="mixToMono"/>
                   </Attributes>
                  </AMFile>
                  <ScreenVMFile id="4234" start="19607" duration="222" scalar="1/1" mediaStart="22577/1" mediaDuration="222/1" trackNumber="0" src="14" >
                   <Transformer>
                    <VectorParam id="4235"  name="translation">
                     <InterpolatingParam id="4236" interp="linr"  time="-9999999/1" value="0" leadInLength="0/1"  />
                     <InterpolatingParam id="4237" interp="linr"  time="-9999999/1" value="0" leadInLength="0/1"  />
                     <InterpolatingParam id="4238" interp="linr"  time="-9999999/1" value="0" leadInLength="0/1"  />
                    </VectorParam>
                    <VectorParam id="4239"  name="rotation">
                     <InterpolatingParam id="4240" interp="linr"  time="-9999999/1" value="0" leadInLength="0/1"  />
                     <InterpolatingParam id="4241" interp="linr"  time="-9999999/1" value="0" leadInLength="0/1"  />
                     <InterpolatingParam id="4242" interp="linr"  time="-9999999/1" value="0" leadInLength="0/1"  />
                    </VectorParam>
                    <VectorParam id="4243"  name="shear">
                     <InterpolatingParam id="4244" interp="linr"  time="-9999999/1" value="0" leadInLength="0/1"  />
                     <InterpolatingParam id="4245" interp="linr"  time="-9999999/1" value="0" leadInLength="0/1"  />
                     <InterpolatingParam id="4246" interp="linr"  time="-9999999/1" value="0" leadInLength="0/1"  />
                    </VectorParam>
                    <VectorParam id="4247"  name="scale">
                     <InterpolatingParam id="4248" interp="linr"  time="-9999999/1" value="1" leadInLength="0/1"  />
                     <InterpolatingParam id="4249" interp="linr"  time="-9999999/1" value="1" leadInLength="0/1"  />
                     <InterpolatingParam id="4250" interp="linr"  time="-9999999/1" value="1" leadInLength="0/1"  />
                    </VectorParam>
                    <VectorParam id="4251"  name="anchor">
                     <InterpolatingParam id="4252" interp="linr"  time="0/1" value="0" leadInLength="0/1"  />
                     <InterpolatingParam id="4253" interp="linr"  time="0/1" value="0" leadInLength="0/1"  />
                     <InterpolatingParam id="4254" interp="linr"  time="0/1" value="0" leadInLength="0/1"  />
                    </VectorParam>
                   </Transformer>
                   <Parameters>
                    <VectorParam id="4255"  name="sourceCrop">
                     <InterpolatingParam id="4256" interp="linr"  time="0/1" value="0" leadInLength="0/1"  />
                     <InterpolatingParam id="4257" interp="linr"  time="0/1" value="0" leadInLength="0/1"  />
                     <InterpolatingParam id="4258" interp="linr"  time="0/1" value="0" leadInLength="0/1"  />
                     <InterpolatingParam id="4259" interp="linr"  time="0/1" value="0" leadInLength="0/1"  />
                    </VectorParam>
                    <VectorParam id="4260"  name="geometryCrop">
                     <InterpolatingParam id="4261" interp="linr"  time="-9999999/1" value="0" leadInLength="0/1"  />
                     <InterpolatingParam id="4262" interp="linr"  time="-9999999/1" value="0" leadInLength="0/1"  />
                     <InterpolatingParam id="4263" interp="linr"  time="-9999999/1" value="0" leadInLength="0/1"  />
                     <InterpolatingParam id="4264" interp="linr"  time="-9999999/1" value="0" leadInLength="0/1"  />
                    </VectorParam>
                    <InterpolatingParam id="4265" interp="linr"  time="-9999999/1" value="1" leadInLength="0/1"  name="opacity"/>
                    <InterpolatingParam id="4266" interp="linr"  time="0/1" value="0" leadInLength="0/1"  name="cursorOpacity"/>
                    <InterpolatingParam id="4267" interp="linr"  time="0/1" value="0" leadInLength="0/1"  name="cursorScale"/>
                   </Parameters>
                   <Attributes>
                    <Attribute id="4268" value="" name="ident"/>
                   </Attributes>
                   <ExtraData>
                    <Entry key="ZoomPanBin">
                     <ZoomPanBin id="4269"  >
                      <ZoomPanKeyframes>
                       <ZoomPanKeyframe id="4270" timeRangeEnd="-9999999/1" timeRangeDuration="0/1" interpolaterName="linr"  />
                      </ZoomPanKeyframes>
                     </ZoomPanBin>
                    </Entry>
                    <Entry key="CursorEffectBin">
                     <CursorEffectBin id="4271"  >
                      <CursorEffectKeyframes>
                      </CursorEffectKeyframes>
                     </CursorEffectBin>
                    </Entry>
                   </ExtraData>
                  </ScreenVMFile>
                  <MetaData>
                   <entry key="AutoAppliedSmartFocus" val="False"/>
                   <entry key="WinSubProjectDisplayName" val=""/>
                  </MetaData>
                 </UnifiedMedia>
                 <UnifiedMedia id="4272"  >
                  <AMFile id="4273" start="19829" duration="52" scalar="1/1" mediaStart="23050/1" mediaDuration="52/1" trackNumber="1" src="14" channelNumber="0,1" >
                   <Parameters>
                    <InterpolatingParam id="4274" interp="linr"  time="0/1" value="1" leadInLength="0/1"  name="volume"/>
                    <Parameter id="4275"  name="captions"/>
                   </Parameters>
                   <Attributes>
                    <Attribute id="4276" value="" name="ident"/>
                    <Attribute id="4277" value="44100" name="sampleRate"/>
                    <Attribute id="4278" value="16" name="bitDepth"/>
                    <Attribute id="4279" value="1" name="gain"/>
                    <Attribute id="4280" value="0" name="mixToMono"/>
                   </Attributes>
                  </AMFile>
                  <ScreenVMFile id="4281" start="19829" duration="52" scalar="1/1" mediaStart="23050/1" mediaDuration="52/1" trackNumber="0" src="14" >
                   <Transformer>
                    <VectorParam id="4282"  name="translation">
                     <InterpolatingParam id="4283" interp="linr"  time="-9999999/1" value="0" leadInLength="0/1"  />
                     <InterpolatingParam id="4284" interp="linr"  time="-9999999/1" value="0" leadInLength="0/1"  />
                     <InterpolatingParam id="4285" interp="linr"  time="-9999999/1" value="0" leadInLength="0/1"  />
                    </VectorParam>
                    <VectorParam id="4286"  name="rotation">
                     <InterpolatingParam id="4287" interp="linr"  time="-9999999/1" value="0" leadInLength="0/1"  />
                     <InterpolatingParam id="4288" interp="linr"  time="-9999999/1" value="0" leadInLength="0/1"  />
                     <InterpolatingParam id="4289" interp="linr"  time="-9999999/1" value="0" leadInLength="0/1"  />
                    </VectorParam>
                    <VectorParam id="4290"  name="shear">
                     <InterpolatingParam id="4291" interp="linr"  time="-9999999/1" value="0" leadInLength="0/1"  />
                     <InterpolatingParam id="4292" interp="linr"  time="-9999999/1" value="0" leadInLength="0/1"  />
                     <InterpolatingParam id="4293" interp="linr"  time="-9999999/1" value="0" leadInLength="0/1"  />
                    </VectorParam>
                    <VectorParam id="4294"  name="scale">
                     <InterpolatingParam id="4295" interp="linr"  time="-9999999/1" value="1" leadInLength="0/1"  />
                     <InterpolatingParam id="4296" interp="linr"  time="-9999999/1" value="1" leadInLength="0/1"  />
                     <InterpolatingParam id="4297" interp="linr"  time="-9999999/1" value="1" leadInLength="0/1"  />
                    </VectorParam>
                    <VectorParam id="4298"  name="anchor">
                     <InterpolatingParam id="4299" interp="linr"  time="0/1" value="0" leadInLength="0/1"  />
                     <InterpolatingParam id="4300" interp="linr"  time="0/1" value="0" leadInLength="0/1"  />
                     <InterpolatingParam id="4301" interp="linr"  time="0/1" value="0" leadInLength="0/1"  />
                    </VectorParam>
                   </Transformer>
                   <Parameters>
                    <VectorParam id="4302"  name="sourceCrop">
                     <InterpolatingParam id="4303" interp="linr"  time="0/1" value="0" leadInLength="0/1"  />
                     <InterpolatingParam id="4304" interp="linr"  time="0/1" value="0" leadInLength="0/1"  />
                     <InterpolatingParam id="4305" interp="linr"  time="0/1" value="0" leadInLength="0/1"  />
                     <InterpolatingParam id="4306" interp="linr"  time="0/1" value="0" leadInLength="0/1"  />
                    </VectorParam>
                    <VectorParam id="4307"  name="geometryCrop">
                     <InterpolatingParam id="4308" interp="linr"  time="-9999999/1" value="0" leadInLength="0/1"  />
                     <InterpolatingParam id="4309" interp="linr"  time="-9999999/1" value="0" leadInLength="0/1"  />
                     <InterpolatingParam id="4310" interp="linr"  time="-9999999/1" value="0" leadInLength="0/1"  />
                     <InterpolatingParam id="4311" interp="linr"  time="-9999999/1" value="0" leadInLength="0/1"  />
                    </VectorParam>
                    <InterpolatingParam id="4312" interp="linr"  time="-9999999/1" value="1" leadInLength="0/1"  name="opacity"/>
                    <InterpolatingParam id="4313" interp="linr"  time="0/1" value="0" leadInLength="0/1"  name="cursorOpacity"/>
                    <InterpolatingParam id="4314" interp="linr"  time="0/1" value="0" leadInLength="0/1"  name="cursorScale"/>
                   </Parameters>
                   <Attributes>
                    <Attribute id="4315" value="" name="ident"/>
                   </Attributes>
                   <ExtraData>
                    <Entry key="ZoomPanBin">
                     <ZoomPanBin id="4316"  >
                      <ZoomPanKeyframes>
                       <ZoomPanKeyframe id="4317" timeRangeEnd="-9999999/1" timeRangeDuration="0/1" interpolaterName="linr"  />
                      </ZoomPanKeyframes>
                     </ZoomPanBin>
                    </Entry>
                    <Entry key="CursorEffectBin">
                     <CursorEffectBin id="4318"  >
                      <CursorEffectKeyframes>
                      </CursorEffectKeyframes>
                     </CursorEffectBin>
                    </Entry>
                   </ExtraData>
                  </ScreenVMFile>
                  <MetaData>
                   <entry key="AutoAppliedSmartFocus" val="False"/>
                   <entry key="WinSubProjectDisplayName" val=""/>
                  </MetaData>
                 </UnifiedMedia>
                 <UnifiedMedia id="4319"  >
                  <AMFile id="4320" start="19881" duration="548" scalar="1/1" mediaStart="23115/1" mediaDuration="548/1" trackNumber="1" src="14" channelNumber="0,1" >
                   <Parameters>
                    <InterpolatingParam id="4321" interp="linr"  time="0/1" value="1" leadInLength="0/1"  name="volume"/>
                    <Parameter id="4322"  name="captions"/>
                   </Parameters>
                   <Attributes>
                    <Attribute id="4323" value="" name="ident"/>
                    <Attribute id="4324" value="44100" name="sampleRate"/>
                    <Attribute id="4325" value="16" name="bitDepth"/>
                    <Attribute id="4326" value="1" name="gain"/>
                    <Attribute id="4327" value="0" name="mixToMono"/>
                   </Attributes>
                  </AMFile>
                  <ScreenVMFile id="4328" start="19881" duration="548" scalar="1/1" mediaStart="23115/1" mediaDuration="548/1" trackNumber="0" src="14" >
                   <Transformer>
                    <VectorParam id="4329"  name="translation">
                     <InterpolatingParam id="4330" interp="linr"  time="-9999999/1" value="0" leadInLength="0/1"  />
                     <InterpolatingParam id="4331" interp="linr"  time="-9999999/1" value="0" leadInLength="0/1"  />
                     <InterpolatingParam id="4332" interp="linr"  time="-9999999/1" value="0" leadInLength="0/1"  />
                    </VectorParam>
                    <VectorParam id="4333"  name="rotation">
                     <InterpolatingParam id="4334" interp="linr"  time="-9999999/1" value="0" leadInLength="0/1"  />
                     <InterpolatingParam id="4335" interp="linr"  time="-9999999/1" value="0" leadInLength="0/1"  />
                     <InterpolatingParam id="4336" interp="linr"  time="-9999999/1" value="0" leadInLength="0/1"  />
                    </VectorParam>
                    <VectorParam id="4337"  name="shear">
                     <InterpolatingParam id="4338" interp="linr"  time="-9999999/1" value="0" leadInLength="0/1"  />
                     <InterpolatingParam id="4339" interp="linr"  time="-9999999/1" value="0" leadInLength="0/1"  />
                     <InterpolatingParam id="4340" interp="linr"  time="-9999999/1" value="0" leadInLength="0/1"  />
                    </VectorParam>
                    <VectorParam id="4341"  name="scale">
                     <InterpolatingParam id="4342" interp="linr"  time="-9999999/1" value="1" leadInLength="0/1"  />
                     <InterpolatingParam id="4343" interp="linr"  time="-9999999/1" value="1" leadInLength="0/1"  />
                     <InterpolatingParam id="4344" interp="linr"  time="-9999999/1" value="1" leadInLength="0/1"  />
                    </VectorParam>
                    <VectorParam id="4345"  name="anchor">
                     <InterpolatingParam id="4346" interp="linr"  time="0/1" value="0" leadInLength="0/1"  />
                     <InterpolatingParam id="4347" interp="linr"  time="0/1" value="0" leadInLength="0/1"  />
                     <InterpolatingParam id="4348" interp="linr"  time="0/1" value="0" leadInLength="0/1"  />
                    </VectorParam>
                   </Transformer>
                   <Parameters>
                    <VectorParam id="4349"  name="sourceCrop">
                     <InterpolatingParam id="4350" interp="linr"  time="0/1" value="0" leadInLength="0/1"  />
                     <InterpolatingParam id="4351" interp="linr"  time="0/1" value="0" leadInLength="0/1"  />
                     <InterpolatingParam id="4352" interp="linr"  time="0/1" value="0" leadInLength="0/1"  />
                     <InterpolatingParam id="4353" interp="linr"  time="0/1" value="0" leadInLength="0/1"  />
                    </VectorParam>
                    <VectorParam id="4354"  name="geometryCrop">
                     <InterpolatingParam id="4355" interp="linr"  time="-9999999/1" value="0" leadInLength="0/1"  />
                     <InterpolatingParam id="4356" interp="linr"  time="-9999999/1" value="0" leadInLength="0/1"  />
                     <InterpolatingParam id="4357" interp="linr"  time="-9999999/1" value="0" leadInLength="0/1"  />
                     <InterpolatingParam id="4358" interp="linr"  time="-9999999/1" value="0" leadInLength="0/1"  />
                    </VectorParam>
                    <InterpolatingParam id="4359" interp="linr"  time="-9999999/1" value="1" leadInLength="0/1"  name="opacity"/>
                    <InterpolatingParam id="4360" interp="linr"  time="0/1" value="0" leadInLength="0/1"  name="cursorOpacity"/>
                    <InterpolatingParam id="4361" interp="linr"  time="0/1" value="0" leadInLength="0/1"  name="cursorScale"/>
                   </Parameters>
                   <Attributes>
                    <Attribute id="4362" value="" name="ident"/>
                   </Attributes>
                   <ExtraData>
                    <Entry key="ZoomPanBin">
                     <ZoomPanBin id="4363"  >
                      <ZoomPanKeyframes>
                       <ZoomPanKeyframe id="4364" timeRangeEnd="-9999999/1" timeRangeDuration="0/1" interpolaterName="linr"  />
                      </ZoomPanKeyframes>
                     </ZoomPanBin>
                    </Entry>
                    <Entry key="CursorEffectBin">
                     <CursorEffectBin id="4365"  >
                      <CursorEffectKeyframes>
                      </CursorEffectKeyframes>
                     </CursorEffectBin>
                    </Entry>
                   </ExtraData>
                  </ScreenVMFile>
                  <MetaData>
                   <entry key="AutoAppliedSmartFocus" val="False"/>
                   <entry key="WinSubProjectDisplayName" val=""/>
                  </MetaData>
                 </UnifiedMedia>
                 <UnifiedMedia id="4366"  >
                  <AMFile id="4367" start="20429" duration="257" scalar="1/1" mediaStart="23960/1" mediaDuration="257/1" trackNumber="1" src="14" channelNumber="0,1" >
                   <Parameters>
                    <InterpolatingParam id="4368" interp="linr"  time="0/1" value="1" leadInLength="0/1"  name="volume"/>
                    <Parameter id="4369"  name="captions"/>
                   </Parameters>
                   <Attributes>
                    <Attribute id="4370" value="" name="ident"/>
                    <Attribute id="4371" value="44100" name="sampleRate"/>
                    <Attribute id="4372" value="16" name="bitDepth"/>
                    <Attribute id="4373" value="1" name="gain"/>
                    <Attribute id="4374" value="0" name="mixToMono"/>
                   </Attributes>
                  </AMFile>
                  <ScreenVMFile id="4375" start="20429" duration="257" scalar="1/1" mediaStart="23960/1" mediaDuration="257/1" trackNumber="0" src="14" >
                   <Transformer>
                    <VectorParam id="4376"  name="translation">
                     <InterpolatingParam id="4377" interp="linr"  time="-9999999/1" value="0" leadInLength="0/1"  />
                     <InterpolatingParam id="4378" interp="linr"  time="-9999999/1" value="0" leadInLength="0/1"  />
                     <InterpolatingParam id="4379" interp="linr"  time="-9999999/1" value="0" leadInLength="0/1"  />
                    </VectorParam>
                    <VectorParam id="4380"  name="rotation">
                     <InterpolatingParam id="4381" interp="linr"  time="-9999999/1" value="0" leadInLength="0/1"  />
                     <InterpolatingParam id="4382" interp="linr"  time="-9999999/1" value="0" leadInLength="0/1"  />
                     <InterpolatingParam id="4383" interp="linr"  time="-9999999/1" value="0" leadInLength="0/1"  />
                    </VectorParam>
                    <VectorParam id="4384"  name="shear">
                     <InterpolatingParam id="4385" interp="linr"  time="-9999999/1" value="0" leadInLength="0/1"  />
                     <InterpolatingParam id="4386" interp="linr"  time="-9999999/1" value="0" leadInLength="0/1"  />
                     <InterpolatingParam id="4387" interp="linr"  time="-9999999/1" value="0" leadInLength="0/1"  />
                    </VectorParam>
                    <VectorParam id="4388"  name="scale">
                     <InterpolatingParam id="4389" interp="linr"  time="-9999999/1" value="1" leadInLength="0/1"  />
                     <InterpolatingParam id="4390" interp="linr"  time="-9999999/1" value="1" leadInLength="0/1"  />
                     <InterpolatingParam id="4391" interp="linr"  time="-9999999/1" value="1" leadInLength="0/1"  />
                    </VectorParam>
                    <VectorParam id="4392"  name="anchor">
                     <InterpolatingParam id="4393" interp="linr"  time="0/1" value="0" leadInLength="0/1"  />
                     <InterpolatingParam id="4394" interp="linr"  time="0/1" value="0" leadInLength="0/1"  />
                     <InterpolatingParam id="4395" interp="linr"  time="0/1" value="0" leadInLength="0/1"  />
                    </VectorParam>
                   </Transformer>
                   <Parameters>
                    <VectorParam id="4396"  name="sourceCrop">
                     <InterpolatingParam id="4397" interp="linr"  time="0/1" value="0" leadInLength="0/1"  />
                     <InterpolatingParam id="4398" interp="linr"  time="0/1" value="0" leadInLength="0/1"  />
                     <InterpolatingParam id="4399" interp="linr"  time="0/1" value="0" leadInLength="0/1"  />
                     <InterpolatingParam id="4400" interp="linr"  time="0/1" value="0" leadInLength="0/1"  />
                    </VectorParam>
                    <VectorParam id="4401"  name="geometryCrop">
                     <InterpolatingParam id="4402" interp="linr"  time="-9999999/1" value="0" leadInLength="0/1"  />
                     <InterpolatingParam id="4403" interp="linr"  time="-9999999/1" value="0" leadInLength="0/1"  />
                     <InterpolatingParam id="4404" interp="linr"  time="-9999999/1" value="0" leadInLength="0/1"  />
                     <InterpolatingParam id="4405" interp="linr"  time="-9999999/1" value="0" leadInLength="0/1"  />
                    </VectorParam>
                    <InterpolatingParam id="4406" interp="linr"  time="-9999999/1" value="1" leadInLength="0/1"  name="opacity"/>
                    <InterpolatingParam id="4407" interp="linr"  time="0/1" value="0" leadInLength="0/1"  name="cursorOpacity"/>
                    <InterpolatingParam id="4408" interp="linr"  time="0/1" value="0" leadInLength="0/1"  name="cursorScale"/>
                   </Parameters>
                   <Attributes>
                    <Attribute id="4409" value="" name="ident"/>
                   </Attributes>
                   <ExtraData>
                    <Entry key="ZoomPanBin">
                     <ZoomPanBin id="4410"  >
                      <ZoomPanKeyframes>
                       <ZoomPanKeyframe id="4411" timeRangeEnd="-9999999/1" timeRangeDuration="0/1" interpolaterName="linr"  />
                      </ZoomPanKeyframes>
                     </ZoomPanBin>
                    </Entry>
                    <Entry key="CursorEffectBin">
                     <CursorEffectBin id="4412"  >
                      <CursorEffectKeyframes>
                      </CursorEffectKeyframes>
                     </CursorEffectBin>
                    </Entry>
                   </ExtraData>
                  </ScreenVMFile>
                  <MetaData>
                   <entry key="AutoAppliedSmartFocus" val="False"/>
                   <entry key="WinSubProjectDisplayName" val=""/>
                  </MetaData>
                 </UnifiedMedia>
                 <UnifiedMedia id="4413"  >
                  <AMFile id="4414" start="20686" duration="2004" scalar="1/1" mediaStart="24480/1" mediaDuration="2004/1" trackNumber="1" src="14" channelNumber="0,1" >
                   <Parameters>
                    <InterpolatingParam id="4415" interp="linr"  time="0/1" value="1" leadInLength="0/1"  name="volume"/>
                    <Parameter id="4416"  name="captions"/>
                   </Parameters>
                   <Attributes>
                    <Attribute id="4417" value="" name="ident"/>
                    <Attribute id="4418" value="44100" name="sampleRate"/>
                    <Attribute id="4419" value="16" name="bitDepth"/>
                    <Attribute id="4420" value="1" name="gain"/>
                    <Attribute id="4421" value="0" name="mixToMono"/>
                   </Attributes>
                  </AMFile>
                  <ScreenVMFile id="4422" start="20686" duration="2004" scalar="1/1" mediaStart="24480/1" mediaDuration="2004/1" trackNumber="0" src="14" >
                   <Transformer>
                    <VectorParam id="4423"  name="translation">
                     <InterpolatingParam id="4424" interp="linr"  time="-9999999/1" value="0" leadInLength="0/1"  />
                     <InterpolatingParam id="4425" interp="linr"  time="-9999999/1" value="0" leadInLength="0/1"  />
                     <InterpolatingParam id="4426" interp="linr"  time="-9999999/1" value="0" leadInLength="0/1"  />
                    </VectorParam>
                    <VectorParam id="4427"  name="rotation">
                     <InterpolatingParam id="4428" interp="linr"  time="-9999999/1" value="0" leadInLength="0/1"  />
                     <InterpolatingParam id="4429" interp="linr"  time="-9999999/1" value="0" leadInLength="0/1"  />
                     <InterpolatingParam id="4430" interp="linr"  time="-9999999/1" value="0" leadInLength="0/1"  />
                    </VectorParam>
                    <VectorParam id="4431"  name="shear">
                     <InterpolatingParam id="4432" interp="linr"  time="-9999999/1" value="0" leadInLength="0/1"  />
                     <InterpolatingParam id="4433" interp="linr"  time="-9999999/1" value="0" leadInLength="0/1"  />
                     <InterpolatingParam id="4434" interp="linr"  time="-9999999/1" value="0" leadInLength="0/1"  />
                    </VectorParam>
                    <VectorParam id="4435"  name="scale">
                     <InterpolatingParam id="4436" interp="linr"  time="-9999999/1" value="1" leadInLength="0/1"  />
                     <InterpolatingParam id="4437" interp="linr"  time="-9999999/1" value="1" leadInLength="0/1"  />
                     <InterpolatingParam id="4438" interp="linr"  time="-9999999/1" value="1" leadInLength="0/1"  />
                    </VectorParam>
                    <VectorParam id="4439"  name="anchor">
                     <InterpolatingParam id="4440" interp="linr"  time="0/1" value="0" leadInLength="0/1"  />
                     <InterpolatingParam id="4441" interp="linr"  time="0/1" value="0" leadInLength="0/1"  />
                     <InterpolatingParam id="4442" interp="linr"  time="0/1" value="0" leadInLength="0/1"  />
                    </VectorParam>
                   </Transformer>
                   <Parameters>
                    <VectorParam id="4443"  name="sourceCrop">
                     <InterpolatingParam id="4444" interp="linr"  time="0/1" value="0" leadInLength="0/1"  />
                     <InterpolatingParam id="4445" interp="linr"  time="0/1" value="0" leadInLength="0/1"  />
                     <InterpolatingParam id="4446" interp="linr"  time="0/1" value="0" leadInLength="0/1"  />
                     <InterpolatingParam id="4447" interp="linr"  time="0/1" value="0" leadInLength="0/1"  />
                    </VectorParam>
                    <VectorParam id="4448"  name="geometryCrop">
                     <InterpolatingParam id="4449" interp="linr"  time="-9999999/1" value="0" leadInLength="0/1"  />
                     <InterpolatingParam id="4450" interp="linr"  time="-9999999/1" value="0" leadInLength="0/1"  />
                     <InterpolatingParam id="4451" interp="linr"  time="-9999999/1" value="0" leadInLength="0/1"  />
                     <InterpolatingParam id="4452" interp="linr"  time="-9999999/1" value="0" leadInLength="0/1"  />
                    </VectorParam>
                    <InterpolatingParam id="4453" interp="linr"  time="-9999999/1" value="1" leadInLength="0/1"  name="opacity"/>
                    <InterpolatingParam id="4454" interp="linr"  time="0/1" value="0" leadInLength="0/1"  name="cursorOpacity"/>
                    <InterpolatingParam id="4455" interp="linr"  time="0/1" value="0" leadInLength="0/1"  name="cursorScale"/>
                   </Parameters>
                   <Attributes>
                    <Attribute id="4456" value="" name="ident"/>
                   </Attributes>
                   <ExtraData>
                    <Entry key="ZoomPanBin">
                     <ZoomPanBin id="4457"  >
                      <ZoomPanKeyframes>
                       <ZoomPanKeyframe id="4458" timeRangeEnd="-9999999/1" timeRangeDuration="0/1" interpolaterName="linr"  />
                      </ZoomPanKeyframes>
                     </ZoomPanBin>
                    </Entry>
                    <Entry key="CursorEffectBin">
                     <CursorEffectBin id="4459"  >
                      <CursorEffectKeyframes>
                      </CursorEffectKeyframes>
                     </CursorEffectBin>
                    </Entry>
                   </ExtraData>
                  </ScreenVMFile>
                  <MetaData>
                   <entry key="AutoAppliedSmartFocus" val="False"/>
                   <entry key="WinSubProjectDisplayName" val=""/>
                  </MetaData>
                 </UnifiedMedia>
                 <UnifiedMedia id="4460"  >
                  <AMFile id="4461" start="22690" duration="1025" scalar="1/1" mediaStart="27080/1" mediaDuration="1025/1" trackNumber="1" src="14" channelNumber="0,1" >
                   <Parameters>
                    <InterpolatingParam id="4462" interp="linr"  time="0/1" value="1" leadInLength="0/1"  name="volume"/>
                    <Parameter id="4463"  name="captions"/>
                   </Parameters>
                   <Attributes>
                    <Attribute id="4464" value="" name="ident"/>
                    <Attribute id="4465" value="44100" name="sampleRate"/>
                    <Attribute id="4466" value="16" name="bitDepth"/>
                    <Attribute id="4467" value="1" name="gain"/>
                    <Attribute id="4468" value="0" name="mixToMono"/>
                   </Attributes>
                  </AMFile>
                  <ScreenVMFile id="4469" start="22690" duration="1025" scalar="1/1" mediaStart="27080/1" mediaDuration="1025/1" trackNumber="0" src="14" >
                   <Transformer>
                    <VectorParam id="4470"  name="translation">
                     <InterpolatingParam id="4471" interp="linr"  time="-9999999/1" value="0" leadInLength="0/1"  />
                     <InterpolatingParam id="4472" interp="linr"  time="-9999999/1" value="0" leadInLength="0/1"  />
                     <InterpolatingParam id="4473" interp="linr"  time="-9999999/1" value="0" leadInLength="0/1"  />
                    </VectorParam>
                    <VectorParam id="4474"  name="rotation">
                     <InterpolatingParam id="4475" interp="linr"  time="-9999999/1" value="0" leadInLength="0/1"  />
                     <InterpolatingParam id="4476" interp="linr"  time="-9999999/1" value="0" leadInLength="0/1"  />
                     <InterpolatingParam id="4477" interp="linr"  time="-9999999/1" value="0" leadInLength="0/1"  />
                    </VectorParam>
                    <VectorParam id="4478"  name="shear">
                     <InterpolatingParam id="4479" interp="linr"  time="-9999999/1" value="0" leadInLength="0/1"  />
                     <InterpolatingParam id="4480" interp="linr"  time="-9999999/1" value="0" leadInLength="0/1"  />
                     <InterpolatingParam id="4481" interp="linr"  time="-9999999/1" value="0" leadInLength="0/1"  />
                    </VectorParam>
                    <VectorParam id="4482"  name="scale">
                     <InterpolatingParam id="4483" interp="linr"  time="-9999999/1" value="1" leadInLength="0/1"  />
                     <InterpolatingParam id="4484" interp="linr"  time="-9999999/1" value="1" leadInLength="0/1"  />
                     <InterpolatingParam id="4485" interp="linr"  time="-9999999/1" value="1" leadInLength="0/1"  />
                    </VectorParam>
                    <VectorParam id="4486"  name="anchor">
                     <InterpolatingParam id="4487" interp="linr"  time="0/1" value="0" leadInLength="0/1"  />
                     <InterpolatingParam id="4488" interp="linr"  time="0/1" value="0" leadInLength="0/1"  />
                     <InterpolatingParam id="4489" interp="linr"  time="0/1" value="0" leadInLength="0/1"  />
                    </VectorParam>
                   </Transformer>
                   <Parameters>
                    <VectorParam id="4490"  name="sourceCrop">
                     <InterpolatingParam id="4491" interp="linr"  time="0/1" value="0" leadInLength="0/1"  />
                     <InterpolatingParam id="4492" interp="linr"  time="0/1" value="0" leadInLength="0/1"  />
                     <InterpolatingParam id="4493" interp="linr"  time="0/1" value="0" leadInLength="0/1"  />
                     <InterpolatingParam id="4494" interp="linr"  time="0/1" value="0" leadInLength="0/1"  />
                    </VectorParam>
                    <VectorParam id="4495"  name="geometryCrop">
                     <InterpolatingParam id="4496" interp="linr"  time="-9999999/1" value="0" leadInLength="0/1"  />
                     <InterpolatingParam id="4497" interp="linr"  time="-9999999/1" value="0" leadInLength="0/1"  />
                     <InterpolatingParam id="4498" interp="linr"  time="-9999999/1" value="0" leadInLength="0/1"  />
                     <InterpolatingParam id="4499" interp="linr"  time="-9999999/1" value="0" leadInLength="0/1"  />
                    </VectorParam>
                    <InterpolatingParam id="4500" interp="linr"  time="-9999999/1" value="1" leadInLength="0/1"  name="opacity"/>
                    <InterpolatingParam id="4501" interp="linr"  time="0/1" value="0" leadInLength="0/1"  name="cursorOpacity"/>
                    <InterpolatingParam id="4502" interp="linr"  time="0/1" value="0" leadInLength="0/1"  name="cursorScale"/>
                   </Parameters>
                   <Attributes>
                    <Attribute id="4503" value="" name="ident"/>
                   </Attributes>
                   <ExtraData>
                    <Entry key="ZoomPanBin">
                     <ZoomPanBin id="4504"  >
                      <ZoomPanKeyframes>
                       <ZoomPanKeyframe id="4505" timeRangeEnd="-9999999/1" timeRangeDuration="0/1" interpolaterName="linr"  />
                      </ZoomPanKeyframes>
                     </ZoomPanBin>
                    </Entry>
                    <Entry key="CursorEffectBin">
                     <CursorEffectBin id="4506"  >
                      <CursorEffectKeyframes>
                      </CursorEffectKeyframes>
                     </CursorEffectBin>
                    </Entry>
                   </ExtraData>
                  </ScreenVMFile>
                  <MetaData>
                   <entry key="AutoAppliedSmartFocus" val="False"/>
                   <entry key="WinSubProjectDisplayName" val=""/>
                  </MetaData>
                 </UnifiedMedia>
                 <UnifiedMedia id="4507"  >
                  <AMFile id="4508" start="23715" duration="294" scalar="1/1" mediaStart="28114/1" mediaDuration="294/1" trackNumber="1" src="14" channelNumber="0,1" >
                   <Parameters>
                    <InterpolatingParam id="4509" interp="linr"  time="0/1" value="1" leadInLength="0/1"  name="volume"/>
                    <Parameter id="4510"  name="captions"/>
                   </Parameters>
                   <Attributes>
                    <Attribute id="4511" value="" name="ident"/>
                    <Attribute id="4512" value="44100" name="sampleRate"/>
                    <Attribute id="4513" value="16" name="bitDepth"/>
                    <Attribute id="4514" value="1" name="gain"/>
                    <Attribute id="4515" value="0" name="mixToMono"/>
                   </Attributes>
                  </AMFile>
                  <ScreenVMFile id="4516" start="23715" duration="294" scalar="1/1" mediaStart="28114/1" mediaDuration="294/1" trackNumber="0" src="14" >
                   <Transformer>
                    <VectorParam id="4517"  name="translation">
                     <InterpolatingParam id="4518" interp="linr"  time="-9999999/1" value="0" leadInLength="0/1"  />
                     <InterpolatingParam id="4519" interp="linr"  time="-9999999/1" value="0" leadInLength="0/1"  />
                     <InterpolatingParam id="4520" interp="linr"  time="-9999999/1" value="0" leadInLength="0/1"  />
                    </VectorParam>
                    <VectorParam id="4521"  name="rotation">
                     <InterpolatingParam id="4522" interp="linr"  time="-9999999/1" value="0" leadInLength="0/1"  />
                     <InterpolatingParam id="4523" interp="linr"  time="-9999999/1" value="0" leadInLength="0/1"  />
                     <InterpolatingParam id="4524" interp="linr"  time="-9999999/1" value="0" leadInLength="0/1"  />
                    </VectorParam>
                    <VectorParam id="4525"  name="shear">
                     <InterpolatingParam id="4526" interp="linr"  time="-9999999/1" value="0" leadInLength="0/1"  />
                     <InterpolatingParam id="4527" interp="linr"  time="-9999999/1" value="0" leadInLength="0/1"  />
                     <InterpolatingParam id="4528" interp="linr"  time="-9999999/1" value="0" leadInLength="0/1"  />
                    </VectorParam>
                    <VectorParam id="4529"  name="scale">
                     <InterpolatingParam id="4530" interp="linr"  time="-9999999/1" value="1" leadInLength="0/1"  />
                     <InterpolatingParam id="4531" interp="linr"  time="-9999999/1" value="1" leadInLength="0/1"  />
                     <InterpolatingParam id="4532" interp="linr"  time="-9999999/1" value="1" leadInLength="0/1"  />
                    </VectorParam>
                    <VectorParam id="4533"  name="anchor">
                     <InterpolatingParam id="4534" interp="linr"  time="0/1" value="0" leadInLength="0/1"  />
                     <InterpolatingParam id="4535" interp="linr"  time="0/1" value="0" leadInLength="0/1"  />
                     <InterpolatingParam id="4536" interp="linr"  time="0/1" value="0" leadInLength="0/1"  />
                    </VectorParam>
                   </Transformer>
                   <Parameters>
                    <VectorParam id="4537"  name="sourceCrop">
                     <InterpolatingParam id="4538" interp="linr"  time="0/1" value="0" leadInLength="0/1"  />
                     <InterpolatingParam id="4539" interp="linr"  time="0/1" value="0" leadInLength="0/1"  />
                     <InterpolatingParam id="4540" interp="linr"  time="0/1" value="0" leadInLength="0/1"  />
                     <InterpolatingParam id="4541" interp="linr"  time="0/1" value="0" leadInLength="0/1"  />
                    </VectorParam>
                    <VectorParam id="4542"  name="geometryCrop">
                     <InterpolatingParam id="4543" interp="linr"  time="-9999999/1" value="0" leadInLength="0/1"  />
                     <InterpolatingParam id="4544" interp="linr"  time="-9999999/1" value="0" leadInLength="0/1"  />
                     <InterpolatingParam id="4545" interp="linr"  time="-9999999/1" value="0" leadInLength="0/1"  />
                     <InterpolatingParam id="4546" interp="linr"  time="-9999999/1" value="0" leadInLength="0/1"  />
                    </VectorParam>
                    <InterpolatingParam id="4547" interp="linr"  time="-9999999/1" value="1" leadInLength="0/1"  name="opacity"/>
                    <InterpolatingParam id="4548" interp="linr"  time="0/1" value="0" leadInLength="0/1"  name="cursorOpacity"/>
                    <InterpolatingParam id="4549" interp="linr"  time="0/1" value="0" leadInLength="0/1"  name="cursorScale"/>
                   </Parameters>
                   <Attributes>
                    <Attribute id="4550" value="" name="ident"/>
                   </Attributes>
                   <ExtraData>
                    <Entry key="ZoomPanBin">
                     <ZoomPanBin id="4551"  >
                      <ZoomPanKeyframes>
                       <ZoomPanKeyframe id="4552" timeRangeEnd="-9999999/1" timeRangeDuration="0/1" interpolaterName="linr"  />
                      </ZoomPanKeyframes>
                     </ZoomPanBin>
                    </Entry>
                    <Entry key="CursorEffectBin">
                     <CursorEffectBin id="4553"  >
                      <CursorEffectKeyframes>
                      </CursorEffectKeyframes>
                     </CursorEffectBin>
                    </Entry>
                   </ExtraData>
                  </ScreenVMFile>
                  <MetaData>
                   <entry key="AutoAppliedSmartFocus" val="False"/>
                   <entry key="WinSubProjectDisplayName" val=""/>
                  </MetaData>
                 </UnifiedMedia>
                 <UnifiedMedia id="4554"  >
                  <AMFile id="4555" start="24009" duration="547" scalar="1/1" mediaStart="28423/1" mediaDuration="547/1" trackNumber="1" src="14" channelNumber="0,1" >
                   <Parameters>
                    <InterpolatingParam id="4556" interp="linr"  time="0/1" value="1" leadInLength="0/1"  name="volume"/>
                    <Parameter id="4557"  name="captions"/>
                   </Parameters>
                   <Attributes>
                    <Attribute id="4558" value="" name="ident"/>
                    <Attribute id="4559" value="44100" name="sampleRate"/>
                    <Attribute id="4560" value="16" name="bitDepth"/>
                    <Attribute id="4561" value="1" name="gain"/>
                    <Attribute id="4562" value="0" name="mixToMono"/>
                   </Attributes>
                  </AMFile>
                  <ScreenVMFile id="4563" start="24009" duration="547" scalar="1/1" mediaStart="28423/1" mediaDuration="547/1" trackNumber="0" src="14" >
                   <Transformer>
                    <VectorParam id="4564"  name="translation">
                     <InterpolatingParam id="4565" interp="linr"  time="-9999999/1" value="0" leadInLength="0/1"  />
                     <InterpolatingParam id="4566" interp="linr"  time="-9999999/1" value="0" leadInLength="0/1"  />
                     <InterpolatingParam id="4567" interp="linr"  time="-9999999/1" value="0" leadInLength="0/1"  />
                    </VectorParam>
                    <VectorParam id="4568"  name="rotation">
                     <InterpolatingParam id="4569" interp="linr"  time="-9999999/1" value="0" leadInLength="0/1"  />
                     <InterpolatingParam id="4570" interp="linr"  time="-9999999/1" value="0" leadInLength="0/1"  />
                     <InterpolatingParam id="4571" interp="linr"  time="-9999999/1" value="0" leadInLength="0/1"  />
                    </VectorParam>
                    <VectorParam id="4572"  name="shear">
                     <InterpolatingParam id="4573" interp="linr"  time="-9999999/1" value="0" leadInLength="0/1"  />
                     <InterpolatingParam id="4574" interp="linr"  time="-9999999/1" value="0" leadInLength="0/1"  />
                     <InterpolatingParam id="4575" interp="linr"  time="-9999999/1" value="0" leadInLength="0/1"  />
                    </VectorParam>
                    <VectorParam id="4576"  name="scale">
                     <InterpolatingParam id="4577" interp="linr"  time="-9999999/1" value="1" leadInLength="0/1"  />
                     <InterpolatingParam id="4578" interp="linr"  time="-9999999/1" value="1" leadInLength="0/1"  />
                     <InterpolatingParam id="4579" interp="linr"  time="-9999999/1" value="1" leadInLength="0/1"  />
                    </VectorParam>
                    <VectorParam id="4580"  name="anchor">
                     <InterpolatingParam id="4581" interp="linr"  time="0/1" value="0" leadInLength="0/1"  />
                     <InterpolatingParam id="4582" interp="linr"  time="0/1" value="0" leadInLength="0/1"  />
                     <InterpolatingParam id="4583" interp="linr"  time="0/1" value="0" leadInLength="0/1"  />
                    </VectorParam>
                   </Transformer>
                   <Parameters>
                    <VectorParam id="4584"  name="sourceCrop">
                     <InterpolatingParam id="4585" interp="linr"  time="0/1" value="0" leadInLength="0/1"  />
                     <InterpolatingParam id="4586" interp="linr"  time="0/1" value="0" leadInLength="0/1"  />
                     <InterpolatingParam id="4587" interp="linr"  time="0/1" value="0" leadInLength="0/1"  />
                     <InterpolatingParam id="4588" interp="linr"  time="0/1" value="0" leadInLength="0/1"  />
                    </VectorParam>
                    <VectorParam id="4589"  name="geometryCrop">
                     <InterpolatingParam id="4590" interp="linr"  time="-9999999/1" value="0" leadInLength="0/1"  />
                     <InterpolatingParam id="4591" interp="linr"  time="-9999999/1" value="0" leadInLength="0/1"  />
                     <InterpolatingParam id="4592" interp="linr"  time="-9999999/1" value="0" leadInLength="0/1"  />
                     <InterpolatingParam id="4593" interp="linr"  time="-9999999/1" value="0" leadInLength="0/1"  />
                    </VectorParam>
                    <InterpolatingParam id="4594" interp="linr"  time="-9999999/1" value="1" leadInLength="0/1"  name="opacity"/>
                    <InterpolatingParam id="4595" interp="linr"  time="0/1" value="0" leadInLength="0/1"  name="cursorOpacity"/>
                    <InterpolatingParam id="4596" interp="linr"  time="0/1" value="0" leadInLength="0/1"  name="cursorScale"/>
                   </Parameters>
                   <Attributes>
                    <Attribute id="4597" value="" name="ident"/>
                   </Attributes>
                   <ExtraData>
                    <Entry key="ZoomPanBin">
                     <ZoomPanBin id="4598"  >
                      <ZoomPanKeyframes>
                       <ZoomPanKeyframe id="4599" timeRangeEnd="-9999999/1" timeRangeDuration="0/1" interpolaterName="linr"  />
                      </ZoomPanKeyframes>
                     </ZoomPanBin>
                    </Entry>
                    <Entry key="CursorEffectBin">
                     <CursorEffectBin id="4600"  >
                      <CursorEffectKeyframes>
                      </CursorEffectKeyframes>
                     </CursorEffectBin>
                    </Entry>
                   </ExtraData>
                  </ScreenVMFile>
                  <MetaData>
                   <entry key="AutoAppliedSmartFocus" val="False"/>
                   <entry key="WinSubProjectDisplayName" val=""/>
                  </MetaData>
                 </UnifiedMedia>
                 <UnifiedMedia id="4601"  >
                  <AMFile id="4602" start="24556" duration="6" scalar="1/1" mediaStart="28975/1" mediaDuration="6/1" trackNumber="1" src="14" channelNumber="0,1" >
                   <Parameters>
                    <InterpolatingParam id="4603" interp="linr"  time="0/1" value="1" leadInLength="0/1"  name="volume"/>
                    <Parameter id="4604"  name="captions"/>
                   </Parameters>
                   <Attributes>
                    <Attribute id="4605" value="" name="ident"/>
                    <Attribute id="4606" value="44100" name="sampleRate"/>
                    <Attribute id="4607" value="16" name="bitDepth"/>
                    <Attribute id="4608" value="1" name="gain"/>
                    <Attribute id="4609" value="0" name="mixToMono"/>
                   </Attributes>
                  </AMFile>
                  <ScreenVMFile id="4610" start="24556" duration="6" scalar="1/1" mediaStart="28975/1" mediaDuration="6/1" trackNumber="0" src="14" >
                   <Transformer>
                    <VectorParam id="4611"  name="translation">
                     <InterpolatingParam id="4612" interp="linr"  time="-9999999/1" value="0" leadInLength="0/1"  />
                     <InterpolatingParam id="4613" interp="linr"  time="-9999999/1" value="0" leadInLength="0/1"  />
                     <InterpolatingParam id="4614" interp="linr"  time="-9999999/1" value="0" leadInLength="0/1"  />
                    </VectorParam>
                    <VectorParam id="4615"  name="rotation">
                     <InterpolatingParam id="4616" interp="linr"  time="-9999999/1" value="0" leadInLength="0/1"  />
                     <InterpolatingParam id="4617" interp="linr"  time="-9999999/1" value="0" leadInLength="0/1"  />
                     <InterpolatingParam id="4618" interp="linr"  time="-9999999/1" value="0" leadInLength="0/1"  />
                    </VectorParam>
                    <VectorParam id="4619"  name="shear">
                     <InterpolatingParam id="4620" interp="linr"  time="-9999999/1" value="0" leadInLength="0/1"  />
                     <InterpolatingParam id="4621" interp="linr"  time="-9999999/1" value="0" leadInLength="0/1"  />
                     <InterpolatingParam id="4622" interp="linr"  time="-9999999/1" value="0" leadInLength="0/1"  />
                    </VectorParam>
                    <VectorParam id="4623"  name="scale">
                     <InterpolatingParam id="4624" interp="linr"  time="-9999999/1" value="1" leadInLength="0/1"  />
                     <InterpolatingParam id="4625" interp="linr"  time="-9999999/1" value="1" leadInLength="0/1"  />
                     <InterpolatingParam id="4626" interp="linr"  time="-9999999/1" value="1" leadInLength="0/1"  />
                    </VectorParam>
                    <VectorParam id="4627"  name="anchor">
                     <InterpolatingParam id="4628" interp="linr"  time="0/1" value="0" leadInLength="0/1"  />
                     <InterpolatingParam id="4629" interp="linr"  time="0/1" value="0" leadInLength="0/1"  />
                     <InterpolatingParam id="4630" interp="linr"  time="0/1" value="0" leadInLength="0/1"  />
                    </VectorParam>
                   </Transformer>
                   <Parameters>
                    <VectorParam id="4631"  name="sourceCrop">
                     <InterpolatingParam id="4632" interp="linr"  time="0/1" value="0" leadInLength="0/1"  />
                     <InterpolatingParam id="4633" interp="linr"  time="0/1" value="0" leadInLength="0/1"  />
                     <InterpolatingParam id="4634" interp="linr"  time="0/1" value="0" leadInLength="0/1"  />
                     <InterpolatingParam id="4635" interp="linr"  time="0/1" value="0" leadInLength="0/1"  />
                    </VectorParam>
                    <VectorParam id="4636"  name="geometryCrop">
                     <InterpolatingParam id="4637" interp="linr"  time="-9999999/1" value="0" leadInLength="0/1"  />
                     <InterpolatingParam id="4638" interp="linr"  time="-9999999/1" value="0" leadInLength="0/1"  />
                     <InterpolatingParam id="4639" interp="linr"  time="-9999999/1" value="0" leadInLength="0/1"  />
                     <InterpolatingParam id="4640" interp="linr"  time="-9999999/1" value="0" leadInLength="0/1"  />
                    </VectorParam>
                    <InterpolatingParam id="4641" interp="linr"  time="-9999999/1" value="1" leadInLength="0/1"  name="opacity"/>
                    <InterpolatingParam id="4642" interp="linr"  time="0/1" value="0" leadInLength="0/1"  name="cursorOpacity"/>
                    <InterpolatingParam id="4643" interp="linr"  time="0/1" value="0" leadInLength="0/1"  name="cursorScale"/>
                   </Parameters>
                   <Attributes>
                    <Attribute id="4644" value="" name="ident"/>
                   </Attributes>
                   <ExtraData>
                    <Entry key="ZoomPanBin">
                     <ZoomPanBin id="4645"  >
                      <ZoomPanKeyframes>
                       <ZoomPanKeyframe id="4646" timeRangeEnd="-9999999/1" timeRangeDuration="0/1" interpolaterName="linr"  />
                      </ZoomPanKeyframes>
                     </ZoomPanBin>
                    </Entry>
                    <Entry key="CursorEffectBin">
                     <CursorEffectBin id="4647"  >
                      <CursorEffectKeyframes>
                      </CursorEffectKeyframes>
                     </CursorEffectBin>
                    </Entry>
                   </ExtraData>
                  </ScreenVMFile>
                  <MetaData>
                   <entry key="AutoAppliedSmartFocus" val="False"/>
                   <entry key="WinSubProjectDisplayName" val=""/>
                  </MetaData>
                 </UnifiedMedia>
                 <UnifiedMedia id="4648"  >
                  <AMFile id="4649" start="24562" duration="24" scalar="1/1" mediaStart="28985/1" mediaDuration="24/1" trackNumber="1" src="14" channelNumber="0,1" >
                   <Parameters>
                    <InterpolatingParam id="4650" interp="linr"  time="0/1" value="1" leadInLength="0/1"  name="volume"/>
                    <Parameter id="4651"  name="captions"/>
                   </Parameters>
                   <Attributes>
                    <Attribute id="4652" value="" name="ident"/>
                    <Attribute id="4653" value="44100" name="sampleRate"/>
                    <Attribute id="4654" value="16" name="bitDepth"/>
                    <Attribute id="4655" value="1" name="gain"/>
                    <Attribute id="4656" value="0" name="mixToMono"/>
                   </Attributes>
                  </AMFile>
                  <ScreenVMFile id="4657" start="24562" duration="24" scalar="1/1" mediaStart="28985/1" mediaDuration="24/1" trackNumber="0" src="14" >
                   <Transformer>
                    <VectorParam id="4658"  name="translation">
                     <InterpolatingParam id="4659" interp="linr"  time="-9999999/1" value="0" leadInLength="0/1"  />
                     <InterpolatingParam id="4660" interp="linr"  time="-9999999/1" value="0" leadInLength="0/1"  />
                     <InterpolatingParam id="4661" interp="linr"  time="-9999999/1" value="0" leadInLength="0/1"  />
                    </VectorParam>
                    <VectorParam id="4662"  name="rotation">
                     <InterpolatingParam id="4663" interp="linr"  time="-9999999/1" value="0" leadInLength="0/1"  />
                     <InterpolatingParam id="4664" interp="linr"  time="-9999999/1" value="0" leadInLength="0/1"  />
                     <InterpolatingParam id="4665" interp="linr"  time="-9999999/1" value="0" leadInLength="0/1"  />
                    </VectorParam>
                    <VectorParam id="4666"  name="shear">
                     <InterpolatingParam id="4667" interp="linr"  time="-9999999/1" value="0" leadInLength="0/1"  />
                     <InterpolatingParam id="4668" interp="linr"  time="-9999999/1" value="0" leadInLength="0/1"  />
                     <InterpolatingParam id="4669" interp="linr"  time="-9999999/1" value="0" leadInLength="0/1"  />
                    </VectorParam>
                    <VectorParam id="4670"  name="scale">
                     <InterpolatingParam id="4671" interp="linr"  time="-9999999/1" value="1" leadInLength="0/1"  />
                     <InterpolatingParam id="4672" interp="linr"  time="-9999999/1" value="1" leadInLength="0/1"  />
                     <InterpolatingParam id="4673" interp="linr"  time="-9999999/1" value="1" leadInLength="0/1"  />
                    </VectorParam>
                    <VectorParam id="4674"  name="anchor">
                     <InterpolatingParam id="4675" interp="linr"  time="0/1" value="0" leadInLength="0/1"  />
                     <InterpolatingParam id="4676" interp="linr"  time="0/1" value="0" leadInLength="0/1"  />
                     <InterpolatingParam id="4677" interp="linr"  time="0/1" value="0" leadInLength="0/1"  />
                    </VectorParam>
                   </Transformer>
                   <Parameters>
                    <VectorParam id="4678"  name="sourceCrop">
                     <InterpolatingParam id="4679" interp="linr"  time="0/1" value="0" leadInLength="0/1"  />
                     <InterpolatingParam id="4680" interp="linr"  time="0/1" value="0" leadInLength="0/1"  />
                     <InterpolatingParam id="4681" interp="linr"  time="0/1" value="0" leadInLength="0/1"  />
                     <InterpolatingParam id="4682" interp="linr"  time="0/1" value="0" leadInLength="0/1"  />
                    </VectorParam>
                    <VectorParam id="4683"  name="geometryCrop">
                     <InterpolatingParam id="4684" interp="linr"  time="-9999999/1" value="0" leadInLength="0/1"  />
                     <InterpolatingParam id="4685" interp="linr"  time="-9999999/1" value="0" leadInLength="0/1"  />
                     <InterpolatingParam id="4686" interp="linr"  time="-9999999/1" value="0" leadInLength="0/1"  />
                     <InterpolatingParam id="4687" interp="linr"  time="-9999999/1" value="0" leadInLength="0/1"  />
                    </VectorParam>
                    <InterpolatingParam id="4688" interp="linr"  time="-9999999/1" value="1" leadInLength="0/1"  name="opacity"/>
                    <InterpolatingParam id="4689" interp="linr"  time="0/1" value="0" leadInLength="0/1"  name="cursorOpacity"/>
                    <InterpolatingParam id="4690" interp="linr"  time="0/1" value="0" leadInLength="0/1"  name="cursorScale"/>
                   </Parameters>
                   <Attributes>
                    <Attribute id="4691" value="" name="ident"/>
                   </Attributes>
                   <ExtraData>
                    <Entry key="ZoomPanBin">
                     <ZoomPanBin id="4692"  >
                      <ZoomPanKeyframes>
                       <ZoomPanKeyframe id="4693" timeRangeEnd="-9999999/1" timeRangeDuration="0/1" interpolaterName="linr"  />
                      </ZoomPanKeyframes>
                     </ZoomPanBin>
                    </Entry>
                    <Entry key="CursorEffectBin">
                     <CursorEffectBin id="4694"  >
                      <CursorEffectKeyframes>
                      </CursorEffectKeyframes>
                     </CursorEffectBin>
                    </Entry>
                   </ExtraData>
                  </ScreenVMFile>
                  <MetaData>
                   <entry key="AutoAppliedSmartFocus" val="False"/>
                   <entry key="WinSubProjectDisplayName" val=""/>
                  </MetaData>
                 </UnifiedMedia>
                 <UnifiedMedia id="4695"  >
                  <AMFile id="4696" start="24586" duration="321" scalar="1/1" mediaStart="29029/1" mediaDuration="321/1" trackNumber="1" src="14" channelNumber="0,1" >
                   <Parameters>
                    <InterpolatingParam id="4697" interp="linr"  time="0/1" value="1" leadInLength="0/1"  name="volume"/>
                    <Parameter id="4698"  name="captions"/>
                   </Parameters>
                   <Attributes>
                    <Attribute id="4699" value="" name="ident"/>
                    <Attribute id="4700" value="44100" name="sampleRate"/>
                    <Attribute id="4701" value="16" name="bitDepth"/>
                    <Attribute id="4702" value="1" name="gain"/>
                    <Attribute id="4703" value="0" name="mixToMono"/>
                   </Attributes>
                  </AMFile>
                  <ScreenVMFile id="4704" start="24586" duration="321" scalar="1/1" mediaStart="29029/1" mediaDuration="321/1" trackNumber="0" src="14" >
                   <Transformer>
                    <VectorParam id="4705"  name="translation">
                     <InterpolatingParam id="4706" interp="linr"  time="-9999999/1" value="0" leadInLength="0/1"  />
                     <InterpolatingParam id="4707" interp="linr"  time="-9999999/1" value="0" leadInLength="0/1"  />
                     <InterpolatingParam id="4708" interp="linr"  time="-9999999/1" value="0" leadInLength="0/1"  />
                    </VectorParam>
                    <VectorParam id="4709"  name="rotation">
                     <InterpolatingParam id="4710" interp="linr"  time="-9999999/1" value="0" leadInLength="0/1"  />
                     <InterpolatingParam id="4711" interp="linr"  time="-9999999/1" value="0" leadInLength="0/1"  />
                     <InterpolatingParam id="4712" interp="linr"  time="-9999999/1" value="0" leadInLength="0/1"  />
                    </VectorParam>
                    <VectorParam id="4713"  name="shear">
                     <InterpolatingParam id="4714" interp="linr"  time="-9999999/1" value="0" leadInLength="0/1"  />
                     <InterpolatingParam id="4715" interp="linr"  time="-9999999/1" value="0" leadInLength="0/1"  />
                     <InterpolatingParam id="4716" interp="linr"  time="-9999999/1" value="0" leadInLength="0/1"  />
                    </VectorParam>
                    <VectorParam id="4717"  name="scale">
                     <InterpolatingParam id="4718" interp="linr"  time="-9999999/1" value="1" leadInLength="0/1"  />
                     <InterpolatingParam id="4719" interp="linr"  time="-9999999/1" value="1" leadInLength="0/1"  />
                     <InterpolatingParam id="4720" interp="linr"  time="-9999999/1" value="1" leadInLength="0/1"  />
                    </VectorParam>
                    <VectorParam id="4721"  name="anchor">
                     <InterpolatingParam id="4722" interp="linr"  time="0/1" value="0" leadInLength="0/1"  />
                     <InterpolatingParam id="4723" interp="linr"  time="0/1" value="0" leadInLength="0/1"  />
                     <InterpolatingParam id="4724" interp="linr"  time="0/1" value="0" leadInLength="0/1"  />
                    </VectorParam>
                   </Transformer>
                   <Parameters>
                    <VectorParam id="4725"  name="sourceCrop">
                     <InterpolatingParam id="4726" interp="linr"  time="0/1" value="0" leadInLength="0/1"  />
                     <InterpolatingParam id="4727" interp="linr"  time="0/1" value="0" leadInLength="0/1"  />
                     <InterpolatingParam id="4728" interp="linr"  time="0/1" value="0" leadInLength="0/1"  />
                     <InterpolatingParam id="4729" interp="linr"  time="0/1" value="0" leadInLength="0/1"  />
                    </VectorParam>
                    <VectorParam id="4730"  name="geometryCrop">
                     <InterpolatingParam id="4731" interp="linr"  time="-9999999/1" value="0" leadInLength="0/1"  />
                     <InterpolatingParam id="4732" interp="linr"  time="-9999999/1" value="0" leadInLength="0/1"  />
                     <InterpolatingParam id="4733" interp="linr"  time="-9999999/1" value="0" leadInLength="0/1"  />
                     <InterpolatingParam id="4734" interp="linr"  time="-9999999/1" value="0" leadInLength="0/1"  />
                    </VectorParam>
                    <InterpolatingParam id="4735" interp="linr"  time="-9999999/1" value="1" leadInLength="0/1"  name="opacity"/>
                    <InterpolatingParam id="4736" interp="linr"  time="0/1" value="0" leadInLength="0/1"  name="cursorOpacity"/>
                    <InterpolatingParam id="4737" interp="linr"  time="0/1" value="0" leadInLength="0/1"  name="cursorScale"/>
                   </Parameters>
                   <Attributes>
                    <Attribute id="4738" value="" name="ident"/>
                   </Attributes>
                   <ExtraData>
                    <Entry key="ZoomPanBin">
                     <ZoomPanBin id="4739"  >
                      <ZoomPanKeyframes>
                       <ZoomPanKeyframe id="4740" timeRangeEnd="-9999999/1" timeRangeDuration="0/1" interpolaterName="linr"  />
                      </ZoomPanKeyframes>
                     </ZoomPanBin>
                    </Entry>
                    <Entry key="CursorEffectBin">
                     <CursorEffectBin id="4741"  >
                      <CursorEffectKeyframes>
                      </CursorEffectKeyframes>
                     </CursorEffectBin>
                    </Entry>
                   </ExtraData>
                  </ScreenVMFile>
                  <MetaData>
                   <entry key="AutoAppliedSmartFocus" val="False"/>
                   <entry key="WinSubProjectDisplayName" val=""/>
                  </MetaData>
                 </UnifiedMedia>
                 <UnifiedMedia id="4742"  >
                  <AMFile id="4743" start="24907" duration="123" scalar="1/1" mediaStart="29435/1" mediaDuration="123/1" trackNumber="1" src="14" channelNumber="0,1" >
                   <Parameters>
                    <InterpolatingParam id="4744" interp="linr"  time="0/1" value="1" leadInLength="0/1"  name="volume"/>
                    <Parameter id="4745"  name="captions"/>
                   </Parameters>
                   <Attributes>
                    <Attribute id="4746" value="" name="ident"/>
                    <Attribute id="4747" value="44100" name="sampleRate"/>
                    <Attribute id="4748" value="16" name="bitDepth"/>
                    <Attribute id="4749" value="1" name="gain"/>
                    <Attribute id="4750" value="0" name="mixToMono"/>
                   </Attributes>
                  </AMFile>
                  <ScreenVMFile id="4751" start="24907" duration="123" scalar="1/1" mediaStart="29435/1" mediaDuration="123/1" trackNumber="0" src="14" >
                   <Transformer>
                    <VectorParam id="4752"  name="translation">
                     <InterpolatingParam id="4753" interp="linr"  time="-9999999/1" value="0" leadInLength="0/1"  />
                     <InterpolatingParam id="4754" interp="linr"  time="-9999999/1" value="0" leadInLength="0/1"  />
                     <InterpolatingParam id="4755" interp="linr"  time="-9999999/1" value="0" leadInLength="0/1"  />
                    </VectorParam>
                    <VectorParam id="4756"  name="rotation">
                     <InterpolatingParam id="4757" interp="linr"  time="-9999999/1" value="0" leadInLength="0/1"  />
                     <InterpolatingParam id="4758" interp="linr"  time="-9999999/1" value="0" leadInLength="0/1"  />
                     <InterpolatingParam id="4759" interp="linr"  time="-9999999/1" value="0" leadInLength="0/1"  />
                    </VectorParam>
                    <VectorParam id="4760"  name="shear">
                     <InterpolatingParam id="4761" interp="linr"  time="-9999999/1" value="0" leadInLength="0/1"  />
                     <InterpolatingParam id="4762" interp="linr"  time="-9999999/1" value="0" leadInLength="0/1"  />
                     <InterpolatingParam id="4763" interp="linr"  time="-9999999/1" value="0" leadInLength="0/1"  />
                    </VectorParam>
                    <VectorParam id="4764"  name="scale">
                     <InterpolatingParam id="4765" interp="linr"  time="-9999999/1" value="1" leadInLength="0/1"  />
                     <InterpolatingParam id="4766" interp="linr"  time="-9999999/1" value="1" leadInLength="0/1"  />
                     <InterpolatingParam id="4767" interp="linr"  time="-9999999/1" value="1" leadInLength="0/1"  />
                    </VectorParam>
                    <VectorParam id="4768"  name="anchor">
                     <InterpolatingParam id="4769" interp="linr"  time="0/1" value="0" leadInLength="0/1"  />
                     <InterpolatingParam id="4770" interp="linr"  time="0/1" value="0" leadInLength="0/1"  />
                     <InterpolatingParam id="4771" interp="linr"  time="0/1" value="0" leadInLength="0/1"  />
                    </VectorParam>
                   </Transformer>
                   <Parameters>
                    <VectorParam id="4772"  name="sourceCrop">
                     <InterpolatingParam id="4773" interp="linr"  time="0/1" value="0" leadInLength="0/1"  />
                     <InterpolatingParam id="4774" interp="linr"  time="0/1" value="0" leadInLength="0/1"  />
                     <InterpolatingParam id="4775" interp="linr"  time="0/1" value="0" leadInLength="0/1"  />
                     <InterpolatingParam id="4776" interp="linr"  time="0/1" value="0" leadInLength="0/1"  />
                    </VectorParam>
                    <VectorParam id="4777"  name="geometryCrop">
                     <InterpolatingParam id="4778" interp="linr"  time="-9999999/1" value="0" leadInLength="0/1"  />
                     <InterpolatingParam id="4779" interp="linr"  time="-9999999/1" value="0" leadInLength="0/1"  />
                     <InterpolatingParam id="4780" interp="linr"  time="-9999999/1" value="0" leadInLength="0/1"  />
                     <InterpolatingParam id="4781" interp="linr"  time="-9999999/1" value="0" leadInLength="0/1"  />
                    </VectorParam>
                    <InterpolatingParam id="4782" interp="linr"  time="-9999999/1" value="1" leadInLength="0/1"  name="opacity"/>
                    <InterpolatingParam id="4783" interp="linr"  time="0/1" value="0" leadInLength="0/1"  name="cursorOpacity"/>
                    <InterpolatingParam id="4784" interp="linr"  time="0/1" value="0" leadInLength="0/1"  name="cursorScale"/>
                   </Parameters>
                   <Attributes>
                    <Attribute id="4785" value="" name="ident"/>
                   </Attributes>
                   <ExtraData>
                    <Entry key="ZoomPanBin">
                     <ZoomPanBin id="4786"  >
                      <ZoomPanKeyframes>
                       <ZoomPanKeyframe id="4787" timeRangeEnd="-9999999/1" timeRangeDuration="0/1" interpolaterName="linr"  />
                      </ZoomPanKeyframes>
                     </ZoomPanBin>
                    </Entry>
                    <Entry key="CursorEffectBin">
                     <CursorEffectBin id="4788"  >
                      <CursorEffectKeyframes>
                      </CursorEffectKeyframes>
                     </CursorEffectBin>
                    </Entry>
                   </ExtraData>
                  </ScreenVMFile>
                  <MetaData>
                   <entry key="AutoAppliedSmartFocus" val="False"/>
                   <entry key="WinSubProjectDisplayName" val=""/>
                  </MetaData>
                 </UnifiedMedia>
                 <UnifiedMedia id="4789"  >
                  <AMFile id="4790" start="25030" duration="30" scalar="1/1" mediaStart="29581/1" mediaDuration="30/1" trackNumber="1" src="14" channelNumber="0,1" >
                   <Parameters>
                    <InterpolatingParam id="4791" interp="linr"  time="0/1" value="1" leadInLength="0/1"  name="volume"/>
                    <Parameter id="4792"  name="captions"/>
                   </Parameters>
                   <Attributes>
                    <Attribute id="4793" value="" name="ident"/>
                    <Attribute id="4794" value="44100" name="sampleRate"/>
                    <Attribute id="4795" value="16" name="bitDepth"/>
                    <Attribute id="4796" value="1" name="gain"/>
                    <Attribute id="4797" value="0" name="mixToMono"/>
                   </Attributes>
                  </AMFile>
                  <ScreenVMFile id="4798" start="25030" duration="30" scalar="1/1" mediaStart="29581/1" mediaDuration="30/1" trackNumber="0" src="14" >
                   <Transformer>
                    <VectorParam id="4799"  name="translation">
                     <InterpolatingParam id="4800" interp="linr"  time="-9999999/1" value="0" leadInLength="0/1"  />
                     <InterpolatingParam id="4801" interp="linr"  time="-9999999/1" value="0" leadInLength="0/1"  />
                     <InterpolatingParam id="4802" interp="linr"  time="-9999999/1" value="0" leadInLength="0/1"  />
                    </VectorParam>
                    <VectorParam id="4803"  name="rotation">
                     <InterpolatingParam id="4804" interp="linr"  time="-9999999/1" value="0" leadInLength="0/1"  />
                     <InterpolatingParam id="4805" interp="linr"  time="-9999999/1" value="0" leadInLength="0/1"  />
                     <InterpolatingParam id="4806" interp="linr"  time="-9999999/1" value="0" leadInLength="0/1"  />
                    </VectorParam>
                    <VectorParam id="4807"  name="shear">
                     <InterpolatingParam id="4808" interp="linr"  time="-9999999/1" value="0" leadInLength="0/1"  />
                     <InterpolatingParam id="4809" interp="linr"  time="-9999999/1" value="0" leadInLength="0/1"  />
                     <InterpolatingParam id="4810" interp="linr"  time="-9999999/1" value="0" leadInLength="0/1"  />
                    </VectorParam>
                    <VectorParam id="4811"  name="scale">
                     <InterpolatingParam id="4812" interp="linr"  time="-9999999/1" value="1" leadInLength="0/1"  />
                     <InterpolatingParam id="4813" interp="linr"  time="-9999999/1" value="1" leadInLength="0/1"  />
                     <InterpolatingParam id="4814" interp="linr"  time="-9999999/1" value="1" leadInLength="0/1"  />
                    </VectorParam>
                    <VectorParam id="4815"  name="anchor">
                     <InterpolatingParam id="4816" interp="linr"  time="0/1" value="0" leadInLength="0/1"  />
                     <InterpolatingParam id="4817" interp="linr"  time="0/1" value="0" leadInLength="0/1"  />
                     <InterpolatingParam id="4818" interp="linr"  time="0/1" value="0" leadInLength="0/1"  />
                    </VectorParam>
                   </Transformer>
                   <Parameters>
                    <VectorParam id="4819"  name="sourceCrop">
                     <InterpolatingParam id="4820" interp="linr"  time="0/1" value="0" leadInLength="0/1"  />
                     <InterpolatingParam id="4821" interp="linr"  time="0/1" value="0" leadInLength="0/1"  />
                     <InterpolatingParam id="4822" interp="linr"  time="0/1" value="0" leadInLength="0/1"  />
                     <InterpolatingParam id="4823" interp="linr"  time="0/1" value="0" leadInLength="0/1"  />
                    </VectorParam>
                    <VectorParam id="4824"  name="geometryCrop">
                     <InterpolatingParam id="4825" interp="linr"  time="-9999999/1" value="0" leadInLength="0/1"  />
                     <InterpolatingParam id="4826" interp="linr"  time="-9999999/1" value="0" leadInLength="0/1"  />
                     <InterpolatingParam id="4827" interp="linr"  time="-9999999/1" value="0" leadInLength="0/1"  />
                     <InterpolatingParam id="4828" interp="linr"  time="-9999999/1" value="0" leadInLength="0/1"  />
                    </VectorParam>
                    <InterpolatingParam id="4829" interp="linr"  time="-9999999/1" value="1" leadInLength="0/1"  name="opacity"/>
                    <InterpolatingParam id="4830" interp="linr"  time="0/1" value="0" leadInLength="0/1"  name="cursorOpacity"/>
                    <InterpolatingParam id="4831" interp="linr"  time="0/1" value="0" leadInLength="0/1"  name="cursorScale"/>
                   </Parameters>
                   <Attributes>
                    <Attribute id="4832" value="" name="ident"/>
                   </Attributes>
                   <ExtraData>
                    <Entry key="ZoomPanBin">
                     <ZoomPanBin id="4833"  >
                      <ZoomPanKeyframes>
                       <ZoomPanKeyframe id="4834" timeRangeEnd="-9999999/1" timeRangeDuration="0/1" interpolaterName="linr"  />
                      </ZoomPanKeyframes>
                     </ZoomPanBin>
                    </Entry>
                    <Entry key="CursorEffectBin">
                     <CursorEffectBin id="4835"  >
                      <CursorEffectKeyframes>
                      </CursorEffectKeyframes>
                     </CursorEffectBin>
                    </Entry>
                   </ExtraData>
                  </ScreenVMFile>
                  <MetaData>
                   <entry key="AutoAppliedSmartFocus" val="False"/>
                   <entry key="WinSubProjectDisplayName" val=""/>
                  </MetaData>
                 </UnifiedMedia>
                 <UnifiedMedia id="4836"  >
                  <AMFile id="4837" start="25060" duration="24" scalar="1/1" mediaStart="29627/1" mediaDuration="24/1" trackNumber="1" src="14" channelNumber="0,1" >
                   <Parameters>
                    <InterpolatingParam id="4838" interp="linr"  time="0/1" value="1" leadInLength="0/1"  name="volume"/>
                    <Parameter id="4839"  name="captions"/>
                   </Parameters>
                   <Attributes>
                    <Attribute id="4840" value="" name="ident"/>
                    <Attribute id="4841" value="44100" name="sampleRate"/>
                    <Attribute id="4842" value="16" name="bitDepth"/>
                    <Attribute id="4843" value="1" name="gain"/>
                    <Attribute id="4844" value="0" name="mixToMono"/>
                   </Attributes>
                  </AMFile>
                  <ScreenVMFile id="4845" start="25060" duration="24" scalar="1/1" mediaStart="29627/1" mediaDuration="24/1" trackNumber="0" src="14" >
                   <Transformer>
                    <VectorParam id="4846"  name="translation">
                     <InterpolatingParam id="4847" interp="linr"  time="-9999999/1" value="0" leadInLength="0/1"  />
                     <InterpolatingParam id="4848" interp="linr"  time="-9999999/1" value="0" leadInLength="0/1"  />
                     <InterpolatingParam id="4849" interp="linr"  time="-9999999/1" value="0" leadInLength="0/1"  />
                    </VectorParam>
                    <VectorParam id="4850"  name="rotation">
                     <InterpolatingParam id="4851" interp="linr"  time="-9999999/1" value="0" leadInLength="0/1"  />
                     <InterpolatingParam id="4852" interp="linr"  time="-9999999/1" value="0" leadInLength="0/1"  />
                     <InterpolatingParam id="4853" interp="linr"  time="-9999999/1" value="0" leadInLength="0/1"  />
                    </VectorParam>
                    <VectorParam id="4854"  name="shear">
                     <InterpolatingParam id="4855" interp="linr"  time="-9999999/1" value="0" leadInLength="0/1"  />
                     <InterpolatingParam id="4856" interp="linr"  time="-9999999/1" value="0" leadInLength="0/1"  />
                     <InterpolatingParam id="4857" interp="linr"  time="-9999999/1" value="0" leadInLength="0/1"  />
                    </VectorParam>
                    <VectorParam id="4858"  name="scale">
                     <InterpolatingParam id="4859" interp="linr"  time="-9999999/1" value="1" leadInLength="0/1"  />
                     <InterpolatingParam id="4860" interp="linr"  time="-9999999/1" value="1" leadInLength="0/1"  />
                     <InterpolatingParam id="4861" interp="linr"  time="-9999999/1" value="1" leadInLength="0/1"  />
                    </VectorParam>
                    <VectorParam id="4862"  name="anchor">
                     <InterpolatingParam id="4863" interp="linr"  time="0/1" value="0" leadInLength="0/1"  />
                     <InterpolatingParam id="4864" interp="linr"  time="0/1" value="0" leadInLength="0/1"  />
                     <InterpolatingParam id="4865" interp="linr"  time="0/1" value="0" leadInLength="0/1"  />
                    </VectorParam>
                   </Transformer>
                   <Parameters>
                    <VectorParam id="4866"  name="sourceCrop">
                     <InterpolatingParam id="4867" interp="linr"  time="0/1" value="0" leadInLength="0/1"  />
                     <InterpolatingParam id="4868" interp="linr"  time="0/1" value="0" leadInLength="0/1"  />
                     <InterpolatingParam id="4869" interp="linr"  time="0/1" value="0" leadInLength="0/1"  />
                     <InterpolatingParam id="4870" interp="linr"  time="0/1" value="0" leadInLength="0/1"  />
                    </VectorParam>
                    <VectorParam id="4871"  name="geometryCrop">
                     <InterpolatingParam id="4872" interp="linr"  time="-9999999/1" value="0" leadInLength="0/1"  />
                     <InterpolatingParam id="4873" interp="linr"  time="-9999999/1" value="0" leadInLength="0/1"  />
                     <InterpolatingParam id="4874" interp="linr"  time="-9999999/1" value="0" leadInLength="0/1"  />
                     <InterpolatingParam id="4875" interp="linr"  time="-9999999/1" value="0" leadInLength="0/1"  />
                    </VectorParam>
                    <InterpolatingParam id="4876" interp="linr"  time="-9999999/1" value="1" leadInLength="0/1"  name="opacity"/>
                    <InterpolatingParam id="4877" interp="linr"  time="0/1" value="0" leadInLength="0/1"  name="cursorOpacity"/>
                    <InterpolatingParam id="4878" interp="linr"  time="0/1" value="0" leadInLength="0/1"  name="cursorScale"/>
                   </Parameters>
                   <Attributes>
                    <Attribute id="4879" value="" name="ident"/>
                   </Attributes>
                   <ExtraData>
                    <Entry key="ZoomPanBin">
                     <ZoomPanBin id="4880"  >
                      <ZoomPanKeyframes>
                       <ZoomPanKeyframe id="4881" timeRangeEnd="-9999999/1" timeRangeDuration="0/1" interpolaterName="linr"  />
                      </ZoomPanKeyframes>
                     </ZoomPanBin>
                    </Entry>
                    <Entry key="CursorEffectBin">
                     <CursorEffectBin id="4882"  >
                      <CursorEffectKeyframes>
                      </CursorEffectKeyframes>
                     </CursorEffectBin>
                    </Entry>
                   </ExtraData>
                  </ScreenVMFile>
                  <MetaData>
                   <entry key="AutoAppliedSmartFocus" val="False"/>
                   <entry key="WinSubProjectDisplayName" val=""/>
                  </MetaData>
                 </UnifiedMedia>
                 <UnifiedMedia id="4883"  >
                  <AMFile id="4884" start="25084" duration="2049" scalar="1/1" mediaStart="29657/1" mediaDuration="2049/1" trackNumber="1" src="14" channelNumber="0,1" >
                   <Parameters>
                    <InterpolatingParam id="4885" interp="linr"  time="0/1" value="1" leadInLength="0/1"  name="volume"/>
                    <Parameter id="4886"  name="captions"/>
                   </Parameters>
                   <Attributes>
                    <Attribute id="4887" value="" name="ident"/>
                    <Attribute id="4888" value="44100" name="sampleRate"/>
                    <Attribute id="4889" value="16" name="bitDepth"/>
                    <Attribute id="4890" value="1" name="gain"/>
                    <Attribute id="4891" value="0" name="mixToMono"/>
                   </Attributes>
                  </AMFile>
                  <ScreenVMFile id="4892" start="25084" duration="2049" scalar="1/1" mediaStart="29657/1" mediaDuration="2049/1" trackNumber="0" src="14" >
                   <Transformer>
                    <VectorParam id="4893"  name="translation">
                     <InterpolatingParam id="4894" interp="linr"  time="-9999999/1" value="0" leadInLength="0/1"  />
                     <InterpolatingParam id="4895" interp="linr"  time="-9999999/1" value="0" leadInLength="0/1"  />
                     <InterpolatingParam id="4896" interp="linr"  time="-9999999/1" value="0" leadInLength="0/1"  />
                    </VectorParam>
                    <VectorParam id="4897"  name="rotation">
                     <InterpolatingParam id="4898" interp="linr"  time="-9999999/1" value="0" leadInLength="0/1"  />
                     <InterpolatingParam id="4899" interp="linr"  time="-9999999/1" value="0" leadInLength="0/1"  />
                     <InterpolatingParam id="4900" interp="linr"  time="-9999999/1" value="0" leadInLength="0/1"  />
                    </VectorParam>
                    <VectorParam id="4901"  name="shear">
                     <InterpolatingParam id="4902" interp="linr"  time="-9999999/1" value="0" leadInLength="0/1"  />
                     <InterpolatingParam id="4903" interp="linr"  time="-9999999/1" value="0" leadInLength="0/1"  />
                     <InterpolatingParam id="4904" interp="linr"  time="-9999999/1" value="0" leadInLength="0/1"  />
                    </VectorParam>
                    <VectorParam id="4905"  name="scale">
                     <InterpolatingParam id="4906" interp="linr"  time="-9999999/1" value="1" leadInLength="0/1"  />
                     <InterpolatingParam id="4907" interp="linr"  time="-9999999/1" value="1" leadInLength="0/1"  />
                     <InterpolatingParam id="4908" interp="linr"  time="-9999999/1" value="1" leadInLength="0/1"  />
                    </VectorParam>
                    <VectorParam id="4909"  name="anchor">
                     <InterpolatingParam id="4910" interp="linr"  time="0/1" value="0" leadInLength="0/1"  />
                     <InterpolatingParam id="4911" interp="linr"  time="0/1" value="0" leadInLength="0/1"  />
                     <InterpolatingParam id="4912" interp="linr"  time="0/1" value="0" leadInLength="0/1"  />
                    </VectorParam>
                   </Transformer>
                   <Parameters>
                    <VectorParam id="4913"  name="sourceCrop">
                     <InterpolatingParam id="4914" interp="linr"  time="0/1" value="0" leadInLength="0/1"  />
                     <InterpolatingParam id="4915" interp="linr"  time="0/1" value="0" leadInLength="0/1"  />
                     <InterpolatingParam id="4916" interp="linr"  time="0/1" value="0" leadInLength="0/1"  />
                     <InterpolatingParam id="4917" interp="linr"  time="0/1" value="0" leadInLength="0/1"  />
                    </VectorParam>
                    <VectorParam id="4918"  name="geometryCrop">
                     <InterpolatingParam id="4919" interp="linr"  time="-9999999/1" value="0" leadInLength="0/1"  />
                     <InterpolatingParam id="4920" interp="linr"  time="-9999999/1" value="0" leadInLength="0/1"  />
                     <InterpolatingParam id="4921" interp="linr"  time="-9999999/1" value="0" leadInLength="0/1"  />
                     <InterpolatingParam id="4922" interp="linr"  time="-9999999/1" value="0" leadInLength="0/1"  />
                    </VectorParam>
                    <InterpolatingParam id="4923" interp="linr"  time="-9999999/1" value="1" leadInLength="0/1"  name="opacity"/>
                    <InterpolatingParam id="4924" interp="linr"  time="0/1" value="0" leadInLength="0/1"  name="cursorOpacity"/>
                    <InterpolatingParam id="4925" interp="linr"  time="0/1" value="0" leadInLength="0/1"  name="cursorScale"/>
                   </Parameters>
                   <Attributes>
                    <Attribute id="4926" value="" name="ident"/>
                   </Attributes>
                   <ExtraData>
                    <Entry key="ZoomPanBin">
                     <ZoomPanBin id="4927"  >
                      <ZoomPanKeyframes>
                       <ZoomPanKeyframe id="4928" timeRangeEnd="-9999999/1" timeRangeDuration="0/1" interpolaterName="linr"  />
                      </ZoomPanKeyframes>
                     </ZoomPanBin>
                    </Entry>
                    <Entry key="CursorEffectBin">
                     <CursorEffectBin id="4929"  >
                      <CursorEffectKeyframes>
                      </CursorEffectKeyframes>
                     </CursorEffectBin>
                    </Entry>
                   </ExtraData>
                  </ScreenVMFile>
                  <MetaData>
                   <entry key="AutoAppliedSmartFocus" val="False"/>
                   <entry key="WinSubProjectDisplayName" val=""/>
                  </MetaData>
                 </UnifiedMedia>
                 <UnifiedMedia id="4930"  >
                  <AMFile id="4931" start="27133" duration="487" scalar="1/1" mediaStart="31836/1" mediaDuration="487/1" trackNumber="1" src="14" channelNumber="0,1" >
                   <Parameters>
                    <InterpolatingParam id="4932" interp="linr"  time="0/1" value="1" leadInLength="0/1"  name="volume"/>
                    <Parameter id="4933"  name="captions"/>
                   </Parameters>
                   <Attributes>
                    <Attribute id="4934" value="" name="ident"/>
                    <Attribute id="4935" value="44100" name="sampleRate"/>
                    <Attribute id="4936" value="16" name="bitDepth"/>
                    <Attribute id="4937" value="1" name="gain"/>
                    <Attribute id="4938" value="0" name="mixToMono"/>
                   </Attributes>
                  </AMFile>
                  <ScreenVMFile id="4939" start="27133" duration="487" scalar="1/1" mediaStart="31836/1" mediaDuration="487/1" trackNumber="0" src="14" >
                   <Transformer>
                    <VectorParam id="4940"  name="translation">
                     <InterpolatingParam id="4941" interp="linr"  time="-9999999/1" value="0" leadInLength="0/1"  />
                     <InterpolatingParam id="4942" interp="linr"  time="-9999999/1" value="0" leadInLength="0/1"  />
                     <InterpolatingParam id="4943" interp="linr"  time="-9999999/1" value="0" leadInLength="0/1"  />
                    </VectorParam>
                    <VectorParam id="4944"  name="rotation">
                     <InterpolatingParam id="4945" interp="linr"  time="-9999999/1" value="0" leadInLength="0/1"  />
                     <InterpolatingParam id="4946" interp="linr"  time="-9999999/1" value="0" leadInLength="0/1"  />
                     <InterpolatingParam id="4947" interp="linr"  time="-9999999/1" value="0" leadInLength="0/1"  />
                    </VectorParam>
                    <VectorParam id="4948"  name="shear">
                     <InterpolatingParam id="4949" interp="linr"  time="-9999999/1" value="0" leadInLength="0/1"  />
                     <InterpolatingParam id="4950" interp="linr"  time="-9999999/1" value="0" leadInLength="0/1"  />
                     <InterpolatingParam id="4951" interp="linr"  time="-9999999/1" value="0" leadInLength="0/1"  />
                    </VectorParam>
                    <VectorParam id="4952"  name="scale">
                     <InterpolatingParam id="4953" interp="linr"  time="-9999999/1" value="1" leadInLength="0/1"  />
                     <InterpolatingParam id="4954" interp="linr"  time="-9999999/1" value="1" leadInLength="0/1"  />
                     <InterpolatingParam id="4955" interp="linr"  time="-9999999/1" value="1" leadInLength="0/1"  />
                    </VectorParam>
                    <VectorParam id="4956"  name="anchor">
                     <InterpolatingParam id="4957" interp="linr"  time="0/1" value="0" leadInLength="0/1"  />
                     <InterpolatingParam id="4958" interp="linr"  time="0/1" value="0" leadInLength="0/1"  />
                     <InterpolatingParam id="4959" interp="linr"  time="0/1" value="0" leadInLength="0/1"  />
                    </VectorParam>
                   </Transformer>
                   <Parameters>
                    <VectorParam id="4960"  name="sourceCrop">
                     <InterpolatingParam id="4961" interp="linr"  time="0/1" value="0" leadInLength="0/1"  />
                     <InterpolatingParam id="4962" interp="linr"  time="0/1" value="0" leadInLength="0/1"  />
                     <InterpolatingParam id="4963" interp="linr"  time="0/1" value="0" leadInLength="0/1"  />
                     <InterpolatingParam id="4964" interp="linr"  time="0/1" value="0" leadInLength="0/1"  />
                    </VectorParam>
                    <VectorParam id="4965"  name="geometryCrop">
                     <InterpolatingParam id="4966" interp="linr"  time="-9999999/1" value="0" leadInLength="0/1"  />
                     <InterpolatingParam id="4967" interp="linr"  time="-9999999/1" value="0" leadInLength="0/1"  />
                     <InterpolatingParam id="4968" interp="linr"  time="-9999999/1" value="0" leadInLength="0/1"  />
                     <InterpolatingParam id="4969" interp="linr"  time="-9999999/1" value="0" leadInLength="0/1"  />
                    </VectorParam>
                    <InterpolatingParam id="4970" interp="linr"  time="-9999999/1" value="1" leadInLength="0/1"  name="opacity"/>
                    <InterpolatingParam id="4971" interp="linr"  time="0/1" value="0" leadInLength="0/1"  name="cursorOpacity"/>
                    <InterpolatingParam id="4972" interp="linr"  time="0/1" value="0" leadInLength="0/1"  name="cursorScale"/>
                   </Parameters>
                   <Attributes>
                    <Attribute id="4973" value="" name="ident"/>
                   </Attributes>
                   <ExtraData>
                    <Entry key="ZoomPanBin">
                     <ZoomPanBin id="4974"  >
                      <ZoomPanKeyframes>
                       <ZoomPanKeyframe id="4975" timeRangeEnd="-9999999/1" timeRangeDuration="0/1" interpolaterName="linr"  />
                      </ZoomPanKeyframes>
                     </ZoomPanBin>
                    </Entry>
                    <Entry key="CursorEffectBin">
                     <CursorEffectBin id="4976"  >
                      <CursorEffectKeyframes>
                      </CursorEffectKeyframes>
                     </CursorEffectBin>
                    </Entry>
                   </ExtraData>
                  </ScreenVMFile>
                  <MetaData>
                   <entry key="AutoAppliedSmartFocus" val="False"/>
                   <entry key="WinSubProjectDisplayName" val=""/>
                  </MetaData>
                 </UnifiedMedia>
                 <UnifiedMedia id="4977"  >
                  <AMFile id="4978" start="27620" duration="17" scalar="1/1" mediaStart="32338/1" mediaDuration="17/1" trackNumber="1" src="14" channelNumber="0,1" >
                   <Parameters>
                    <InterpolatingParam id="4979" interp="linr"  time="0/1" value="1" leadInLength="0/1"  name="volume"/>
                    <Parameter id="4980"  name="captions"/>
                   </Parameters>
                   <Attributes>
                    <Attribute id="4981" value="" name="ident"/>
                    <Attribute id="4982" value="44100" name="sampleRate"/>
                    <Attribute id="4983" value="16" name="bitDepth"/>
                    <Attribute id="4984" value="1" name="gain"/>
                    <Attribute id="4985" value="0" name="mixToMono"/>
                   </Attributes>
                  </AMFile>
                  <ScreenVMFile id="4986" start="27620" duration="17" scalar="1/1" mediaStart="32338/1" mediaDuration="17/1" trackNumber="0" src="14" >
                   <Transformer>
                    <VectorParam id="4987"  name="translation">
                     <InterpolatingParam id="4988" interp="linr"  time="-9999999/1" value="0" leadInLength="0/1"  />
                     <InterpolatingParam id="4989" interp="linr"  time="-9999999/1" value="0" leadInLength="0/1"  />
                     <InterpolatingParam id="4990" interp="linr"  time="-9999999/1" value="0" leadInLength="0/1"  />
                    </VectorParam>
                    <VectorParam id="4991"  name="rotation">
                     <InterpolatingParam id="4992" interp="linr"  time="-9999999/1" value="0" leadInLength="0/1"  />
                     <InterpolatingParam id="4993" interp="linr"  time="-9999999/1" value="0" leadInLength="0/1"  />
                     <InterpolatingParam id="4994" interp="linr"  time="-9999999/1" value="0" leadInLength="0/1"  />
                    </VectorParam>
                    <VectorParam id="4995"  name="shear">
                     <InterpolatingParam id="4996" interp="linr"  time="-9999999/1" value="0" leadInLength="0/1"  />
                     <InterpolatingParam id="4997" interp="linr"  time="-9999999/1" value="0" leadInLength="0/1"  />
                     <InterpolatingParam id="4998" interp="linr"  time="-9999999/1" value="0" leadInLength="0/1"  />
                    </VectorParam>
                    <VectorParam id="4999"  name="scale">
                     <InterpolatingParam id="5000" interp="linr"  time="-9999999/1" value="1" leadInLength="0/1"  />
                     <InterpolatingParam id="5001" interp="linr"  time="-9999999/1" value="1" leadInLength="0/1"  />
                     <InterpolatingParam id="5002" interp="linr"  time="-9999999/1" value="1" leadInLength="0/1"  />
                    </VectorParam>
                    <VectorParam id="5003"  name="anchor">
                     <InterpolatingParam id="5004" interp="linr"  time="0/1" value="0" leadInLength="0/1"  />
                     <InterpolatingParam id="5005" interp="linr"  time="0/1" value="0" leadInLength="0/1"  />
                     <InterpolatingParam id="5006" interp="linr"  time="0/1" value="0" leadInLength="0/1"  />
                    </VectorParam>
                   </Transformer>
                   <Parameters>
                    <VectorParam id="5007"  name="sourceCrop">
                     <InterpolatingParam id="5008" interp="linr"  time="0/1" value="0" leadInLength="0/1"  />
                     <InterpolatingParam id="5009" interp="linr"  time="0/1" value="0" leadInLength="0/1"  />
                     <InterpolatingParam id="5010" interp="linr"  time="0/1" value="0" leadInLength="0/1"  />
                     <InterpolatingParam id="5011" interp="linr"  time="0/1" value="0" leadInLength="0/1"  />
                    </VectorParam>
                    <VectorParam id="5012"  name="geometryCrop">
                     <InterpolatingParam id="5013" interp="linr"  time="-9999999/1" value="0" leadInLength="0/1"  />
                     <InterpolatingParam id="5014" interp="linr"  time="-9999999/1" value="0" leadInLength="0/1"  />
                     <InterpolatingParam id="5015" interp="linr"  time="-9999999/1" value="0" leadInLength="0/1"  />
                     <InterpolatingParam id="5016" interp="linr"  time="-9999999/1" value="0" leadInLength="0/1"  />
                    </VectorParam>
                    <InterpolatingParam id="5017" interp="linr"  time="-9999999/1" value="1" leadInLength="0/1"  name="opacity"/>
                    <InterpolatingParam id="5018" interp="linr"  time="0/1" value="0" leadInLength="0/1"  name="cursorOpacity"/>
                    <InterpolatingParam id="5019" interp="linr"  time="0/1" value="0" leadInLength="0/1"  name="cursorScale"/>
                   </Parameters>
                   <Attributes>
                    <Attribute id="5020" value="" name="ident"/>
                   </Attributes>
                   <ExtraData>
                    <Entry key="ZoomPanBin">
                     <ZoomPanBin id="5021"  >
                      <ZoomPanKeyframes>
                       <ZoomPanKeyframe id="5022" timeRangeEnd="-9999999/1" timeRangeDuration="0/1" interpolaterName="linr"  />
                      </ZoomPanKeyframes>
                     </ZoomPanBin>
                    </Entry>
                    <Entry key="CursorEffectBin">
                     <CursorEffectBin id="5023"  >
                      <CursorEffectKeyframes>
                      </CursorEffectKeyframes>
                     </CursorEffectBin>
                    </Entry>
                   </ExtraData>
                  </ScreenVMFile>
                  <MetaData>
                   <entry key="AutoAppliedSmartFocus" val="False"/>
                   <entry key="WinSubProjectDisplayName" val=""/>
                  </MetaData>
                 </UnifiedMedia>
                 <UnifiedMedia id="5024"  >
                  <AMFile id="5025" start="27637" duration="130" scalar="1/1" mediaStart="32384/1" mediaDuration="130/1" trackNumber="1" src="14" channelNumber="0,1" >
                   <Parameters>
                    <InterpolatingParam id="5026" interp="linr"  time="0/1" value="1" leadInLength="0/1"  name="volume"/>
                    <Parameter id="5027"  name="captions"/>
                   </Parameters>
                   <Attributes>
                    <Attribute id="5028" value="" name="ident"/>
                    <Attribute id="5029" value="44100" name="sampleRate"/>
                    <Attribute id="5030" value="16" name="bitDepth"/>
                    <Attribute id="5031" value="1" name="gain"/>
                    <Attribute id="5032" value="0" name="mixToMono"/>
                   </Attributes>
                  </AMFile>
                  <ScreenVMFile id="5033" start="27637" duration="130" scalar="1/1" mediaStart="32384/1" mediaDuration="130/1" trackNumber="0" src="14" >
                   <Transformer>
                    <VectorParam id="5034"  name="translation">
                     <InterpolatingParam id="5035" interp="linr"  time="-9999999/1" value="0" leadInLength="0/1"  />
                     <InterpolatingParam id="5036" interp="linr"  time="-9999999/1" value="0" leadInLength="0/1"  />
                     <InterpolatingParam id="5037" interp="linr"  time="-9999999/1" value="0" leadInLength="0/1"  />
                    </VectorParam>
                    <VectorParam id="5038"  name="rotation">
                     <InterpolatingParam id="5039" interp="linr"  time="-9999999/1" value="0" leadInLength="0/1"  />
                     <InterpolatingParam id="5040" interp="linr"  time="-9999999/1" value="0" leadInLength="0/1"  />
                     <InterpolatingParam id="5041" interp="linr"  time="-9999999/1" value="0" leadInLength="0/1"  />
                    </VectorParam>
                    <VectorParam id="5042"  name="shear">
                     <InterpolatingParam id="5043" interp="linr"  time="-9999999/1" value="0" leadInLength="0/1"  />
                     <InterpolatingParam id="5044" interp="linr"  time="-9999999/1" value="0" leadInLength="0/1"  />
                     <InterpolatingParam id="5045" interp="linr"  time="-9999999/1" value="0" leadInLength="0/1"  />
                    </VectorParam>
                    <VectorParam id="5046"  name="scale">
                     <InterpolatingParam id="5047" interp="linr"  time="-9999999/1" value="1" leadInLength="0/1"  />
                     <InterpolatingParam id="5048" interp="linr"  time="-9999999/1" value="1" leadInLength="0/1"  />
                     <InterpolatingParam id="5049" interp="linr"  time="-9999999/1" value="1" leadInLength="0/1"  />
                    </VectorParam>
                    <VectorParam id="5050"  name="anchor">
                     <InterpolatingParam id="5051" interp="linr"  time="0/1" value="0" leadInLength="0/1"  />
                     <InterpolatingParam id="5052" interp="linr"  time="0/1" value="0" leadInLength="0/1"  />
                     <InterpolatingParam id="5053" interp="linr"  time="0/1" value="0" leadInLength="0/1"  />
                    </VectorParam>
                   </Transformer>
                   <Parameters>
                    <VectorParam id="5054"  name="sourceCrop">
                     <InterpolatingParam id="5055" interp="linr"  time="0/1" value="0" leadInLength="0/1"  />
                     <InterpolatingParam id="5056" interp="linr"  time="0/1" value="0" leadInLength="0/1"  />
                     <InterpolatingParam id="5057" interp="linr"  time="0/1" value="0" leadInLength="0/1"  />
                     <InterpolatingParam id="5058" interp="linr"  time="0/1" value="0" leadInLength="0/1"  />
                    </VectorParam>
                    <VectorParam id="5059"  name="geometryCrop">
                     <InterpolatingParam id="5060" interp="linr"  time="-9999999/1" value="0" leadInLength="0/1"  />
                     <InterpolatingParam id="5061" interp="linr"  time="-9999999/1" value="0" leadInLength="0/1"  />
                     <InterpolatingParam id="5062" interp="linr"  time="-9999999/1" value="0" leadInLength="0/1"  />
                     <InterpolatingParam id="5063" interp="linr"  time="-9999999/1" value="0" leadInLength="0/1"  />
                    </VectorParam>
                    <InterpolatingParam id="5064" interp="linr"  time="-9999999/1" value="1" leadInLength="0/1"  name="opacity"/>
                    <InterpolatingParam id="5065" interp="linr"  time="0/1" value="0" leadInLength="0/1"  name="cursorOpacity"/>
                    <InterpolatingParam id="5066" interp="linr"  time="0/1" value="0" leadInLength="0/1"  name="cursorScale"/>
                   </Parameters>
                   <Attributes>
                    <Attribute id="5067" value="" name="ident"/>
                   </Attributes>
                   <ExtraData>
                    <Entry key="ZoomPanBin">
                     <ZoomPanBin id="5068"  >
                      <ZoomPanKeyframes>
                       <ZoomPanKeyframe id="5069" timeRangeEnd="-9999999/1" timeRangeDuration="0/1" interpolaterName="linr"  />
                      </ZoomPanKeyframes>
                     </ZoomPanBin>
                    </Entry>
                    <Entry key="CursorEffectBin">
                     <CursorEffectBin id="5070"  >
                      <CursorEffectKeyframes>
                      </CursorEffectKeyframes>
                     </CursorEffectBin>
                    </Entry>
                   </ExtraData>
                  </ScreenVMFile>
                  <MetaData>
                   <entry key="AutoAppliedSmartFocus" val="False"/>
                   <entry key="WinSubProjectDisplayName" val=""/>
                  </MetaData>
                 </UnifiedMedia>
                 <UnifiedMedia id="5071"  >
                  <AMFile id="5072" start="27767" duration="172" scalar="1/1" mediaStart="32590/1" mediaDuration="172/1" trackNumber="1" src="14" channelNumber="0,1" >
                   <Parameters>
                    <InterpolatingParam id="5073" interp="linr"  time="0/1" value="1" leadInLength="0/1"  name="volume"/>
                    <Parameter id="5074"  name="captions"/>
                   </Parameters>
                   <Attributes>
                    <Attribute id="5075" value="" name="ident"/>
                    <Attribute id="5076" value="44100" name="sampleRate"/>
                    <Attribute id="5077" value="16" name="bitDepth"/>
                    <Attribute id="5078" value="1" name="gain"/>
                    <Attribute id="5079" value="0" name="mixToMono"/>
                   </Attributes>
                  </AMFile>
                  <ScreenVMFile id="5080" start="27767" duration="172" scalar="1/1" mediaStart="32590/1" mediaDuration="172/1" trackNumber="0" src="14" >
                   <Transformer>
                    <VectorParam id="5081"  name="translation">
                     <InterpolatingParam id="5082" interp="linr"  time="-9999999/1" value="0" leadInLength="0/1"  />
                     <InterpolatingParam id="5083" interp="linr"  time="-9999999/1" value="0" leadInLength="0/1"  />
                     <InterpolatingParam id="5084" interp="linr"  time="-9999999/1" value="0" leadInLength="0/1"  />
                    </VectorParam>
                    <VectorParam id="5085"  name="rotation">
                     <InterpolatingParam id="5086" interp="linr"  time="-9999999/1" value="0" leadInLength="0/1"  />
                     <InterpolatingParam id="5087" interp="linr"  time="-9999999/1" value="0" leadInLength="0/1"  />
                     <InterpolatingParam id="5088" interp="linr"  time="-9999999/1" value="0" leadInLength="0/1"  />
                    </VectorParam>
                    <VectorParam id="5089"  name="shear">
                     <InterpolatingParam id="5090" interp="linr"  time="-9999999/1" value="0" leadInLength="0/1"  />
                     <InterpolatingParam id="5091" interp="linr"  time="-9999999/1" value="0" leadInLength="0/1"  />
                     <InterpolatingParam id="5092" interp="linr"  time="-9999999/1" value="0" leadInLength="0/1"  />
                    </VectorParam>
                    <VectorParam id="5093"  name="scale">
                     <InterpolatingParam id="5094" interp="linr"  time="-9999999/1" value="1" leadInLength="0/1"  />
                     <InterpolatingParam id="5095" interp="linr"  time="-9999999/1" value="1" leadInLength="0/1"  />
                     <InterpolatingParam id="5096" interp="linr"  time="-9999999/1" value="1" leadInLength="0/1"  />
                    </VectorParam>
                    <VectorParam id="5097"  name="anchor">
                     <InterpolatingParam id="5098" interp="linr"  time="0/1" value="0" leadInLength="0/1"  />
                     <InterpolatingParam id="5099" interp="linr"  time="0/1" value="0" leadInLength="0/1"  />
                     <InterpolatingParam id="5100" interp="linr"  time="0/1" value="0" leadInLength="0/1"  />
                    </VectorParam>
                   </Transformer>
                   <Parameters>
                    <VectorParam id="5101"  name="sourceCrop">
                     <InterpolatingParam id="5102" interp="linr"  time="0/1" value="0" leadInLength="0/1"  />
                     <InterpolatingParam id="5103" interp="linr"  time="0/1" value="0" leadInLength="0/1"  />
                     <InterpolatingParam id="5104" interp="linr"  time="0/1" value="0" leadInLength="0/1"  />
                     <InterpolatingParam id="5105" interp="linr"  time="0/1" value="0" leadInLength="0/1"  />
                    </VectorParam>
                    <VectorParam id="5106"  name="geometryCrop">
                     <InterpolatingParam id="5107" interp="linr"  time="-9999999/1" value="0" leadInLength="0/1"  />
                     <InterpolatingParam id="5108" interp="linr"  time="-9999999/1" value="0" leadInLength="0/1"  />
                     <InterpolatingParam id="5109" interp="linr"  time="-9999999/1" value="0" leadInLength="0/1"  />
                     <InterpolatingParam id="5110" interp="linr"  time="-9999999/1" value="0" leadInLength="0/1"  />
                    </VectorParam>
                    <InterpolatingParam id="5111" interp="linr"  time="-9999999/1" value="1" leadInLength="0/1"  name="opacity"/>
                    <InterpolatingParam id="5112" interp="linr"  time="0/1" value="0" leadInLength="0/1"  name="cursorOpacity"/>
                    <InterpolatingParam id="5113" interp="linr"  time="0/1" value="0" leadInLength="0/1"  name="cursorScale"/>
                   </Parameters>
                   <Attributes>
                    <Attribute id="5114" value="" name="ident"/>
                   </Attributes>
                   <ExtraData>
                    <Entry key="ZoomPanBin">
                     <ZoomPanBin id="5115"  >
                      <ZoomPanKeyframes>
                       <ZoomPanKeyframe id="5116" timeRangeEnd="-9999999/1" timeRangeDuration="0/1" interpolaterName="linr"  />
                      </ZoomPanKeyframes>
                     </ZoomPanBin>
                    </Entry>
                    <Entry key="CursorEffectBin">
                     <CursorEffectBin id="5117"  >
                      <CursorEffectKeyframes>
                      </CursorEffectKeyframes>
                     </CursorEffectBin>
                    </Entry>
                   </ExtraData>
                  </ScreenVMFile>
                  <MetaData>
                   <entry key="AutoAppliedSmartFocus" val="False"/>
                   <entry key="WinSubProjectDisplayName" val=""/>
                  </MetaData>
                 </UnifiedMedia>
                 <UnifiedMedia id="5118"  >
                  <AMFile id="5119" start="27939" duration="14214" scalar="1/1" mediaStart="32947/1" mediaDuration="14214/1" trackNumber="1" src="14" channelNumber="0,1" >
                   <Parameters>
                    <InterpolatingParam id="5120" interp="linr"  time="0/1" value="1" leadInLength="0/1"  name="volume"/>
                    <Parameter id="5121"  name="captions"/>
                   </Parameters>
                   <Attributes>
                    <Attribute id="5122" value="" name="ident"/>
                    <Attribute id="5123" value="44100" name="sampleRate"/>
                    <Attribute id="5124" value="16" name="bitDepth"/>
                    <Attribute id="5125" value="1" name="gain"/>
                    <Attribute id="5126" value="0" name="mixToMono"/>
                   </Attributes>
                  </AMFile>
                  <ScreenVMFile id="5127" start="27939" duration="14214" scalar="1/1" mediaStart="32947/1" mediaDuration="14214/1" trackNumber="0" src="14" >
                   <Transformer>
                    <VectorParam id="5128"  name="translation">
                     <InterpolatingParam id="5129" interp="linr"  time="-9999999/1" value="0" leadInLength="0/1"  />
                     <InterpolatingParam id="5130" interp="linr"  time="-9999999/1" value="0" leadInLength="0/1"  />
                     <InterpolatingParam id="5131" interp="linr"  time="-9999999/1" value="0" leadInLength="0/1"  />
                    </VectorParam>
                    <VectorParam id="5132"  name="rotation">
                     <InterpolatingParam id="5133" interp="linr"  time="-9999999/1" value="0" leadInLength="0/1"  />
                     <InterpolatingParam id="5134" interp="linr"  time="-9999999/1" value="0" leadInLength="0/1"  />
                     <InterpolatingParam id="5135" interp="linr"  time="-9999999/1" value="0" leadInLength="0/1"  />
                    </VectorParam>
                    <VectorParam id="5136"  name="shear">
                     <InterpolatingParam id="5137" interp="linr"  time="-9999999/1" value="0" leadInLength="0/1"  />
                     <InterpolatingParam id="5138" interp="linr"  time="-9999999/1" value="0" leadInLength="0/1"  />
                     <InterpolatingParam id="5139" interp="linr"  time="-9999999/1" value="0" leadInLength="0/1"  />
                    </VectorParam>
                    <VectorParam id="5140"  name="scale">
                     <InterpolatingParam id="5141" interp="linr"  time="-9999999/1" value="1" leadInLength="0/1"  />
                     <InterpolatingParam id="5142" interp="linr"  time="-9999999/1" value="1" leadInLength="0/1"  />
                     <InterpolatingParam id="5143" interp="linr"  time="-9999999/1" value="1" leadInLength="0/1"  />
                    </VectorParam>
                    <VectorParam id="5144"  name="anchor">
                     <InterpolatingParam id="5145" interp="linr"  time="0/1" value="0" leadInLength="0/1"  />
                     <InterpolatingParam id="5146" interp="linr"  time="0/1" value="0" leadInLength="0/1"  />
                     <InterpolatingParam id="5147" interp="linr"  time="0/1" value="0" leadInLength="0/1"  />
                    </VectorParam>
                   </Transformer>
                   <Parameters>
                    <VectorParam id="5148"  name="sourceCrop">
                     <InterpolatingParam id="5149" interp="linr"  time="0/1" value="0" leadInLength="0/1"  />
                     <InterpolatingParam id="5150" interp="linr"  time="0/1" value="0" leadInLength="0/1"  />
                     <InterpolatingParam id="5151" interp="linr"  time="0/1" value="0" leadInLength="0/1"  />
                     <InterpolatingParam id="5152" interp="linr"  time="0/1" value="0" leadInLength="0/1"  />
                    </VectorParam>
                    <VectorParam id="5153"  name="geometryCrop">
                     <InterpolatingParam id="5154" interp="linr"  time="-9999999/1" value="0" leadInLength="0/1"  />
                     <InterpolatingParam id="5155" interp="linr"  time="-9999999/1" value="0" leadInLength="0/1"  />
                     <InterpolatingParam id="5156" interp="linr"  time="-9999999/1" value="0" leadInLength="0/1"  />
                     <InterpolatingParam id="5157" interp="linr"  time="-9999999/1" value="0" leadInLength="0/1"  />
                    </VectorParam>
                    <InterpolatingParam id="5158" interp="linr"  time="-9999999/1" value="1" leadInLength="0/1"  name="opacity"/>
                    <InterpolatingParam id="5159" interp="linr"  time="0/1" value="0" leadInLength="0/1"  name="cursorOpacity"/>
                    <InterpolatingParam id="5160" interp="linr"  time="0/1" value="0" leadInLength="0/1"  name="cursorScale"/>
                   </Parameters>
                   <Attributes>
                    <Attribute id="5161" value="" name="ident"/>
                   </Attributes>
                   <ExtraData>
                    <Entry key="ZoomPanBin">
                     <ZoomPanBin id="5162"  >
                      <ZoomPanKeyframes>
                       <ZoomPanKeyframe id="5163" timeRangeEnd="-9999999/1" timeRangeDuration="0/1" interpolaterName="linr"  />
                      </ZoomPanKeyframes>
                     </ZoomPanBin>
                    </Entry>
                    <Entry key="CursorEffectBin">
                     <CursorEffectBin id="5164"  >
                      <CursorEffectKeyframes>
                      </CursorEffectKeyframes>
                     </CursorEffectBin>
                    </Entry>
                   </ExtraData>
                  </ScreenVMFile>
                  <MetaData>
                   <entry key="AutoAppliedSmartFocus" val="False"/>
                   <entry key="WinSubProjectDisplayName" val=""/>
                  </MetaData>
                 </UnifiedMedia>
                </Medias>
               </GenericTrack>
              </StitchedMedia>
             </Medias>
            </GenericTrack>
           </Tracks>
          </GenericMixer>
          <MetaData>
           <entry key="IsGroupExpanded" val="False"/>
           <entry key="WinGroupOrigin" val="Asset"/>
           <entry key="WinSubProjectDisplayName" val="b"/>
          </MetaData>
          <ExtraData>
           <Entry key="ZoomPanBin">
            <ZoomPanBin id="5165"  >
             <ZoomPanKeyframes>
              <ZoomPanKeyframe id="5166" timeRangeEnd="-9999999/1" timeRangeDuration="0/1" interpolaterName="linr"  />
             </ZoomPanKeyframes>
            </ZoomPanBin>
           </Entry>
          </ExtraData>
         </Group>
         <Group id="5167" start="43894" duration="9007" scalar="1" mediaStart="0" mediaDuration="9007" baseWidthAttr="0" baseHeightAttr="0"  >
          <Parameters>
           <VectorParam id="5168"  name="sourceCrop">
            <InterpolatingParam id="5169" interp="linr"  time="0/1" value="0" leadInLength="0/1"  />
            <InterpolatingParam id="5170" interp="linr"  time="0/1" value="0" leadInLength="0/1"  />
            <InterpolatingParam id="5171" interp="linr"  time="0/1" value="0" leadInLength="0/1"  />
            <InterpolatingParam id="5172" interp="linr"  time="0/1" value="0" leadInLength="0/1"  />
           </VectorParam>
           <VectorParam id="5173"  name="geometryCrop">
            <InterpolatingParam id="5174" interp="linr"  time="-9999999/1" value="0" leadInLength="0/1"  />
            <InterpolatingParam id="5175" interp="linr"  time="-9999999/1" value="0" leadInLength="0/1"  />
            <InterpolatingParam id="5176" interp="linr"  time="-9999999/1" value="0" leadInLength="0/1"  />
            <InterpolatingParam id="5177" interp="linr"  time="-9999999/1" value="0" leadInLength="0/1"  />
           </VectorParam>
           <InterpolatingParam id="5178" interp="linr"  time="-9999999/1" value="1" leadInLength="0/1"  name="opacity"/>
           <Parameter id="5179"  name="captions"/>
           <InterpolatingParam id="5180" interp="linr"  time="0/1" value="1" leadInLength="0/1"  name="volume"/>
          </Parameters>
          <Transformer>
           <VectorParam id="5181"  name="translation">
            <InterpolatingParam id="5182" interp="linr"  time="-9999999/1" value="0" leadInLength="0/1"  />
            <InterpolatingParam id="5183" interp="linr"  time="-9999999/1" value="0" leadInLength="0/1"  />
            <InterpolatingParam id="5184" interp="linr"  time="-9999999/1" value="0" leadInLength="0/1"  />
           </VectorParam>
           <VectorParam id="5185"  name="rotation">
            <InterpolatingParam id="5186" interp="linr"  time="-9999999/1" value="0" leadInLength="0/1"  />
            <InterpolatingParam id="5187" interp="linr"  time="-9999999/1" value="0" leadInLength="0/1"  />
            <InterpolatingParam id="5188" interp="linr"  time="-9999999/1" value="0" leadInLength="0/1"  />
           </VectorParam>
           <VectorParam id="5189"  name="shear">
            <InterpolatingParam id="5190" interp="linr"  time="-9999999/1" value="0" leadInLength="0/1"  />
            <InterpolatingParam id="5191" interp="linr"  time="-9999999/1" value="0" leadInLength="0/1"  />
            <InterpolatingParam id="5192" interp="linr"  time="-9999999/1" value="0" leadInLength="0/1"  />
           </VectorParam>
           <VectorParam id="5193"  name="scale">
            <InterpolatingParam id="5194" interp="linr"  time="-9999999/1" value="1" leadInLength="0/1"  />
            <InterpolatingParam id="5195" interp="linr"  time="-9999999/1" value="1" leadInLength="0/1"  />
            <InterpolatingParam id="5196" interp="linr"  time="-9999999/1" value="1" leadInLength="0/1"  />
           </VectorParam>
           <VectorParam id="5197"  name="anchor">
            <InterpolatingParam id="5198" interp="linr"  time="0/1" value="0" leadInLength="0/1"  />
            <InterpolatingParam id="5199" interp="linr"  time="0/1" value="0" leadInLength="0/1"  />
            <InterpolatingParam id="5200" interp="linr"  time="0/1" value="0" leadInLength="0/1"  />
           </VectorParam>
          </Transformer>
          <GenericMixer id="5201"  >
           <MetaData>
           </MetaData>
           <Tracks>
            <GenericTrack id="5202"  >
             <Attributes>
              <Attribute id="5203" value="" name="ident"/>
              <Attribute id="5204" value="0" name="audioMuted"/>
              <Attribute id="5205" value="0" name="videoHidden"/>
             </Attributes>
             <MetaData>
              <entry key="IsLocked" val="False"/>
              <entry key="WinTrackHeight" val="0"/>
             </MetaData>
             <Medias>
              <StitchedMedia id="5206" start="0" duration="6314" scalar="1/1" mediaStart="0/1" mediaDuration="6314/1" minMediaStart="0/1" >
               <Transformer>
                <VectorParam id="5207"  name="translation">
                 <InterpolatingParam id="5208" interp="linr"  time="0/1" value="0" leadInLength="0/1"  />
                 <InterpolatingParam id="5209" interp="linr"  time="0/1" value="0" leadInLength="0/1"  />
                 <InterpolatingParam id="5210" interp="linr"  time="0/1" value="0" leadInLength="0/1"  />
                </VectorParam>
                <VectorParam id="5211"  name="rotation">
                 <InterpolatingParam id="5212" interp="linr"  time="0/1" value="0" leadInLength="0/1"  />
                 <InterpolatingParam id="5213" interp="linr"  time="0/1" value="0" leadInLength="0/1"  />
                 <InterpolatingParam id="5214" interp="linr"  time="0/1" value="0" leadInLength="0/1"  />
                </VectorParam>
                <VectorParam id="5215"  name="shear">
                 <InterpolatingParam id="5216" interp="linr"  time="0/1" value="0" leadInLength="0/1"  />
                 <InterpolatingParam id="5217" interp="linr"  time="0/1" value="0" leadInLength="0/1"  />
                 <InterpolatingParam id="5218" interp="linr"  time="0/1" value="0" leadInLength="0/1"  />
                </VectorParam>
                <VectorParam id="5219"  name="scale">
                 <InterpolatingParam id="5220" interp="linr"  time="0/1" value="1" leadInLength="0/1"  />
                 <InterpolatingParam id="5221" interp="linr"  time="0/1" value="1" leadInLength="0/1"  />
                 <InterpolatingParam id="5222" interp="linr"  time="0/1" value="1" leadInLength="0/1"  />
                </VectorParam>
                <VectorParam id="5223"  name="anchor">
                 <InterpolatingParam id="5224" interp="linr"  time="0/1" value="0" leadInLength="0/1"  />
                 <InterpolatingParam id="5225" interp="linr"  time="0/1" value="0" leadInLength="0/1"  />
                 <InterpolatingParam id="5226" interp="linr"  time="0/1" value="0" leadInLength="0/1"  />
                </VectorParam>
               </Transformer>
               <Parameters>
                <InterpolatingParam id="5227" interp="linr"  time="0/1" value="1" leadInLength="0/1"  name="cursorOpacity"/>
                <InterpolatingParam id="5228" interp="linr"  time="0/1" value="1" leadInLength="0/1"  name="cursorScale"/>
                <InterpolatingParam id="5229" interp="linr"  time="0/1" value="1" leadInLength="0/1"  name="volume"/>
                <Parameter id="5230"  name="captions"/>
               </Parameters>
               <Attributes>
                <Attribute id="5231" value="" name="ident"/>
                <Attribute id="5232" value="0" name="mixToMono"/>
               </Attributes>
               <MetaData>
                <entry key="WinSubProjectDisplayName" val=""/>
               </MetaData>
               <ExtraData>
                <Entry key="ZoomPanBin">
                 <ZoomPanBin id="5233"  >
                  <ZoomPanKeyframes>
                  </ZoomPanKeyframes>
                 </ZoomPanBin>
                </Entry>
                <Entry key="CursorEffectBin">
                 <CursorEffectBin id="5234"  >
                  <CursorEffectKeyframes>
                  </CursorEffectKeyframes>
                 </CursorEffectBin>
                </Entry>
               </ExtraData>
               <GenericTrack id="5235"  >
                <Attributes>
                 <Attribute id="5236" value="" name="ident"/>
                 <Attribute id="5237" value="0" name="audioMuted"/>
                 <Attribute id="5238" value="0" name="videoHidden"/>
                </Attributes>
                <MetaData>
                 <entry key="IsLocked" val="False"/>
                 <entry key="WinTrackHeight" val="0"/>
                </MetaData>
                <Medias>
                 <AMFile id="5239" start="0" duration="3790" scalar="1/1" mediaStart="0/1" mediaDuration="3790/1" trackNumber="2" src="15" channelNumber="0,1" >
                  <Parameters>
                   <InterpolatingParam id="5240" interp="linr"  time="0/1" value="1" leadInLength="0/1"  name="volume"/>
                   <Parameter id="5241"  name="captions"/>
                  </Parameters>
                  <Attributes>
                   <Attribute id="5242" value="" name="ident"/>
                   <Attribute id="5243" value="44100" name="sampleRate"/>
                   <Attribute id="5244" value="16" name="bitDepth"/>
                   <Attribute id="5245" value="1" name="gain"/>
                   <Attribute id="5246" value="0" name="mixToMono"/>
                  </Attributes>
                  <MetaData>
                   <entry key="WinSubProjectDisplayName" val=""/>
                  </MetaData>
                 </AMFile>
                 <AMFile id="5247" start="3790" duration="249" scalar="1/1" mediaStart="3920/1" mediaDuration="249/1" trackNumber="2" src="15" channelNumber="0,1" >
                  <Parameters>
                   <InterpolatingParam id="5248" interp="linr"  time="0/1" value="1" leadInLength="0/1"  name="volume"/>
                   <Parameter id="5249"  name="captions"/>
                  </Parameters>
                  <Attributes>
                   <Attribute id="5250" value="" name="ident"/>
                   <Attribute id="5251" value="44100" name="sampleRate"/>
                   <Attribute id="5252" value="16" name="bitDepth"/>
                   <Attribute id="5253" value="1" name="gain"/>
                   <Attribute id="5254" value="0" name="mixToMono"/>
                  </Attributes>
                  <MetaData>
                   <entry key="WinSubProjectDisplayName" val=""/>
                  </MetaData>
                 </AMFile>
                 <AMFile id="5255" start="4039" duration="1436" scalar="1/1" mediaStart="4228/1" mediaDuration="1436/1" trackNumber="2" src="15" channelNumber="0,1" >
                  <Parameters>
                   <InterpolatingParam id="5256" interp="linr"  time="0/1" value="1" leadInLength="0/1"  name="volume"/>
                   <Parameter id="5257"  name="captions"/>
                  </Parameters>
                  <Attributes>
                   <Attribute id="5258" value="" name="ident"/>
                   <Attribute id="5259" value="44100" name="sampleRate"/>
                   <Attribute id="5260" value="16" name="bitDepth"/>
                   <Attribute id="5261" value="1" name="gain"/>
                   <Attribute id="5262" value="0" name="mixToMono"/>
                  </Attributes>
                  <MetaData>
                   <entry key="WinSubProjectDisplayName" val=""/>
                  </MetaData>
                 </AMFile>
                 <AMFile id="5263" start="5475" duration="709" scalar="1/1" mediaStart="5672/1" mediaDuration="709/1" trackNumber="2" src="15" channelNumber="0,1" >
                  <Parameters>
                   <InterpolatingParam id="5264" interp="linr"  time="0/1" value="1" leadInLength="0/1"  name="volume"/>
                   <Parameter id="5265"  name="captions"/>
                  </Parameters>
                  <Attributes>
                   <Attribute id="5266" value="" name="ident"/>
                   <Attribute id="5267" value="44100" name="sampleRate"/>
                   <Attribute id="5268" value="16" name="bitDepth"/>
                   <Attribute id="5269" value="1" name="gain"/>
                   <Attribute id="5270" value="0" name="mixToMono"/>
                  </Attributes>
                  <MetaData>
                   <entry key="WinSubProjectDisplayName" val=""/>
                  </MetaData>
                 </AMFile>
                 <AMFile id="5271" start="6184" duration="129" scalar="1/1" mediaStart="7271/1" mediaDuration="129/1" trackNumber="2" src="15" channelNumber="0,1" >
                  <Parameters>
                   <InterpolatingParam id="5272" interp="linr"  time="0/1" value="1" leadInLength="0/1"  name="volume"/>
                   <Parameter id="5273"  name="captions"/>
                  </Parameters>
                  <Attributes>
                   <Attribute id="5274" value="" name="ident"/>
                   <Attribute id="5275" value="44100" name="sampleRate"/>
                   <Attribute id="5276" value="16" name="bitDepth"/>
                   <Attribute id="5277" value="1" name="gain"/>
                   <Attribute id="5278" value="0" name="mixToMono"/>
                  </Attributes>
                  <MetaData>
                   <entry key="WinSubProjectDisplayName" val=""/>
                  </MetaData>
                 </AMFile>
                 <AMFile id="5279" start="6313" duration="4617" scalar="1/1" mediaStart="7443/1" mediaDuration="4617/1" trackNumber="2" src="15" channelNumber="0,1" >
                  <Parameters>
                   <InterpolatingParam id="5280" interp="linr"  time="0/1" value="1" leadInLength="0/1"  name="volume"/>
                   <Parameter id="5281"  name="captions"/>
                  </Parameters>
                  <Attributes>
                   <Attribute id="5282" value="" name="ident"/>
                   <Attribute id="5283" value="44100" name="sampleRate"/>
                   <Attribute id="5284" value="16" name="bitDepth"/>
                   <Attribute id="5285" value="1" name="gain"/>
                   <Attribute id="5286" value="0" name="mixToMono"/>
                  </Attributes>
                  <MetaData>
                   <entry key="WinSubProjectDisplayName" val=""/>
                  </MetaData>
                 </AMFile>
                </Medias>
               </GenericTrack>
              </StitchedMedia>
              <StitchedMedia id="5287" start="6314" duration="2693" scalar="1/1" mediaStart="6622/1" mediaDuration="2693/1" minMediaStart="0/1" >
               <Transformer>
                <VectorParam id="5288"  name="translation">
                 <InterpolatingParam id="5289" interp="linr"  time="0/1" value="0" leadInLength="0/1"  />
                 <InterpolatingParam id="5290" interp="linr"  time="0/1" value="0" leadInLength="0/1"  />
                 <InterpolatingParam id="5291" interp="linr"  time="0/1" value="0" leadInLength="0/1"  />
                </VectorParam>
                <VectorParam id="5292"  name="rotation">
                 <InterpolatingParam id="5293" interp="linr"  time="0/1" value="0" leadInLength="0/1"  />
                 <InterpolatingParam id="5294" interp="linr"  time="0/1" value="0" leadInLength="0/1"  />
                 <InterpolatingParam id="5295" interp="linr"  time="0/1" value="0" leadInLength="0/1"  />
                </VectorParam>
                <VectorParam id="5296"  name="shear">
                 <InterpolatingParam id="5297" interp="linr"  time="0/1" value="0" leadInLength="0/1"  />
                 <InterpolatingParam id="5298" interp="linr"  time="0/1" value="0" leadInLength="0/1"  />
                 <InterpolatingParam id="5299" interp="linr"  time="0/1" value="0" leadInLength="0/1"  />
                </VectorParam>
                <VectorParam id="5300"  name="scale">
                 <InterpolatingParam id="5301" interp="linr"  time="0/1" value="1" leadInLength="0/1"  />
                 <InterpolatingParam id="5302" interp="linr"  time="0/1" value="1" leadInLength="0/1"  />
                 <InterpolatingParam id="5303" interp="linr"  time="0/1" value="1" leadInLength="0/1"  />
                </VectorParam>
                <VectorParam id="5304"  name="anchor">
                 <InterpolatingParam id="5305" interp="linr"  time="0/1" value="0" leadInLength="0/1"  />
                 <InterpolatingParam id="5306" interp="linr"  time="0/1" value="0" leadInLength="0/1"  />
                 <InterpolatingParam id="5307" interp="linr"  time="0/1" value="0" leadInLength="0/1"  />
                </VectorParam>
               </Transformer>
               <Parameters>
                <InterpolatingParam id="5308" interp="linr"  time="0/1" value="1" leadInLength="0/1"  name="cursorOpacity"/>
                <InterpolatingParam id="5309" interp="linr"  time="0/1" value="1" leadInLength="0/1"  name="cursorScale"/>
                <InterpolatingParam id="5310" interp="linr"  time="0/1" value="1" leadInLength="0/1"  name="volume"/>
                <Parameter id="5311"  name="captions"/>
               </Parameters>
               <Attributes>
                <Attribute id="5312" value="" name="ident"/>
                <Attribute id="5313" value="0" name="mixToMono"/>
               </Attributes>
               <MetaData>
                <entry key="WinSubProjectDisplayName" val=""/>
               </MetaData>
               <ExtraData>
                <Entry key="ZoomPanBin">
                 <ZoomPanBin id="5314"  >
                  <ZoomPanKeyframes>
                  </ZoomPanKeyframes>
                 </ZoomPanBin>
                </Entry>
                <Entry key="CursorEffectBin">
                 <CursorEffectBin id="5315"  >
                  <CursorEffectKeyframes>
                  </CursorEffectKeyframes>
                 </CursorEffectBin>
                </Entry>
               </ExtraData>
               <GenericTrack id="5316"  >
                <Attributes>
                 <Attribute id="5317" value="" name="ident"/>
                 <Attribute id="5318" value="0" name="audioMuted"/>
                 <Attribute id="5319" value="0" name="videoHidden"/>
                </Attributes>
                <MetaData>
                 <entry key="IsLocked" val="False"/>
                 <entry key="WinTrackHeight" val="0"/>
                </MetaData>
                <Medias>
                 <AMFile id="5320" start="0" duration="3790" scalar="1/1" mediaStart="0/1" mediaDuration="3790/1" trackNumber="2" src="15" channelNumber="0,1" >
                  <Parameters>
                   <InterpolatingParam id="5321" interp="linr"  time="0/1" value="1" leadInLength="0/1"  name="volume"/>
                   <Parameter id="5322"  name="captions"/>
                  </Parameters>
                  <Attributes>
                   <Attribute id="5323" value="" name="ident"/>
                   <Attribute id="5324" value="44100" name="sampleRate"/>
                   <Attribute id="5325" value="16" name="bitDepth"/>
                   <Attribute id="5326" value="1" name="gain"/>
                   <Attribute id="5327" value="0" name="mixToMono"/>
                  </Attributes>
                  <MetaData>
                   <entry key="WinSubProjectDisplayName" val=""/>
                  </MetaData>
                 </AMFile>
                 <AMFile id="5328" start="3790" duration="249" scalar="1/1" mediaStart="3920/1" mediaDuration="249/1" trackNumber="2" src="15" channelNumber="0,1" >
                  <Parameters>
                   <InterpolatingParam id="5329" interp="linr"  time="0/1" value="1" leadInLength="0/1"  name="volume"/>
                   <Parameter id="5330"  name="captions"/>
                  </Parameters>
                  <Attributes>
                   <Attribute id="5331" value="" name="ident"/>
                   <Attribute id="5332" value="44100" name="sampleRate"/>
                   <Attribute id="5333" value="16" name="bitDepth"/>
                   <Attribute id="5334" value="1" name="gain"/>
                   <Attribute id="5335" value="0" name="mixToMono"/>
                  </Attributes>
                  <MetaData>
                   <entry key="WinSubProjectDisplayName" val=""/>
                  </MetaData>
                 </AMFile>
                 <AMFile id="5336" start="4039" duration="1436" scalar="1/1" mediaStart="4228/1" mediaDuration="1436/1" trackNumber="2" src="15" channelNumber="0,1" >
                  <Parameters>
                   <InterpolatingParam id="5337" interp="linr"  time="0/1" value="1" leadInLength="0/1"  name="volume"/>
                   <Parameter id="5338"  name="captions"/>
                  </Parameters>
                  <Attributes>
                   <Attribute id="5339" value="" name="ident"/>
                   <Attribute id="5340" value="44100" name="sampleRate"/>
                   <Attribute id="5341" value="16" name="bitDepth"/>
                   <Attribute id="5342" value="1" name="gain"/>
                   <Attribute id="5343" value="0" name="mixToMono"/>
                  </Attributes>
                  <MetaData>
                   <entry key="WinSubProjectDisplayName" val=""/>
                  </MetaData>
                 </AMFile>
                 <AMFile id="5344" start="5475" duration="709" scalar="1/1" mediaStart="5672/1" mediaDuration="709/1" trackNumber="2" src="15" channelNumber="0,1" >
                  <Parameters>
                   <InterpolatingParam id="5345" interp="linr"  time="0/1" value="1" leadInLength="0/1"  name="volume"/>
                   <Parameter id="5346"  name="captions"/>
                  </Parameters>
                  <Attributes>
                   <Attribute id="5347" value="" name="ident"/>
                   <Attribute id="5348" value="44100" name="sampleRate"/>
                   <Attribute id="5349" value="16" name="bitDepth"/>
                   <Attribute id="5350" value="1" name="gain"/>
                   <Attribute id="5351" value="0" name="mixToMono"/>
                  </Attributes>
                  <MetaData>
                   <entry key="WinSubProjectDisplayName" val=""/>
                  </MetaData>
                 </AMFile>
                 <AMFile id="5352" start="6184" duration="129" scalar="1/1" mediaStart="7271/1" mediaDuration="129/1" trackNumber="2" src="15" channelNumber="0,1" >
                  <Parameters>
                   <InterpolatingParam id="5353" interp="linr"  time="0/1" value="1" leadInLength="0/1"  name="volume"/>
                   <Parameter id="5354"  name="captions"/>
                  </Parameters>
                  <Attributes>
                   <Attribute id="5355" value="" name="ident"/>
                   <Attribute id="5356" value="44100" name="sampleRate"/>
                   <Attribute id="5357" value="16" name="bitDepth"/>
                   <Attribute id="5358" value="1" name="gain"/>
                   <Attribute id="5359" value="0" name="mixToMono"/>
                  </Attributes>
                  <MetaData>
                   <entry key="WinSubProjectDisplayName" val=""/>
                  </MetaData>
                 </AMFile>
                 <AMFile id="5360" start="6313" duration="505" scalar="1/1" mediaStart="7443/1" mediaDuration="505/1" trackNumber="2" src="15" channelNumber="0,1" >
                  <Parameters>
                   <InterpolatingParam id="5361" interp="linr"  time="0/1" value="1" leadInLength="0/1"  name="volume"/>
                   <Parameter id="5362"  name="captions"/>
                  </Parameters>
                  <Attributes>
                   <Attribute id="5363" value="" name="ident"/>
                   <Attribute id="5364" value="44100" name="sampleRate"/>
                   <Attribute id="5365" value="16" name="bitDepth"/>
                   <Attribute id="5366" value="1" name="gain"/>
                   <Attribute id="5367" value="0" name="mixToMono"/>
                  </Attributes>
                  <MetaData>
                   <entry key="WinSubProjectDisplayName" val=""/>
                  </MetaData>
                 </AMFile>
                 <AMFile id="5368" start="6818" duration="159" scalar="1/1" mediaStart="8101/1" mediaDuration="159/1" trackNumber="2" src="15" channelNumber="0,1" >
                  <Parameters>
                   <InterpolatingParam id="5369" interp="linr"  time="0/1" value="1" leadInLength="0/1"  name="volume"/>
                   <Parameter id="5370"  name="captions"/>
                  </Parameters>
                  <Attributes>
                   <Attribute id="5371" value="" name="ident"/>
                   <Attribute id="5372" value="44100" name="sampleRate"/>
                   <Attribute id="5373" value="16" name="bitDepth"/>
                   <Attribute id="5374" value="1" name="gain"/>
                   <Attribute id="5375" value="0" name="mixToMono"/>
                  </Attributes>
                  <MetaData>
                   <entry key="WinSubProjectDisplayName" val=""/>
                  </MetaData>
                 </AMFile>
                 <AMFile id="5376" start="6977" duration="1491" scalar="1/1" mediaStart="8382/1" mediaDuration="1491/1" trackNumber="2" src="15" channelNumber="0,1" >
                  <Parameters>
                   <InterpolatingParam id="5377" interp="linr"  time="0/1" value="1" leadInLength="0/1"  name="volume"/>
                   <Parameter id="5378"  name="captions"/>
                  </Parameters>
                  <Attributes>
                   <Attribute id="5379" value="" name="ident"/>
                   <Attribute id="5380" value="44100" name="sampleRate"/>
                   <Attribute id="5381" value="16" name="bitDepth"/>
                   <Attribute id="5382" value="1" name="gain"/>
                   <Attribute id="5383" value="0" name="mixToMono"/>
                  </Attributes>
                  <MetaData>
                   <entry key="WinSubProjectDisplayName" val=""/>
                  </MetaData>
                 </AMFile>
                 <AMFile id="5384" start="8468" duration="82" scalar="1/1" mediaStart="10641/1" mediaDuration="82/1" trackNumber="2" src="15" channelNumber="0,1" >
                  <Parameters>
                   <InterpolatingParam id="5385" interp="linr"  time="0/1" value="1" leadInLength="0/1"  name="volume"/>
                   <Parameter id="5386"  name="captions"/>
                  </Parameters>
                  <Attributes>
                   <Attribute id="5387" value="" name="ident"/>
                   <Attribute id="5388" value="44100" name="sampleRate"/>
                   <Attribute id="5389" value="16" name="bitDepth"/>
                   <Attribute id="5390" value="1" name="gain"/>
                   <Attribute id="5391" value="0" name="mixToMono"/>
                  </Attributes>
                  <MetaData>
                   <entry key="WinSubProjectDisplayName" val=""/>
                  </MetaData>
                 </AMFile>
                 <AMFile id="5392" start="8550" duration="143" scalar="1/1" mediaStart="10787/1" mediaDuration="143/1" trackNumber="2" src="15" channelNumber="0,1" >
                  <Parameters>
                   <InterpolatingParam id="5393" interp="linr"  time="0/1" value="1" leadInLength="0/1"  name="volume"/>
                   <Parameter id="5394"  name="captions"/>
                  </Parameters>
                  <Attributes>
                   <Attribute id="5395" value="" name="ident"/>
                   <Attribute id="5396" value="44100" name="sampleRate"/>
                   <Attribute id="5397" value="16" name="bitDepth"/>
                   <Attribute id="5398" value="1" name="gain"/>
                   <Attribute id="5399" value="0" name="mixToMono"/>
                  </Attributes>
                  <MetaData>
                   <entry key="WinSubProjectDisplayName" val=""/>
                  </MetaData>
                 </AMFile>
                 <AMFile id="5400" start="8693" duration="519" scalar="1/1" mediaStart="11110/1" mediaDuration="519/1" trackNumber="2" src="15" channelNumber="0,1" >
                  <Parameters>
                   <InterpolatingParam id="5401" interp="linr"  time="0/1" value="1" leadInLength="0/1"  name="volume"/>
                   <Parameter id="5402"  name="captions"/>
                  </Parameters>
                  <Attributes>
                   <Attribute id="5403" value="" name="ident"/>
                   <Attribute id="5404" value="44100" name="sampleRate"/>
                   <Attribute id="5405" value="16" name="bitDepth"/>
                   <Attribute id="5406" value="1" name="gain"/>
                   <Attribute id="5407" value="0" name="mixToMono"/>
                  </Attributes>
                  <MetaData>
                   <entry key="WinSubProjectDisplayName" val=""/>
                  </MetaData>
                 </AMFile>
                 <AMFile id="5408" start="9212" duration="242" scalar="1/1" mediaStart="11818/1" mediaDuration="242/1" trackNumber="2" src="15" channelNumber="0,1" >
                  <Parameters>
                   <InterpolatingParam id="5409" interp="linr"  time="0/1" value="1" leadInLength="0/1"  name="volume"/>
                   <Parameter id="5410"  name="captions"/>
                  </Parameters>
                  <Attributes>
                   <Attribute id="5411" value="" name="ident"/>
                   <Attribute id="5412" value="44100" name="sampleRate"/>
                   <Attribute id="5413" value="16" name="bitDepth"/>
                   <Attribute id="5414" value="1" name="gain"/>
                   <Attribute id="5415" value="0" name="mixToMono"/>
                  </Attributes>
                  <MetaData>
                   <entry key="WinSubProjectDisplayName" val=""/>
                  </MetaData>
                 </AMFile>
                </Medias>
               </GenericTrack>
              </StitchedMedia>
             </Medias>
            </GenericTrack>
            <GenericTrack id="5416"  >
             <Attributes>
              <Attribute id="5417" value="" name="ident"/>
              <Attribute id="5418" value="0" name="audioMuted"/>
              <Attribute id="5419" value="0" name="videoHidden"/>
             </Attributes>
             <MetaData>
              <entry key="IsLocked" val="False"/>
              <entry key="WinTrackHeight" val="0"/>
             </MetaData>
             <Medias>
              <StitchedMedia id="5420" start="0" duration="6314" scalar="1/1" mediaStart="0/1" mediaDuration="6314/1" minMediaStart="0/1" >
               <Transformer>
                <VectorParam id="5421"  name="translation">
                 <InterpolatingParam id="5422" interp="linr"  time="-9999999/1" value="0" leadInLength="0/1"  interpolater="leadin-linr"  />
                 <InterpolatingParam id="5423" interp="linr"  time="-9999999/1" value="0" leadInLength="0/1"  interpolater="leadin-linr"  />
                 <InterpolatingParam id="5424" interp="linr"  time="-9999999/1" value="0" leadInLength="0/1"  interpolater="leadin-linr"  />
                </VectorParam>
                <VectorParam id="5425"  name="rotation">
                 <InterpolatingParam id="5426" interp="linr"  time="-9999999/1" value="0" leadInLength="0/1"  interpolater="leadin-linr"  />
                 <InterpolatingParam id="5427" interp="linr"  time="-9999999/1" value="0" leadInLength="0/1"  interpolater="leadin-linr"  />
                 <InterpolatingParam id="5428" interp="linr"  time="-9999999/1" value="0" leadInLength="0/1"  interpolater="leadin-linr"  />
                </VectorParam>
                <VectorParam id="5429"  name="shear">
                 <InterpolatingParam id="5430" interp="linr"  time="-9999999/1" value="0" leadInLength="0/1"  interpolater="leadin-linr"  />
                 <InterpolatingParam id="5431" interp="linr"  time="-9999999/1" value="0" leadInLength="0/1"  interpolater="leadin-linr"  />
                 <InterpolatingParam id="5432" interp="linr"  time="-9999999/1" value="0" leadInLength="0/1"  interpolater="leadin-linr"  />
                </VectorParam>
                <VectorParam id="5433"  name="scale">
                 <InterpolatingParam id="5434" interp="linr"  time="-9999999/1" value="0.66666666666666663" leadInLength="0/1"  interpolater="leadin-linr"  />
                 <InterpolatingParam id="5435" interp="linr"  time="-9999999/1" value="0.66666666666666663" leadInLength="0/1"  interpolater="leadin-linr"  />
                 <InterpolatingParam id="5436" interp="linr"  time="-9999999/1" value="1" leadInLength="0/1"  interpolater="leadin-linr"  />
                </VectorParam>
                <VectorParam id="5437"  name="anchor">
                 <InterpolatingParam id="5438" interp="linr"  time="0/1" value="0" leadInLength="0/1"  />
                 <InterpolatingParam id="5439" interp="linr"  time="0/1" value="0" leadInLength="0/1"  />
                 <InterpolatingParam id="5440" interp="linr"  time="0/1" value="0" leadInLength="0/1"  />
                </VectorParam>
               </Transformer>
               <Parameters>
                <VectorParam id="5441"  name="sourceCrop">
                 <InterpolatingParam id="5442" interp="linr"  time="0/1" value="0" leadInLength="0/1"  />
                 <InterpolatingParam id="5443" interp="linr"  time="0/1" value="0" leadInLength="0/1"  />
                 <InterpolatingParam id="5444" interp="linr"  time="0/1" value="0" leadInLength="0/1"  />
                 <InterpolatingParam id="5445" interp="linr"  time="0/1" value="0" leadInLength="0/1"  />
                </VectorParam>
                <VectorParam id="5446"  name="geometryCrop">
                 <InterpolatingParam id="5447" interp="linr"  time="-9999999/1" value="0" leadInLength="0/1"  interpolater="leadin-linr"  />
                 <InterpolatingParam id="5448" interp="linr"  time="-9999999/1" value="0" leadInLength="0/1"  interpolater="leadin-linr"  />
                 <InterpolatingParam id="5449" interp="linr"  time="-9999999/1" value="0" leadInLength="0/1"  interpolater="leadin-linr"  />
                 <InterpolatingParam id="5450" interp="linr"  time="-9999999/1" value="0" leadInLength="0/1"  interpolater="leadin-linr"  />
                </VectorParam>
                <InterpolatingParam id="5451" interp="linr"  time="-9999999/1" value="1" leadInLength="0/1"  interpolater="leadin-linr"  name="opacity"/>
                <InterpolatingParam id="5452" interp="linr"  time="0/1" value="1" leadInLength="0/1"  name="cursorOpacity"/>
                <InterpolatingParam id="5453" interp="linr"  time="0/1" value="1" leadInLength="0/1"  name="cursorScale"/>
                <InterpolatingParam id="5454" interp="linr"  time="0/1" value="1" leadInLength="0/1"  name="volume"/>
                <Parameter id="5455"  name="captions"/>
               </Parameters>
               <Effects>
                <GenericEffect id="5456" name = "CursorBaseEffectName" >
                 <Parameters>
                 <InterpolatingParam id="5457" interp="linr"  time="-9999999/1" value="1" leadInLength="0/1"   name="cursorSize"/>
                 <InterpolatingParam id="5458" interp="linr"  time="-9999999/1" value="0" leadInLength="0/1"   name="highlightBlurRadius"/>
                 <InterpolatingParam id="5459" interp="linr"  time="-9999999/1" value="0" leadInLength="0/1"   name="highlightColorBlue"/>
                 <InterpolatingParam id="5460" interp="linr"  time="-9999999/1" value="255" leadInLength="0/1"   name="highlightColorGreen"/>
                 <InterpolatingParam id="5461" interp="linr"  time="-9999999/1" value="255" leadInLength="0/1"   name="highlightColorRed"/>
                 <InterpolatingParam id="5462" interp="linr"  time="-9999999/1" value="5" leadInLength="0/1"   name="highlightFeatherSize"/>
                 <InterpolatingParam id="5463" interp="linr"  time="-9999999/1" value="2" leadInLength="0/1"   name="highlightMagnification"/>
                 <InterpolatingParam id="5464" interp="linr"  time="-9999999/1" value="1" leadInLength="0/1"   name="highlightOpacity"/>
                 <InterpolatingParam id="5465" interp="linr"  time="-9999999/1" value="45" leadInLength="0/1"   name="highlightSize"/>
                 <Parameter id="5466"   name="highlightType">
                  <Keyframes>
                  <Keyframe id="5467"  time="-9999999/1" value="0" leadInLength="0/1"  />
                  </Keyframes>
                 </Parameter>
                 <InterpolatingParam id="5468" interp="linr"  time="-9999999/1" value="0" leadInLength="0/1"   name="leftClickColorBlue"/>
                 <InterpolatingParam id="5469" interp="linr"  time="-9999999/1" value="0" leadInLength="0/1"   name="leftClickColorGreen"/>
                 <InterpolatingParam id="5470" interp="linr"  time="-9999999/1" value="255" leadInLength="0/1"   name="leftClickColorRed"/>
                 <InterpolatingParam id="5471" interp="linr"  time="-9999999/1" value="0.80000000000000004" leadInLength="0/1"   name="leftClickDuration"/>
                 <InterpolatingParam id="5472" interp="linr"  time="-9999999/1" value="20" leadInLength="0/1"   name="leftClickSize"/>
                 <Parameter id="5473"   name="leftClickSoundFilename">
                  <Keyframes>
                  <Keyframe id="5474"  time="-9999999/1" value="" leadInLength="0/1"  />
                  </Keyframes>
                 </Parameter>
                 <InterpolatingParam id="5475" interp="linr"  time="-9999999/1" value="1" leadInLength="0/1"   name="leftClickSoundVolume"/>
                 <Parameter id="5476"   name="leftClickType">
                  <Keyframes>
                  <Keyframe id="5477"  time="-9999999/1" value="0" leadInLength="0/1"  />
                  </Keyframes>
                 </Parameter>
                 <InterpolatingParam id="5478" interp="linr"  time="-9999999/1" value="1" leadInLength="0/1"   name="opacity"/>
                 <InterpolatingParam id="5479" interp="linr"  time="-9999999/1" value="255" leadInLength="0/1"   name="rightClickColorBlue"/>
                 <InterpolatingParam id="5480" interp="linr"  time="-9999999/1" value="0" leadInLength="0/1"   name="rightClickColorGreen"/>
                 <InterpolatingParam id="5481" interp="linr"  time="-9999999/1" value="0" leadInLength="0/1"   name="rightClickColorRed"/>
                 <InterpolatingParam id="5482" interp="linr"  time="-9999999/1" value="0.80000000000000004" leadInLength="0/1"   name="rightClickDuration"/>
                 <InterpolatingParam id="5483" interp="linr"  time="-9999999/1" value="20" leadInLength="0/1"   name="rightClickSize"/>
                 <Parameter id="5484"   name="rightClickSoundFilename">
                  <Keyframes>
                  <Keyframe id="5485"  time="-9999999/1" value="" leadInLength="0/1"  />
                  </Keyframes>
                 </Parameter>
                 <InterpolatingParam id="5486" interp="linr"  time="-9999999/1" value="1" leadInLength="0/1"   name="rightClickSoundVolume"/>
                 <Parameter id="5487"   name="rightClickType">
                  <Keyframes>
                  <Keyframe id="5488"  time="-9999999/1" value="0" leadInLength="0/1"  />
                  </Keyframes>
                 </Parameter>
                 </Parameters>
                 <MetaData>
                  <entry key="effectIndex" val="0"/>
                 </MetaData>
                </GenericEffect>
               </Effects>
               <Attributes>
                <Attribute id="5489" value="" name="ident"/>
                <Attribute id="5490" value="0" name="mixToMono"/>
               </Attributes>
               <MetaData>
                <entry key="AutoAppliedSmartFocus" val="False"/>
                <entry key="WinSubProjectDisplayName" val=""/>
               </MetaData>
               <ExtraData>
                <Entry key="ZoomPanBin">
                 <ZoomPanBin id="5491"  >
                  <ZoomPanKeyframes>
                   <ZoomPanKeyframe id="5492" timeRangeEnd="-9999999/1" timeRangeDuration="0/1" interpolaterName="linr"  />
                  </ZoomPanKeyframes>
                 </ZoomPanBin>
                </Entry>
                <Entry key="CursorEffectBin">
                 <CursorEffectBin id="5493"  >
                  <CursorEffectKeyframes>
                   <CursorEffectKeyframe id="5494" timeRangeEnd="-9999999/1" timeRangeDuration="0/1" interpolaterName=""  />
                  </CursorEffectKeyframes>
                 </CursorEffectBin>
                </Entry>
               </ExtraData>
               <GenericTrack id="5495"  >
                <Attributes>
                 <Attribute id="5496" value="" name="ident"/>
                 <Attribute id="5497" value="0" name="audioMuted"/>
                 <Attribute id="5498" value="0" name="videoHidden"/>
                </Attributes>
                <MetaData>
                 <entry key="IsLocked" val="False"/>
                 <entry key="WinTrackHeight" val="0"/>
                </MetaData>
                <Medias>
                 <UnifiedMedia id="5499"  >
                  <AMFile id="5500" start="0" duration="3790" scalar="1/1" mediaStart="0/1" mediaDuration="3790/1" trackNumber="1" src="15" channelNumber="0,1" >
                   <Parameters>
                    <InterpolatingParam id="5501" interp="linr"  time="0/1" value="1" leadInLength="0/1"  name="volume"/>
                    <Parameter id="5502"  name="captions"/>
                   </Parameters>
                   <Attributes>
                    <Attribute id="5503" value="" name="ident"/>
                    <Attribute id="5504" value="44100" name="sampleRate"/>
                    <Attribute id="5505" value="16" name="bitDepth"/>
                    <Attribute id="5506" value="1" name="gain"/>
                    <Attribute id="5507" value="0" name="mixToMono"/>
                   </Attributes>
                  </AMFile>
                  <ScreenVMFile id="5508" start="0" duration="3790" scalar="1/1" mediaStart="0/1" mediaDuration="3790/1" trackNumber="0" src="15" >
                   <Transformer>
                    <VectorParam id="5509"  name="translation">
                     <InterpolatingParam id="5510" interp="linr"  time="-9999999/1" value="0" leadInLength="0/1"  />
                     <InterpolatingParam id="5511" interp="linr"  time="-9999999/1" value="0" leadInLength="0/1"  />
                     <InterpolatingParam id="5512" interp="linr"  time="-9999999/1" value="0" leadInLength="0/1"  />
                    </VectorParam>
                    <VectorParam id="5513"  name="rotation">
                     <InterpolatingParam id="5514" interp="linr"  time="-9999999/1" value="0" leadInLength="0/1"  />
                     <InterpolatingParam id="5515" interp="linr"  time="-9999999/1" value="0" leadInLength="0/1"  />
                     <InterpolatingParam id="5516" interp="linr"  time="-9999999/1" value="0" leadInLength="0/1"  />
                    </VectorParam>
                    <VectorParam id="5517"  name="shear">
                     <InterpolatingParam id="5518" interp="linr"  time="-9999999/1" value="0" leadInLength="0/1"  />
                     <InterpolatingParam id="5519" interp="linr"  time="-9999999/1" value="0" leadInLength="0/1"  />
                     <InterpolatingParam id="5520" interp="linr"  time="-9999999/1" value="0" leadInLength="0/1"  />
                    </VectorParam>
                    <VectorParam id="5521"  name="scale">
                     <InterpolatingParam id="5522" interp="linr"  time="-9999999/1" value="1" leadInLength="0/1"  />
                     <InterpolatingParam id="5523" interp="linr"  time="-9999999/1" value="1" leadInLength="0/1"  />
                     <InterpolatingParam id="5524" interp="linr"  time="-9999999/1" value="1" leadInLength="0/1"  />
                    </VectorParam>
                    <VectorParam id="5525"  name="anchor">
                     <InterpolatingParam id="5526" interp="linr"  time="0/1" value="0" leadInLength="0/1"  />
                     <InterpolatingParam id="5527" interp="linr"  time="0/1" value="0" leadInLength="0/1"  />
                     <InterpolatingParam id="5528" interp="linr"  time="0/1" value="0" leadInLength="0/1"  />
                    </VectorParam>
                   </Transformer>
                   <Parameters>
                    <VectorParam id="5529"  name="sourceCrop">
                     <InterpolatingParam id="5530" interp="linr"  time="0/1" value="0" leadInLength="0/1"  />
                     <InterpolatingParam id="5531" interp="linr"  time="0/1" value="0" leadInLength="0/1"  />
                     <InterpolatingParam id="5532" interp="linr"  time="0/1" value="0" leadInLength="0/1"  />
                     <InterpolatingParam id="5533" interp="linr"  time="0/1" value="0" leadInLength="0/1"  />
                    </VectorParam>
                    <VectorParam id="5534"  name="geometryCrop">
                     <InterpolatingParam id="5535" interp="linr"  time="-9999999/1" value="0" leadInLength="0/1"  />
                     <InterpolatingParam id="5536" interp="linr"  time="-9999999/1" value="0" leadInLength="0/1"  />
                     <InterpolatingParam id="5537" interp="linr"  time="-9999999/1" value="0" leadInLength="0/1"  />
                     <InterpolatingParam id="5538" interp="linr"  time="-9999999/1" value="0" leadInLength="0/1"  />
                    </VectorParam>
                    <InterpolatingParam id="5539" interp="linr"  time="-9999999/1" value="1" leadInLength="0/1"  name="opacity"/>
                    <InterpolatingParam id="5540" interp="linr"  time="0/1" value="0" leadInLength="0/1"  name="cursorOpacity"/>
                    <InterpolatingParam id="5541" interp="linr"  time="0/1" value="0" leadInLength="0/1"  name="cursorScale"/>
                   </Parameters>
                   <Attributes>
                    <Attribute id="5542" value="" name="ident"/>
                   </Attributes>
                   <ExtraData>
                    <Entry key="ZoomPanBin">
                     <ZoomPanBin id="5543"  >
                      <ZoomPanKeyframes>
                       <ZoomPanKeyframe id="5544" timeRangeEnd="-9999999/1" timeRangeDuration="0/1" interpolaterName="linr"  />
                      </ZoomPanKeyframes>
                     </ZoomPanBin>
                    </Entry>
                    <Entry key="CursorEffectBin">
                     <CursorEffectBin id="5545"  >
                      <CursorEffectKeyframes>
                      </CursorEffectKeyframes>
                     </CursorEffectBin>
                    </Entry>
                   </ExtraData>
                  </ScreenVMFile>
                  <MetaData>
                   <entry key="AutoAppliedSmartFocus" val="False"/>
                   <entry key="WinSubProjectDisplayName" val=""/>
                  </MetaData>
                 </UnifiedMedia>
                 <UnifiedMedia id="5546"  >
                  <AMFile id="5547" start="3790" duration="249" scalar="1/1" mediaStart="3920/1" mediaDuration="249/1" trackNumber="1" src="15" channelNumber="0,1" >
                   <Parameters>
                    <InterpolatingParam id="5548" interp="linr"  time="0/1" value="1" leadInLength="0/1"  name="volume"/>
                    <Parameter id="5549"  name="captions"/>
                   </Parameters>
                   <Attributes>
                    <Attribute id="5550" value="" name="ident"/>
                    <Attribute id="5551" value="44100" name="sampleRate"/>
                    <Attribute id="5552" value="16" name="bitDepth"/>
                    <Attribute id="5553" value="1" name="gain"/>
                    <Attribute id="5554" value="0" name="mixToMono"/>
                   </Attributes>
                  </AMFile>
                  <ScreenVMFile id="5555" start="3790" duration="249" scalar="1/1" mediaStart="3920/1" mediaDuration="249/1" trackNumber="0" src="15" >
                   <Transformer>
                    <VectorParam id="5556"  name="translation">
                     <InterpolatingParam id="5557" interp="linr"  time="-9999999/1" value="0" leadInLength="0/1"  />
                     <InterpolatingParam id="5558" interp="linr"  time="-9999999/1" value="0" leadInLength="0/1"  />
                     <InterpolatingParam id="5559" interp="linr"  time="-9999999/1" value="0" leadInLength="0/1"  />
                    </VectorParam>
                    <VectorParam id="5560"  name="rotation">
                     <InterpolatingParam id="5561" interp="linr"  time="-9999999/1" value="0" leadInLength="0/1"  />
                     <InterpolatingParam id="5562" interp="linr"  time="-9999999/1" value="0" leadInLength="0/1"  />
                     <InterpolatingParam id="5563" interp="linr"  time="-9999999/1" value="0" leadInLength="0/1"  />
                    </VectorParam>
                    <VectorParam id="5564"  name="shear">
                     <InterpolatingParam id="5565" interp="linr"  time="-9999999/1" value="0" leadInLength="0/1"  />
                     <InterpolatingParam id="5566" interp="linr"  time="-9999999/1" value="0" leadInLength="0/1"  />
                     <InterpolatingParam id="5567" interp="linr"  time="-9999999/1" value="0" leadInLength="0/1"  />
                    </VectorParam>
                    <VectorParam id="5568"  name="scale">
                     <InterpolatingParam id="5569" interp="linr"  time="-9999999/1" value="1" leadInLength="0/1"  />
                     <InterpolatingParam id="5570" interp="linr"  time="-9999999/1" value="1" leadInLength="0/1"  />
                     <InterpolatingParam id="5571" interp="linr"  time="-9999999/1" value="1" leadInLength="0/1"  />
                    </VectorParam>
                    <VectorParam id="5572"  name="anchor">
                     <InterpolatingParam id="5573" interp="linr"  time="0/1" value="0" leadInLength="0/1"  />
                     <InterpolatingParam id="5574" interp="linr"  time="0/1" value="0" leadInLength="0/1"  />
                     <InterpolatingParam id="5575" interp="linr"  time="0/1" value="0" leadInLength="0/1"  />
                    </VectorParam>
                   </Transformer>
                   <Parameters>
                    <VectorParam id="5576"  name="sourceCrop">
                     <InterpolatingParam id="5577" interp="linr"  time="0/1" value="0" leadInLength="0/1"  />
                     <InterpolatingParam id="5578" interp="linr"  time="0/1" value="0" leadInLength="0/1"  />
                     <InterpolatingParam id="5579" interp="linr"  time="0/1" value="0" leadInLength="0/1"  />
                     <InterpolatingParam id="5580" interp="linr"  time="0/1" value="0" leadInLength="0/1"  />
                    </VectorParam>
                    <VectorParam id="5581"  name="geometryCrop">
                     <InterpolatingParam id="5582" interp="linr"  time="-9999999/1" value="0" leadInLength="0/1"  />
                     <InterpolatingParam id="5583" interp="linr"  time="-9999999/1" value="0" leadInLength="0/1"  />
                     <InterpolatingParam id="5584" interp="linr"  time="-9999999/1" value="0" leadInLength="0/1"  />
                     <InterpolatingParam id="5585" interp="linr"  time="-9999999/1" value="0" leadInLength="0/1"  />
                    </VectorParam>
                    <InterpolatingParam id="5586" interp="linr"  time="-9999999/1" value="1" leadInLength="0/1"  name="opacity"/>
                    <InterpolatingParam id="5587" interp="linr"  time="0/1" value="0" leadInLength="0/1"  name="cursorOpacity"/>
                    <InterpolatingParam id="5588" interp="linr"  time="0/1" value="0" leadInLength="0/1"  name="cursorScale"/>
                   </Parameters>
                   <Attributes>
                    <Attribute id="5589" value="" name="ident"/>
                   </Attributes>
                   <ExtraData>
                    <Entry key="ZoomPanBin">
                     <ZoomPanBin id="5590"  >
                      <ZoomPanKeyframes>
                       <ZoomPanKeyframe id="5591" timeRangeEnd="-9999999/1" timeRangeDuration="0/1" interpolaterName="linr"  />
                      </ZoomPanKeyframes>
                     </ZoomPanBin>
                    </Entry>
                    <Entry key="CursorEffectBin">
                     <CursorEffectBin id="5592"  >
                      <CursorEffectKeyframes>
                      </CursorEffectKeyframes>
                     </CursorEffectBin>
                    </Entry>
                   </ExtraData>
                  </ScreenVMFile>
                  <MetaData>
                   <entry key="AutoAppliedSmartFocus" val="False"/>
                   <entry key="WinSubProjectDisplayName" val=""/>
                  </MetaData>
                 </UnifiedMedia>
                 <UnifiedMedia id="5593"  >
                  <AMFile id="5594" start="4039" duration="1436" scalar="1/1" mediaStart="4228/1" mediaDuration="1436/1" trackNumber="1" src="15" channelNumber="0,1" >
                   <Parameters>
                    <InterpolatingParam id="5595" interp="linr"  time="0/1" value="1" leadInLength="0/1"  name="volume"/>
                    <Parameter id="5596"  name="captions"/>
                   </Parameters>
                   <Attributes>
                    <Attribute id="5597" value="" name="ident"/>
                    <Attribute id="5598" value="44100" name="sampleRate"/>
                    <Attribute id="5599" value="16" name="bitDepth"/>
                    <Attribute id="5600" value="1" name="gain"/>
                    <Attribute id="5601" value="0" name="mixToMono"/>
                   </Attributes>
                  </AMFile>
                  <ScreenVMFile id="5602" start="4039" duration="1436" scalar="1/1" mediaStart="4228/1" mediaDuration="1436/1" trackNumber="0" src="15" >
                   <Transformer>
                    <VectorParam id="5603"  name="translation">
                     <InterpolatingParam id="5604" interp="linr"  time="-9999999/1" value="0" leadInLength="0/1"  />
                     <InterpolatingParam id="5605" interp="linr"  time="-9999999/1" value="0" leadInLength="0/1"  />
                     <InterpolatingParam id="5606" interp="linr"  time="-9999999/1" value="0" leadInLength="0/1"  />
                    </VectorParam>
                    <VectorParam id="5607"  name="rotation">
                     <InterpolatingParam id="5608" interp="linr"  time="-9999999/1" value="0" leadInLength="0/1"  />
                     <InterpolatingParam id="5609" interp="linr"  time="-9999999/1" value="0" leadInLength="0/1"  />
                     <InterpolatingParam id="5610" interp="linr"  time="-9999999/1" value="0" leadInLength="0/1"  />
                    </VectorParam>
                    <VectorParam id="5611"  name="shear">
                     <InterpolatingParam id="5612" interp="linr"  time="-9999999/1" value="0" leadInLength="0/1"  />
                     <InterpolatingParam id="5613" interp="linr"  time="-9999999/1" value="0" leadInLength="0/1"  />
                     <InterpolatingParam id="5614" interp="linr"  time="-9999999/1" value="0" leadInLength="0/1"  />
                    </VectorParam>
                    <VectorParam id="5615"  name="scale">
                     <InterpolatingParam id="5616" interp="linr"  time="-9999999/1" value="1" leadInLength="0/1"  />
                     <InterpolatingParam id="5617" interp="linr"  time="-9999999/1" value="1" leadInLength="0/1"  />
                     <InterpolatingParam id="5618" interp="linr"  time="-9999999/1" value="1" leadInLength="0/1"  />
                    </VectorParam>
                    <VectorParam id="5619"  name="anchor">
                     <InterpolatingParam id="5620" interp="linr"  time="0/1" value="0" leadInLength="0/1"  />
                     <InterpolatingParam id="5621" interp="linr"  time="0/1" value="0" leadInLength="0/1"  />
                     <InterpolatingParam id="5622" interp="linr"  time="0/1" value="0" leadInLength="0/1"  />
                    </VectorParam>
                   </Transformer>
                   <Parameters>
                    <VectorParam id="5623"  name="sourceCrop">
                     <InterpolatingParam id="5624" interp="linr"  time="0/1" value="0" leadInLength="0/1"  />
                     <InterpolatingParam id="5625" interp="linr"  time="0/1" value="0" leadInLength="0/1"  />
                     <InterpolatingParam id="5626" interp="linr"  time="0/1" value="0" leadInLength="0/1"  />
                     <InterpolatingParam id="5627" interp="linr"  time="0/1" value="0" leadInLength="0/1"  />
                    </VectorParam>
                    <VectorParam id="5628"  name="geometryCrop">
                     <InterpolatingParam id="5629" interp="linr"  time="-9999999/1" value="0" leadInLength="0/1"  />
                     <InterpolatingParam id="5630" interp="linr"  time="-9999999/1" value="0" leadInLength="0/1"  />
                     <InterpolatingParam id="5631" interp="linr"  time="-9999999/1" value="0" leadInLength="0/1"  />
                     <InterpolatingParam id="5632" interp="linr"  time="-9999999/1" value="0" leadInLength="0/1"  />
                    </VectorParam>
                    <InterpolatingParam id="5633" interp="linr"  time="-9999999/1" value="1" leadInLength="0/1"  name="opacity"/>
                    <InterpolatingParam id="5634" interp="linr"  time="0/1" value="0" leadInLength="0/1"  name="cursorOpacity"/>
                    <InterpolatingParam id="5635" interp="linr"  time="0/1" value="0" leadInLength="0/1"  name="cursorScale"/>
                   </Parameters>
                   <Attributes>
                    <Attribute id="5636" value="" name="ident"/>
                   </Attributes>
                   <ExtraData>
                    <Entry key="ZoomPanBin">
                     <ZoomPanBin id="5637"  >
                      <ZoomPanKeyframes>
                       <ZoomPanKeyframe id="5638" timeRangeEnd="-9999999/1" timeRangeDuration="0/1" interpolaterName="linr"  />
                      </ZoomPanKeyframes>
                     </ZoomPanBin>
                    </Entry>
                    <Entry key="CursorEffectBin">
                     <CursorEffectBin id="5639"  >
                      <CursorEffectKeyframes>
                      </CursorEffectKeyframes>
                     </CursorEffectBin>
                    </Entry>
                   </ExtraData>
                  </ScreenVMFile>
                  <MetaData>
                   <entry key="AutoAppliedSmartFocus" val="False"/>
                   <entry key="WinSubProjectDisplayName" val=""/>
                  </MetaData>
                 </UnifiedMedia>
                 <UnifiedMedia id="5640"  >
                  <AMFile id="5641" start="5475" duration="709" scalar="1/1" mediaStart="5672/1" mediaDuration="709/1" trackNumber="1" src="15" channelNumber="0,1" >
                   <Parameters>
                    <InterpolatingParam id="5642" interp="linr"  time="0/1" value="1" leadInLength="0/1"  name="volume"/>
                    <Parameter id="5643"  name="captions"/>
                   </Parameters>
                   <Attributes>
                    <Attribute id="5644" value="" name="ident"/>
                    <Attribute id="5645" value="44100" name="sampleRate"/>
                    <Attribute id="5646" value="16" name="bitDepth"/>
                    <Attribute id="5647" value="1" name="gain"/>
                    <Attribute id="5648" value="0" name="mixToMono"/>
                   </Attributes>
                  </AMFile>
                  <ScreenVMFile id="5649" start="5475" duration="709" scalar="1/1" mediaStart="5672/1" mediaDuration="709/1" trackNumber="0" src="15" >
                   <Transformer>
                    <VectorParam id="5650"  name="translation">
                     <InterpolatingParam id="5651" interp="linr"  time="-9999999/1" value="0" leadInLength="0/1"  />
                     <InterpolatingParam id="5652" interp="linr"  time="-9999999/1" value="0" leadInLength="0/1"  />
                     <InterpolatingParam id="5653" interp="linr"  time="-9999999/1" value="0" leadInLength="0/1"  />
                    </VectorParam>
                    <VectorParam id="5654"  name="rotation">
                     <InterpolatingParam id="5655" interp="linr"  time="-9999999/1" value="0" leadInLength="0/1"  />
                     <InterpolatingParam id="5656" interp="linr"  time="-9999999/1" value="0" leadInLength="0/1"  />
                     <InterpolatingParam id="5657" interp="linr"  time="-9999999/1" value="0" leadInLength="0/1"  />
                    </VectorParam>
                    <VectorParam id="5658"  name="shear">
                     <InterpolatingParam id="5659" interp="linr"  time="-9999999/1" value="0" leadInLength="0/1"  />
                     <InterpolatingParam id="5660" interp="linr"  time="-9999999/1" value="0" leadInLength="0/1"  />
                     <InterpolatingParam id="5661" interp="linr"  time="-9999999/1" value="0" leadInLength="0/1"  />
                    </VectorParam>
                    <VectorParam id="5662"  name="scale">
                     <InterpolatingParam id="5663" interp="linr"  time="-9999999/1" value="1" leadInLength="0/1"  />
                     <InterpolatingParam id="5664" interp="linr"  time="-9999999/1" value="1" leadInLength="0/1"  />
                     <InterpolatingParam id="5665" interp="linr"  time="-9999999/1" value="1" leadInLength="0/1"  />
                    </VectorParam>
                    <VectorParam id="5666"  name="anchor">
                     <InterpolatingParam id="5667" interp="linr"  time="0/1" value="0" leadInLength="0/1"  />
                     <InterpolatingParam id="5668" interp="linr"  time="0/1" value="0" leadInLength="0/1"  />
                     <InterpolatingParam id="5669" interp="linr"  time="0/1" value="0" leadInLength="0/1"  />
                    </VectorParam>
                   </Transformer>
                   <Parameters>
                    <VectorParam id="5670"  name="sourceCrop">
                     <InterpolatingParam id="5671" interp="linr"  time="0/1" value="0" leadInLength="0/1"  />
                     <InterpolatingParam id="5672" interp="linr"  time="0/1" value="0" leadInLength="0/1"  />
                     <InterpolatingParam id="5673" interp="linr"  time="0/1" value="0" leadInLength="0/1"  />
                     <InterpolatingParam id="5674" interp="linr"  time="0/1" value="0" leadInLength="0/1"  />
                    </VectorParam>
                    <VectorParam id="5675"  name="geometryCrop">
                     <InterpolatingParam id="5676" interp="linr"  time="-9999999/1" value="0" leadInLength="0/1"  />
                     <InterpolatingParam id="5677" interp="linr"  time="-9999999/1" value="0" leadInLength="0/1"  />
                     <InterpolatingParam id="5678" interp="linr"  time="-9999999/1" value="0" leadInLength="0/1"  />
                     <InterpolatingParam id="5679" interp="linr"  time="-9999999/1" value="0" leadInLength="0/1"  />
                    </VectorParam>
                    <InterpolatingParam id="5680" interp="linr"  time="-9999999/1" value="1" leadInLength="0/1"  name="opacity"/>
                    <InterpolatingParam id="5681" interp="linr"  time="0/1" value="0" leadInLength="0/1"  name="cursorOpacity"/>
                    <InterpolatingParam id="5682" interp="linr"  time="0/1" value="0" leadInLength="0/1"  name="cursorScale"/>
                   </Parameters>
                   <Attributes>
                    <Attribute id="5683" value="" name="ident"/>
                   </Attributes>
                   <ExtraData>
                    <Entry key="ZoomPanBin">
                     <ZoomPanBin id="5684"  >
                      <ZoomPanKeyframes>
                       <ZoomPanKeyframe id="5685" timeRangeEnd="-9999999/1" timeRangeDuration="0/1" interpolaterName="linr"  />
                      </ZoomPanKeyframes>
                     </ZoomPanBin>
                    </Entry>
                    <Entry key="CursorEffectBin">
                     <CursorEffectBin id="5686"  >
                      <CursorEffectKeyframes>
                      </CursorEffectKeyframes>
                     </CursorEffectBin>
                    </Entry>
                   </ExtraData>
                  </ScreenVMFile>
                  <MetaData>
                   <entry key="AutoAppliedSmartFocus" val="False"/>
                   <entry key="WinSubProjectDisplayName" val=""/>
                  </MetaData>
                 </UnifiedMedia>
                 <UnifiedMedia id="5687"  >
                  <AMFile id="5688" start="6184" duration="129" scalar="1/1" mediaStart="7271/1" mediaDuration="129/1" trackNumber="1" src="15" channelNumber="0,1" >
                   <Parameters>
                    <InterpolatingParam id="5689" interp="linr"  time="0/1" value="1" leadInLength="0/1"  name="volume"/>
                    <Parameter id="5690"  name="captions"/>
                   </Parameters>
                   <Attributes>
                    <Attribute id="5691" value="" name="ident"/>
                    <Attribute id="5692" value="44100" name="sampleRate"/>
                    <Attribute id="5693" value="16" name="bitDepth"/>
                    <Attribute id="5694" value="1" name="gain"/>
                    <Attribute id="5695" value="0" name="mixToMono"/>
                   </Attributes>
                  </AMFile>
                  <ScreenVMFile id="5696" start="6184" duration="129" scalar="1/1" mediaStart="7271/1" mediaDuration="129/1" trackNumber="0" src="15" >
                   <Transformer>
                    <VectorParam id="5697"  name="translation">
                     <InterpolatingParam id="5698" interp="linr"  time="-9999999/1" value="0" leadInLength="0/1"  />
                     <InterpolatingParam id="5699" interp="linr"  time="-9999999/1" value="0" leadInLength="0/1"  />
                     <InterpolatingParam id="5700" interp="linr"  time="-9999999/1" value="0" leadInLength="0/1"  />
                    </VectorParam>
                    <VectorParam id="5701"  name="rotation">
                     <InterpolatingParam id="5702" interp="linr"  time="-9999999/1" value="0" leadInLength="0/1"  />
                     <InterpolatingParam id="5703" interp="linr"  time="-9999999/1" value="0" leadInLength="0/1"  />
                     <InterpolatingParam id="5704" interp="linr"  time="-9999999/1" value="0" leadInLength="0/1"  />
                    </VectorParam>
                    <VectorParam id="5705"  name="shear">
                     <InterpolatingParam id="5706" interp="linr"  time="-9999999/1" value="0" leadInLength="0/1"  />
                     <InterpolatingParam id="5707" interp="linr"  time="-9999999/1" value="0" leadInLength="0/1"  />
                     <InterpolatingParam id="5708" interp="linr"  time="-9999999/1" value="0" leadInLength="0/1"  />
                    </VectorParam>
                    <VectorParam id="5709"  name="scale">
                     <InterpolatingParam id="5710" interp="linr"  time="-9999999/1" value="1" leadInLength="0/1"  />
                     <InterpolatingParam id="5711" interp="linr"  time="-9999999/1" value="1" leadInLength="0/1"  />
                     <InterpolatingParam id="5712" interp="linr"  time="-9999999/1" value="1" leadInLength="0/1"  />
                    </VectorParam>
                    <VectorParam id="5713"  name="anchor">
                     <InterpolatingParam id="5714" interp="linr"  time="0/1" value="0" leadInLength="0/1"  />
                     <InterpolatingParam id="5715" interp="linr"  time="0/1" value="0" leadInLength="0/1"  />
                     <InterpolatingParam id="5716" interp="linr"  time="0/1" value="0" leadInLength="0/1"  />
                    </VectorParam>
                   </Transformer>
                   <Parameters>
                    <VectorParam id="5717"  name="sourceCrop">
                     <InterpolatingParam id="5718" interp="linr"  time="0/1" value="0" leadInLength="0/1"  />
                     <InterpolatingParam id="5719" interp="linr"  time="0/1" value="0" leadInLength="0/1"  />
                     <InterpolatingParam id="5720" interp="linr"  time="0/1" value="0" leadInLength="0/1"  />
                     <InterpolatingParam id="5721" interp="linr"  time="0/1" value="0" leadInLength="0/1"  />
                    </VectorParam>
                    <VectorParam id="5722"  name="geometryCrop">
                     <InterpolatingParam id="5723" interp="linr"  time="-9999999/1" value="0" leadInLength="0/1"  />
                     <InterpolatingParam id="5724" interp="linr"  time="-9999999/1" value="0" leadInLength="0/1"  />
                     <InterpolatingParam id="5725" interp="linr"  time="-9999999/1" value="0" leadInLength="0/1"  />
                     <InterpolatingParam id="5726" interp="linr"  time="-9999999/1" value="0" leadInLength="0/1"  />
                    </VectorParam>
                    <InterpolatingParam id="5727" interp="linr"  time="-9999999/1" value="1" leadInLength="0/1"  name="opacity"/>
                    <InterpolatingParam id="5728" interp="linr"  time="0/1" value="0" leadInLength="0/1"  name="cursorOpacity"/>
                    <InterpolatingParam id="5729" interp="linr"  time="0/1" value="0" leadInLength="0/1"  name="cursorScale"/>
                   </Parameters>
                   <Attributes>
                    <Attribute id="5730" value="" name="ident"/>
                   </Attributes>
                   <ExtraData>
                    <Entry key="ZoomPanBin">
                     <ZoomPanBin id="5731"  >
                      <ZoomPanKeyframes>
                       <ZoomPanKeyframe id="5732" timeRangeEnd="-9999999/1" timeRangeDuration="0/1" interpolaterName="linr"  />
                      </ZoomPanKeyframes>
                     </ZoomPanBin>
                    </Entry>
                    <Entry key="CursorEffectBin">
                     <CursorEffectBin id="5733"  >
                      <CursorEffectKeyframes>
                      </CursorEffectKeyframes>
                     </CursorEffectBin>
                    </Entry>
                   </ExtraData>
                  </ScreenVMFile>
                  <MetaData>
                   <entry key="AutoAppliedSmartFocus" val="False"/>
                   <entry key="WinSubProjectDisplayName" val=""/>
                  </MetaData>
                 </UnifiedMedia>
                 <UnifiedMedia id="5734"  >
                  <AMFile id="5735" start="6313" duration="4633" scalar="1/1" mediaStart="7443/1" mediaDuration="4633/1" trackNumber="1" src="15" channelNumber="0,1" >
                   <Parameters>
                    <InterpolatingParam id="5736" interp="linr"  time="0/1" value="1" leadInLength="0/1"  name="volume"/>
                    <Parameter id="5737"  name="captions"/>
                   </Parameters>
                   <Attributes>
                    <Attribute id="5738" value="" name="ident"/>
                    <Attribute id="5739" value="44100" name="sampleRate"/>
                    <Attribute id="5740" value="16" name="bitDepth"/>
                    <Attribute id="5741" value="1" name="gain"/>
                    <Attribute id="5742" value="0" name="mixToMono"/>
                   </Attributes>
                  </AMFile>
                  <ScreenVMFile id="5743" start="6313" duration="4633" scalar="1/1" mediaStart="7443/1" mediaDuration="4633/1" trackNumber="0" src="15" >
                   <Transformer>
                    <VectorParam id="5744"  name="translation">
                     <InterpolatingParam id="5745" interp="linr"  time="-9999999/1" value="0" leadInLength="0/1"  />
                     <InterpolatingParam id="5746" interp="linr"  time="-9999999/1" value="0" leadInLength="0/1"  />
                     <InterpolatingParam id="5747" interp="linr"  time="-9999999/1" value="0" leadInLength="0/1"  />
                    </VectorParam>
                    <VectorParam id="5748"  name="rotation">
                     <InterpolatingParam id="5749" interp="linr"  time="-9999999/1" value="0" leadInLength="0/1"  />
                     <InterpolatingParam id="5750" interp="linr"  time="-9999999/1" value="0" leadInLength="0/1"  />
                     <InterpolatingParam id="5751" interp="linr"  time="-9999999/1" value="0" leadInLength="0/1"  />
                    </VectorParam>
                    <VectorParam id="5752"  name="shear">
                     <InterpolatingParam id="5753" interp="linr"  time="-9999999/1" value="0" leadInLength="0/1"  />
                     <InterpolatingParam id="5754" interp="linr"  time="-9999999/1" value="0" leadInLength="0/1"  />
                     <InterpolatingParam id="5755" interp="linr"  time="-9999999/1" value="0" leadInLength="0/1"  />
                    </VectorParam>
                    <VectorParam id="5756"  name="scale">
                     <InterpolatingParam id="5757" interp="linr"  time="-9999999/1" value="1" leadInLength="0/1"  />
                     <InterpolatingParam id="5758" interp="linr"  time="-9999999/1" value="1" leadInLength="0/1"  />
                     <InterpolatingParam id="5759" interp="linr"  time="-9999999/1" value="1" leadInLength="0/1"  />
                    </VectorParam>
                    <VectorParam id="5760"  name="anchor">
                     <InterpolatingParam id="5761" interp="linr"  time="0/1" value="0" leadInLength="0/1"  />
                     <InterpolatingParam id="5762" interp="linr"  time="0/1" value="0" leadInLength="0/1"  />
                     <InterpolatingParam id="5763" interp="linr"  time="0/1" value="0" leadInLength="0/1"  />
                    </VectorParam>
                   </Transformer>
                   <Parameters>
                    <VectorParam id="5764"  name="sourceCrop">
                     <InterpolatingParam id="5765" interp="linr"  time="0/1" value="0" leadInLength="0/1"  />
                     <InterpolatingParam id="5766" interp="linr"  time="0/1" value="0" leadInLength="0/1"  />
                     <InterpolatingParam id="5767" interp="linr"  time="0/1" value="0" leadInLength="0/1"  />
                     <InterpolatingParam id="5768" interp="linr"  time="0/1" value="0" leadInLength="0/1"  />
                    </VectorParam>
                    <VectorParam id="5769"  name="geometryCrop">
                     <InterpolatingParam id="5770" interp="linr"  time="-9999999/1" value="0" leadInLength="0/1"  />
                     <InterpolatingParam id="5771" interp="linr"  time="-9999999/1" value="0" leadInLength="0/1"  />
                     <InterpolatingParam id="5772" interp="linr"  time="-9999999/1" value="0" leadInLength="0/1"  />
                     <InterpolatingParam id="5773" interp="linr"  time="-9999999/1" value="0" leadInLength="0/1"  />
                    </VectorParam>
                    <InterpolatingParam id="5774" interp="linr"  time="-9999999/1" value="1" leadInLength="0/1"  name="opacity"/>
                    <InterpolatingParam id="5775" interp="linr"  time="0/1" value="0" leadInLength="0/1"  name="cursorOpacity"/>
                    <InterpolatingParam id="5776" interp="linr"  time="0/1" value="0" leadInLength="0/1"  name="cursorScale"/>
                   </Parameters>
                   <Attributes>
                    <Attribute id="5777" value="" name="ident"/>
                   </Attributes>
                   <ExtraData>
                    <Entry key="ZoomPanBin">
                     <ZoomPanBin id="5778"  >
                      <ZoomPanKeyframes>
                       <ZoomPanKeyframe id="5779" timeRangeEnd="-9999999/1" timeRangeDuration="0/1" interpolaterName="linr"  />
                      </ZoomPanKeyframes>
                     </ZoomPanBin>
                    </Entry>
                    <Entry key="CursorEffectBin">
                     <CursorEffectBin id="5780"  >
                      <CursorEffectKeyframes>
                      </CursorEffectKeyframes>
                     </CursorEffectBin>
                    </Entry>
                   </ExtraData>
                  </ScreenVMFile>
                  <MetaData>
                   <entry key="AutoAppliedSmartFocus" val="False"/>
                   <entry key="WinSubProjectDisplayName" val=""/>
                  </MetaData>
                 </UnifiedMedia>
                </Medias>
               </GenericTrack>
              </StitchedMedia>
              <StitchedMedia id="5781" start="6314" duration="2693" scalar="1/1" mediaStart="6622/1" mediaDuration="2693/1" minMediaStart="0/1" >
               <Transformer>
                <VectorParam id="5782"  name="translation">
                 <InterpolatingParam id="5783" interp="linr"  time="-9999999/1" value="0" leadInLength="0/1"  interpolater="leadin-linr"  />
                 <InterpolatingParam id="5784" interp="linr"  time="-9999999/1" value="0" leadInLength="0/1"  interpolater="leadin-linr"  />
                 <InterpolatingParam id="5785" interp="linr"  time="-9999999/1" value="0" leadInLength="0/1"  interpolater="leadin-linr"  />
                </VectorParam>
                <VectorParam id="5786"  name="rotation">
                 <InterpolatingParam id="5787" interp="linr"  time="-9999999/1" value="0" leadInLength="0/1"  interpolater="leadin-linr"  />
                 <InterpolatingParam id="5788" interp="linr"  time="-9999999/1" value="0" leadInLength="0/1"  interpolater="leadin-linr"  />
                 <InterpolatingParam id="5789" interp="linr"  time="-9999999/1" value="0" leadInLength="0/1"  interpolater="leadin-linr"  />
                </VectorParam>
                <VectorParam id="5790"  name="shear">
                 <InterpolatingParam id="5791" interp="linr"  time="-9999999/1" value="0" leadInLength="0/1"  interpolater="leadin-linr"  />
                 <InterpolatingParam id="5792" interp="linr"  time="-9999999/1" value="0" leadInLength="0/1"  interpolater="leadin-linr"  />
                 <InterpolatingParam id="5793" interp="linr"  time="-9999999/1" value="0" leadInLength="0/1"  interpolater="leadin-linr"  />
                </VectorParam>
                <VectorParam id="5794"  name="scale">
                 <InterpolatingParam id="5795" interp="linr"  time="-9999999/1" value="0.66666666666666663" leadInLength="0/1"  interpolater="leadin-linr"  />
                 <InterpolatingParam id="5796" interp="linr"  time="-9999999/1" value="0.66666666666666663" leadInLength="0/1"  interpolater="leadin-linr"  />
                 <InterpolatingParam id="5797" interp="linr"  time="-9999999/1" value="1" leadInLength="0/1"  interpolater="leadin-linr"  />
                </VectorParam>
                <VectorParam id="5798"  name="anchor">
                 <InterpolatingParam id="5799" interp="linr"  time="0/1" value="0" leadInLength="0/1"  />
                 <InterpolatingParam id="5800" interp="linr"  time="0/1" value="0" leadInLength="0/1"  />
                 <InterpolatingParam id="5801" interp="linr"  time="0/1" value="0" leadInLength="0/1"  />
                </VectorParam>
               </Transformer>
               <Parameters>
                <VectorParam id="5802"  name="sourceCrop">
                 <InterpolatingParam id="5803" interp="linr"  time="0/1" value="0" leadInLength="0/1"  />
                 <InterpolatingParam id="5804" interp="linr"  time="0/1" value="0" leadInLength="0/1"  />
                 <InterpolatingParam id="5805" interp="linr"  time="0/1" value="0" leadInLength="0/1"  />
                 <InterpolatingParam id="5806" interp="linr"  time="0/1" value="0" leadInLength="0/1"  />
                </VectorParam>
                <VectorParam id="5807"  name="geometryCrop">
                 <InterpolatingParam id="5808" interp="linr"  time="-9999999/1" value="0" leadInLength="0/1"  interpolater="leadin-linr"  />
                 <InterpolatingParam id="5809" interp="linr"  time="-9999999/1" value="0" leadInLength="0/1"  interpolater="leadin-linr"  />
                 <InterpolatingParam id="5810" interp="linr"  time="-9999999/1" value="0" leadInLength="0/1"  interpolater="leadin-linr"  />
                 <InterpolatingParam id="5811" interp="linr"  time="-9999999/1" value="0" leadInLength="0/1"  interpolater="leadin-linr"  />
                </VectorParam>
                <InterpolatingParam id="5812" interp="linr"  time="-9999999/1" value="1" leadInLength="0/1"  interpolater="leadin-linr"  name="opacity"/>
                <InterpolatingParam id="5813" interp="linr"  time="0/1" value="1" leadInLength="0/1"  name="cursorOpacity"/>
                <InterpolatingParam id="5814" interp="linr"  time="0/1" value="1" leadInLength="0/1"  name="cursorScale"/>
                <InterpolatingParam id="5815" interp="linr"  time="0/1" value="1" leadInLength="0/1"  name="volume"/>
                <Parameter id="5816"  name="captions"/>
               </Parameters>
               <Effects>
                <GenericEffect id="5817" name = "CursorBaseEffectName" >
                 <Parameters>
                 <InterpolatingParam id="5818" interp="linr"  time="-9999999/1" value="1" leadInLength="0/1"   name="cursorSize"/>
                 <InterpolatingParam id="5819" interp="linr"  time="-9999999/1" value="0" leadInLength="0/1"   name="highlightBlurRadius"/>
                 <InterpolatingParam id="5820" interp="linr"  time="-9999999/1" value="0" leadInLength="0/1"   name="highlightColorBlue"/>
                 <InterpolatingParam id="5821" interp="linr"  time="-9999999/1" value="255" leadInLength="0/1"   name="highlightColorGreen"/>
                 <InterpolatingParam id="5822" interp="linr"  time="-9999999/1" value="255" leadInLength="0/1"   name="highlightColorRed"/>
                 <InterpolatingParam id="5823" interp="linr"  time="-9999999/1" value="5" leadInLength="0/1"   name="highlightFeatherSize"/>
                 <InterpolatingParam id="5824" interp="linr"  time="-9999999/1" value="2" leadInLength="0/1"   name="highlightMagnification"/>
                 <InterpolatingParam id="5825" interp="linr"  time="-9999999/1" value="1" leadInLength="0/1"   name="highlightOpacity"/>
                 <InterpolatingParam id="5826" interp="linr"  time="-9999999/1" value="45" leadInLength="0/1"   name="highlightSize"/>
                 <Parameter id="5827"   name="highlightType">
                  <Keyframes>
                  <Keyframe id="5828"  time="-9999999/1" value="0" leadInLength="0/1"  />
                  </Keyframes>
                 </Parameter>
                 <InterpolatingParam id="5829" interp="linr"  time="-9999999/1" value="0" leadInLength="0/1"   name="leftClickColorBlue"/>
                 <InterpolatingParam id="5830" interp="linr"  time="-9999999/1" value="0" leadInLength="0/1"   name="leftClickColorGreen"/>
                 <InterpolatingParam id="5831" interp="linr"  time="-9999999/1" value="255" leadInLength="0/1"   name="leftClickColorRed"/>
                 <InterpolatingParam id="5832" interp="linr"  time="-9999999/1" value="0.80000000000000004" leadInLength="0/1"   name="leftClickDuration"/>
                 <InterpolatingParam id="5833" interp="linr"  time="-9999999/1" value="20" leadInLength="0/1"   name="leftClickSize"/>
                 <Parameter id="5834"   name="leftClickSoundFilename">
                  <Keyframes>
                  <Keyframe id="5835"  time="-9999999/1" value="" leadInLength="0/1"  />
                  </Keyframes>
                 </Parameter>
                 <InterpolatingParam id="5836" interp="linr"  time="-9999999/1" value="1" leadInLength="0/1"   name="leftClickSoundVolume"/>
                 <Parameter id="5837"   name="leftClickType">
                  <Keyframes>
                  <Keyframe id="5838"  time="-9999999/1" value="0" leadInLength="0/1"  />
                  </Keyframes>
                 </Parameter>
                 <InterpolatingParam id="5839" interp="linr"  time="-9999999/1" value="1" leadInLength="0/1"   name="opacity"/>
                 <InterpolatingParam id="5840" interp="linr"  time="-9999999/1" value="255" leadInLength="0/1"   name="rightClickColorBlue"/>
                 <InterpolatingParam id="5841" interp="linr"  time="-9999999/1" value="0" leadInLength="0/1"   name="rightClickColorGreen"/>
                 <InterpolatingParam id="5842" interp="linr"  time="-9999999/1" value="0" leadInLength="0/1"   name="rightClickColorRed"/>
                 <InterpolatingParam id="5843" interp="linr"  time="-9999999/1" value="0.80000000000000004" leadInLength="0/1"   name="rightClickDuration"/>
                 <InterpolatingParam id="5844" interp="linr"  time="-9999999/1" value="20" leadInLength="0/1"   name="rightClickSize"/>
                 <Parameter id="5845"   name="rightClickSoundFilename">
                  <Keyframes>
                  <Keyframe id="5846"  time="-9999999/1" value="" leadInLength="0/1"  />
                  </Keyframes>
                 </Parameter>
                 <InterpolatingParam id="5847" interp="linr"  time="-9999999/1" value="1" leadInLength="0/1"   name="rightClickSoundVolume"/>
                 <Parameter id="5848"   name="rightClickType">
                  <Keyframes>
                  <Keyframe id="5849"  time="-9999999/1" value="0" leadInLength="0/1"  />
                  </Keyframes>
                 </Parameter>
                 </Parameters>
                 <MetaData>
                  <entry key="effectIndex" val="0"/>
                 </MetaData>
                </GenericEffect>
               </Effects>
               <Attributes>
                <Attribute id="5850" value="" name="ident"/>
                <Attribute id="5851" value="0" name="mixToMono"/>
               </Attributes>
               <MetaData>
                <entry key="AutoAppliedSmartFocus" val="False"/>
                <entry key="WinSubProjectDisplayName" val=""/>
               </MetaData>
               <ExtraData>
                <Entry key="ZoomPanBin">
                 <ZoomPanBin id="5852"  >
                  <ZoomPanKeyframes>
                   <ZoomPanKeyframe id="5853" timeRangeEnd="-9999999/1" timeRangeDuration="0/1" interpolaterName="linr"  />
                  </ZoomPanKeyframes>
                 </ZoomPanBin>
                </Entry>
                <Entry key="CursorEffectBin">
                 <CursorEffectBin id="5854"  >
                  <CursorEffectKeyframes>
                   <CursorEffectKeyframe id="5855" timeRangeEnd="-9999999/1" timeRangeDuration="0/1" interpolaterName=""  />
                  </CursorEffectKeyframes>
                 </CursorEffectBin>
                </Entry>
               </ExtraData>
               <GenericTrack id="5856"  >
                <Attributes>
                 <Attribute id="5857" value="" name="ident"/>
                 <Attribute id="5858" value="0" name="audioMuted"/>
                 <Attribute id="5859" value="0" name="videoHidden"/>
                </Attributes>
                <MetaData>
                 <entry key="IsLocked" val="False"/>
                 <entry key="WinTrackHeight" val="0"/>
                </MetaData>
                <Medias>
                 <UnifiedMedia id="5860"  >
                  <AMFile id="5861" start="0" duration="3790" scalar="1/1" mediaStart="0/1" mediaDuration="3790/1" trackNumber="1" src="15" channelNumber="0,1" >
                   <Parameters>
                    <InterpolatingParam id="5862" interp="linr"  time="0/1" value="1" leadInLength="0/1"  name="volume"/>
                    <Parameter id="5863"  name="captions"/>
                   </Parameters>
                   <Attributes>
                    <Attribute id="5864" value="" name="ident"/>
                    <Attribute id="5865" value="44100" name="sampleRate"/>
                    <Attribute id="5866" value="16" name="bitDepth"/>
                    <Attribute id="5867" value="1" name="gain"/>
                    <Attribute id="5868" value="0" name="mixToMono"/>
                   </Attributes>
                  </AMFile>
                  <ScreenVMFile id="5869" start="0" duration="3790" scalar="1/1" mediaStart="0/1" mediaDuration="3790/1" trackNumber="0" src="15" >
                   <Transformer>
                    <VectorParam id="5870"  name="translation">
                     <InterpolatingParam id="5871" interp="linr"  time="-9999999/1" value="0" leadInLength="0/1"  />
                     <InterpolatingParam id="5872" interp="linr"  time="-9999999/1" value="0" leadInLength="0/1"  />
                     <InterpolatingParam id="5873" interp="linr"  time="-9999999/1" value="0" leadInLength="0/1"  />
                    </VectorParam>
                    <VectorParam id="5874"  name="rotation">
                     <InterpolatingParam id="5875" interp="linr"  time="-9999999/1" value="0" leadInLength="0/1"  />
                     <InterpolatingParam id="5876" interp="linr"  time="-9999999/1" value="0" leadInLength="0/1"  />
                     <InterpolatingParam id="5877" interp="linr"  time="-9999999/1" value="0" leadInLength="0/1"  />
                    </VectorParam>
                    <VectorParam id="5878"  name="shear">
                     <InterpolatingParam id="5879" interp="linr"  time="-9999999/1" value="0" leadInLength="0/1"  />
                     <InterpolatingParam id="5880" interp="linr"  time="-9999999/1" value="0" leadInLength="0/1"  />
                     <InterpolatingParam id="5881" interp="linr"  time="-9999999/1" value="0" leadInLength="0/1"  />
                    </VectorParam>
                    <VectorParam id="5882"  name="scale">
                     <InterpolatingParam id="5883" interp="linr"  time="-9999999/1" value="1" leadInLength="0/1"  />
                     <InterpolatingParam id="5884" interp="linr"  time="-9999999/1" value="1" leadInLength="0/1"  />
                     <InterpolatingParam id="5885" interp="linr"  time="-9999999/1" value="1" leadInLength="0/1"  />
                    </VectorParam>
                    <VectorParam id="5886"  name="anchor">
                     <InterpolatingParam id="5887" interp="linr"  time="0/1" value="0" leadInLength="0/1"  />
                     <InterpolatingParam id="5888" interp="linr"  time="0/1" value="0" leadInLength="0/1"  />
                     <InterpolatingParam id="5889" interp="linr"  time="0/1" value="0" leadInLength="0/1"  />
                    </VectorParam>
                   </Transformer>
                   <Parameters>
                    <VectorParam id="5890"  name="sourceCrop">
                     <InterpolatingParam id="5891" interp="linr"  time="0/1" value="0" leadInLength="0/1"  />
                     <InterpolatingParam id="5892" interp="linr"  time="0/1" value="0" leadInLength="0/1"  />
                     <InterpolatingParam id="5893" interp="linr"  time="0/1" value="0" leadInLength="0/1"  />
                     <InterpolatingParam id="5894" interp="linr"  time="0/1" value="0" leadInLength="0/1"  />
                    </VectorParam>
                    <VectorParam id="5895"  name="geometryCrop">
                     <InterpolatingParam id="5896" interp="linr"  time="-9999999/1" value="0" leadInLength="0/1"  />
                     <InterpolatingParam id="5897" interp="linr"  time="-9999999/1" value="0" leadInLength="0/1"  />
                     <InterpolatingParam id="5898" interp="linr"  time="-9999999/1" value="0" leadInLength="0/1"  />
                     <InterpolatingParam id="5899" interp="linr"  time="-9999999/1" value="0" leadInLength="0/1"  />
                    </VectorParam>
                    <InterpolatingParam id="5900" interp="linr"  time="-9999999/1" value="1" leadInLength="0/1"  name="opacity"/>
                    <InterpolatingParam id="5901" interp="linr"  time="0/1" value="0" leadInLength="0/1"  name="cursorOpacity"/>
                    <InterpolatingParam id="5902" interp="linr"  time="0/1" value="0" leadInLength="0/1"  name="cursorScale"/>
                   </Parameters>
                   <Attributes>
                    <Attribute id="5903" value="" name="ident"/>
                   </Attributes>
                   <ExtraData>
                    <Entry key="ZoomPanBin">
                     <ZoomPanBin id="5904"  >
                      <ZoomPanKeyframes>
                       <ZoomPanKeyframe id="5905" timeRangeEnd="-9999999/1" timeRangeDuration="0/1" interpolaterName="linr"  />
                      </ZoomPanKeyframes>
                     </ZoomPanBin>
                    </Entry>
                    <Entry key="CursorEffectBin">
                     <CursorEffectBin id="5906"  >
                      <CursorEffectKeyframes>
                      </CursorEffectKeyframes>
                     </CursorEffectBin>
                    </Entry>
                   </ExtraData>
                  </ScreenVMFile>
                  <MetaData>
                   <entry key="AutoAppliedSmartFocus" val="False"/>
                   <entry key="WinSubProjectDisplayName" val=""/>
                  </MetaData>
                 </UnifiedMedia>
                 <UnifiedMedia id="5907"  >
                  <AMFile id="5908" start="3790" duration="249" scalar="1/1" mediaStart="3920/1" mediaDuration="249/1" trackNumber="1" src="15" channelNumber="0,1" >
                   <Parameters>
                    <InterpolatingParam id="5909" interp="linr"  time="0/1" value="1" leadInLength="0/1"  name="volume"/>
                    <Parameter id="5910"  name="captions"/>
                   </Parameters>
                   <Attributes>
                    <Attribute id="5911" value="" name="ident"/>
                    <Attribute id="5912" value="44100" name="sampleRate"/>
                    <Attribute id="5913" value="16" name="bitDepth"/>
                    <Attribute id="5914" value="1" name="gain"/>
                    <Attribute id="5915" value="0" name="mixToMono"/>
                   </Attributes>
                  </AMFile>
                  <ScreenVMFile id="5916" start="3790" duration="249" scalar="1/1" mediaStart="3920/1" mediaDuration="249/1" trackNumber="0" src="15" >
                   <Transformer>
                    <VectorParam id="5917"  name="translation">
                     <InterpolatingParam id="5918" interp="linr"  time="-9999999/1" value="0" leadInLength="0/1"  />
                     <InterpolatingParam id="5919" interp="linr"  time="-9999999/1" value="0" leadInLength="0/1"  />
                     <InterpolatingParam id="5920" interp="linr"  time="-9999999/1" value="0" leadInLength="0/1"  />
                    </VectorParam>
                    <VectorParam id="5921"  name="rotation">
                     <InterpolatingParam id="5922" interp="linr"  time="-9999999/1" value="0" leadInLength="0/1"  />
                     <InterpolatingParam id="5923" interp="linr"  time="-9999999/1" value="0" leadInLength="0/1"  />
                     <InterpolatingParam id="5924" interp="linr"  time="-9999999/1" value="0" leadInLength="0/1"  />
                    </VectorParam>
                    <VectorParam id="5925"  name="shear">
                     <InterpolatingParam id="5926" interp="linr"  time="-9999999/1" value="0" leadInLength="0/1"  />
                     <InterpolatingParam id="5927" interp="linr"  time="-9999999/1" value="0" leadInLength="0/1"  />
                     <InterpolatingParam id="5928" interp="linr"  time="-9999999/1" value="0" leadInLength="0/1"  />
                    </VectorParam>
                    <VectorParam id="5929"  name="scale">
                     <InterpolatingParam id="5930" interp="linr"  time="-9999999/1" value="1" leadInLength="0/1"  />
                     <InterpolatingParam id="5931" interp="linr"  time="-9999999/1" value="1" leadInLength="0/1"  />
                     <InterpolatingParam id="5932" interp="linr"  time="-9999999/1" value="1" leadInLength="0/1"  />
                    </VectorParam>
                    <VectorParam id="5933"  name="anchor">
                     <InterpolatingParam id="5934" interp="linr"  time="0/1" value="0" leadInLength="0/1"  />
                     <InterpolatingParam id="5935" interp="linr"  time="0/1" value="0" leadInLength="0/1"  />
                     <InterpolatingParam id="5936" interp="linr"  time="0/1" value="0" leadInLength="0/1"  />
                    </VectorParam>
                   </Transformer>
                   <Parameters>
                    <VectorParam id="5937"  name="sourceCrop">
                     <InterpolatingParam id="5938" interp="linr"  time="0/1" value="0" leadInLength="0/1"  />
                     <InterpolatingParam id="5939" interp="linr"  time="0/1" value="0" leadInLength="0/1"  />
                     <InterpolatingParam id="5940" interp="linr"  time="0/1" value="0" leadInLength="0/1"  />
                     <InterpolatingParam id="5941" interp="linr"  time="0/1" value="0" leadInLength="0/1"  />
                    </VectorParam>
                    <VectorParam id="5942"  name="geometryCrop">
                     <InterpolatingParam id="5943" interp="linr"  time="-9999999/1" value="0" leadInLength="0/1"  />
                     <InterpolatingParam id="5944" interp="linr"  time="-9999999/1" value="0" leadInLength="0/1"  />
                     <InterpolatingParam id="5945" interp="linr"  time="-9999999/1" value="0" leadInLength="0/1"  />
                     <InterpolatingParam id="5946" interp="linr"  time="-9999999/1" value="0" leadInLength="0/1"  />
                    </VectorParam>
                    <InterpolatingParam id="5947" interp="linr"  time="-9999999/1" value="1" leadInLength="0/1"  name="opacity"/>
                    <InterpolatingParam id="5948" interp="linr"  time="0/1" value="0" leadInLength="0/1"  name="cursorOpacity"/>
                    <InterpolatingParam id="5949" interp="linr"  time="0/1" value="0" leadInLength="0/1"  name="cursorScale"/>
                   </Parameters>
                   <Attributes>
                    <Attribute id="5950" value="" name="ident"/>
                   </Attributes>
                   <ExtraData>
                    <Entry key="ZoomPanBin">
                     <ZoomPanBin id="5951"  >
                      <ZoomPanKeyframes>
                       <ZoomPanKeyframe id="5952" timeRangeEnd="-9999999/1" timeRangeDuration="0/1" interpolaterName="linr"  />
                      </ZoomPanKeyframes>
                     </ZoomPanBin>
                    </Entry>
                    <Entry key="CursorEffectBin">
                     <CursorEffectBin id="5953"  >
                      <CursorEffectKeyframes>
                      </CursorEffectKeyframes>
                     </CursorEffectBin>
                    </Entry>
                   </ExtraData>
                  </ScreenVMFile>
                  <MetaData>
                   <entry key="AutoAppliedSmartFocus" val="False"/>
                   <entry key="WinSubProjectDisplayName" val=""/>
                  </MetaData>
                 </UnifiedMedia>
                 <UnifiedMedia id="5954"  >
                  <AMFile id="5955" start="4039" duration="1436" scalar="1/1" mediaStart="4228/1" mediaDuration="1436/1" trackNumber="1" src="15" channelNumber="0,1" >
                   <Parameters>
                    <InterpolatingParam id="5956" interp="linr"  time="0/1" value="1" leadInLength="0/1"  name="volume"/>
                    <Parameter id="5957"  name="captions"/>
                   </Parameters>
                   <Attributes>
                    <Attribute id="5958" value="" name="ident"/>
                    <Attribute id="5959" value="44100" name="sampleRate"/>
                    <Attribute id="5960" value="16" name="bitDepth"/>
                    <Attribute id="5961" value="1" name="gain"/>
                    <Attribute id="5962" value="0" name="mixToMono"/>
                   </Attributes>
                  </AMFile>
                  <ScreenVMFile id="5963" start="4039" duration="1436" scalar="1/1" mediaStart="4228/1" mediaDuration="1436/1" trackNumber="0" src="15" >
                   <Transformer>
                    <VectorParam id="5964"  name="translation">
                     <InterpolatingParam id="5965" interp="linr"  time="-9999999/1" value="0" leadInLength="0/1"  />
                     <InterpolatingParam id="5966" interp="linr"  time="-9999999/1" value="0" leadInLength="0/1"  />
                     <InterpolatingParam id="5967" interp="linr"  time="-9999999/1" value="0" leadInLength="0/1"  />
                    </VectorParam>
                    <VectorParam id="5968"  name="rotation">
                     <InterpolatingParam id="5969" interp="linr"  time="-9999999/1" value="0" leadInLength="0/1"  />
                     <InterpolatingParam id="5970" interp="linr"  time="-9999999/1" value="0" leadInLength="0/1"  />
                     <InterpolatingParam id="5971" interp="linr"  time="-9999999/1" value="0" leadInLength="0/1"  />
                    </VectorParam>
                    <VectorParam id="5972"  name="shear">
                     <InterpolatingParam id="5973" interp="linr"  time="-9999999/1" value="0" leadInLength="0/1"  />
                     <InterpolatingParam id="5974" interp="linr"  time="-9999999/1" value="0" leadInLength="0/1"  />
                     <InterpolatingParam id="5975" interp="linr"  time="-9999999/1" value="0" leadInLength="0/1"  />
                    </VectorParam>
                    <VectorParam id="5976"  name="scale">
                     <InterpolatingParam id="5977" interp="linr"  time="-9999999/1" value="1" leadInLength="0/1"  />
                     <InterpolatingParam id="5978" interp="linr"  time="-9999999/1" value="1" leadInLength="0/1"  />
                     <InterpolatingParam id="5979" interp="linr"  time="-9999999/1" value="1" leadInLength="0/1"  />
                    </VectorParam>
                    <VectorParam id="5980"  name="anchor">
                     <InterpolatingParam id="5981" interp="linr"  time="0/1" value="0" leadInLength="0/1"  />
                     <InterpolatingParam id="5982" interp="linr"  time="0/1" value="0" leadInLength="0/1"  />
                     <InterpolatingParam id="5983" interp="linr"  time="0/1" value="0" leadInLength="0/1"  />
                    </VectorParam>
                   </Transformer>
                   <Parameters>
                    <VectorParam id="5984"  name="sourceCrop">
                     <InterpolatingParam id="5985" interp="linr"  time="0/1" value="0" leadInLength="0/1"  />
                     <InterpolatingParam id="5986" interp="linr"  time="0/1" value="0" leadInLength="0/1"  />
                     <InterpolatingParam id="5987" interp="linr"  time="0/1" value="0" leadInLength="0/1"  />
                     <InterpolatingParam id="5988" interp="linr"  time="0/1" value="0" leadInLength="0/1"  />
                    </VectorParam>
                    <VectorParam id="5989"  name="geometryCrop">
                     <InterpolatingParam id="5990" interp="linr"  time="-9999999/1" value="0" leadInLength="0/1"  />
                     <InterpolatingParam id="5991" interp="linr"  time="-9999999/1" value="0" leadInLength="0/1"  />
                     <InterpolatingParam id="5992" interp="linr"  time="-9999999/1" value="0" leadInLength="0/1"  />
                     <InterpolatingParam id="5993" interp="linr"  time="-9999999/1" value="0" leadInLength="0/1"  />
                    </VectorParam>
                    <InterpolatingParam id="5994" interp="linr"  time="-9999999/1" value="1" leadInLength="0/1"  name="opacity"/>
                    <InterpolatingParam id="5995" interp="linr"  time="0/1" value="0" leadInLength="0/1"  name="cursorOpacity"/>
                    <InterpolatingParam id="5996" interp="linr"  time="0/1" value="0" leadInLength="0/1"  name="cursorScale"/>
                   </Parameters>
                   <Attributes>
                    <Attribute id="5997" value="" name="ident"/>
                   </Attributes>
                   <ExtraData>
                    <Entry key="ZoomPanBin">
                     <ZoomPanBin id="5998"  >
                      <ZoomPanKeyframes>
                       <ZoomPanKeyframe id="5999" timeRangeEnd="-9999999/1" timeRangeDuration="0/1" interpolaterName="linr"  />
                      </ZoomPanKeyframes>
                     </ZoomPanBin>
                    </Entry>
                    <Entry key="CursorEffectBin">
                     <CursorEffectBin id="6000"  >
                      <CursorEffectKeyframes>
                      </CursorEffectKeyframes>
                     </CursorEffectBin>
                    </Entry>
                   </ExtraData>
                  </ScreenVMFile>
                  <MetaData>
                   <entry key="AutoAppliedSmartFocus" val="False"/>
                   <entry key="WinSubProjectDisplayName" val=""/>
                  </MetaData>
                 </UnifiedMedia>
                 <UnifiedMedia id="6001"  >
                  <AMFile id="6002" start="5475" duration="709" scalar="1/1" mediaStart="5672/1" mediaDuration="709/1" trackNumber="1" src="15" channelNumber="0,1" >
                   <Parameters>
                    <InterpolatingParam id="6003" interp="linr"  time="0/1" value="1" leadInLength="0/1"  name="volume"/>
                    <Parameter id="6004"  name="captions"/>
                   </Parameters>
                   <Attributes>
                    <Attribute id="6005" value="" name="ident"/>
                    <Attribute id="6006" value="44100" name="sampleRate"/>
                    <Attribute id="6007" value="16" name="bitDepth"/>
                    <Attribute id="6008" value="1" name="gain"/>
                    <Attribute id="6009" value="0" name="mixToMono"/>
                   </Attributes>
                  </AMFile>
                  <ScreenVMFile id="6010" start="5475" duration="709" scalar="1/1" mediaStart="5672/1" mediaDuration="709/1" trackNumber="0" src="15" >
                   <Transformer>
                    <VectorParam id="6011"  name="translation">
                     <InterpolatingParam id="6012" interp="linr"  time="-9999999/1" value="0" leadInLength="0/1"  />
                     <InterpolatingParam id="6013" interp="linr"  time="-9999999/1" value="0" leadInLength="0/1"  />
                     <InterpolatingParam id="6014" interp="linr"  time="-9999999/1" value="0" leadInLength="0/1"  />
                    </VectorParam>
                    <VectorParam id="6015"  name="rotation">
                     <InterpolatingParam id="6016" interp="linr"  time="-9999999/1" value="0" leadInLength="0/1"  />
                     <InterpolatingParam id="6017" interp="linr"  time="-9999999/1" value="0" leadInLength="0/1"  />
                     <InterpolatingParam id="6018" interp="linr"  time="-9999999/1" value="0" leadInLength="0/1"  />
                    </VectorParam>
                    <VectorParam id="6019"  name="shear">
                     <InterpolatingParam id="6020" interp="linr"  time="-9999999/1" value="0" leadInLength="0/1"  />
                     <InterpolatingParam id="6021" interp="linr"  time="-9999999/1" value="0" leadInLength="0/1"  />
                     <InterpolatingParam id="6022" interp="linr"  time="-9999999/1" value="0" leadInLength="0/1"  />
                    </VectorParam>
                    <VectorParam id="6023"  name="scale">
                     <InterpolatingParam id="6024" interp="linr"  time="-9999999/1" value="1" leadInLength="0/1"  />
                     <InterpolatingParam id="6025" interp="linr"  time="-9999999/1" value="1" leadInLength="0/1"  />
                     <InterpolatingParam id="6026" interp="linr"  time="-9999999/1" value="1" leadInLength="0/1"  />
                    </VectorParam>
                    <VectorParam id="6027"  name="anchor">
                     <InterpolatingParam id="6028" interp="linr"  time="0/1" value="0" leadInLength="0/1"  />
                     <InterpolatingParam id="6029" interp="linr"  time="0/1" value="0" leadInLength="0/1"  />
                     <InterpolatingParam id="6030" interp="linr"  time="0/1" value="0" leadInLength="0/1"  />
                    </VectorParam>
                   </Transformer>
                   <Parameters>
                    <VectorParam id="6031"  name="sourceCrop">
                     <InterpolatingParam id="6032" interp="linr"  time="0/1" value="0" leadInLength="0/1"  />
                     <InterpolatingParam id="6033" interp="linr"  time="0/1" value="0" leadInLength="0/1"  />
                     <InterpolatingParam id="6034" interp="linr"  time="0/1" value="0" leadInLength="0/1"  />
                     <InterpolatingParam id="6035" interp="linr"  time="0/1" value="0" leadInLength="0/1"  />
                    </VectorParam>
                    <VectorParam id="6036"  name="geometryCrop">
                     <InterpolatingParam id="6037" interp="linr"  time="-9999999/1" value="0" leadInLength="0/1"  />
                     <InterpolatingParam id="6038" interp="linr"  time="-9999999/1" value="0" leadInLength="0/1"  />
                     <InterpolatingParam id="6039" interp="linr"  time="-9999999/1" value="0" leadInLength="0/1"  />
                     <InterpolatingParam id="6040" interp="linr"  time="-9999999/1" value="0" leadInLength="0/1"  />
                    </VectorParam>
                    <InterpolatingParam id="6041" interp="linr"  time="-9999999/1" value="1" leadInLength="0/1"  name="opacity"/>
                    <InterpolatingParam id="6042" interp="linr"  time="0/1" value="0" leadInLength="0/1"  name="cursorOpacity"/>
                    <InterpolatingParam id="6043" interp="linr"  time="0/1" value="0" leadInLength="0/1"  name="cursorScale"/>
                   </Parameters>
                   <Attributes>
                    <Attribute id="6044" value="" name="ident"/>
                   </Attributes>
                   <ExtraData>
                    <Entry key="ZoomPanBin">
                     <ZoomPanBin id="6045"  >
                      <ZoomPanKeyframes>
                       <ZoomPanKeyframe id="6046" timeRangeEnd="-9999999/1" timeRangeDuration="0/1" interpolaterName="linr"  />
                      </ZoomPanKeyframes>
                     </ZoomPanBin>
                    </Entry>
                    <Entry key="CursorEffectBin">
                     <CursorEffectBin id="6047"  >
                      <CursorEffectKeyframes>
                      </CursorEffectKeyframes>
                     </CursorEffectBin>
                    </Entry>
                   </ExtraData>
                  </ScreenVMFile>
                  <MetaData>
                   <entry key="AutoAppliedSmartFocus" val="False"/>
                   <entry key="WinSubProjectDisplayName" val=""/>
                  </MetaData>
                 </UnifiedMedia>
                 <UnifiedMedia id="6048"  >
                  <AMFile id="6049" start="6184" duration="129" scalar="1/1" mediaStart="7271/1" mediaDuration="129/1" trackNumber="1" src="15" channelNumber="0,1" >
                   <Parameters>
                    <InterpolatingParam id="6050" interp="linr"  time="0/1" value="1" leadInLength="0/1"  name="volume"/>
                    <Parameter id="6051"  name="captions"/>
                   </Parameters>
                   <Attributes>
                    <Attribute id="6052" value="" name="ident"/>
                    <Attribute id="6053" value="44100" name="sampleRate"/>
                    <Attribute id="6054" value="16" name="bitDepth"/>
                    <Attribute id="6055" value="1" name="gain"/>
                    <Attribute id="6056" value="0" name="mixToMono"/>
                   </Attributes>
                  </AMFile>
                  <ScreenVMFile id="6057" start="6184" duration="129" scalar="1/1" mediaStart="7271/1" mediaDuration="129/1" trackNumber="0" src="15" >
                   <Transformer>
                    <VectorParam id="6058"  name="translation">
                     <InterpolatingParam id="6059" interp="linr"  time="-9999999/1" value="0" leadInLength="0/1"  />
                     <InterpolatingParam id="6060" interp="linr"  time="-9999999/1" value="0" leadInLength="0/1"  />
                     <InterpolatingParam id="6061" interp="linr"  time="-9999999/1" value="0" leadInLength="0/1"  />
                    </VectorParam>
                    <VectorParam id="6062"  name="rotation">
                     <InterpolatingParam id="6063" interp="linr"  time="-9999999/1" value="0" leadInLength="0/1"  />
                     <InterpolatingParam id="6064" interp="linr"  time="-9999999/1" value="0" leadInLength="0/1"  />
                     <InterpolatingParam id="6065" interp="linr"  time="-9999999/1" value="0" leadInLength="0/1"  />
                    </VectorParam>
                    <VectorParam id="6066"  name="shear">
                     <InterpolatingParam id="6067" interp="linr"  time="-9999999/1" value="0" leadInLength="0/1"  />
                     <InterpolatingParam id="6068" interp="linr"  time="-9999999/1" value="0" leadInLength="0/1"  />
                     <InterpolatingParam id="6069" interp="linr"  time="-9999999/1" value="0" leadInLength="0/1"  />
                    </VectorParam>
                    <VectorParam id="6070"  name="scale">
                     <InterpolatingParam id="6071" interp="linr"  time="-9999999/1" value="1" leadInLength="0/1"  />
                     <InterpolatingParam id="6072" interp="linr"  time="-9999999/1" value="1" leadInLength="0/1"  />
                     <InterpolatingParam id="6073" interp="linr"  time="-9999999/1" value="1" leadInLength="0/1"  />
                    </VectorParam>
                    <VectorParam id="6074"  name="anchor">
                     <InterpolatingParam id="6075" interp="linr"  time="0/1" value="0" leadInLength="0/1"  />
                     <InterpolatingParam id="6076" interp="linr"  time="0/1" value="0" leadInLength="0/1"  />
                     <InterpolatingParam id="6077" interp="linr"  time="0/1" value="0" leadInLength="0/1"  />
                    </VectorParam>
                   </Transformer>
                   <Parameters>
                    <VectorParam id="6078"  name="sourceCrop">
                     <InterpolatingParam id="6079" interp="linr"  time="0/1" value="0" leadInLength="0/1"  />
                     <InterpolatingParam id="6080" interp="linr"  time="0/1" value="0" leadInLength="0/1"  />
                     <InterpolatingParam id="6081" interp="linr"  time="0/1" value="0" leadInLength="0/1"  />
                     <InterpolatingParam id="6082" interp="linr"  time="0/1" value="0" leadInLength="0/1"  />
                    </VectorParam>
                    <VectorParam id="6083"  name="geometryCrop">
                     <InterpolatingParam id="6084" interp="linr"  time="-9999999/1" value="0" leadInLength="0/1"  />
                     <InterpolatingParam id="6085" interp="linr"  time="-9999999/1" value="0" leadInLength="0/1"  />
                     <InterpolatingParam id="6086" interp="linr"  time="-9999999/1" value="0" leadInLength="0/1"  />
                     <InterpolatingParam id="6087" interp="linr"  time="-9999999/1" value="0" leadInLength="0/1"  />
                    </VectorParam>
                    <InterpolatingParam id="6088" interp="linr"  time="-9999999/1" value="1" leadInLength="0/1"  name="opacity"/>
                    <InterpolatingParam id="6089" interp="linr"  time="0/1" value="0" leadInLength="0/1"  name="cursorOpacity"/>
                    <InterpolatingParam id="6090" interp="linr"  time="0/1" value="0" leadInLength="0/1"  name="cursorScale"/>
                   </Parameters>
                   <Attributes>
                    <Attribute id="6091" value="" name="ident"/>
                   </Attributes>
                   <ExtraData>
                    <Entry key="ZoomPanBin">
                     <ZoomPanBin id="6092"  >
                      <ZoomPanKeyframes>
                       <ZoomPanKeyframe id="6093" timeRangeEnd="-9999999/1" timeRangeDuration="0/1" interpolaterName="linr"  />
                      </ZoomPanKeyframes>
                     </ZoomPanBin>
                    </Entry>
                    <Entry key="CursorEffectBin">
                     <CursorEffectBin id="6094"  >
                      <CursorEffectKeyframes>
                      </CursorEffectKeyframes>
                     </CursorEffectBin>
                    </Entry>
                   </ExtraData>
                  </ScreenVMFile>
                  <MetaData>
                   <entry key="AutoAppliedSmartFocus" val="False"/>
                   <entry key="WinSubProjectDisplayName" val=""/>
                  </MetaData>
                 </UnifiedMedia>
                 <UnifiedMedia id="6095"  >
                  <AMFile id="6096" start="6313" duration="505" scalar="1/1" mediaStart="7443/1" mediaDuration="505/1" trackNumber="1" src="15" channelNumber="0,1" >
                   <Parameters>
                    <InterpolatingParam id="6097" interp="linr"  time="0/1" value="1" leadInLength="0/1"  name="volume"/>
                    <Parameter id="6098"  name="captions"/>
                   </Parameters>
                   <Attributes>
                    <Attribute id="6099" value="" name="ident"/>
                    <Attribute id="6100" value="44100" name="sampleRate"/>
                    <Attribute id="6101" value="16" name="bitDepth"/>
                    <Attribute id="6102" value="1" name="gain"/>
                    <Attribute id="6103" value="0" name="mixToMono"/>
                   </Attributes>
                  </AMFile>
                  <ScreenVMFile id="6104" start="6313" duration="505" scalar="1/1" mediaStart="7443/1" mediaDuration="505/1" trackNumber="0" src="15" >
                   <Transformer>
                    <VectorParam id="6105"  name="translation">
                     <InterpolatingParam id="6106" interp="linr"  time="-9999999/1" value="0" leadInLength="0/1"  />
                     <InterpolatingParam id="6107" interp="linr"  time="-9999999/1" value="0" leadInLength="0/1"  />
                     <InterpolatingParam id="6108" interp="linr"  time="-9999999/1" value="0" leadInLength="0/1"  />
                    </VectorParam>
                    <VectorParam id="6109"  name="rotation">
                     <InterpolatingParam id="6110" interp="linr"  time="-9999999/1" value="0" leadInLength="0/1"  />
                     <InterpolatingParam id="6111" interp="linr"  time="-9999999/1" value="0" leadInLength="0/1"  />
                     <InterpolatingParam id="6112" interp="linr"  time="-9999999/1" value="0" leadInLength="0/1"  />
                    </VectorParam>
                    <VectorParam id="6113"  name="shear">
                     <InterpolatingParam id="6114" interp="linr"  time="-9999999/1" value="0" leadInLength="0/1"  />
                     <InterpolatingParam id="6115" interp="linr"  time="-9999999/1" value="0" leadInLength="0/1"  />
                     <InterpolatingParam id="6116" interp="linr"  time="-9999999/1" value="0" leadInLength="0/1"  />
                    </VectorParam>
                    <VectorParam id="6117"  name="scale">
                     <InterpolatingParam id="6118" interp="linr"  time="-9999999/1" value="1" leadInLength="0/1"  />
                     <InterpolatingParam id="6119" interp="linr"  time="-9999999/1" value="1" leadInLength="0/1"  />
                     <InterpolatingParam id="6120" interp="linr"  time="-9999999/1" value="1" leadInLength="0/1"  />
                    </VectorParam>
                    <VectorParam id="6121"  name="anchor">
                     <InterpolatingParam id="6122" interp="linr"  time="0/1" value="0" leadInLength="0/1"  />
                     <InterpolatingParam id="6123" interp="linr"  time="0/1" value="0" leadInLength="0/1"  />
                     <InterpolatingParam id="6124" interp="linr"  time="0/1" value="0" leadInLength="0/1"  />
                    </VectorParam>
                   </Transformer>
                   <Parameters>
                    <VectorParam id="6125"  name="sourceCrop">
                     <InterpolatingParam id="6126" interp="linr"  time="0/1" value="0" leadInLength="0/1"  />
                     <InterpolatingParam id="6127" interp="linr"  time="0/1" value="0" leadInLength="0/1"  />
                     <InterpolatingParam id="6128" interp="linr"  time="0/1" value="0" leadInLength="0/1"  />
                     <InterpolatingParam id="6129" interp="linr"  time="0/1" value="0" leadInLength="0/1"  />
                    </VectorParam>
                    <VectorParam id="6130"  name="geometryCrop">
                     <InterpolatingParam id="6131" interp="linr"  time="-9999999/1" value="0" leadInLength="0/1"  />
                     <InterpolatingParam id="6132" interp="linr"  time="-9999999/1" value="0" leadInLength="0/1"  />
                     <InterpolatingParam id="6133" interp="linr"  time="-9999999/1" value="0" leadInLength="0/1"  />
                     <InterpolatingParam id="6134" interp="linr"  time="-9999999/1" value="0" leadInLength="0/1"  />
                    </VectorParam>
                    <InterpolatingParam id="6135" interp="linr"  time="-9999999/1" value="1" leadInLength="0/1"  name="opacity"/>
                    <InterpolatingParam id="6136" interp="linr"  time="0/1" value="0" leadInLength="0/1"  name="cursorOpacity"/>
                    <InterpolatingParam id="6137" interp="linr"  time="0/1" value="0" leadInLength="0/1"  name="cursorScale"/>
                   </Parameters>
                   <Attributes>
                    <Attribute id="6138" value="" name="ident"/>
                   </Attributes>
                   <ExtraData>
                    <Entry key="ZoomPanBin">
                     <ZoomPanBin id="6139"  >
                      <ZoomPanKeyframes>
                       <ZoomPanKeyframe id="6140" timeRangeEnd="-9999999/1" timeRangeDuration="0/1" interpolaterName="linr"  />
                      </ZoomPanKeyframes>
                     </ZoomPanBin>
                    </Entry>
                    <Entry key="CursorEffectBin">
                     <CursorEffectBin id="6141"  >
                      <CursorEffectKeyframes>
                      </CursorEffectKeyframes>
                     </CursorEffectBin>
                    </Entry>
                   </ExtraData>
                  </ScreenVMFile>
                  <MetaData>
                   <entry key="AutoAppliedSmartFocus" val="False"/>
                   <entry key="WinSubProjectDisplayName" val=""/>
                  </MetaData>
                 </UnifiedMedia>
                 <UnifiedMedia id="6142"  >
                  <AMFile id="6143" start="6818" duration="159" scalar="1/1" mediaStart="8101/1" mediaDuration="159/1" trackNumber="1" src="15" channelNumber="0,1" >
                   <Parameters>
                    <InterpolatingParam id="6144" interp="linr"  time="0/1" value="1" leadInLength="0/1"  name="volume"/>
                    <Parameter id="6145"  name="captions"/>
                   </Parameters>
                   <Attributes>
                    <Attribute id="6146" value="" name="ident"/>
                    <Attribute id="6147" value="44100" name="sampleRate"/>
                    <Attribute id="6148" value="16" name="bitDepth"/>
                    <Attribute id="6149" value="1" name="gain"/>
                    <Attribute id="6150" value="0" name="mixToMono"/>
                   </Attributes>
                  </AMFile>
                  <ScreenVMFile id="6151" start="6818" duration="159" scalar="1/1" mediaStart="8101/1" mediaDuration="159/1" trackNumber="0" src="15" >
                   <Transformer>
                    <VectorParam id="6152"  name="translation">
                     <InterpolatingParam id="6153" interp="linr"  time="-9999999/1" value="0" leadInLength="0/1"  />
                     <InterpolatingParam id="6154" interp="linr"  time="-9999999/1" value="0" leadInLength="0/1"  />
                     <InterpolatingParam id="6155" interp="linr"  time="-9999999/1" value="0" leadInLength="0/1"  />
                    </VectorParam>
                    <VectorParam id="6156"  name="rotation">
                     <InterpolatingParam id="6157" interp="linr"  time="-9999999/1" value="0" leadInLength="0/1"  />
                     <InterpolatingParam id="6158" interp="linr"  time="-9999999/1" value="0" leadInLength="0/1"  />
                     <InterpolatingParam id="6159" interp="linr"  time="-9999999/1" value="0" leadInLength="0/1"  />
                    </VectorParam>
                    <VectorParam id="6160"  name="shear">
                     <InterpolatingParam id="6161" interp="linr"  time="-9999999/1" value="0" leadInLength="0/1"  />
                     <InterpolatingParam id="6162" interp="linr"  time="-9999999/1" value="0" leadInLength="0/1"  />
                     <InterpolatingParam id="6163" interp="linr"  time="-9999999/1" value="0" leadInLength="0/1"  />
                    </VectorParam>
                    <VectorParam id="6164"  name="scale">
                     <InterpolatingParam id="6165" interp="linr"  time="-9999999/1" value="1" leadInLength="0/1"  />
                     <InterpolatingParam id="6166" interp="linr"  time="-9999999/1" value="1" leadInLength="0/1"  />
                     <InterpolatingParam id="6167" interp="linr"  time="-9999999/1" value="1" leadInLength="0/1"  />
                    </VectorParam>
                    <VectorParam id="6168"  name="anchor">
                     <InterpolatingParam id="6169" interp="linr"  time="0/1" value="0" leadInLength="0/1"  />
                     <InterpolatingParam id="6170" interp="linr"  time="0/1" value="0" leadInLength="0/1"  />
                     <InterpolatingParam id="6171" interp="linr"  time="0/1" value="0" leadInLength="0/1"  />
                    </VectorParam>
                   </Transformer>
                   <Parameters>
                    <VectorParam id="6172"  name="sourceCrop">
                     <InterpolatingParam id="6173" interp="linr"  time="0/1" value="0" leadInLength="0/1"  />
                     <InterpolatingParam id="6174" interp="linr"  time="0/1" value="0" leadInLength="0/1"  />
                     <InterpolatingParam id="6175" interp="linr"  time="0/1" value="0" leadInLength="0/1"  />
                     <InterpolatingParam id="6176" interp="linr"  time="0/1" value="0" leadInLength="0/1"  />
                    </VectorParam>
                    <VectorParam id="6177"  name="geometryCrop">
                     <InterpolatingParam id="6178" interp="linr"  time="-9999999/1" value="0" leadInLength="0/1"  />
                     <InterpolatingParam id="6179" interp="linr"  time="-9999999/1" value="0" leadInLength="0/1"  />
                     <InterpolatingParam id="6180" interp="linr"  time="-9999999/1" value="0" leadInLength="0/1"  />
                     <InterpolatingParam id="6181" interp="linr"  time="-9999999/1" value="0" leadInLength="0/1"  />
                    </VectorParam>
                    <InterpolatingParam id="6182" interp="linr"  time="-9999999/1" value="1" leadInLength="0/1"  name="opacity"/>
                    <InterpolatingParam id="6183" interp="linr"  time="0/1" value="0" leadInLength="0/1"  name="cursorOpacity"/>
                    <InterpolatingParam id="6184" interp="linr"  time="0/1" value="0" leadInLength="0/1"  name="cursorScale"/>
                   </Parameters>
                   <Attributes>
                    <Attribute id="6185" value="" name="ident"/>
                   </Attributes>
                   <ExtraData>
                    <Entry key="ZoomPanBin">
                     <ZoomPanBin id="6186"  >
                      <ZoomPanKeyframes>
                       <ZoomPanKeyframe id="6187" timeRangeEnd="-9999999/1" timeRangeDuration="0/1" interpolaterName="linr"  />
                      </ZoomPanKeyframes>
                     </ZoomPanBin>
                    </Entry>
                    <Entry key="CursorEffectBin">
                     <CursorEffectBin id="6188"  >
                      <CursorEffectKeyframes>
                      </CursorEffectKeyframes>
                     </CursorEffectBin>
                    </Entry>
                   </ExtraData>
                  </ScreenVMFile>
                  <MetaData>
                   <entry key="AutoAppliedSmartFocus" val="False"/>
                   <entry key="WinSubProjectDisplayName" val=""/>
                  </MetaData>
                 </UnifiedMedia>
                 <UnifiedMedia id="6189"  >
                  <AMFile id="6190" start="6977" duration="1491" scalar="1/1" mediaStart="8382/1" mediaDuration="1491/1" trackNumber="1" src="15" channelNumber="0,1" >
                   <Parameters>
                    <InterpolatingParam id="6191" interp="linr"  time="0/1" value="1" leadInLength="0/1"  name="volume"/>
                    <Parameter id="6192"  name="captions"/>
                   </Parameters>
                   <Attributes>
                    <Attribute id="6193" value="" name="ident"/>
                    <Attribute id="6194" value="44100" name="sampleRate"/>
                    <Attribute id="6195" value="16" name="bitDepth"/>
                    <Attribute id="6196" value="1" name="gain"/>
                    <Attribute id="6197" value="0" name="mixToMono"/>
                   </Attributes>
                  </AMFile>
                  <ScreenVMFile id="6198" start="6977" duration="1491" scalar="1/1" mediaStart="8382/1" mediaDuration="1491/1" trackNumber="0" src="15" >
                   <Transformer>
                    <VectorParam id="6199"  name="translation">
                     <InterpolatingParam id="6200" interp="linr"  time="-9999999/1" value="0" leadInLength="0/1"  />
                     <InterpolatingParam id="6201" interp="linr"  time="-9999999/1" value="0" leadInLength="0/1"  />
                     <InterpolatingParam id="6202" interp="linr"  time="-9999999/1" value="0" leadInLength="0/1"  />
                    </VectorParam>
                    <VectorParam id="6203"  name="rotation">
                     <InterpolatingParam id="6204" interp="linr"  time="-9999999/1" value="0" leadInLength="0/1"  />
                     <InterpolatingParam id="6205" interp="linr"  time="-9999999/1" value="0" leadInLength="0/1"  />
                     <InterpolatingParam id="6206" interp="linr"  time="-9999999/1" value="0" leadInLength="0/1"  />
                    </VectorParam>
                    <VectorParam id="6207"  name="shear">
                     <InterpolatingParam id="6208" interp="linr"  time="-9999999/1" value="0" leadInLength="0/1"  />
                     <InterpolatingParam id="6209" interp="linr"  time="-9999999/1" value="0" leadInLength="0/1"  />
                     <InterpolatingParam id="6210" interp="linr"  time="-9999999/1" value="0" leadInLength="0/1"  />
                    </VectorParam>
                    <VectorParam id="6211"  name="scale">
                     <InterpolatingParam id="6212" interp="linr"  time="-9999999/1" value="1" leadInLength="0/1"  />
                     <InterpolatingParam id="6213" interp="linr"  time="-9999999/1" value="1" leadInLength="0/1"  />
                     <InterpolatingParam id="6214" interp="linr"  time="-9999999/1" value="1" leadInLength="0/1"  />
                    </VectorParam>
                    <VectorParam id="6215"  name="anchor">
                     <InterpolatingParam id="6216" interp="linr"  time="0/1" value="0" leadInLength="0/1"  />
                     <InterpolatingParam id="6217" interp="linr"  time="0/1" value="0" leadInLength="0/1"  />
                     <InterpolatingParam id="6218" interp="linr"  time="0/1" value="0" leadInLength="0/1"  />
                    </VectorParam>
                   </Transformer>
                   <Parameters>
                    <VectorParam id="6219"  name="sourceCrop">
                     <InterpolatingParam id="6220" interp="linr"  time="0/1" value="0" leadInLength="0/1"  />
                     <InterpolatingParam id="6221" interp="linr"  time="0/1" value="0" leadInLength="0/1"  />
                     <InterpolatingParam id="6222" interp="linr"  time="0/1" value="0" leadInLength="0/1"  />
                     <InterpolatingParam id="6223" interp="linr"  time="0/1" value="0" leadInLength="0/1"  />
                    </VectorParam>
                    <VectorParam id="6224"  name="geometryCrop">
                     <InterpolatingParam id="6225" interp="linr"  time="-9999999/1" value="0" leadInLength="0/1"  />
                     <InterpolatingParam id="6226" interp="linr"  time="-9999999/1" value="0" leadInLength="0/1"  />
                     <InterpolatingParam id="6227" interp="linr"  time="-9999999/1" value="0" leadInLength="0/1"  />
                     <InterpolatingParam id="6228" interp="linr"  time="-9999999/1" value="0" leadInLength="0/1"  />
                    </VectorParam>
                    <InterpolatingParam id="6229" interp="linr"  time="-9999999/1" value="1" leadInLength="0/1"  name="opacity"/>
                    <InterpolatingParam id="6230" interp="linr"  time="0/1" value="0" leadInLength="0/1"  name="cursorOpacity"/>
                    <InterpolatingParam id="6231" interp="linr"  time="0/1" value="0" leadInLength="0/1"  name="cursorScale"/>
                   </Parameters>
                   <Attributes>
                    <Attribute id="6232" value="" name="ident"/>
                   </Attributes>
                   <ExtraData>
                    <Entry key="ZoomPanBin">
                     <ZoomPanBin id="6233"  >
                      <ZoomPanKeyframes>
                       <ZoomPanKeyframe id="6234" timeRangeEnd="-9999999/1" timeRangeDuration="0/1" interpolaterName="linr"  />
                      </ZoomPanKeyframes>
                     </ZoomPanBin>
                    </Entry>
                    <Entry key="CursorEffectBin">
                     <CursorEffectBin id="6235"  >
                      <CursorEffectKeyframes>
                      </CursorEffectKeyframes>
                     </CursorEffectBin>
                    </Entry>
                   </ExtraData>
                  </ScreenVMFile>
                  <MetaData>
                   <entry key="AutoAppliedSmartFocus" val="False"/>
                   <entry key="WinSubProjectDisplayName" val=""/>
                  </MetaData>
                 </UnifiedMedia>
                 <UnifiedMedia id="6236"  >
                  <AMFile id="6237" start="8468" duration="82" scalar="1/1" mediaStart="10641/1" mediaDuration="82/1" trackNumber="1" src="15" channelNumber="0,1" >
                   <Parameters>
                    <InterpolatingParam id="6238" interp="linr"  time="0/1" value="1" leadInLength="0/1"  name="volume"/>
                    <Parameter id="6239"  name="captions"/>
                   </Parameters>
                   <Attributes>
                    <Attribute id="6240" value="" name="ident"/>
                    <Attribute id="6241" value="44100" name="sampleRate"/>
                    <Attribute id="6242" value="16" name="bitDepth"/>
                    <Attribute id="6243" value="1" name="gain"/>
                    <Attribute id="6244" value="0" name="mixToMono"/>
                   </Attributes>
                  </AMFile>
                  <ScreenVMFile id="6245" start="8468" duration="82" scalar="1/1" mediaStart="10641/1" mediaDuration="82/1" trackNumber="0" src="15" >
                   <Transformer>
                    <VectorParam id="6246"  name="translation">
                     <InterpolatingParam id="6247" interp="linr"  time="-9999999/1" value="0" leadInLength="0/1"  />
                     <InterpolatingParam id="6248" interp="linr"  time="-9999999/1" value="0" leadInLength="0/1"  />
                     <InterpolatingParam id="6249" interp="linr"  time="-9999999/1" value="0" leadInLength="0/1"  />
                    </VectorParam>
                    <VectorParam id="6250"  name="rotation">
                     <InterpolatingParam id="6251" interp="linr"  time="-9999999/1" value="0" leadInLength="0/1"  />
                     <InterpolatingParam id="6252" interp="linr"  time="-9999999/1" value="0" leadInLength="0/1"  />
                     <InterpolatingParam id="6253" interp="linr"  time="-9999999/1" value="0" leadInLength="0/1"  />
                    </VectorParam>
                    <VectorParam id="6254"  name="shear">
                     <InterpolatingParam id="6255" interp="linr"  time="-9999999/1" value="0" leadInLength="0/1"  />
                     <InterpolatingParam id="6256" interp="linr"  time="-9999999/1" value="0" leadInLength="0/1"  />
                     <InterpolatingParam id="6257" interp="linr"  time="-9999999/1" value="0" leadInLength="0/1"  />
                    </VectorParam>
                    <VectorParam id="6258"  name="scale">
                     <InterpolatingParam id="6259" interp="linr"  time="-9999999/1" value="1" leadInLength="0/1"  />
                     <InterpolatingParam id="6260" interp="linr"  time="-9999999/1" value="1" leadInLength="0/1"  />
                     <InterpolatingParam id="6261" interp="linr"  time="-9999999/1" value="1" leadInLength="0/1"  />
                    </VectorParam>
                    <VectorParam id="6262"  name="anchor">
                     <InterpolatingParam id="6263" interp="linr"  time="0/1" value="0" leadInLength="0/1"  />
                     <InterpolatingParam id="6264" interp="linr"  time="0/1" value="0" leadInLength="0/1"  />
                     <InterpolatingParam id="6265" interp="linr"  time="0/1" value="0" leadInLength="0/1"  />
                    </VectorParam>
                   </Transformer>
                   <Parameters>
                    <VectorParam id="6266"  name="sourceCrop">
                     <InterpolatingParam id="6267" interp="linr"  time="0/1" value="0" leadInLength="0/1"  />
                     <InterpolatingParam id="6268" interp="linr"  time="0/1" value="0" leadInLength="0/1"  />
                     <InterpolatingParam id="6269" interp="linr"  time="0/1" value="0" leadInLength="0/1"  />
                     <InterpolatingParam id="6270" interp="linr"  time="0/1" value="0" leadInLength="0/1"  />
                    </VectorParam>
                    <VectorParam id="6271"  name="geometryCrop">
                     <InterpolatingParam id="6272" interp="linr"  time="-9999999/1" value="0" leadInLength="0/1"  />
                     <InterpolatingParam id="6273" interp="linr"  time="-9999999/1" value="0" leadInLength="0/1"  />
                     <InterpolatingParam id="6274" interp="linr"  time="-9999999/1" value="0" leadInLength="0/1"  />
                     <InterpolatingParam id="6275" interp="linr"  time="-9999999/1" value="0" leadInLength="0/1"  />
                    </VectorParam>
                    <InterpolatingParam id="6276" interp="linr"  time="-9999999/1" value="1" leadInLength="0/1"  name="opacity"/>
                    <InterpolatingParam id="6277" interp="linr"  time="0/1" value="0" leadInLength="0/1"  name="cursorOpacity"/>
                    <InterpolatingParam id="6278" interp="linr"  time="0/1" value="0" leadInLength="0/1"  name="cursorScale"/>
                   </Parameters>
                   <Attributes>
                    <Attribute id="6279" value="" name="ident"/>
                   </Attributes>
                   <ExtraData>
                    <Entry key="ZoomPanBin">
                     <ZoomPanBin id="6280"  >
                      <ZoomPanKeyframes>
                       <ZoomPanKeyframe id="6281" timeRangeEnd="-9999999/1" timeRangeDuration="0/1" interpolaterName="linr"  />
                      </ZoomPanKeyframes>
                     </ZoomPanBin>
                    </Entry>
                    <Entry key="CursorEffectBin">
                     <CursorEffectBin id="6282"  >
                      <CursorEffectKeyframes>
                      </CursorEffectKeyframes>
                     </CursorEffectBin>
                    </Entry>
                   </ExtraData>
                  </ScreenVMFile>
                  <MetaData>
                   <entry key="AutoAppliedSmartFocus" val="False"/>
                   <entry key="WinSubProjectDisplayName" val=""/>
                  </MetaData>
                 </UnifiedMedia>
                 <UnifiedMedia id="6283"  >
                  <AMFile id="6284" start="8550" duration="143" scalar="1/1" mediaStart="10787/1" mediaDuration="143/1" trackNumber="1" src="15" channelNumber="0,1" >
                   <Parameters>
                    <InterpolatingParam id="6285" interp="linr"  time="0/1" value="1" leadInLength="0/1"  name="volume"/>
                    <Parameter id="6286"  name="captions"/>
                   </Parameters>
                   <Attributes>
                    <Attribute id="6287" value="" name="ident"/>
                    <Attribute id="6288" value="44100" name="sampleRate"/>
                    <Attribute id="6289" value="16" name="bitDepth"/>
                    <Attribute id="6290" value="1" name="gain"/>
                    <Attribute id="6291" value="0" name="mixToMono"/>
                   </Attributes>
                  </AMFile>
                  <ScreenVMFile id="6292" start="8550" duration="143" scalar="1/1" mediaStart="10787/1" mediaDuration="143/1" trackNumber="0" src="15" >
                   <Transformer>
                    <VectorParam id="6293"  name="translation">
                     <InterpolatingParam id="6294" interp="linr"  time="-9999999/1" value="0" leadInLength="0/1"  />
                     <InterpolatingParam id="6295" interp="linr"  time="-9999999/1" value="0" leadInLength="0/1"  />
                     <InterpolatingParam id="6296" interp="linr"  time="-9999999/1" value="0" leadInLength="0/1"  />
                    </VectorParam>
                    <VectorParam id="6297"  name="rotation">
                     <InterpolatingParam id="6298" interp="linr"  time="-9999999/1" value="0" leadInLength="0/1"  />
                     <InterpolatingParam id="6299" interp="linr"  time="-9999999/1" value="0" leadInLength="0/1"  />
                     <InterpolatingParam id="6300" interp="linr"  time="-9999999/1" value="0" leadInLength="0/1"  />
                    </VectorParam>
                    <VectorParam id="6301"  name="shear">
                     <InterpolatingParam id="6302" interp="linr"  time="-9999999/1" value="0" leadInLength="0/1"  />
                     <InterpolatingParam id="6303" interp="linr"  time="-9999999/1" value="0" leadInLength="0/1"  />
                     <InterpolatingParam id="6304" interp="linr"  time="-9999999/1" value="0" leadInLength="0/1"  />
                    </VectorParam>
                    <VectorParam id="6305"  name="scale">
                     <InterpolatingParam id="6306" interp="linr"  time="-9999999/1" value="1" leadInLength="0/1"  />
                     <InterpolatingParam id="6307" interp="linr"  time="-9999999/1" value="1" leadInLength="0/1"  />
                     <InterpolatingParam id="6308" interp="linr"  time="-9999999/1" value="1" leadInLength="0/1"  />
                    </VectorParam>
                    <VectorParam id="6309"  name="anchor">
                     <InterpolatingParam id="6310" interp="linr"  time="0/1" value="0" leadInLength="0/1"  />
                     <InterpolatingParam id="6311" interp="linr"  time="0/1" value="0" leadInLength="0/1"  />
                     <InterpolatingParam id="6312" interp="linr"  time="0/1" value="0" leadInLength="0/1"  />
                    </VectorParam>
                   </Transformer>
                   <Parameters>
                    <VectorParam id="6313"  name="sourceCrop">
                     <InterpolatingParam id="6314" interp="linr"  time="0/1" value="0" leadInLength="0/1"  />
                     <InterpolatingParam id="6315" interp="linr"  time="0/1" value="0" leadInLength="0/1"  />
                     <InterpolatingParam id="6316" interp="linr"  time="0/1" value="0" leadInLength="0/1"  />
                     <InterpolatingParam id="6317" interp="linr"  time="0/1" value="0" leadInLength="0/1"  />
                    </VectorParam>
                    <VectorParam id="6318"  name="geometryCrop">
                     <InterpolatingParam id="6319" interp="linr"  time="-9999999/1" value="0" leadInLength="0/1"  />
                     <InterpolatingParam id="6320" interp="linr"  time="-9999999/1" value="0" leadInLength="0/1"  />
                     <InterpolatingParam id="6321" interp="linr"  time="-9999999/1" value="0" leadInLength="0/1"  />
                     <InterpolatingParam id="6322" interp="linr"  time="-9999999/1" value="0" leadInLength="0/1"  />
                    </VectorParam>
                    <InterpolatingParam id="6323" interp="linr"  time="-9999999/1" value="1" leadInLength="0/1"  name="opacity"/>
                    <InterpolatingParam id="6324" interp="linr"  time="0/1" value="0" leadInLength="0/1"  name="cursorOpacity"/>
                    <InterpolatingParam id="6325" interp="linr"  time="0/1" value="0" leadInLength="0/1"  name="cursorScale"/>
                   </Parameters>
                   <Attributes>
                    <Attribute id="6326" value="" name="ident"/>
                   </Attributes>
                   <ExtraData>
                    <Entry key="ZoomPanBin">
                     <ZoomPanBin id="6327"  >
                      <ZoomPanKeyframes>
                       <ZoomPanKeyframe id="6328" timeRangeEnd="-9999999/1" timeRangeDuration="0/1" interpolaterName="linr"  />
                      </ZoomPanKeyframes>
                     </ZoomPanBin>
                    </Entry>
                    <Entry key="CursorEffectBin">
                     <CursorEffectBin id="6329"  >
                      <CursorEffectKeyframes>
                      </CursorEffectKeyframes>
                     </CursorEffectBin>
                    </Entry>
                   </ExtraData>
                  </ScreenVMFile>
                  <MetaData>
                   <entry key="AutoAppliedSmartFocus" val="False"/>
                   <entry key="WinSubProjectDisplayName" val=""/>
                  </MetaData>
                 </UnifiedMedia>
                 <UnifiedMedia id="6330"  >
                  <AMFile id="6331" start="8693" duration="519" scalar="1/1" mediaStart="11110/1" mediaDuration="519/1" trackNumber="1" src="15" channelNumber="0,1" >
                   <Parameters>
                    <InterpolatingParam id="6332" interp="linr"  time="0/1" value="1" leadInLength="0/1"  name="volume"/>
                    <Parameter id="6333"  name="captions"/>
                   </Parameters>
                   <Attributes>
                    <Attribute id="6334" value="" name="ident"/>
                    <Attribute id="6335" value="44100" name="sampleRate"/>
                    <Attribute id="6336" value="16" name="bitDepth"/>
                    <Attribute id="6337" value="1" name="gain"/>
                    <Attribute id="6338" value="0" name="mixToMono"/>
                   </Attributes>
                  </AMFile>
                  <ScreenVMFile id="6339" start="8693" duration="519" scalar="1/1" mediaStart="11110/1" mediaDuration="519/1" trackNumber="0" src="15" >
                   <Transformer>
                    <VectorParam id="6340"  name="translation">
                     <InterpolatingParam id="6341" interp="linr"  time="-9999999/1" value="0" leadInLength="0/1"  />
                     <InterpolatingParam id="6342" interp="linr"  time="-9999999/1" value="0" leadInLength="0/1"  />
                     <InterpolatingParam id="6343" interp="linr"  time="-9999999/1" value="0" leadInLength="0/1"  />
                    </VectorParam>
                    <VectorParam id="6344"  name="rotation">
                     <InterpolatingParam id="6345" interp="linr"  time="-9999999/1" value="0" leadInLength="0/1"  />
                     <InterpolatingParam id="6346" interp="linr"  time="-9999999/1" value="0" leadInLength="0/1"  />
                     <InterpolatingParam id="6347" interp="linr"  time="-9999999/1" value="0" leadInLength="0/1"  />
                    </VectorParam>
                    <VectorParam id="6348"  name="shear">
                     <InterpolatingParam id="6349" interp="linr"  time="-9999999/1" value="0" leadInLength="0/1"  />
                     <InterpolatingParam id="6350" interp="linr"  time="-9999999/1" value="0" leadInLength="0/1"  />
                     <InterpolatingParam id="6351" interp="linr"  time="-9999999/1" value="0" leadInLength="0/1"  />
                    </VectorParam>
                    <VectorParam id="6352"  name="scale">
                     <InterpolatingParam id="6353" interp="linr"  time="-9999999/1" value="1" leadInLength="0/1"  />
                     <InterpolatingParam id="6354" interp="linr"  time="-9999999/1" value="1" leadInLength="0/1"  />
                     <InterpolatingParam id="6355" interp="linr"  time="-9999999/1" value="1" leadInLength="0/1"  />
                    </VectorParam>
                    <VectorParam id="6356"  name="anchor">
                     <InterpolatingParam id="6357" interp="linr"  time="0/1" value="0" leadInLength="0/1"  />
                     <InterpolatingParam id="6358" interp="linr"  time="0/1" value="0" leadInLength="0/1"  />
                     <InterpolatingParam id="6359" interp="linr"  time="0/1" value="0" leadInLength="0/1"  />
                    </VectorParam>
                   </Transformer>
                   <Parameters>
                    <VectorParam id="6360"  name="sourceCrop">
                     <InterpolatingParam id="6361" interp="linr"  time="0/1" value="0" leadInLength="0/1"  />
                     <InterpolatingParam id="6362" interp="linr"  time="0/1" value="0" leadInLength="0/1"  />
                     <InterpolatingParam id="6363" interp="linr"  time="0/1" value="0" leadInLength="0/1"  />
                     <InterpolatingParam id="6364" interp="linr"  time="0/1" value="0" leadInLength="0/1"  />
                    </VectorParam>
                    <VectorParam id="6365"  name="geometryCrop">
                     <InterpolatingParam id="6366" interp="linr"  time="-9999999/1" value="0" leadInLength="0/1"  />
                     <InterpolatingParam id="6367" interp="linr"  time="-9999999/1" value="0" leadInLength="0/1"  />
                     <InterpolatingParam id="6368" interp="linr"  time="-9999999/1" value="0" leadInLength="0/1"  />
                     <InterpolatingParam id="6369" interp="linr"  time="-9999999/1" value="0" leadInLength="0/1"  />
                    </VectorParam>
                    <InterpolatingParam id="6370" interp="linr"  time="-9999999/1" value="1" leadInLength="0/1"  name="opacity"/>
                    <InterpolatingParam id="6371" interp="linr"  time="0/1" value="0" leadInLength="0/1"  name="cursorOpacity"/>
                    <InterpolatingParam id="6372" interp="linr"  time="0/1" value="0" leadInLength="0/1"  name="cursorScale"/>
                   </Parameters>
                   <Attributes>
                    <Attribute id="6373" value="" name="ident"/>
                   </Attributes>
                   <ExtraData>
                    <Entry key="ZoomPanBin">
                     <ZoomPanBin id="6374"  >
                      <ZoomPanKeyframes>
                       <ZoomPanKeyframe id="6375" timeRangeEnd="-9999999/1" timeRangeDuration="0/1" interpolaterName="linr"  />
                      </ZoomPanKeyframes>
                     </ZoomPanBin>
                    </Entry>
                    <Entry key="CursorEffectBin">
                     <CursorEffectBin id="6376"  >
                      <CursorEffectKeyframes>
                      </CursorEffectKeyframes>
                     </CursorEffectBin>
                    </Entry>
                   </ExtraData>
                  </ScreenVMFile>
                  <MetaData>
                   <entry key="AutoAppliedSmartFocus" val="False"/>
                   <entry key="WinSubProjectDisplayName" val=""/>
                  </MetaData>
                 </UnifiedMedia>
                 <UnifiedMedia id="6377"  >
                  <AMFile id="6378" start="9212" duration="258" scalar="1/1" mediaStart="11818/1" mediaDuration="258/1" trackNumber="1" src="15" channelNumber="0,1" >
                   <Parameters>
                    <InterpolatingParam id="6379" interp="linr"  time="0/1" value="1" leadInLength="0/1"  name="volume"/>
                    <Parameter id="6380"  name="captions"/>
                   </Parameters>
                   <Attributes>
                    <Attribute id="6381" value="" name="ident"/>
                    <Attribute id="6382" value="44100" name="sampleRate"/>
                    <Attribute id="6383" value="16" name="bitDepth"/>
                    <Attribute id="6384" value="1" name="gain"/>
                    <Attribute id="6385" value="0" name="mixToMono"/>
                   </Attributes>
                  </AMFile>
                  <ScreenVMFile id="6386" start="9212" duration="258" scalar="1/1" mediaStart="11818/1" mediaDuration="258/1" trackNumber="0" src="15" >
                   <Transformer>
                    <VectorParam id="6387"  name="translation">
                     <InterpolatingParam id="6388" interp="linr"  time="-9999999/1" value="0" leadInLength="0/1"  />
                     <InterpolatingParam id="6389" interp="linr"  time="-9999999/1" value="0" leadInLength="0/1"  />
                     <InterpolatingParam id="6390" interp="linr"  time="-9999999/1" value="0" leadInLength="0/1"  />
                    </VectorParam>
                    <VectorParam id="6391"  name="rotation">
                     <InterpolatingParam id="6392" interp="linr"  time="-9999999/1" value="0" leadInLength="0/1"  />
                     <InterpolatingParam id="6393" interp="linr"  time="-9999999/1" value="0" leadInLength="0/1"  />
                     <InterpolatingParam id="6394" interp="linr"  time="-9999999/1" value="0" leadInLength="0/1"  />
                    </VectorParam>
                    <VectorParam id="6395"  name="shear">
                     <InterpolatingParam id="6396" interp="linr"  time="-9999999/1" value="0" leadInLength="0/1"  />
                     <InterpolatingParam id="6397" interp="linr"  time="-9999999/1" value="0" leadInLength="0/1"  />
                     <InterpolatingParam id="6398" interp="linr"  time="-9999999/1" value="0" leadInLength="0/1"  />
                    </VectorParam>
                    <VectorParam id="6399"  name="scale">
                     <InterpolatingParam id="6400" interp="linr"  time="-9999999/1" value="1" leadInLength="0/1"  />
                     <InterpolatingParam id="6401" interp="linr"  time="-9999999/1" value="1" leadInLength="0/1"  />
                     <InterpolatingParam id="6402" interp="linr"  time="-9999999/1" value="1" leadInLength="0/1"  />
                    </VectorParam>
                    <VectorParam id="6403"  name="anchor">
                     <InterpolatingParam id="6404" interp="linr"  time="0/1" value="0" leadInLength="0/1"  />
                     <InterpolatingParam id="6405" interp="linr"  time="0/1" value="0" leadInLength="0/1"  />
                     <InterpolatingParam id="6406" interp="linr"  time="0/1" value="0" leadInLength="0/1"  />
                    </VectorParam>
                   </Transformer>
                   <Parameters>
                    <VectorParam id="6407"  name="sourceCrop">
                     <InterpolatingParam id="6408" interp="linr"  time="0/1" value="0" leadInLength="0/1"  />
                     <InterpolatingParam id="6409" interp="linr"  time="0/1" value="0" leadInLength="0/1"  />
                     <InterpolatingParam id="6410" interp="linr"  time="0/1" value="0" leadInLength="0/1"  />
                     <InterpolatingParam id="6411" interp="linr"  time="0/1" value="0" leadInLength="0/1"  />
                    </VectorParam>
                    <VectorParam id="6412"  name="geometryCrop">
                     <InterpolatingParam id="6413" interp="linr"  time="-9999999/1" value="0" leadInLength="0/1"  />
                     <InterpolatingParam id="6414" interp="linr"  time="-9999999/1" value="0" leadInLength="0/1"  />
                     <InterpolatingParam id="6415" interp="linr"  time="-9999999/1" value="0" leadInLength="0/1"  />
                     <InterpolatingParam id="6416" interp="linr"  time="-9999999/1" value="0" leadInLength="0/1"  />
                    </VectorParam>
                    <InterpolatingParam id="6417" interp="linr"  time="-9999999/1" value="1" leadInLength="0/1"  name="opacity"/>
                    <InterpolatingParam id="6418" interp="linr"  time="0/1" value="0" leadInLength="0/1"  name="cursorOpacity"/>
                    <InterpolatingParam id="6419" interp="linr"  time="0/1" value="0" leadInLength="0/1"  name="cursorScale"/>
                   </Parameters>
                   <Attributes>
                    <Attribute id="6420" value="" name="ident"/>
                   </Attributes>
                   <ExtraData>
                    <Entry key="ZoomPanBin">
                     <ZoomPanBin id="6421"  >
                      <ZoomPanKeyframes>
                       <ZoomPanKeyframe id="6422" timeRangeEnd="-9999999/1" timeRangeDuration="0/1" interpolaterName="linr"  />
                      </ZoomPanKeyframes>
                     </ZoomPanBin>
                    </Entry>
                    <Entry key="CursorEffectBin">
                     <CursorEffectBin id="6423"  >
                      <CursorEffectKeyframes>
                      </CursorEffectKeyframes>
                     </CursorEffectBin>
                    </Entry>
                   </ExtraData>
                  </ScreenVMFile>
                  <MetaData>
                   <entry key="AutoAppliedSmartFocus" val="False"/>
                   <entry key="WinSubProjectDisplayName" val=""/>
                  </MetaData>
                 </UnifiedMedia>
                </Medias>
               </GenericTrack>
              </StitchedMedia>
             </Medias>
            </GenericTrack>
           </Tracks>
          </GenericMixer>
          <MetaData>
           <entry key="IsGroupExpanded" val="False"/>
           <entry key="WinGroupOrigin" val="Asset"/>
           <entry key="WinSubProjectDisplayName" val="c"/>
          </MetaData>
          <ExtraData>
           <Entry key="ZoomPanBin">
            <ZoomPanBin id="6424"  >
             <ZoomPanKeyframes>
              <ZoomPanKeyframe id="6425" timeRangeEnd="-9999999/1" timeRangeDuration="0/1" interpolaterName="linr"  />
             </ZoomPanKeyframes>
            </ZoomPanBin>
           </Entry>
          </ExtraData>
         </Group>
        </Medias>
       </GenericTrack>
       <GenericTrack id="6426"  >
        <Attributes>
         <Attribute id="6427" value="" name="ident"/>
         <Attribute id="6428" value="0" name="audioMuted"/>
         <Attribute id="6429" value="0" name="videoHidden"/>
        </Attributes>
        <MetaData>
         <entry key="IsLocked" val="False"/>
         <entry key="WinTrackHeight" val="62"/>
        </MetaData>
        <Medias>
        </Medias>
       </GenericTrack>
      </Tracks>
     </GenericMixer>
    <CaptionAttributes id="6430"  >
     <Attribute id="6431" value="1" name="captionsEnabled"/>
     <Attribute id="6432" value="Arial" name="captionsFontName"/>
     <Attribute id="6433" value="20" name="captionsFontSize"/>
     <Attribute id="6434" value="(0,0,0,255)" name="captionsBackgroundColor"/>
     <Attribute id="6435" value="(255,255,255,255)" name="captionsForegroundColor"/>
     <Attribute id="6436" value="en" name="lang"/>
     <Attribute id="6437" value="0" name="captionsAlignment"/>
     <Attribute id="6438" value="1" name="captionsDefaultFontSize"/>
     <Attribute id="6439" value="0.5" name="captionsOpacity"/>
     <Attribute id="6440" value="1" name="captionsBackgroundEnabled"/>
     <Attribute id="6441" value="1" name="captionsBackgroundOnlyAroundText"/>
    </CaptionAttributes>
    <Parameters>
     <VectorParam id="6442"  name="eyePosition">
      <InterpolatingParam id="6443" interp="linr"  time="0/1" value="0" leadInLength="0/1"  />
      <InterpolatingParam id="6444" interp="linr"  time="0/1" value="0" leadInLength="0/1"  />
      <InterpolatingParam id="6445" interp="linr"  time="0/1" value="3000" leadInLength="0/1"  />
     </VectorParam>
     <VectorParam id="6446"  name="eyeLookAtPosition">
      <InterpolatingParam id="6447" interp="linr"  time="0/1" value="0" leadInLength="0/1"  />
      <InterpolatingParam id="6448" interp="linr"  time="0/1" value="0" leadInLength="0/1"  />
      <InterpolatingParam id="6449" interp="linr"  time="0/1" value="0" leadInLength="0/1"  />
     </VectorParam>
     <VectorParam id="6450"  name="eyeUpVector">
      <InterpolatingParam id="6451" interp="linr"  time="0/1" value="0" leadInLength="0/1"  />
      <InterpolatingParam id="6452" interp="linr"  time="0/1" value="1" leadInLength="0/1"  />
      <InterpolatingParam id="6453" interp="linr"  time="0/1" value="0" leadInLength="0/1"  />
     </VectorParam>
     <InterpolatingParam id="6454" interp="linr"  time="0/1" value="0.23885785" leadInLength="0/1"  name="fov"/>
     <InterpolatingParam id="6455" interp="linr"  time="0/1" value="1.5" leadInLength="0/1"  name="nearClipDistance"/>
     <InterpolatingParam id="6456" interp="linr"  time="0/1" value="6000" leadInLength="0/1"  name="farClipDistance"/>
    </Parameters>
   </Timeline>
  </Project>
 </GoProject>
</CSMLData>

</Project_Data>
